<svg width="18" height="18" viewBox="0 0 18 18" fill="none" xmlns="http://www.w3.org/2000/svg">
<path d="M10.0687 0.579877C10.0687 0.579877 9.0134 1.3672 8.63097 1.65398C8.57144 1.69917 8.51372 1.74783 8.46501 1.80693C8.40548 1.87992 8.36219 1.96856 8.35317 2.06242C8.33874 2.20841 8.41991 2.33355 8.49568 2.45174C8.53897 2.51952 8.58587 2.58557 8.63278 2.65161L11.5912 6.89066C0.956146 7.22089 0.966968 7.31648 0.966968 7.31648C0.907439 7.32691 0.84791 7.34603 0.795597 7.37384C0.597167 7.47986 0.577324 7.70059 0.573716 7.89698C0.570109 8.00996 0.564697 8.12293 0.564697 8.2359C0.564697 8.45663 0.564697 8.6791 0.566501 8.89983C0.566501 9.12056 0.564697 9.34129 0.564697 9.56375C0.564697 9.66456 0.564697 9.76537 0.564697 9.86617C0.564697 9.97914 0.570109 10.0921 0.571912 10.2051C0.57552 10.4015 0.595363 10.6222 0.793793 10.7282C0.846106 10.756 0.905635 10.7752 0.965164 10.7856C0.965164 10.7856 0.954342 10.8794 11.5894 11.2114L8.63097 15.4505C8.58407 15.5165 8.53717 15.5826 8.49388 15.6503C8.41811 15.7703 8.33874 15.8954 8.35137 16.0397C8.36039 16.1335 8.40368 16.2221 8.46321 16.2951C8.51011 16.3542 8.56964 16.4012 8.62917 16.4481C9.0134 16.7349 10.0687 17.5222 10.0687 17.5222C10.3303 17.7273 10.599 17.7516 10.8119 17.5865C10.9328 17.4926 11.0717 17.3675 11.2484 17.1902C11.6904 16.7436 12.1269 16.2934 12.5599 15.838C12.9928 15.3792 13.4203 14.9169 13.8425 14.4494C14.2628 13.9818 14.6795 13.5073 15.089 13.0294C15.4984 12.5514 15.9025 12.0683 16.3012 11.5781L16.5862 11.234C16.8568 10.9055 17.1364 10.5666 17.3763 10.2259C17.4394 10.1356 17.5026 10.0452 17.5639 9.95307C17.6198 9.86617 17.6739 9.77927 17.7245 9.68889C17.7696 9.60547 17.811 9.5203 17.8453 9.43166C17.876 9.34998 17.9012 9.26481 17.9139 9.17791C17.9283 9.07711 17.9247 8.97804 17.9067 8.87897C17.8886 8.79207 17.8616 8.70691 17.8273 8.62522C17.7912 8.53658 17.7461 8.44968 17.6992 8.36625C17.6469 8.27587 17.591 8.18724 17.5332 8.10033C17.4827 8.0256 17.4304 7.95086 17.3799 7.87613C17.14 7.53547 16.8604 7.19656 16.5898 6.86807L16.3048 6.52394C15.9061 6.03382 15.502 5.55064 15.0926 5.07269C14.6831 4.59473 14.2664 4.12198 13.8461 3.65271C13.4258 3.18518 12.9964 2.72113 12.5635 2.26403C12.1324 1.80867 11.694 1.35852 11.252 0.911842C11.0771 0.736301 10.9382 0.611164 10.8155 0.515571C10.599 0.35046 10.3284 0.37479 10.0687 0.579877Z" fill="#FFC200"/>
</svg>
