<svg width="1190" height="303" viewBox="0 0 1190 303" fill="none" xmlns="http://www.w3.org/2000/svg">
<path d="M2.84996 1.4134C2.92201 -0.336467 2.16557 0.287518 2.02148 0.0297852C2.18358 2.9598 3.04808 1.34558 2.84996 1.4134Z" fill="#21262E"/>
<path d="M4.57907 30.3744L4.25488 29.8589L5.01132 34.1318L4.57907 30.3744Z" fill="#21262E"/>
<path d="M4.56099 57.45C5.83973 54.8862 4.34486 47.6426 4.81314 42.8135L5.1013 42.0132L4.07471 39.8428C4.2368 45.7028 4.9212 53.3263 4.56099 57.45Z" fill="#21262E"/>
<path d="M1.76929 71.8831C2.27256 70.9879 2.20066 75.0031 1.93105 68.519C1.85916 68.8446 1.84118 68.9396 1.80524 69.1295C1.80524 69.7127 1.80524 70.5131 1.76929 71.8831Z" fill="#21262E"/>
<path d="M1.80541 69.1286C1.39117 70.9993 1.76939 66.2818 1.80541 69.1286V69.1286Z" fill="#21262E"/>
<path d="M2.09349 82.3006L1.64323 78.5432C1.35506 79.3299 1.28302 82.6669 1.06689 81.4325C1.31904 85.2849 1.60721 84.4981 2.09349 82.3006Z" fill="#21262E"/>
<path d="M3.02941 85.8684L2.84968 83.915C2.72386 84.2542 2.68791 84.7696 3.02941 85.8684Z" fill="#21262E"/>
<path d="M2.43579 79.7915L2.83202 83.9152C3.04815 83.3726 3.46239 83.3183 2.68794 82.0161C3.06616 82.3552 2.68794 81.5413 2.43579 79.7779V79.7915Z" fill="#21262E"/>
<path d="M2.63379 77.4446C2.92196 75.3421 3.08405 72.6155 3.53431 76.3865C3.35421 69.1972 2.45368 70.2552 2.63379 77.4446Z" fill="#21262E"/>
<path d="M5.8936 58.8337L6.27182 56.0122L5.83957 53.5705C6.0557 54.7913 5.49737 58.9964 5.8936 58.8201V58.8337Z" fill="#21262E"/>
<path d="M1.42725 105.7C1.6974 105.931 2.14766 104.439 2.50787 104.154L2.2017 101.373C2.02159 102.797 1.84149 105.497 1.44526 105.687L1.42725 105.7Z" fill="#21262E"/>
<path d="M2.50781 104.154L2.97514 108.305C3.02906 104.601 2.81337 103.923 2.50781 104.154Z" fill="#21262E"/>
<path d="M4.45298 86.533L3.4624 79.7099L4.47099 87.8488L4.45298 86.533Z" fill="#21262E"/>
<path d="M1.39111 121.558L0.760742 119.197L1.7153 123.389L1.39111 121.558Z" fill="#21262E"/>
<path d="M1.49918 132.07C0.976877 130.334 0.616668 134.458 0.29248 132.613C0.382533 135.475 0.832794 137.903 1.24703 140.101C1.0129 137.768 1.08494 135.285 1.51719 132.057L1.49918 132.07Z" fill="#21262E"/>
<path d="M1.82335 143.79C1.69728 142.624 1.48115 141.417 1.229 140.101C1.35508 141.335 1.51717 142.556 1.82335 143.79Z" fill="#21262E"/>
<path d="M2.83207 115.372C2.66997 115.697 2.23772 116.308 2.05762 118.641L2.83207 117.013C2.83207 116.511 2.83207 115.955 2.83207 115.372Z" fill="#21262E"/>
<path d="M2.84944 116.959V117.013C2.79573 118.79 2.79573 120.011 2.77783 120.54C2.77783 120.092 2.81364 119.007 2.84944 116.959Z" fill="#21262E"/>
<path d="M2.84985 114.965C2.84985 115.114 2.84985 115.223 2.84985 115.372C2.92146 115.209 2.95727 115.114 2.84985 114.965Z" fill="#21262E"/>
<path d="M3.76855 97.412C4.20081 99.8537 4.66908 104.94 5.31745 100.016C4.79515 98.2666 4.41693 101.088 3.76855 97.412Z" fill="#21262E"/>
<path d="M3.80447 112.944L3.98458 108.535C3.78646 108.617 3.48029 109.417 3.26416 108.21L3.80447 112.944Z" fill="#21262E"/>
<path d="M4.05595 115.101L3.80432 112.944L3.73242 114.572L4.05595 115.101Z" fill="#21262E"/>
<path d="M2.54379 136.248C2.88598 138.148 2.904 140.237 2.95803 142.597C3.10211 140.074 3.19216 137.469 3.19216 134.987C2.95803 134.634 2.50777 133.549 2.54379 136.248Z" fill="#21262E"/>
<path d="M2.76001 126.875C2.76001 127.011 2.79581 127.173 2.79581 127.295C2.86742 127.038 2.88532 126.821 2.76001 126.875Z" fill="#21262E"/>
<path d="M2.95801 165.752C3.01171 165.63 3.04752 165.508 3.10122 165.386C3.06542 165.358 3.01171 165.331 2.97591 165.304V165.765L2.95801 165.752Z" fill="#21262E"/>
<path d="M3.33577 134.553C3.47956 132.654 3.29982 131.528 3.06616 130.443C3.13806 131.867 3.19198 133.359 3.19198 134.973C3.29982 135.136 3.37172 135.163 3.33577 134.553Z" fill="#21262E"/>
<path d="M2.18346 150.261C2.34522 149.271 2.48902 148.158 2.59686 146.978C2.34522 147.941 1.96777 149.908 2.18346 150.261Z" fill="#21262E"/>
<path d="M2.59697 127.933C2.59697 127.838 2.57907 127.757 2.56117 127.648C2.40005 128.272 2.47166 128.19 2.59697 127.933Z" fill="#21262E"/>
<path d="M2.5979 127.933C2.70574 128.91 2.90346 129.669 3.06522 130.442C3.0113 129.289 2.92143 128.218 2.81359 127.295C2.75967 127.526 2.6698 127.77 2.5979 127.933Z" fill="#21262E"/>
<path d="M7.91084 172.779C7.19042 172.439 6.54205 167.461 7.29848 163.161C6.75817 158.929 4.41681 161.696 3.10205 165.386C3.40823 165.521 3.6964 165.521 4.12865 169.876C4.52488 168.356 5.04718 160.204 5.67754 163.88C6.03775 169.645 5.4254 168.614 5.04718 171.422C5.92969 169.035 6.34393 178.761 7.64068 177.513L7.17241 172.453C7.37053 172.358 7.69471 174.189 7.89283 172.792L7.91084 172.779Z" fill="#21262E"/>
<path d="M3.17419 157.084L3.08414 155.294C2.95806 157.342 2.6699 158.807 2.11157 161.493C2.45377 164.477 2.72393 165.101 2.95806 165.304L3.06613 156.474L3.17419 157.084Z" fill="#21262E"/>
<path d="M3.08399 147.236C3.85844 148.633 4.18263 152.947 5.02912 150.301C4.97509 145.038 4.38075 146.612 4.03855 143.465C4.23666 151.956 3.6063 141.023 3.17405 147.154C3.04797 145.486 2.99394 143.98 2.97593 142.57C2.88588 144.102 2.75981 145.567 2.61572 146.965C2.63373 146.883 2.65174 146.829 2.66975 146.775V146.734C2.75981 146.368 2.83185 146.246 2.77782 146.666C2.77782 146.693 2.77782 146.802 2.77782 146.842C2.88588 146.897 2.97593 147.059 3.06598 147.222C2.90389 149.678 2.86787 147.616 2.77782 146.842C2.7418 146.815 2.70578 146.748 2.66975 146.734V146.761L3.08399 155.266C3.19206 153.462 3.17405 151.21 3.08399 147.222V147.236Z" fill="#21262E"/>
<path d="M6.97429 104.547C6.90225 104.805 6.84822 104.805 6.79419 104.818C6.88424 105.374 6.95628 105.578 6.97429 104.547Z" fill="#21262E"/>
<path d="M6.50614 108.047C6.39808 107.423 6.0919 106.908 6.16394 104.9C6.39808 103.15 6.54216 104.9 6.79431 104.819C6.59619 103.611 6.23599 100.573 5.85777 104.385L5.96583 104.981C5.69567 108.4 4.72311 112.808 4.63306 112.212C5.33546 111.208 5.82175 110.326 6.50614 108.047Z" fill="#21262E"/>
<path d="M4.99316 127.892L5.37138 134.973L6.03777 131.365L5.64154 131.541C5.80363 127.513 5.29934 128.381 4.99316 127.879V127.892Z" fill="#21262E"/>
<path d="M2.5797 166.566L1.75122 165.63L2.9219 169.713L2.5797 166.566Z" fill="#21262E"/>
<path d="M2.66994 175.763L1.96753 175.424L2.39978 177.852L2.66994 175.763Z" fill="#21262E"/>
<path d="M535.059 294.402L537.814 294.252C536.5 294.293 535.671 294.347 535.059 294.402Z" fill="#21262E"/>
<path d="M515.067 294.374L514.581 294.632C515.499 294.483 515.895 294.374 515.067 294.374Z" fill="#21262E"/>
<path d="M145.583 301.007C149.599 301.509 154.102 302.282 153.615 301.685L152.373 301.102C149.563 301.211 147.402 301.143 145.565 301.021L145.583 301.007Z" fill="#21262E"/>
<path d="M351.136 297.494C350.758 297.44 350.362 297.372 349.965 297.318C348.993 297.521 348.074 297.711 347.246 297.874C348.416 297.752 349.749 297.63 351.136 297.494Z" fill="#21262E"/>
<path d="M353.964 295.052L359.277 295.432C358.088 295.296 356.377 295.174 353.964 295.052Z" fill="#21262E"/>
<path d="M644.328 293.777L647.552 293.18C642.509 293.18 644.724 293.492 644.328 293.777Z" fill="#21262E"/>
<path d="M2.95802 270.039C2.65184 272.657 2.52577 274.732 2.48975 276.564C2.94001 273.417 3.60639 270.866 2.95802 270.039Z" fill="#21262E"/>
<path d="M527.188 300.654C528.881 300.546 529.601 300.424 529.547 300.302C527.8 300.397 526.828 300.519 527.188 300.654Z" fill="#21262E"/>
<path d="M2.4898 284.119C2.54383 283.658 2.61587 283.21 2.6699 282.736C2.54383 280.823 2.43577 278.897 2.4898 276.564C2.1476 278.897 1.94948 281.555 2.4898 284.119Z" fill="#21262E"/>
<path d="M1040.58 294.266C1040.86 294.293 1041.21 294.32 1041.48 294.334C1041.57 294.252 1041.17 294.252 1040.58 294.266Z" fill="#21262E"/>
<path d="M1156 300.207C1154.87 300.248 1153.02 300.248 1151.27 300.248C1152.11 300.289 1153.56 300.289 1156 300.207Z" fill="#21262E"/>
<path d="M2.32723 212.794C2.23772 212.482 2.27352 210.842 2.32723 212.794V212.794Z" fill="#21262E"/>
<path d="M5.42554 203.313C5.51541 203.733 5.62325 204.045 5.80299 204.086C5.62325 203.923 5.49743 203.652 5.42554 203.313Z" fill="#21262E"/>
<path d="M15.1152 297.535C15.1152 297.535 15.2593 297.535 15.3313 297.535C14.5569 297.426 14.701 297.44 15.1152 297.535Z" fill="#21262E"/>
<path d="M2.68799 209.865C2.59794 210.597 2.50789 211.438 2.45386 212.361C2.50789 211.954 2.59794 211.194 2.68799 209.865Z" fill="#21262E"/>
<path d="M2.32729 210.258C2.36309 209.58 2.381 209.051 2.3989 208.549C2.27358 208.305 2.18407 208.522 2.32729 210.258Z" fill="#21262E"/>
<path d="M2.38134 215.522C2.38134 214.409 2.39925 213.365 2.45295 212.361C2.39925 212.741 2.36344 212.904 2.32764 212.795C2.32764 213.365 2.34554 214.179 2.36344 215.508L2.38134 215.522Z" fill="#21262E"/>
<path d="M828.251 295.839C828.431 295.853 828.611 295.88 828.809 295.894C831.421 295.649 830.268 295.69 828.251 295.839Z" fill="#21262E"/>
<path d="M213.031 294.89C212.905 294.89 212.851 294.903 212.744 294.917C212.869 294.917 213.013 294.931 213.121 294.944L213.031 294.89Z" fill="#21262E"/>
<path d="M222.343 294.456C218.381 295.188 216.13 295.093 213.122 294.944L216.202 296.64L222.343 294.456Z" fill="#21262E"/>
<path d="M582.966 294.239L576.429 293.71C584.317 292.841 590.027 293.14 583.885 292.394C582.966 294.239 558.472 292.584 557.572 294.428L553.267 294.035C554.51 294.049 554.69 293.94 555.915 293.967C547.54 293.086 549.683 295.297 538.895 295.039C535.131 294.903 532.501 294.632 535.077 294.415L526.684 294.876C524.252 294.835 524.847 294.523 527.278 294.551L514.491 294.7L514.581 294.646C512.762 294.93 508.619 295.378 506.602 295.568C503.36 295.31 508.223 295.378 507.395 295.147L500.317 295.595C497.435 295.12 503.306 294.659 508.187 294.727C501.577 292.882 502.316 295.188 488.033 294.116L494.715 293.886C490.411 292.841 485.188 293.221 477.623 292.57C479.424 292.909 492.752 294.211 485.08 294.673C482.918 294.537 480.055 294.469 475.912 294.835C475.876 294.184 471.824 294.347 466.763 294.374L467.105 293.506C461.63 293.75 462.062 294.198 458.839 294.591C452.733 294.51 451.472 293.832 450.031 293.262C440.252 293.126 456.785 294.334 445.205 294.51C437.082 294.184 431.373 294.537 421.647 295.052C415.956 294.754 422.637 294.523 420.602 294.279L415.559 294.971C414.317 294.957 414.731 294.74 414.929 294.632C410.679 294.903 414.587 295.5 407.905 295.731C406.104 296.68 394.181 294.334 385.914 295.419C383.879 295.175 386.905 294.89 386.274 294.551C374.928 295.256 376.549 295.066 367.237 296.029L359.295 295.459C365.13 296.111 357.674 296.884 351.154 297.521C353.225 297.833 354.99 298.118 356.179 298.24L345.769 298.701C344.508 298.566 345.553 298.267 347.264 297.901C346.561 297.982 345.877 298.05 345.355 298.105C341.626 297.779 343.554 297.277 346.237 296.802C347.498 296.979 348.759 297.169 349.983 297.331C352.559 296.802 354.954 296.219 354.432 295.717C353.748 295.812 352.451 295.907 351.01 295.948C351.676 295.799 352.109 295.676 351.802 295.595C351.442 295.5 350.362 295.69 348.651 295.921L346.291 294.958L345.715 295.337L332.081 294.727C322.337 295.704 313.854 297.128 298.383 297.535C302.22 296.829 299.212 296.382 299.41 295.541C303.624 296.436 311.387 295.161 319.42 295.337C315.241 295.242 316.16 294.849 317.222 294.7L302.922 295.514C303.246 294.822 299.878 294.998 296.15 294.713C298.978 296.07 285.488 295.622 279.671 296.029C279.31 295.568 280.697 295.107 287.811 295.215C279.977 294.198 277.689 296.816 269.999 295.948C271.728 295.948 272.664 296.002 273.349 295.771C269.297 296.178 259.391 295.853 261.732 295.459H263.461C251.952 295.283 228.431 295.446 226.702 296.599C226.594 296.45 228.215 295.202 228.899 294.971L208.367 298.851C210.168 297.86 203.234 295.5 212.78 294.944C210.042 294.808 206.656 294.632 200.875 294.985C202.748 295.12 205.54 296.423 202.982 296.504C195.976 295.405 198.119 295.921 189.474 294.971C192.284 295.188 189.168 296.735 184.738 296.694C185.422 296.463 184.359 295.161 185.98 294.998L174.958 296.517C177.713 296.246 175.444 295.229 172.977 294.795C174.129 295.093 163.449 294.768 160.513 294.917L165.178 295.269C152.733 295.039 152.877 297.413 140.54 297.331C142.035 297.019 144.232 295.392 137.946 295.202C135.065 295.988 125.213 298.959 114.281 299.556L112.191 299.108L103.817 299.624C109.04 298.444 123.682 295.975 131.679 295.012C127.014 294.659 130.382 294.483 123.412 294.523C120.944 294.103 127.212 293.886 129.265 293.859L113.02 293.587C113.74 294.496 100.611 294.496 101.223 295.256L118.855 294.306C119.576 295.215 108.661 296.897 97.1527 296.734C94.235 296.368 99.35 295.107 99.0978 294.808C97.603 295.12 88.1835 295.405 87.1209 295.188L92.0017 294.7C85.59 294.361 81.5556 295.907 73.8472 295.039C71.1996 294.985 65.9226 293.859 65.4543 294.401C69.7948 295.446 70.6413 298.661 67.7416 299.447C66.8051 299.38 53.7835 298.457 50.7578 297.942C46.3812 297.128 57.3316 296.002 53.6034 295.297C53.4413 295.541 51.0279 295.853 50.0193 295.948C47.2277 295.731 51.172 295.175 45.1025 295.283C44.0939 296.205 32.7653 295.202 42.2388 296.07C36.3134 296.328 35.9352 295.88 28.9651 295.921C31.1804 296.517 22.7155 297.955 16.7721 298.213C17.1143 297.982 15.7815 297.67 15.1511 297.535C12.2514 297.521 9.766 297.481 7.5327 297.426C7.73082 291.878 8.055 287.443 8.07302 280.945C8.37919 280.158 8.72139 276.035 9.2617 277.798C9.04558 276.564 8.63134 275.438 8.59532 272.806C9.65793 267.706 8.75741 278.68 10.0362 274.787C9.31574 274.461 9.04558 267.977 8.61333 264.219C7.51469 265.372 8.3972 272.887 8.84746 276.645C7.33459 276.658 5.73166 270.12 5.02925 261.195C4.65103 254.1 6.01982 258.115 5.8037 256.894C6.07385 243.574 3.15616 245.541 4.2548 234.485C5.22736 230.09 6.18192 234.282 6.88433 233.319C7.24453 239.097 6.27197 242.19 6.30799 246.11L6.75825 241.295C7.08244 243.126 7.31658 246.992 7.04642 249.095C7.91092 245.419 7.20851 226.59 8.01898 216.308C7.6948 214.477 7.3526 211.33 6.97438 212.822L7.11846 216.078C6.34401 219.062 6.03783 209.96 5.67763 214.07C5.13731 209.702 4.27281 204.819 4.70506 198.674L5.8037 197.521C5.47951 197.657 5.13731 201.536 5.47951 203.259C4.99323 200.695 6.97438 193.845 5.53354 191.037L4.7771 195.337C4.21878 190.956 3.0481 185.543 3.3903 180.104C2.29166 182.586 3.51637 181.352 2.23763 185.231C3.82255 181.881 2.16559 199.149 3.84056 193.763C2.3637 197.738 3.21019 200.627 1.94946 205.823C2.30967 205.66 2.65187 203.991 2.47177 208.549C2.57983 208.753 2.7059 209.241 2.79595 209.553C2.79595 209.689 2.79595 209.743 2.75993 209.865C2.75993 209.77 2.79595 209.702 2.79595 209.607C2.84999 209.811 2.868 209.824 2.79595 209.512C2.95805 208.427 3.13815 207.545 3.35428 207.179C4.18276 209.444 4.16475 216.715 4.597 219.171C4.41689 221.883 4.18276 218.031 3.78653 219.523L4.4349 223.199C3.62443 223.566 3.08412 230.402 2.61585 224.013L2.57983 229.765C2.12957 233.142 1.94946 237.809 2.29166 240.671C2.11156 243.384 3.19218 247.521 2.56182 245.161L3.06611 254.181L2.868 254.263C2.75993 263.161 4.20077 272.575 2.74192 282.749C2.84999 284.241 2.95805 285.774 3.01208 287.538C3.0481 288.419 3.06611 289.369 3.0481 290.413C3.01208 291.729 2.99407 293.153 2.95805 294.74L2.25564 296.572C2.30967 297.928 2.30967 299.57 2.27365 301.414C6.50611 301.469 11.3509 301.55 15.4933 301.604C18.0688 301.645 20.194 301.631 21.0766 301.414C26.5878 302.839 45.8589 301.726 54.8281 301.971L55.1703 301.279C61.3479 301.319 67.2734 301.116 74.9458 300.845L74.4775 300.234C81.0874 299.732 91.4794 300.668 101.943 300.601C101.223 300.831 98.5755 300.777 96.7024 300.628C109.202 301.998 123.07 299.624 134.398 300.628C137.226 300.411 139.261 300.478 141.242 300.628C140.972 300.628 140.738 300.628 140.54 300.655C140.828 300.655 141.26 300.655 141.693 300.655C142.935 300.763 144.232 300.858 145.619 300.98C144.43 300.831 143.295 300.709 142.323 300.655C144.502 300.655 147.798 300.56 151.04 300.411L152.427 301.062C152.697 301.062 152.895 301.062 153.183 301.048C156.353 301.292 155.741 300.736 154.048 300.248C155.687 300.139 157.182 300.017 158.334 299.854C160.91 300.912 166.835 299.502 170.347 300.628C172.526 300.085 186.629 300.221 188.358 299.068C188.466 299.217 189.42 299.285 187.673 299.298C191.275 299.434 194.895 299.556 198.137 299.23L199.668 300.058L207.557 298.946C212.348 299.447 214.329 299.746 209.574 300.383C221.065 299.407 218.885 300.017 228.647 299.041L228.179 299.583C231.673 299.556 237.256 298.837 239.363 299.285C247.162 300.302 277.996 299.42 298.041 300.37C294.151 298.783 307.353 301.075 308.145 299.854C309.316 300.234 312.107 300.438 308.866 300.763C319.095 300.397 324.228 301.36 331.289 300.329C332.459 300.709 329.091 300.872 330.136 301.102C330.964 301.021 333.378 300.777 334.458 300.994C335.503 301.211 332.963 301.306 331.343 301.469C341.789 301.401 342.851 300.248 343.608 299.176C348.903 299.692 351.55 299.61 355.368 298.905C357.206 299.258 360.285 299.624 353.802 299.759C357.458 299.814 376.117 300.275 376.495 299.407C377.647 299.624 381.592 299.475 382.564 299.366C390.759 299.42 391.479 299.502 399.53 299.42L397.297 299.285C400.467 298.24 403.979 299.054 410.48 298.932L410.3 299.041C425.177 299.8 416.73 298.674 431.391 299.542L430.598 298.891C431.967 297.494 443.602 299.719 452.121 299.176L449.041 298.81C453.688 298.335 462.044 300.709 466.709 300.885C467.736 301.007 465.106 301.075 463.683 301.17C475.912 301.998 465.268 300.316 474.382 300.126C476.056 300.587 472.22 301.292 478.344 301.374C481.406 301.74 496.138 299.882 504.513 300.763C502.676 300.411 500.839 300.058 505.071 299.787C511.555 299.665 522.613 301.13 528.467 300.004C529.295 300.099 529.602 300.194 529.638 300.275C534.59 299.99 545.757 299.8 548.747 299.19C553.321 301.442 579.58 298.091 579.472 300.166L594.727 300.058L594.331 300.275C604.093 300.411 607.533 299.909 610.955 299.42C613.206 299.556 611.567 299.759 611.369 299.868C625.615 300.288 627.038 300.194 638.979 299.163L640.222 299.841C643.464 299.447 660.826 300.899 674.802 300.112C674.658 300.194 674.37 300.316 673.271 300.411C688.994 299.624 710.913 302.283 716.676 299.827L727.05 299.23C713.632 299.041 729.049 298.172 723.52 297.765C728.797 297.616 737.172 298.498 730.688 298.634L729.68 298.511C727.302 299.787 746.357 298.959 745.997 299.827C772.418 299.759 798.155 300.465 822.902 300.519L820.056 299.529L828.683 299.583C830.952 299.814 831.727 300.356 825.567 300.316C828.809 300.872 835.887 299.841 836.067 299.624C848.116 300.031 831.349 300.777 835.059 300.804L840.084 300.736L838.949 300.614C843.019 300.207 843.38 299.773 850.782 299.827C855.465 300.031 853.177 300.438 855.032 300.478C855.032 300.546 855.645 300.587 857.86 300.506L868.738 300.587L864.398 299.8C869.224 299.42 874.628 299.841 869.603 298.959C876.969 300.329 910.162 299.447 914.683 299.882C921.437 299.312 928.101 299.325 936.349 299.393C934.296 299.23 933.072 298.349 940.186 298.457C937.574 300.275 953.225 299.244 958.971 300.56C953.82 299.692 979.214 300.343 971.146 299.108C977.089 299.258 971.506 299.787 976.008 300.221C990.147 299.515 1007.17 300.682 1024.65 300.438C1024.92 300.194 1022.01 299.841 1025.75 299.475L1034.97 300.668C1038.43 300.546 1038.14 299.285 1044.47 300.126C1043.58 299.922 1042.25 299.624 1044.56 299.542C1078.79 300.709 1114.53 298.593 1149.29 300.777C1144.57 300.316 1147.72 300.275 1151.3 300.248C1148.96 300.139 1151.36 299.665 1150.89 299.339L1165.44 300.234C1168.09 299.339 1181.06 300.18 1182.57 299.312L1177.96 299.461C1184.08 298.444 1169.39 297.209 1170.27 295.907C1163.41 297.06 1152.17 294.198 1140.91 295.853C1138.43 295.581 1143.04 295.432 1141.7 295.134C1138.84 295.69 1135.4 295.812 1129.01 295.554L1129.73 295.419C1111.77 295.554 1104.08 295.012 1083.91 294.646L1085.4 295.283C1081.06 295.202 1080.16 294.998 1078.13 294.835C1073.16 295.812 1090.3 294.89 1085.76 295.961C1080.02 294.659 1055.2 295.948 1051.33 294.456C1044.66 294.456 1053.27 295.202 1046.61 295.188L1044.84 294.781L1043.15 295.297C1038.77 295.215 1036.58 294.713 1036.42 294.374C1037.48 294.415 1039.42 294.279 1040.56 294.252C1034.88 293.777 1024.58 294.415 1022.64 294.252L1029.05 294.496C1010.86 294.876 988.652 294.347 971.074 295.161L972.406 295.459C958.989 296.016 961.654 295.12 946.922 295.392L947.462 295.324C944.508 295.622 940.582 295.771 936.548 295.744C940.276 295.392 929.542 295.052 934.422 294.659C919.87 295.256 927.218 295.134 917.619 296.26L915.403 295.758C912.125 296.219 911.855 296.45 904.489 296.585C910.522 296.151 899.788 295.812 906.56 295.242C891.125 294.144 883.633 296.355 876.537 294.74C869.441 296.138 889.9 295.514 885.938 295.812C889.27 296.273 880.085 296.857 875.24 296.707C870.305 296.68 866.847 294.93 854.438 294.958C855.681 294.958 855.753 294.863 856.995 294.863C852.349 294.51 847.9 295.337 842.191 294.768C839.003 295.609 834.789 294.713 833.87 295.799L845.253 295.554C838.805 295.839 832.753 297.087 822.109 296.477C822.938 296.26 826.107 295.975 828.269 295.812C825.153 295.5 822.289 296.016 819.065 295.704C819.984 294.632 832.897 295.473 839.813 294.646C836.482 294.198 826.738 295.419 830.214 294.266C825.225 295.744 817.985 294.076 809.574 295.215L810.132 294.578C808.799 294.673 806.044 294.985 803.594 294.971L808.025 294.13C801.217 294.835 794.913 293.506 788.376 293.899C802.046 293.886 791.437 294.673 797.219 295.147C780.361 296.016 787.529 293.465 768.654 293.777C771.212 293.682 778.254 294.171 774.255 294.456C770.671 294.32 765.917 294.076 763.719 293.737C751.22 293.872 765.646 294.401 760.315 294.795C756.065 294.008 754.174 295.12 748.699 295.364L748.663 294.713C734.416 294.293 744.88 296.083 732.057 295.568L737.478 294.659L730.796 294.89L732.183 294.144C724.907 294.7 722.637 294.551 715.523 294.347C717.18 294.808 714.587 295.541 708.283 295.554C703.979 295.161 710.697 294.93 701.745 295.025C703.763 294.618 705.978 294.103 709.868 294.7C710.264 294.483 711.867 294.293 712.263 294.076C707.635 293.628 700.611 293.967 697.369 293.981C698.612 294.008 700.106 294.035 700.863 294.13L687.895 295.039C685.86 294.795 687.481 294.591 689.084 294.401C686.454 294.469 684.635 294.768 680.781 294.835C681.79 294.306 681.538 293.75 687.013 293.506L674.658 294.103C673.829 293.872 668.318 293.465 669.921 293.275C663.077 292.963 653.117 294.306 644.04 293.899C643.572 294.008 642.617 294.103 640.69 294.184C632.153 294.062 624.589 293.411 614.485 294.144L608.739 293.194C600.815 293.411 616.502 294.401 603.318 294.754C593.971 295.052 599.824 293.94 596.564 293.669C591.918 294.144 583.849 295.134 575.276 294.347C578.122 294.171 580.337 294.306 583.003 294.239H582.966ZM485.26 294.659C487.151 294.523 490.933 294.103 492.32 294.483C490.159 295.229 488.502 294.876 485.26 294.659ZM336.746 296.233C338.15 296.016 340.33 296.124 342.779 296.368C340.996 296.423 338.979 296.395 336.746 296.233ZM3.0481 234.2C3.0481 234.2 3.08412 234.309 3.08412 234.35C2.74192 237.524 2.88601 236.398 3.0481 234.2ZM3.42632 227.594C3.30025 226.93 3.19218 226.97 3.06611 227.255C3.28224 227.716 3.30025 229.195 3.24621 230.891C3.48035 230.416 3.62443 229.561 3.44433 227.594H3.42632ZM855.951 300.248L854.24 300.071C858.094 299.882 857.013 300.058 855.951 300.248Z" fill="black"/>
<path d="M353.585 295.337C354.126 295.446 354.27 295.568 354.396 295.69C355.134 295.581 355.152 295.459 353.585 295.337Z" fill="#21262E"/>
<path d="M643.734 293.886H644.04C644.202 293.859 644.292 293.818 644.346 293.777L643.752 293.886H643.734Z" fill="#21262E"/>
<path d="M50.0913 294.957C51.8924 295.052 52.9009 295.174 53.5673 295.296C53.6574 295.134 52.8469 294.998 50.0913 294.957Z" fill="#21262E"/>
<path d="M1.94946 192.597L2.1836 196.829C2.14758 194.781 2.32768 194.048 2.47177 193.017C2.27365 193.112 1.96747 193.913 1.96747 192.597H1.94946Z" fill="#21262E"/>
<path d="M7.31649 155.877C7.20843 155.253 7.31649 154.561 7.19042 153.951L6.79419 154.113C6.8122 156.745 7.1544 158.59 7.31649 155.863V155.877Z" fill="#21262E"/>
<path d="M4.83121 188.677C5.56964 188.338 5.31749 185.692 5.17341 182.722V183.251C4.14682 182.383 4.48901 185.53 4.83121 188.677Z" fill="#21262E"/>
<path d="M5.15527 182.044C5.11925 181.135 5.10124 180.199 5.13726 179.303C4.72302 178.951 5.04721 180.416 5.15527 182.044Z" fill="#21262E"/>
<path d="M2.9401 219.211C3.1202 217.8 2.00356 218.329 2.30973 217.529C1.37319 215.956 3.42638 226.902 2.9401 219.211Z" fill="#21262E"/>
<path d="M7.24446 186.276L6.32593 187.347L7.06436 189.002L7.24446 186.276Z" fill="#21262E"/>
<path d="M6.57778 209.675L6.82942 204.941C6.68562 205.009 6.59575 204.412 6.52386 203.666C6.48791 206.582 6.30817 209.784 6.57778 209.675Z" fill="#21262E"/>
<path d="M6.52334 203.679C6.52334 202.16 6.52334 200.709 6.38013 199.868C6.38013 200.695 6.41593 202.459 6.52334 203.679Z" fill="#21262E"/>
<path d="M7.51409 192.746L7.31637 194.157L7.26245 197.494L7.51409 192.746Z" fill="#21262E"/>
<path d="M6.39795 260.584L6.6501 265.752C6.95627 266.281 7.15439 264.87 7.02831 262.944C6.81219 261.71 6.68612 259.784 6.39795 260.584Z" fill="#21262E"/>
<path d="M8.86555 244.957C8.68545 246.354 8.46932 246.449 8.18115 247.236L9.2978 247.399L8.86555 244.957Z" fill="#21262E"/>
<path d="M9.1355 260.028C9.44168 260.543 10.018 267.529 9.96398 260.977C9.6578 260.448 9.40565 255.28 9.1355 260.028Z" fill="#21262E"/>
<path d="M60.6997 297.264L58.9526 297.277L59.2048 298.66L60.6997 297.264Z" fill="#21262E"/>
<path d="M151.814 293.967C143.692 293.642 149.887 294.821 142.539 294.401C140.63 294.726 148.536 294.74 146.591 295.025C151.508 294.686 154.084 294.876 151.814 293.967Z" fill="#21262E"/>
<path d="M146.591 295.025C145.799 295.08 144.97 295.147 144.088 295.229C145.511 295.147 146.177 295.08 146.591 295.025Z" fill="#21262E"/>
<path d="M1175.17 300.953L1180.39 301.238L1177.02 300.777L1175.17 300.953Z" fill="#21262E"/>
<path d="M1185.2 299.922L1186.42 300.803L1189.56 300.004C1188.37 300.044 1186.08 300.112 1185.18 299.922H1185.2Z" fill="#21262E"/>
<path d="M470.743 292.882L470.347 293.099C471.158 293.329 472.382 293.343 474.832 293.384L470.743 292.896V292.882Z" fill="#21262E"/>
<path d="M541.65 293.547L540.426 293.52L542.713 294.32L541.65 293.547Z" fill="#21262E"/>
<path d="M601.157 292.529C598.726 292.502 595.88 292.679 593.43 292.638C598.725 292.489 601.805 293.519 601.157 292.529Z" fill="#21262E"/>
</svg>
