<svg width="1190" height="303" viewBox="0 0 1190 303" fill="none" xmlns="http://www.w3.org/2000/svg">
<path d="M1187.15 301.14C1187.08 302.89 1187.83 302.266 1187.98 302.524C1187.82 299.594 1186.95 301.208 1187.15 301.14Z" fill="#21262E"/>
<path d="M1185.42 272.179L1185.75 272.695L1184.99 268.422L1185.42 272.179Z" fill="#21262E"/>
<path d="M1185.44 245.104C1184.16 247.668 1185.66 254.911 1185.19 259.74L1184.9 260.541L1185.93 262.711C1185.76 256.851 1185.08 249.228 1185.44 245.104Z" fill="#21262E"/>
<path d="M1188.23 230.671C1187.73 231.566 1187.8 227.551 1188.07 234.035C1188.14 233.709 1188.16 233.614 1188.2 233.424C1188.2 232.841 1188.2 232.041 1188.23 230.671Z" fill="#21262E"/>
<path d="M1188.19 233.425C1188.61 231.555 1188.23 236.272 1188.19 233.425V233.425Z" fill="#21262E"/>
<path d="M1187.91 220.253L1188.36 224.011C1188.65 223.224 1188.72 219.887 1188.93 221.121C1188.68 217.269 1188.39 218.056 1187.91 220.253Z" fill="#21262E"/>
<path d="M1186.97 216.685L1187.15 218.639C1187.28 218.3 1187.31 217.784 1186.97 216.685Z" fill="#21262E"/>
<path d="M1187.56 222.762L1187.17 218.639C1186.95 219.181 1186.54 219.236 1187.31 220.538C1186.93 220.199 1187.31 221.013 1187.56 222.776V222.762Z" fill="#21262E"/>
<path d="M1187.37 225.109C1187.08 227.212 1186.92 229.938 1186.47 226.167C1186.65 233.357 1187.55 232.299 1187.37 225.109Z" fill="#21262E"/>
<path d="M1184.11 243.72L1183.73 246.542L1184.16 248.983C1183.94 247.762 1184.5 243.557 1184.11 243.734V243.72Z" fill="#21262E"/>
<path d="M1188.57 196.853C1188.3 196.623 1187.85 198.115 1187.49 198.4L1187.8 201.181C1187.98 199.756 1188.16 197.057 1188.56 196.867L1188.57 196.853Z" fill="#21262E"/>
<path d="M1187.49 198.4L1187.03 194.249C1186.97 197.952 1187.19 198.631 1187.49 198.4Z" fill="#21262E"/>
<path d="M1185.55 216.021L1186.54 222.844L1185.53 214.705L1185.55 216.021Z" fill="#21262E"/>
<path d="M1188.61 180.996L1189.24 183.357L1188.28 179.165L1188.61 180.996Z" fill="#21262E"/>
<path d="M1188.5 170.484C1189.02 172.22 1189.38 168.096 1189.71 169.941C1189.62 167.079 1189.17 164.651 1188.75 162.453C1188.99 164.786 1188.92 167.269 1188.48 170.497L1188.5 170.484Z" fill="#21262E"/>
<path d="M1188.18 158.763C1188.3 159.93 1188.52 161.137 1188.77 162.453C1188.65 161.219 1188.48 159.998 1188.18 158.763Z" fill="#21262E"/>
<path d="M1187.17 187.182C1187.33 186.856 1187.76 186.246 1187.94 183.913L1187.17 185.541C1187.17 186.042 1187.17 186.599 1187.17 187.182Z" fill="#21262E"/>
<path d="M1187.15 185.595V185.541C1187.2 183.764 1187.2 182.543 1187.22 182.014C1187.22 182.461 1187.19 183.547 1187.15 185.595Z" fill="#21262E"/>
<path d="M1187.15 187.589C1187.15 187.44 1187.15 187.331 1187.15 187.182C1187.08 187.345 1187.04 187.44 1187.15 187.589Z" fill="#21262E"/>
<path d="M1186.23 205.142C1185.8 202.7 1185.33 197.613 1184.68 202.537C1185.21 204.287 1185.58 201.466 1186.23 205.142Z" fill="#21262E"/>
<path d="M1186.2 189.61L1186.02 194.019C1186.21 193.937 1186.52 193.137 1186.74 194.344L1186.2 189.61Z" fill="#21262E"/>
<path d="M1185.94 187.453L1186.2 189.61L1186.27 187.982L1185.94 187.453Z" fill="#21262E"/>
<path d="M1187.46 166.305C1187.11 164.406 1187.1 162.317 1187.04 159.957C1186.9 162.48 1186.81 165.085 1186.81 167.567C1187.04 167.92 1187.49 169.005 1187.46 166.305Z" fill="#21262E"/>
<path d="M1187.24 175.679C1187.24 175.543 1187.2 175.381 1187.2 175.259C1187.13 175.516 1187.12 175.733 1187.24 175.679Z" fill="#21262E"/>
<path d="M1187.04 136.802C1186.99 136.924 1186.95 137.046 1186.9 137.168C1186.93 137.195 1186.99 137.222 1187.02 137.25V136.789L1187.04 136.802Z" fill="#21262E"/>
<path d="M1186.66 168.001C1186.52 169.9 1186.7 171.026 1186.93 172.111C1186.86 170.687 1186.81 169.195 1186.81 167.581C1186.7 167.418 1186.63 167.391 1186.66 168.001Z" fill="#21262E"/>
<path d="M1187.82 152.293C1187.66 153.283 1187.51 154.396 1187.4 155.576C1187.66 154.613 1188.03 152.646 1187.82 152.293Z" fill="#21262E"/>
<path d="M1187.4 174.621C1187.4 174.716 1187.42 174.797 1187.44 174.906C1187.6 174.282 1187.53 174.363 1187.4 174.621Z" fill="#21262E"/>
<path d="M1187.4 174.621C1187.29 173.644 1187.1 172.885 1186.94 172.111C1186.99 173.264 1187.08 174.336 1187.19 175.258C1187.24 175.028 1187.33 174.784 1187.4 174.621Z" fill="#21262E"/>
<path d="M1182.09 129.775C1182.81 130.114 1183.46 135.093 1182.7 139.393C1183.24 143.625 1185.58 140.858 1186.9 137.168C1186.59 137.032 1186.3 137.032 1185.87 132.678C1185.48 134.197 1184.95 142.35 1184.32 138.674C1183.96 132.909 1184.57 133.94 1184.95 131.132C1184.07 133.519 1183.66 123.793 1182.36 125.041L1182.83 130.101C1182.63 130.196 1182.31 128.364 1182.11 129.762L1182.09 129.775Z" fill="#21262E"/>
<path d="M1186.83 145.47L1186.92 147.26C1187.04 145.212 1187.33 143.747 1187.89 141.061C1187.55 138.077 1187.28 137.453 1187.04 137.249L1186.93 146.08L1186.83 145.47Z" fill="#21262E"/>
<path d="M1186.92 155.318C1186.14 153.921 1185.82 149.607 1184.97 152.252C1185.03 157.516 1185.62 155.942 1185.96 159.089C1185.76 150.597 1186.39 161.531 1186.83 155.399C1186.95 157.068 1187.01 158.574 1187.02 159.984C1187.11 158.451 1187.24 156.986 1187.38 155.589C1187.37 155.671 1187.35 155.725 1187.33 155.779V155.82C1187.24 156.186 1187.17 156.308 1187.22 155.888C1187.22 155.861 1187.22 155.752 1187.22 155.711C1187.11 155.657 1187.02 155.494 1186.93 155.332C1187.1 152.876 1187.13 154.938 1187.22 155.711C1187.26 155.739 1187.29 155.806 1187.33 155.82V155.793L1186.92 147.288C1186.81 149.092 1186.83 151.343 1186.92 155.332V155.318Z" fill="#21262E"/>
<path d="M1183.03 198.007C1183.1 197.749 1183.15 197.749 1183.21 197.735C1183.12 197.18 1183.04 196.976 1183.03 198.007Z" fill="#21262E"/>
<path d="M1183.49 194.507C1183.6 195.131 1183.91 195.646 1183.84 197.654C1183.6 199.404 1183.46 197.654 1183.21 197.735C1183.4 198.942 1183.76 201.981 1184.14 198.169L1184.03 197.572C1184.3 194.154 1185.28 189.745 1185.37 190.342C1184.66 191.346 1184.18 192.228 1183.49 194.507Z" fill="#21262E"/>
<path d="M1185.01 174.661L1184.63 167.581L1183.96 171.189L1184.36 171.013C1184.2 175.041 1184.7 174.173 1185.01 174.675V174.661Z" fill="#21262E"/>
<path d="M1187.42 135.988L1188.25 136.924L1187.08 132.841L1187.42 135.988Z" fill="#21262E"/>
<path d="M1187.33 126.791L1188.03 127.13L1187.6 124.702L1187.33 126.791Z" fill="#21262E"/>
<path d="M654.942 8.15179L652.186 8.30188C653.501 8.26095 654.329 8.20637 654.942 8.15179Z" fill="#21262E"/>
<path d="M674.933 8.17957L675.42 7.92202C674.501 8.07113 674.105 8.17957 674.933 8.17957Z" fill="#21262E"/>
<path d="M1044.42 1.54639C1040.4 1.04481 1035.9 0.272123 1036.38 0.868587L1037.63 1.45151C1040.44 1.34306 1042.6 1.41083 1044.44 1.53284L1044.42 1.54639Z" fill="#21262E"/>
<path d="M838.864 5.05975C839.242 5.11397 839.639 5.18174 840.035 5.23596C841.008 5.03262 841.926 4.84283 842.755 4.68016C841.584 4.80216 840.251 4.92419 838.864 5.05975Z" fill="#21262E"/>
<path d="M836.037 7.50159L830.724 7.12202C831.912 7.25758 833.623 7.37958 836.037 7.50159Z" fill="#21262E"/>
<path d="M545.672 8.77707L542.448 9.37354C547.491 9.37354 545.276 9.06174 545.672 8.77707Z" fill="#21262E"/>
<path d="M1187.04 32.515C1187.35 29.8969 1187.47 27.8215 1187.51 25.9902C1187.06 29.1373 1186.39 31.6875 1187.04 32.515Z" fill="#21262E"/>
<path d="M662.812 1.89938C661.119 2.00783 660.399 2.12983 660.453 2.25183C662.2 2.15694 663.172 2.03494 662.812 1.89938Z" fill="#21262E"/>
<path d="M1187.51 18.4347C1187.46 18.8959 1187.38 19.3435 1187.33 19.8183C1187.46 21.7309 1187.56 23.6571 1187.51 25.9903C1187.85 23.6571 1188.05 20.9984 1187.51 18.4347Z" fill="#21262E"/>
<path d="M149.425 8.28828C149.136 8.26099 148.794 8.2337 148.524 8.22006C148.434 8.30192 148.83 8.30192 149.425 8.28828Z" fill="#21262E"/>
<path d="M33.9954 2.34668C35.1301 2.30575 36.9852 2.30573 38.7322 2.30573C37.8857 2.2648 36.4448 2.26481 33.9954 2.34668Z" fill="#21262E"/>
<path d="M1187.67 89.7596C1187.76 90.0714 1187.73 91.7116 1187.67 89.7596V89.7596Z" fill="#21262E"/>
<path d="M1184.57 99.2407C1184.48 98.8205 1184.38 98.5087 1184.2 98.468C1184.38 98.6307 1184.5 98.9018 1184.57 99.2407Z" fill="#21262E"/>
<path d="M1174.89 5.01863C1174.89 5.01863 1174.74 5.01863 1174.67 5.01863C1175.44 5.12778 1175.3 5.11413 1174.89 5.01863Z" fill="#21262E"/>
<path d="M1187.31 92.689C1187.4 91.9565 1187.49 91.1155 1187.55 90.1931C1187.49 90.6 1187.4 91.3597 1187.31 92.689Z" fill="#21262E"/>
<path d="M1187.67 92.2955C1187.64 92.9737 1187.62 93.5027 1187.6 94.0046C1187.73 94.2488 1187.82 94.0318 1187.67 92.2955Z" fill="#21262E"/>
<path d="M1187.62 87.0322C1187.62 88.1445 1187.6 89.189 1187.55 90.1928C1187.6 89.813 1187.64 89.6502 1187.67 89.7587C1187.67 89.189 1187.65 88.3751 1187.64 87.0457L1187.62 87.0322Z" fill="#21262E"/>
<path d="M361.75 6.71452C361.569 6.70096 361.389 6.67384 361.191 6.66027C358.58 6.90444 359.732 6.86374 361.75 6.71452Z" fill="#21262E"/>
<path d="M976.969 7.66418C977.095 7.66418 977.149 7.65053 977.257 7.63689C977.131 7.63689 976.987 7.62324 976.879 7.6096L976.969 7.66418Z" fill="#21262E"/>
<path d="M967.657 8.09814C971.619 7.36564 973.871 7.46059 976.878 7.60981L973.799 5.9142L967.657 8.09814Z" fill="#21262E"/>
<path d="M607.034 8.31527L613.572 8.8443C605.683 9.71245 599.974 9.41402 606.115 10.1601C607.034 8.31527 631.528 9.97018 632.428 8.12536L636.733 8.51873C635.49 8.50517 635.31 8.61369 634.085 8.58656C642.46 9.46828 640.317 7.25721 651.105 7.51495C654.87 7.65059 657.499 7.92188 654.924 8.13892L663.316 7.67772C665.748 7.71841 665.154 8.03041 662.722 8.00328L675.51 7.85406L675.419 7.90832C677.239 7.62345 681.381 7.17582 683.398 6.98592C686.64 7.24364 681.777 7.17582 682.606 7.40643L689.684 6.95878C692.565 7.43355 686.694 7.89475 681.813 7.82693C688.423 9.67175 687.685 7.36572 701.967 8.43735L695.285 8.66795C699.589 9.71244 704.812 9.33263 712.377 9.98374C710.576 9.64462 697.248 8.34238 704.921 7.88118C707.082 8.01683 709.945 8.08466 714.088 7.71841C714.124 8.36952 718.176 8.20674 723.237 8.17961L722.895 9.04776C728.37 8.8036 727.938 8.35597 731.162 7.96259C737.267 8.04398 738.528 8.72221 739.969 9.29194C749.749 9.42759 733.215 8.22031 744.796 8.04398C752.918 8.36953 758.628 8.01683 768.353 7.50137C774.045 7.79979 767.363 8.0304 769.398 8.27457L774.441 7.58277C775.684 7.59634 775.269 7.81338 775.071 7.9219C779.322 7.6506 775.413 7.05373 782.095 6.82312C783.896 5.87358 795.819 8.22032 804.086 7.13513C806.121 7.3793 803.095 7.66416 803.726 8.00328C815.072 7.2979 813.451 7.4878 822.763 6.52469L830.706 7.09444C824.87 6.44332 832.326 5.67012 838.846 5.03257C836.775 4.72057 835.01 4.43571 833.821 4.31363L844.231 3.85243C845.492 3.98808 844.447 4.2865 842.736 4.65276C843.439 4.57137 844.123 4.50352 844.646 4.44926C848.374 4.77483 846.447 5.27673 843.763 5.7515C842.502 5.57516 841.242 5.38525 840.017 5.22247C837.441 5.7515 835.046 6.3348 835.568 6.8367C836.253 6.74174 837.549 6.6468 838.99 6.6061C838.324 6.75531 837.892 6.87739 838.198 6.95878C838.558 7.05373 839.639 6.86382 841.35 6.63322L843.709 7.59633L844.285 7.21651L857.919 7.82693C867.663 6.85026 876.146 5.42593 891.617 5.01899C887.781 5.72437 890.788 6.172 890.59 7.01303C886.376 6.11774 878.613 7.39286 870.581 7.21651C874.759 7.31147 873.841 7.70485 872.778 7.85406L887.078 7.04016C886.754 7.73197 890.122 7.55563 893.85 7.84048C891.022 6.484 904.512 6.93164 910.33 6.52469C910.69 6.9859 909.303 7.44711 902.189 7.33859C910.023 8.35596 912.311 5.73795 920.001 6.6061C918.272 6.6061 917.336 6.55183 916.651 6.78242C920.704 6.37548 930.609 6.70106 928.268 7.09444H926.539C938.048 7.27078 961.569 7.10799 963.298 5.95497C963.406 6.10418 961.786 7.35217 961.101 7.58277L981.633 3.70322C979.832 4.69345 986.766 7.05373 977.22 7.60989C979.958 7.74554 983.344 7.92188 989.125 7.56919C987.252 7.43355 984.461 6.13132 987.018 6.04993C994.024 7.14869 991.881 6.63323 1000.53 7.58277C997.716 7.36573 1000.83 5.81933 1005.26 5.86002C1004.58 6.09063 1005.64 7.39286 1004.02 7.55563L1015.04 6.03635C1012.29 6.30766 1014.56 7.32503 1017.02 7.7591C1015.87 7.46067 1026.55 7.78624 1029.49 7.63702L1024.82 7.28434C1037.27 7.51495 1037.12 5.14108 1049.46 5.22247C1047.97 5.53447 1045.77 7.16224 1052.05 7.35215C1054.94 6.56538 1064.79 3.59469 1075.72 2.99783L1077.81 3.44548L1086.18 2.93001C1080.96 4.11015 1066.32 6.57895 1058.32 7.54206C1062.99 7.89474 1059.62 8.07109 1066.59 8.0304C1069.06 8.4509 1062.79 8.66795 1060.73 8.69508L1076.98 8.96638C1076.26 8.05753 1089.39 8.05753 1088.78 7.2979L1071.14 8.24744C1070.42 7.33859 1081.34 5.65656 1092.85 5.81934C1095.77 6.18559 1090.65 7.44711 1090.9 7.74554C1092.4 7.43355 1101.82 7.14869 1102.88 7.36573L1098 7.85406C1104.41 8.19318 1108.44 6.64679 1116.15 7.51495C1118.8 7.56921 1124.08 8.69509 1124.55 8.1525C1120.21 7.108 1119.36 3.89312 1122.26 3.10635C1123.2 3.17418 1136.22 4.0966 1139.24 4.61206C1143.62 5.42595 1132.67 6.55183 1136.4 7.25721C1136.56 7.01304 1138.97 6.70105 1139.98 6.6061C1142.77 6.82314 1138.83 7.37928 1144.9 7.27077C1145.91 6.34835 1157.23 7.35215 1147.76 6.484C1153.69 6.22626 1154.07 6.67391 1161.04 6.63322C1158.82 6.03636 1167.28 4.59848 1173.23 4.34074C1172.89 4.57135 1174.22 4.88334 1174.85 5.01899C1177.75 5.03255 1180.23 5.07325 1182.47 5.12751C1182.27 10.6755 1181.95 15.1113 1181.93 21.6089C1181.62 22.3956 1181.28 26.5193 1180.74 24.7559C1180.95 25.9903 1181.37 27.1162 1181.4 29.7478C1180.34 34.8482 1181.24 23.8742 1179.96 27.7673C1180.68 28.0929 1180.95 34.5769 1181.39 38.3344C1182.49 37.1813 1181.6 29.6664 1181.15 25.9089C1182.67 25.8954 1184.27 32.4336 1184.97 41.3593C1185.35 48.4538 1183.98 44.4386 1184.2 45.6594C1183.93 58.9801 1186.84 57.0132 1185.75 68.0686C1184.77 72.4636 1183.82 68.2721 1183.12 69.2352C1182.76 63.4565 1183.73 60.3637 1183.69 56.4435L1183.24 61.259C1182.92 59.4277 1182.68 55.5618 1182.95 53.4592C1182.09 57.1353 1182.79 75.9633 1181.98 86.2455C1182.31 88.0768 1182.65 91.2238 1183.03 89.7317L1182.88 86.4761C1183.66 83.4918 1183.96 92.5939 1184.32 88.4837C1184.86 92.8516 1185.73 97.735 1185.3 103.88L1184.2 105.033C1184.52 104.897 1184.86 101.018 1184.52 99.2949C1185.01 101.859 1183.03 108.709 1184.47 111.517L1185.22 107.217C1185.78 111.598 1186.95 117.011 1186.61 122.45C1187.71 119.968 1186.48 121.202 1187.76 117.323C1186.18 120.673 1187.83 103.405 1186.16 108.79C1187.64 104.816 1186.79 101.927 1188.05 96.7312C1187.69 96.8939 1187.35 98.5624 1187.53 94.0046C1187.42 93.8012 1187.29 93.3128 1187.2 93.0008C1187.2 92.8652 1187.2 92.8109 1187.24 92.6888C1187.24 92.7838 1187.2 92.8516 1187.2 92.9466C1187.15 92.7431 1187.13 92.7295 1187.2 93.0415C1187.04 94.1267 1186.86 95.0084 1186.65 95.3747C1185.82 93.1093 1185.84 85.8386 1185.4 83.3833C1185.58 80.6703 1185.82 84.5228 1186.21 83.0306L1185.57 79.3546C1186.38 78.9883 1186.92 72.1516 1187.38 78.5407L1187.42 72.7892C1187.87 69.4115 1188.05 64.7452 1187.71 61.883C1187.89 59.17 1186.81 55.0327 1187.44 57.393L1186.93 48.3724L1187.13 48.291C1187.24 39.3924 1185.8 29.9784 1187.26 19.8047C1187.15 18.3126 1187.04 16.7798 1186.99 15.0163C1186.95 14.1346 1186.93 13.1851 1186.95 12.1406C1186.99 10.8248 1187.01 9.40047 1187.04 7.81337L1187.74 5.9821C1187.69 4.62562 1187.69 2.98428 1187.73 1.13945C1183.49 1.08519 1178.65 1.00378 1174.51 0.949524C1171.93 0.908829 1169.81 0.922417 1168.92 1.13945C1163.41 -0.284859 1144.14 0.827454 1135.17 0.58329L1134.83 1.27509C1128.65 1.2344 1122.73 1.43787 1115.05 1.70918L1115.52 2.31959C1108.91 2.8215 1098.52 1.88551 1088.06 1.95333C1088.78 1.72273 1091.42 1.77699 1093.3 1.9262C1080.8 0.556145 1066.93 2.93 1055.6 1.9262C1052.77 2.14323 1050.74 2.07541 1048.76 1.9262C1049.03 1.9262 1049.26 1.92621 1049.46 1.89909C1049.17 1.89909 1048.74 1.89909 1048.31 1.89909C1047.06 1.79057 1045.77 1.6956 1044.38 1.57352C1045.57 1.72273 1046.7 1.84483 1047.68 1.89909C1045.5 1.89909 1042.2 1.99403 1038.96 2.14324L1037.57 1.49213C1037.3 1.49213 1037.11 1.49213 1036.82 1.50569C1033.65 1.26152 1034.26 1.81768 1035.95 2.30602C1034.31 2.41453 1032.82 2.53663 1031.67 2.69941C1029.09 1.64134 1023.17 3.05209 1019.65 1.9262C1017.47 2.4688 1003.37 2.33315 1001.64 3.48617C1001.53 3.33696 1000.58 3.26913 1002.33 3.25557C998.725 3.11992 995.105 2.99782 991.863 3.32338L990.332 2.49594L982.444 3.60825C977.653 3.10635 975.672 2.80792 980.426 2.17038C968.936 3.14705 971.115 2.53664 961.353 3.51331L961.822 2.9707C958.328 2.99783 952.744 3.71677 950.637 3.26913C942.839 2.25176 912.005 3.13348 891.959 2.18394C895.849 3.77103 882.648 1.47857 881.855 2.69941C880.685 2.31959 877.893 2.11612 881.135 1.79056C870.905 2.15681 865.772 1.1937 858.712 2.22462C857.541 1.84481 860.909 1.68204 859.864 1.45144C859.036 1.53283 856.623 1.777 855.542 1.55996C854.497 1.34293 857.037 1.24796 858.658 1.08518C848.212 1.15301 847.149 2.30602 846.393 3.37765C841.098 2.86218 838.45 2.94357 834.632 3.64894C832.795 3.29626 829.715 2.93 836.199 2.79435C832.543 2.74009 813.884 2.2789 813.506 3.14705C812.353 2.93001 808.409 3.07922 807.436 3.18774C799.241 3.13348 798.521 3.05208 790.47 3.13347L792.703 3.26913C789.534 4.31362 786.022 3.49973 779.52 3.62181L779.7 3.51331C764.823 2.75367 773.27 3.87955 758.61 3.01139L759.402 3.6625C758.033 5.05968 746.399 2.83505 737.88 3.37765L740.959 3.7439C736.313 4.21868 727.956 1.84483 723.291 1.66848C722.265 1.54639 724.894 1.47856 726.317 1.38361C714.088 0.556152 724.732 2.2382 715.619 2.42812C713.944 1.9669 717.78 1.26154 711.656 1.18015C708.595 0.813896 693.862 2.67228 685.487 1.79056C687.324 2.14325 689.161 2.49593 684.929 2.76723C678.445 2.88932 667.387 1.42431 661.533 2.55019C660.705 2.45524 660.399 2.36029 660.363 2.2789C655.41 2.56376 644.243 2.75367 641.254 3.36409C636.679 1.11232 610.42 4.46284 610.528 2.38742L595.273 2.49594L595.669 2.2789C585.908 2.14325 582.468 2.64513 579.046 3.13347C576.794 2.99783 578.433 2.79436 578.631 2.68585C564.385 2.26534 562.962 2.36028 551.021 3.3912L549.779 2.71297C546.537 3.10635 529.175 1.65491 515.198 2.44167C515.343 2.36028 515.631 2.2382 516.729 2.14324C501.006 2.93 479.088 0.271294 473.324 2.72654L462.95 3.32338C476.368 3.51329 460.951 4.38144 466.48 4.78839C461.203 4.9376 452.828 4.05589 459.312 3.92023L460.321 4.04234C462.698 2.76723 443.643 3.5947 444.003 2.72654C417.582 2.79436 391.845 2.08898 367.099 2.03472L369.944 3.02497L361.317 2.9707C359.048 2.7401 358.273 2.19751 364.433 2.2382C361.191 1.68204 354.113 2.71297 353.933 2.93001C341.884 2.52306 358.652 1.777 354.942 1.74987L349.917 1.8177L351.051 1.93977C346.981 2.34673 346.621 2.7808 339.218 2.72654C334.536 2.52307 336.823 2.1161 334.968 2.07541C334.968 2.00759 334.356 1.96691 332.14 2.04829L321.262 1.96689L325.603 2.75365C320.776 3.13348 315.373 2.71297 320.398 3.5947C313.031 2.22464 279.838 3.10635 275.317 2.67227C268.563 3.242 261.9 3.22843 253.651 3.16061C255.704 3.32339 256.929 4.20511 249.815 4.09659C252.426 2.27889 236.775 3.30982 231.03 1.99403C236.181 2.86217 210.786 2.21107 218.855 3.44548C212.911 3.29626 218.494 2.76723 213.992 2.33315C199.854 3.03852 182.834 1.87194 165.346 2.1161C165.075 2.36028 167.993 2.71297 164.247 3.07922L155.026 1.88551C151.568 2.00759 151.856 3.26913 145.534 2.42812C146.417 2.63158 147.749 2.93 145.444 3.01139C111.206 1.84481 75.4734 3.96093 40.7131 1.77699C45.4319 2.23819 42.2802 2.27888 38.696 2.30602C41.0374 2.41453 38.6421 2.88932 39.1104 3.21487L24.5579 2.31959C21.9104 3.21487 8.94275 2.37384 7.42993 3.24199L12.0406 3.09278C5.91699 4.11015 20.6136 5.34457 19.7311 6.64679C26.593 5.49377 37.8315 8.35596 49.0881 6.70104C51.5735 6.97234 46.9629 7.12155 48.2957 7.41998C51.1593 6.86382 54.5992 6.74174 60.9929 6.99947L60.2726 7.13513C78.229 6.99948 85.9196 7.54206 106.091 7.90832L104.596 7.27077C108.937 7.35216 109.837 7.55563 111.872 7.71841C116.843 6.74174 99.6974 7.66415 104.236 6.59252C109.981 7.89475 134.8 6.60609 138.672 8.09822C145.336 8.09822 136.727 7.35217 143.391 7.36573L145.156 7.77268L146.849 7.25721C151.225 7.3386 153.423 7.84048 153.585 8.17961C152.522 8.13892 150.577 8.27458 149.442 8.30171C155.116 8.77648 165.418 8.13893 167.363 8.30171L160.951 8.05753C179.141 7.67771 201.348 8.20673 218.927 7.39285L217.594 7.09444C231.012 6.53828 228.346 7.43354 243.079 7.16225L242.538 7.23007C245.492 6.93164 249.418 6.78243 253.453 6.80956C249.724 7.16225 260.459 7.50137 255.578 7.89476C270.13 7.2979 262.782 7.41998 272.382 6.29409L274.597 6.79601C277.875 6.3348 278.145 6.10419 285.511 5.96854C279.478 6.40263 290.212 6.74173 283.44 7.31145C298.875 8.41021 306.367 6.19915 313.464 7.81337C320.56 6.41619 300.1 7.04016 304.062 6.74174C300.73 6.28053 309.915 5.69724 314.76 5.84645C319.695 5.87358 323.153 7.62346 335.562 7.59633C334.32 7.59633 334.248 7.69128 333.005 7.69128C337.651 8.04396 342.1 7.21651 347.809 7.78624C350.997 6.94521 355.212 7.84051 356.13 6.75531L344.748 6.99947C351.195 6.71461 357.247 5.46665 367.891 6.07707C367.063 6.29411 363.893 6.57896 361.732 6.74174C364.847 7.05373 367.711 6.53826 370.935 6.85026C370.016 7.92188 357.103 7.08086 350.187 7.90832C353.519 8.35596 363.262 7.13512 359.786 8.28813C364.775 6.80956 372.015 8.47804 380.426 7.33859L379.868 7.97614C381.201 7.88119 383.956 7.56921 386.406 7.58277L381.975 8.42379C388.783 7.71841 395.087 9.04777 401.625 8.65439C387.955 8.66795 398.563 7.8812 392.781 7.40643C409.639 6.53827 402.471 9.08846 421.346 8.77647C418.789 8.87142 411.746 8.38309 415.745 8.09822C419.329 8.23387 424.084 8.47803 426.281 8.81716C438.78 8.68151 424.354 8.15248 429.685 7.7591C433.935 8.54587 435.826 7.43355 441.302 7.18938L441.338 7.84048C455.584 8.261 445.12 6.47045 457.943 6.98592L452.522 7.89476L459.204 7.66416L457.817 8.41021C465.093 7.85405 467.363 8.00327 474.477 8.20674C472.82 7.74554 475.413 7.01304 481.717 6.99947C486.022 7.39285 479.304 7.62346 488.255 7.5285C486.238 7.93545 484.022 8.45092 480.132 7.85406C479.736 8.07111 478.133 8.261 477.737 8.47803C482.365 8.92568 489.39 8.58657 492.631 8.57301C491.389 8.54588 489.894 8.51875 489.137 8.42379L502.105 7.51495C504.14 7.75911 502.519 7.96259 500.916 8.1525C503.546 8.08467 505.365 7.78623 509.219 7.71841C508.211 8.24744 508.463 8.8036 502.987 9.04776L515.343 8.45092C516.171 8.68153 521.682 9.08847 520.079 9.27838C526.923 9.59038 536.883 8.24744 545.96 8.65439C546.429 8.54587 547.383 8.4509 549.31 8.36951C557.847 8.4916 565.412 9.14272 575.516 8.41021L581.261 9.35977C589.185 9.14273 573.498 8.15248 586.682 7.7998C596.029 7.50137 590.176 8.61369 593.436 8.88499C598.083 8.41022 606.151 7.41998 614.724 8.20674C611.879 8.38309 609.663 8.24744 606.998 8.31527H607.034ZM704.74 7.89476C702.849 8.03041 699.067 8.4509 697.68 8.07109C699.842 7.32502 701.499 7.67772 704.74 7.89476ZM853.255 6.32123C851.85 6.53826 849.671 6.42974 847.221 6.18557C849.004 6.13131 851.021 6.15845 853.255 6.32123ZM1186.95 68.3534C1186.95 68.3534 1186.92 68.2449 1186.92 68.2042C1187.26 65.03 1187.11 66.1559 1186.95 68.3534ZM1186.57 74.9595C1186.7 75.6242 1186.81 75.5835 1186.93 75.2987C1186.72 74.8375 1186.7 73.3589 1186.75 71.6633C1186.52 72.138 1186.38 72.9926 1186.56 74.9595H1186.57ZM334.049 2.30602L335.76 2.48236C331.906 2.67227 332.987 2.49592 334.049 2.30602Z" fill="black"/>
<path d="M836.415 7.21655C835.875 7.1081 835.731 6.98609 835.604 6.86408C834.866 6.97253 834.848 7.09455 836.415 7.21655Z" fill="#21262E"/>
<path d="M546.267 8.66733H545.96C545.798 8.69462 545.708 8.73556 545.654 8.77649L546.249 8.66733H546.267Z" fill="#21262E"/>
<path d="M1139.91 7.59644C1138.11 7.50154 1137.1 7.37954 1136.43 7.25754C1136.34 7.42021 1137.15 7.55577 1139.91 7.59644Z" fill="#21262E"/>
<path d="M1188.05 109.957L1187.82 105.725C1187.85 107.773 1187.67 108.505 1187.53 109.536C1187.73 109.441 1188.03 108.641 1188.03 109.957H1188.05Z" fill="#21262E"/>
<path d="M1182.68 146.677C1182.79 147.301 1182.68 147.993 1182.81 148.603L1183.21 148.44C1183.19 145.809 1182.85 143.964 1182.68 146.691V146.677Z" fill="#21262E"/>
<path d="M1185.17 113.877C1184.43 114.216 1184.68 116.861 1184.83 119.832V119.303C1185.85 120.171 1185.51 117.024 1185.17 113.877Z" fill="#21262E"/>
<path d="M1184.84 120.51C1184.88 121.419 1184.9 122.355 1184.86 123.25C1185.28 123.603 1184.95 122.138 1184.84 120.51Z" fill="#21262E"/>
<path d="M1187.06 83.3426C1186.88 84.7534 1188 84.2244 1187.69 85.0247C1188.63 86.5982 1186.57 75.6514 1187.06 83.3426Z" fill="#21262E"/>
<path d="M1182.76 116.278L1183.67 115.206L1182.94 113.552L1182.76 116.278Z" fill="#21262E"/>
<path d="M1183.42 92.8787L1183.17 97.6128C1183.31 97.545 1183.4 98.1419 1183.48 98.8879C1183.51 95.9715 1183.69 92.7702 1183.42 92.8787Z" fill="#21262E"/>
<path d="M1183.48 98.8744C1183.48 100.394 1183.48 101.845 1183.62 102.686C1183.62 101.859 1183.58 100.095 1183.48 98.8744Z" fill="#21262E"/>
<path d="M1182.49 109.808L1182.68 108.397L1182.74 105.06L1182.49 109.808Z" fill="#21262E"/>
<path d="M1183.6 41.9699L1183.35 36.8016C1183.04 36.2726 1182.85 37.6833 1182.97 39.6096C1183.19 40.844 1183.31 42.7702 1183.6 41.9699Z" fill="#21262E"/>
<path d="M1181.13 57.5966C1181.31 56.1994 1181.53 56.1044 1181.82 55.3176L1180.7 55.1549L1181.13 57.5966Z" fill="#21262E"/>
<path d="M1180.86 42.5259C1180.56 42.0104 1179.98 35.0245 1180.04 41.5764C1180.34 42.1054 1180.59 47.2736 1180.86 42.5259Z" fill="#21262E"/>
<path d="M1129.3 5.29028L1131.05 5.27671L1130.8 3.89402L1129.3 5.29028Z" fill="#21262E"/>
<path d="M1038.19 8.58657C1046.31 8.91191 1040.11 7.73255 1047.46 8.15279C1049.37 7.82744 1041.46 7.81388 1043.41 7.5292C1038.49 7.8681 1035.92 7.67831 1038.19 8.58657Z" fill="#21262E"/>
<path d="M1043.41 7.52844C1044.2 7.47422 1045.03 7.40645 1045.91 7.32511C1044.49 7.40645 1043.82 7.47422 1043.41 7.52844Z" fill="#21262E"/>
<path d="M14.8323 1.60076L9.60931 1.31608L12.9773 1.77698L14.8323 1.60076Z" fill="#21262E"/>
<path d="M4.80058 2.63147L3.57588 1.75034L0.442079 2.55014C1.63077 2.50947 3.91808 2.44169 4.8186 2.63147H4.80058Z" fill="#21262E"/>
<path d="M719.257 9.67175L719.653 9.45485C718.843 9.2244 717.618 9.21086 715.169 9.17019L719.257 9.6582V9.67175Z" fill="#21262E"/>
<path d="M648.35 9.00694L649.574 9.03406L647.287 8.23426L648.35 9.00694Z" fill="#21262E"/>
<path d="M588.843 10.0244C591.275 10.0515 594.12 9.87525 596.57 9.91592C591.275 10.065 588.195 9.03478 588.843 10.0244Z" fill="#21262E"/>
</svg>
