<svg width="127" height="33" viewBox="0 0 127 33" fill="none" xmlns="http://www.w3.org/2000/svg">
<mask id="mask0_372_680" style="mask-type:alpha" maskUnits="userSpaceOnUse" x="0" y="0" width="127" height="33">
<path d="M0.129883 0.856201H126.814V32.9843H0.129883V0.856201Z" fill="white"/>
</mask>
<g mask="url(#mask0_372_680)">
<path fill-rule="evenodd" clip-rule="evenodd" d="M12.6064 21.089C12.3742 21.182 12.2053 21.3716 12.019 21.513C11.7116 21.7461 11.3989 21.9513 11.0612 22.1552C10.675 22.3884 10.2466 22.6031 9.77147 22.7461C9.41253 22.8542 8.84634 22.9451 8.40509 22.8745C8.04238 22.8168 7.74799 22.8385 7.44728 22.7461C6.36346 22.4132 5.72545 21.6733 5.3146 20.665C5.07319 20.0726 5.00245 19.3997 4.88048 18.6739C4.7671 17.9999 4.79871 16.8869 4.90603 16.2459C5.29967 13.8919 5.8013 12.5057 8.16248 12.1094C9.48811 11.8869 10.8611 12.6677 11.5593 13.1628C11.7993 13.333 12.4662 13.9608 12.8874 13.6895C13.4244 13.3438 13.4693 10.9915 13.1683 10.2596C12.9697 9.77647 12.4764 9.53809 12.0446 9.28321C10.9693 8.64858 9.59449 8.33039 7.86863 8.35826C7.63462 8.37544 7.40048 8.39262 7.16634 8.40967C6.621 8.50707 6.09435 8.56538 5.60832 8.71799C3.71838 9.31135 2.39719 10.4089 1.47071 11.9681C0.931152 12.8763 0.60825 13.9355 0.346944 15.1283C0.191881 15.8368 0.25751 16.6049 0.129883 17.3892C0.134186 17.6932 0.13849 17.9973 0.142659 18.3014C0.151132 18.5582 0.159739 18.8151 0.168211 19.0722C0.271497 19.6916 0.299873 20.3076 0.436377 20.8577C1.12185 23.6209 2.48528 25.5326 5.08476 26.356C5.60078 26.5194 6.15621 26.5879 6.74486 26.6899C7.01733 26.7071 7.2898 26.7241 7.56213 26.7413C8.02167 26.8171 8.60292 26.7345 8.99239 26.6643C10.2428 26.4384 11.2812 26.1961 12.185 25.6494C12.5502 25.4285 12.9967 25.2116 13.1939 24.8273C13.5088 24.2131 13.4911 22.0827 13.245 21.3845C13.1625 21.1508 12.9246 20.9616 12.6064 21.089ZM126.762 9.82287C126.701 9.40687 126.74 9.06094 126.541 8.80795C126.279 8.47447 125.191 8.32322 124.576 8.33255C124.4 8.34973 124.224 8.36692 124.048 8.38396C123.612 8.47677 123.222 8.61179 122.894 8.8208C122.236 9.2406 121.64 9.85304 121.175 10.4779C120.962 10.7734 120.749 11.069 120.536 11.3643V11.3854C120.532 11.2312 120.528 11.0768 120.523 10.9225C120.524 10.4681 120.625 9.33503 120.447 9.05769C120.063 8.45905 116.916 8.47203 116.637 9.13494C116.525 9.40118 116.599 9.92813 116.599 10.2666V24.7708C116.599 25.1257 116.517 25.7308 116.662 25.9729C116.816 26.2295 117.223 26.3032 117.565 26.3691C118.472 26.5435 120.807 26.5146 121.124 25.9472C121.216 25.7832 121.175 25.4354 121.175 25.1928V15.5266C121.355 15.2568 121.535 14.987 121.715 14.7173C122.267 13.9033 122.934 12.989 123.987 12.7131C124.695 12.5277 125.361 12.8519 125.866 13.0216C126.137 13.1128 126.443 13.0733 126.565 12.8674C126.816 12.4473 126.868 10.5431 126.762 9.82287ZM101.526 15.7149C101.521 13.3092 103.118 11.0388 105.842 11.6427C106.212 11.7247 106.567 11.84 106.851 12.0152C107.915 12.6715 108.37 13.9597 108.345 15.7149H101.526ZM112.676 14.2144C112.366 12.798 111.924 11.7017 111.182 10.7444C110.272 9.57029 108.888 8.86031 107.183 8.48259C106.744 8.38545 106.274 8.40601 105.803 8.32836H105.343C104.885 8.25206 104.102 8.33336 103.682 8.41832C103.028 8.55077 102.414 8.66996 101.856 8.89386C99.6517 9.77715 98.1735 11.4869 97.4353 13.8417C97.2676 14.3766 97.1855 14.9105 97.0648 15.5124C97.0178 15.9021 96.971 16.292 96.9242 16.6819C96.9199 16.8617 96.9156 17.0418 96.9113 17.2216V18.2498C96.9199 18.5025 96.9284 18.7553 96.937 19.008C97.1078 20.0299 97.1619 20.9683 97.4607 21.8225C98.3199 24.2783 99.8805 25.6342 102.43 26.3977C103.025 26.5756 103.678 26.5941 104.347 26.7061C104.785 26.719 105.224 26.7318 105.663 26.7447C107.468 26.7447 109.02 26.4617 110.402 26.025C110.968 25.8462 111.686 25.6739 111.923 25.1639C112.177 24.6157 112.237 22.322 111.68 22.1567C111.261 22.0322 110.82 22.3051 110.543 22.4137C109.852 22.6842 109.115 22.8511 108.346 23.0434C107.89 23.1571 107.399 23.154 106.902 23.2362C106.461 23.3092 105.759 23.2915 105.343 23.2233C104.829 23.1387 104.392 23.1182 103.976 22.9534C102.391 22.3262 101.541 20.9598 101.574 18.7124H109.099C109.929 18.7126 111.684 18.8464 112.191 18.5454C112.786 18.192 112.855 17.5164 112.855 16.5534C112.851 16.275 112.847 15.9964 112.842 15.718C112.758 15.2039 112.781 14.6916 112.676 14.2144ZM68.7105 21.5386C68.1608 22.2851 67.1841 23.0775 66.1946 23.3755C64.5789 23.8624 63.1791 23.0779 62.9 21.7956C62.7967 21.3213 62.8879 20.7428 63.0276 20.3953C63.731 18.646 66.2527 18.7582 68.7105 18.7766V21.5386ZM73.2864 16.4772C73.2864 15.2203 73.3645 13.8563 73.1332 12.8031C72.5966 10.361 71.3947 9.21381 69.0339 8.6153C68.578 8.49963 68.1221 8.49666 67.6164 8.40967C66.9388 8.29318 65.649 8.26329 64.9474 8.38396C64.2497 8.50423 63.5738 8.57242 62.9553 8.74369C61.7914 9.06608 59.8983 9.56732 59.4818 10.5807C59.1742 11.329 59.3048 13.6436 60.2225 13.4969C60.7891 13.4062 61.1856 13.0869 61.64 12.8674C63.1363 12.1447 67.008 10.9785 68.2805 12.7774C68.7851 13.4909 68.8034 14.628 68.7913 15.8734C64.628 15.8717 60.9107 16.0729 59.2519 18.5712C58.9156 19.0777 58.6852 19.6478 58.5367 20.3567C58.5155 20.5879 58.4942 20.8193 58.473 21.0505L58.4602 21.8597C58.5357 22.3158 58.5443 22.7483 58.6645 23.1443C59.2192 24.9717 60.4813 25.9888 62.3423 26.5101C62.9472 26.6795 64.1597 26.8785 64.973 26.7413C65.5101 26.6507 66.0043 26.6057 66.4671 26.4587C67.4025 26.1615 68.1666 25.6586 68.8552 25.1099C69.0679 24.9044 69.2808 24.6989 69.4936 24.4932C69.4889 25.0103 69.3705 25.9719 69.6725 26.2018C70.1917 26.5974 72.9019 26.5597 73.2226 26.0605C73.3488 25.864 73.2864 25.3742 73.2864 25.0715V16.4772ZM56.9429 8.80795C56.6807 8.47447 55.5936 8.32322 54.9782 8.33255C54.8023 8.34973 54.6263 8.36692 54.4504 8.38396C54.0146 8.47677 53.6238 8.61179 53.2961 8.8208C52.6379 9.2406 52.042 9.85304 51.5769 10.4779C51.3642 10.7734 51.1513 11.069 50.9385 11.3643V11.3854C50.9342 11.2312 50.9299 11.0768 50.9258 10.9225C50.9258 10.4681 51.0269 9.33503 50.849 9.05769C50.465 8.45905 47.3179 8.47203 47.0394 9.13494C46.9275 9.40118 47.001 9.92813 47.001 10.2666V24.7708C47.001 25.1257 46.9197 25.7308 47.0645 25.9729C47.2184 26.2295 47.6246 26.3032 47.9671 26.3691C48.8736 26.5435 51.2088 26.5146 51.5262 25.9472C51.6178 25.7832 51.5769 25.4354 51.5769 25.1928V15.5266C51.757 15.2568 51.9372 14.987 52.1173 14.7173C52.6691 13.9033 53.3359 12.989 54.3889 12.7131C55.0975 12.5277 55.7632 12.8519 56.2675 13.0216C56.5388 13.1128 56.8448 13.0733 56.9675 12.8674C57.2178 12.4473 57.2697 10.5431 57.164 9.82287C57.103 9.40687 57.1418 9.06094 56.9429 8.80795ZM25.4023 14.9228C25.1427 16.1945 24.4734 16.8877 23.1803 17.1194C20.7944 17.5471 19.3516 15.3009 20.2176 13.1757C20.4781 12.5362 20.9545 12.0432 21.5967 11.7883C21.8514 11.6871 22.1657 11.7178 22.4523 11.6084C23.8527 11.602 24.6447 12.0197 25.1469 12.9059C25.2714 13.1258 25.343 13.4157 25.4023 13.6895C25.4804 14.0504 25.4741 14.571 25.4023 14.9228ZM20.358 25.9577C20.5111 25.8335 20.6645 25.7093 20.8178 25.5851C21.4859 25.6066 22.1544 25.628 22.8227 25.6494C23.3335 25.6622 23.8444 25.6751 24.355 25.688C25.5545 25.8761 26.8471 26.2888 26.4877 27.8719C26.4375 28.0928 26.3618 28.324 26.2579 28.5012C25.4298 29.9119 22.3328 30.2462 20.4857 29.4776C19.7204 29.1591 19.0606 28.4919 19.4129 27.3195C19.5718 26.7909 19.9721 26.2701 20.358 25.9577ZM39.4452 12.5034H42.1507C42.4842 12.5034 43.0282 12.5746 43.2533 12.4392C43.7532 12.1384 43.751 11.005 43.702 10.2065C43.6749 9.76538 43.6617 9.33286 43.4841 9.03889C43.2834 8.7073 42.8375 8.75654 42.3045 8.75654H39.4452V6.0876C39.4452 5.73518 39.5228 5.18659 39.407 4.90709C39.2874 4.61812 38.9643 4.53668 38.6295 4.45794C37.7691 4.25582 35.6298 4.25569 35.0732 4.67616C34.8144 4.87151 34.8693 5.36287 34.8693 5.81811V8.75654H25.9085C25.35 8.75654 24.9905 8.62991 24.5191 8.53832C23.6767 8.3749 22.4763 8.31997 21.5747 8.4742C18.8977 8.93242 17.1425 10.0719 16.3357 12.4008C16.0243 13.2999 15.8808 14.8082 16.1446 15.9037C16.3023 16.5583 16.5484 17.1303 16.8839 17.6104C17.0284 17.7899 17.1728 17.9696 17.3172 18.1494C17.3471 18.1793 17.3768 18.2092 17.4065 18.2392C16.6911 18.774 15.9993 19.8414 15.7495 20.8439C15.3536 22.4325 16.1909 24.1332 17.279 24.5137C17.0411 24.7105 16.8032 24.9073 16.5653 25.1041C16.038 25.5316 15.561 26.2103 15.2779 26.8748C15.1434 27.1903 15.0565 27.54 14.9847 27.9141C14.8049 28.8504 15.0735 29.8241 15.4054 30.3907C16.2139 31.7711 17.6947 32.3431 19.4842 32.7388C19.9203 32.8353 20.3519 32.8262 20.8226 32.9056C21.388 33.001 22.0291 32.9833 22.6664 32.9826C23.0361 32.9648 23.6396 32.9355 24.0093 32.9177C24.5644 32.8594 25.1077 32.8519 25.6152 32.7261C27.8281 32.1767 29.8114 31.2823 30.6501 29.3641C30.8311 28.9503 30.9673 28.5148 31.0707 28.0168C31.2606 27.1032 31.0775 26.0036 30.8031 25.3477C30.1841 23.8678 28.987 23.0539 27.3233 22.6275C26.8952 22.5178 26.437 22.4876 25.9722 22.4094C25.56 22.3924 25.1478 22.3752 24.7358 22.3581C24.3874 22.3452 24.0389 22.3323 23.6905 22.3196C22.1968 22.0761 20.4388 22.5881 19.7774 21.4855C19.6456 21.2658 19.5999 20.8882 19.6881 20.5744C19.7836 20.2351 20.0177 20.0328 20.147 19.7532C20.2139 19.7125 20.8868 20.0303 21.0902 20.0998C21.8295 20.3522 23.0637 20.4571 23.9965 20.2793C24.4201 20.1986 24.844 20.1673 25.2328 20.0484C27.222 19.4403 28.4535 18.4226 29.1715 16.5326C29.4397 15.8266 29.6516 14.5823 29.4393 13.6454C29.3353 13.1875 29.1665 12.8537 28.9803 12.5034H34.8693V19.2622C34.8693 21.1479 34.8708 22.8994 35.4317 24.1871C36.003 25.4991 37.0214 26.1899 38.5506 26.5531C39.0998 26.6837 40.089 26.8075 40.7749 26.6946C41.5905 26.5603 42.3139 26.5136 42.9478 26.2317C43.6726 25.9094 43.5578 25.3744 43.702 24.483V23.7183C43.6336 23.2839 43.6998 22.7963 43.4841 22.5121C43.2876 22.253 42.7916 22.491 42.5738 22.5762C41.8428 22.8617 40.6926 22.9062 40.112 22.4478C39.4187 21.9007 39.4451 20.6124 39.4452 19.3683V12.5034ZM88.6108 20.2155C88.3682 20.4981 88.1255 20.7807 87.8828 21.0633C87.1585 21.9703 86.3344 22.6175 84.9201 22.849C84.1425 22.9761 83.4818 22.5987 83.0939 22.2966C82.1679 21.5748 81.8556 20.4045 81.5999 18.995C81.5744 18.6183 81.5488 18.2414 81.5233 17.8646C81.445 17.3794 81.495 16.7414 81.5744 16.2973C81.8554 14.7219 82.2516 13.3662 83.375 12.649C83.6008 12.5048 83.8766 12.3917 84.1687 12.3173C84.3502 12.3 84.6402 12.2724 84.8217 12.2552C86.28 12.3226 87.2259 13.1492 87.8956 13.985C88.0483 14.1755 88.5399 14.6024 88.6108 14.8071V20.2155ZM93.1867 3.03811C93.1869 2.62548 93.2817 1.73475 93.1484 1.42643C92.8899 0.828602 91.3864 0.849301 90.4916 0.859312C90.3243 0.872164 90.052 0.892728 89.8848 0.90558C89.4046 0.974441 88.8758 1.01963 88.6748 1.3619C88.574 1.53358 88.6108 1.88343 88.6108 2.14846V10.5039C88.3757 10.2891 88.1407 10.0741 87.9057 9.85927C87.2951 9.38089 86.6512 8.93904 85.8677 8.63424C84.2504 8.00516 81.8526 8.38599 80.6379 9.09841C78.7484 10.207 77.7345 11.9064 77.1387 14.3206C77.0201 14.8007 76.9954 15.2794 76.908 15.8035C76.8141 16.3656 76.7147 17.4367 76.8054 18.0599C76.8183 18.4254 76.831 18.7906 76.8438 19.156C76.9616 19.9195 77.0052 20.6554 77.1772 21.348C77.7962 23.8409 79.0965 25.7684 81.4583 26.5056C82.1926 26.7348 83.3243 26.9379 84.3168 26.7765C84.8396 26.6914 85.3378 26.6244 85.778 26.4541C86.8368 26.0444 87.6375 25.4434 88.4441 24.7907C88.7261 24.5114 89.0082 24.2319 89.2901 23.9526C89.285 24.5426 89.1661 25.9698 89.4824 26.2092C90.0286 26.6225 92.8494 26.6638 93.1355 26.0415C93.2895 25.7066 93.1869 24.7115 93.1867 24.2492V3.03811Z" fill="white"/>
</g>
</svg>
