<svg width="132" height="32" viewBox="0 0 132 32" fill="none" xmlns="http://www.w3.org/2000/svg">
<path fill-rule="evenodd" clip-rule="evenodd" d="M7.23193 14.0527C10.9448 14.0527 13.9547 11.0428 13.9547 7.32996C13.9547 3.61707 10.9448 0.607178 7.23193 0.607178C3.51905 0.607178 0.509155 3.61707 0.509155 7.32996C0.509155 11.0428 3.51905 14.0527 7.23193 14.0527ZM11.7138 7.32996C11.7138 9.80521 9.70719 11.8118 7.23193 11.8118C4.75667 11.8118 2.75008 9.80521 2.75008 7.32996C2.75008 4.8547 4.75667 2.8481 7.23193 2.8481C9.70719 2.8481 11.7138 4.8547 11.7138 7.32996ZM28.1472 31.2333C31.8601 31.2333 34.87 28.2234 34.87 24.5105C34.87 20.7976 31.8601 17.7877 28.1472 17.7877C24.4343 17.7877 21.4244 20.7976 21.4244 24.5105C21.4244 28.2234 24.4343 31.2333 28.1472 31.2333ZM32.629 24.5105C32.629 26.9858 30.6224 28.9924 28.1472 28.9924C25.6719 28.9924 23.6653 26.9858 23.6653 24.5105C23.6653 22.0353 25.6719 20.0287 28.1472 20.0287C30.6224 20.0287 32.629 22.0353 32.629 24.5105Z" fill="#E11551"/>
<path fill-rule="evenodd" clip-rule="evenodd" d="M123.299 0.905029H131.712V3.0741H123.299V0.905029ZM123.299 4.68878H131.33V6.76083H123.299V4.68878ZM123.299 8.76359H131.864V11.0643H123.299V8.76359ZM53.1036 0.927148H60.8652V3.11008H56.2567V4.88415H60.1929V6.93541H56.2567V11.0864H53.1036V0.927148ZM72.2896 0.927148H75.4219V6.98392C75.4219 7.58452 75.3272 8.15277 75.1378 8.68869C74.953 9.21998 74.6596 9.6866 74.2577 10.0885C73.8604 10.4859 73.4423 10.7654 73.0034 10.9271C72.3935 11.1534 71.6613 11.2666 70.8066 11.2666C70.3122 11.2666 69.7717 11.232 69.185 11.1627C68.6028 11.0934 68.1154 10.9571 67.7227 10.7538C67.33 10.5459 66.9697 10.2525 66.6417 9.87371C66.3183 9.49487 66.0965 9.10448 65.9764 8.70255C65.7824 8.05575 65.6853 7.48288 65.6853 6.98392V0.927148H68.8177V7.12945C68.8177 7.68384 68.9701 8.11812 69.275 8.43228C69.5846 8.74182 70.0119 8.89658 70.5571 8.89658C71.0976 8.89658 71.5204 8.74413 71.8253 8.43921C72.1348 8.12967 72.2896 7.69308 72.2896 7.12945V0.927148ZM89.452 0.927148H79.9095V3.43579H83.1111V11.0864H86.2504V3.43579H89.452V0.927148ZM100.613 0.927148H103.745V6.98392C103.745 7.58452 103.651 8.15277 103.461 8.68869C103.277 9.21998 102.983 9.6866 102.581 10.0885C102.184 10.4859 101.766 10.7654 101.327 10.9271C100.717 11.1534 99.9848 11.2666 99.1301 11.2666C98.6357 11.2666 98.0952 11.232 97.5085 11.1627C96.9264 11.0934 96.439 10.9571 96.0463 10.7538C95.6536 10.5459 95.2932 10.2525 94.9652 9.87371C94.6418 9.49487 94.42 9.10448 94.2999 8.70255C94.1059 8.05575 94.0089 7.48288 94.0089 6.98392V0.927148H97.1412V7.12945C97.1412 7.68384 97.2937 8.11812 97.5986 8.43228C97.9081 8.74182 98.3355 8.89658 98.8806 8.89658C99.4212 8.89658 99.8439 8.74413 100.149 8.43921C100.458 8.12967 100.613 7.69308 100.613 7.12945V0.927148ZM108.988 0.927148V11.0864H112.141V6.96313H112.419C112.705 6.96313 112.962 7.04167 113.188 7.19875C113.354 7.31887 113.544 7.5799 113.756 7.98183L115.433 11.0864H118.981L117.464 8.14122C117.39 7.99338 117.242 7.78317 117.02 7.5106C116.803 7.23802 116.637 7.06015 116.521 6.97699C116.35 6.85225 116.078 6.72751 115.703 6.60277C116.17 6.49651 116.537 6.36254 116.805 6.20084C117.226 5.94674 117.556 5.61641 117.796 5.20985C118.037 4.79868 118.157 4.31127 118.157 3.74764C118.157 3.10084 118 2.55338 117.685 2.10524C117.371 1.65248 116.958 1.34294 116.445 1.17663C115.932 1.01031 115.191 0.927148 114.22 0.927148H108.988ZM113.465 5.04354H112.141V2.97841H113.521C114.093 2.97841 114.484 3.06619 114.692 3.24175C114.9 3.41731 115.004 3.6691 115.004 3.99711C115.004 4.21887 114.937 4.41522 114.803 4.58616C114.673 4.7571 114.505 4.86336 114.297 4.90494C113.886 4.99734 113.608 5.04354 113.465 5.04354ZM58.1971 26.0803V23.9667H63.048V28.2979C62.1194 28.9308 61.2971 29.3628 60.581 29.5938C59.8695 29.8202 59.024 29.9333 58.0446 29.9333C56.8388 29.9333 55.8547 29.7278 55.0924 29.3166C54.3348 28.9054 53.7457 28.2933 53.3253 27.4801C52.9095 26.667 52.7016 25.7338 52.7016 24.6804C52.7016 23.5717 52.9303 22.6084 53.3877 21.7907C53.8451 20.9683 54.5149 20.3446 55.3974 19.9196C56.0857 19.5916 57.012 19.4275 58.1763 19.4275C59.2989 19.4275 60.1374 19.5292 60.6918 19.7325C61.2509 19.9357 61.7129 20.2522 62.0778 20.6819C62.4474 21.1069 62.7246 21.6474 62.9094 22.3035L59.881 22.844C59.7563 22.4606 59.5438 22.1672 59.2435 21.9639C58.9478 21.7606 58.569 21.659 58.107 21.659C57.4186 21.659 56.8688 21.8992 56.4576 22.3797C56.0511 22.8556 55.8478 23.6109 55.8478 24.6458C55.8478 25.7453 56.0534 26.5307 56.4646 27.002C56.8804 27.4732 57.4579 27.7088 58.1971 27.7088C58.5482 27.7088 58.8831 27.658 59.2019 27.5564C59.5207 27.4547 59.8857 27.2815 60.2968 27.0366V26.0803H58.1971ZM77.0529 28.0831H73.477L72.985 29.7601H69.7764L73.5948 19.6008H77.0182L80.8366 29.7601H77.5518L77.0529 28.0831ZM76.3945 25.8863L75.2719 22.2342L74.1562 25.8863H76.3945ZM91.8339 19.6008H87.7037V29.7601H90.2747V22.0124L92.2566 29.7601H94.5782L96.5671 22.0124V29.7601H99.1311V19.6008H95.0147L93.4278 25.7823L91.8339 19.6008ZM107.024 19.6008H115.437V21.7699H110.17V23.3845H115.056V25.4566H110.17V27.4594H115.589V29.7601H107.024V19.6008ZM125.616 26.212L122.629 26.3991C122.717 27.4247 123.094 28.2702 123.759 28.9354C124.424 29.6007 125.621 29.9333 127.349 29.9333C128.333 29.9333 129.148 29.7924 129.795 29.5106C130.442 29.2242 130.945 28.8061 131.306 28.2563C131.666 27.7065 131.846 27.1059 131.846 26.4545C131.846 25.9001 131.71 25.3989 131.437 24.9507C131.169 24.5026 130.738 24.1284 130.142 23.8281C129.55 23.5231 128.568 23.2228 127.196 22.9272C126.642 22.8117 126.291 22.6869 126.143 22.553C125.991 22.4236 125.914 22.2781 125.914 22.1164C125.914 21.8946 126.007 21.7075 126.191 21.555C126.376 21.398 126.651 21.3194 127.016 21.3194C127.46 21.3194 127.806 21.4234 128.056 21.6313C128.31 21.8392 128.476 22.1718 128.555 22.6292L131.514 22.4559C131.384 21.4026 130.978 20.6357 130.294 20.1552C129.615 19.6701 128.626 19.4275 127.328 19.4275C126.27 19.4275 125.436 19.5615 124.826 19.8295C124.221 20.0928 123.766 20.4578 123.461 20.9244C123.161 21.3864 123.011 21.8784 123.011 22.4005C123.011 23.1951 123.306 23.8489 123.898 24.3617C124.484 24.8745 125.466 25.2857 126.843 25.5952C127.684 25.78 128.22 25.9763 128.451 26.1842C128.682 26.3921 128.797 26.6278 128.797 26.8911C128.797 27.1683 128.675 27.4132 128.43 27.6257C128.19 27.8336 127.845 27.9375 127.397 27.9375C126.797 27.9375 126.335 27.7319 126.011 27.3208C125.813 27.0667 125.681 26.6971 125.616 26.212ZM27.9606 8.72705L32.2103 12.9768L33.7949 11.3922L29.5452 7.14248L33.7948 2.89286L32.2102 1.30829L27.9606 5.55791L23.7107 1.30802L22.1262 2.89259L26.376 7.14248L22.1261 11.3925L23.7106 12.977L27.9606 8.72705ZM7.04483 25.9078L2.79515 30.1575L1.21057 28.5729L5.46025 24.3232L1.21066 20.0736L2.79523 18.489L7.04483 22.7386L11.2947 18.4887L12.8793 20.0733L8.6294 24.3232L12.8794 28.5732L11.2948 30.1578L7.04483 25.9078Z" fill="white"/>
</svg>
