<svg width="58" height="62" viewBox="0 0 58 62" fill="none" xmlns="http://www.w3.org/2000/svg">
<path d="M28.3709 0.112305C29.1343 0.782872 29.8976 1.45766 30.6694 2.11979C32.6432 3.82362 34.6211 5.52745 36.6033 7.22285C36.7804 7.37467 36.8563 7.5265 36.8521 7.76689C36.8395 8.97307 36.8479 10.1792 36.8479 11.474C33.9759 9.00681 31.1629 6.59023 28.3288 4.15679C27.5401 4.87375 26.8021 5.63288 25.9754 6.27393C25.2922 6.80532 25.1278 7.41263 25.1278 8.24767C25.1573 18.205 25.1488 28.158 25.1404 38.1153C25.1404 38.3852 25.2163 38.5666 25.4188 38.7479C26.3888 39.6125 27.3419 40.4897 28.3245 41.388C28.9825 40.7892 29.6277 40.2029 30.2688 39.6209C30.4754 39.4311 30.661 39.2118 30.8929 39.06C31.4201 38.7142 31.5256 38.2418 31.5213 37.6345C31.5002 28.875 31.5087 20.1197 31.5045 11.3601C31.5045 11.2294 31.5045 11.0986 31.5045 10.8836C31.6521 11.0016 31.7491 11.0691 31.8376 11.145C33.4192 12.4819 34.9965 13.8273 36.5822 15.1558C36.7762 15.316 36.8437 15.4763 36.8437 15.7251C36.8395 23.152 36.8395 30.5746 36.831 38.0014C36.831 38.1491 36.7678 38.3431 36.6623 38.4358C33.921 40.8102 31.1713 43.1762 28.4173 45.5422C28.392 45.5633 28.3625 45.5759 28.3035 45.6139C27.8944 45.2638 27.4811 44.9095 27.0678 44.5553C24.7355 42.5478 22.4033 40.5319 20.0627 38.5286C19.8644 38.3599 19.7885 38.187 19.7885 37.9298C19.7927 27.8712 19.7927 17.817 19.7843 7.75845C19.7843 7.53493 19.856 7.39154 20.0247 7.24815C22.7365 4.92014 25.4398 2.58792 28.1432 0.255696C28.1938 0.213522 28.2402 0.162914 28.2866 0.116522C28.3245 0.112305 28.3456 0.112305 28.3709 0.112305Z" fill="white" fill-opacity="0.95"/>
<path d="M0.747015 53.2646C2.04176 52.4633 3.3365 51.6662 4.62703 50.8565C4.81259 50.7384 4.94333 50.73 5.13311 50.8523C6.3182 51.6156 7.51173 52.3663 8.70947 53.1128C8.90347 53.2351 8.9836 53.3701 8.97517 53.5978C8.9583 53.9984 8.97095 54.3991 8.97095 54.8461C8.85286 54.7871 8.77273 54.7534 8.70525 54.707C7.52016 53.9647 6.33507 53.2224 5.1542 52.4675C4.9602 52.341 4.81681 52.3241 4.61859 52.4633C4.17576 52.767 3.70341 53.0242 3.26059 53.3279C3.14672 53.408 3.03706 53.5851 3.03285 53.7159C3.01598 55.3818 3.0202 57.0518 3.03285 58.7177C3.03285 58.8442 3.13407 59.0087 3.23528 59.0804C3.6992 59.3967 4.1842 59.6751 4.64811 59.9829C4.82524 60.101 4.95177 60.0884 5.12468 59.9745C5.55907 59.6793 6.00612 59.3967 6.45738 59.131C6.64716 59.0172 6.71042 58.8864 6.7062 58.6713C6.69777 57.5537 6.70199 56.4319 6.70199 55.3143C6.70199 55.1962 6.70199 55.0781 6.70199 54.8841C7.24603 55.2004 7.70151 55.5294 8.2076 55.7487C8.82756 56.0186 9.02156 56.4192 8.9836 57.094C8.92034 58.2201 8.96673 59.3545 8.96673 60.4848C8.96673 60.6029 8.96673 60.721 8.96673 60.915C8.51547 60.6704 8.11903 60.4679 7.73947 60.2444C7.54125 60.1263 7.39786 60.1221 7.19542 60.2571C6.5122 60.7083 5.81212 61.1259 5.1289 61.5729C4.94333 61.6952 4.81259 61.6952 4.62281 61.5729C3.44194 60.8222 2.25263 60.0884 1.06332 59.3503C0.957885 59.2871 0.848233 59.2322 0.742798 59.1774C0.747015 57.2079 0.747015 55.2384 0.747015 53.2646Z" fill="white" fill-opacity="0.95"/>
<path d="M57.741 59.181C56.9228 59.6871 56.1046 60.189 55.2907 60.6993C54.8057 60.9987 54.3291 61.315 53.8357 61.6018C53.7387 61.6566 53.5531 61.6566 53.4603 61.6018C52.2246 60.8385 50.9931 60.0625 49.7701 59.2738C49.6647 59.2063 49.5634 59.0334 49.5634 58.9069C49.5508 57.1145 49.5508 55.3263 49.5634 53.5339C49.5634 53.4074 49.6647 53.2345 49.7701 53.1628C51.0016 52.3699 52.2415 51.5855 53.4898 50.8179C53.5826 50.7589 53.7893 50.801 53.8989 50.8685C55.0882 51.6023 56.2691 52.353 57.4542 53.0995C57.547 53.1586 57.6482 53.2092 57.7452 53.2682C57.7452 53.8038 57.7452 54.3437 57.7452 54.8793C56.4673 54.0737 55.1852 53.2767 53.9116 52.4627C53.726 52.3446 53.5953 52.3277 53.4055 52.4585C52.9416 52.7706 52.4566 53.0489 51.9927 53.3652C51.8872 53.4369 51.7902 53.6098 51.7902 53.7364C51.7776 55.3938 51.7776 57.047 51.7902 58.7044C51.7902 58.831 51.8914 58.9997 51.9969 59.0714C52.465 59.3919 52.9627 59.6787 53.435 59.9992C53.6037 60.1131 53.726 60.092 53.8821 59.9865C54.3291 59.6913 54.7972 59.4214 55.2358 59.1178C55.3455 59.0418 55.4467 58.8605 55.4467 58.7255C55.4636 57.5826 55.4552 56.4439 55.4552 55.301C55.4552 55.1829 55.4552 55.0691 55.4552 54.8877C56.2607 55.3601 56.9987 55.7902 57.741 56.2246C57.741 57.2073 57.741 58.1941 57.741 59.181Z" fill="white" fill-opacity="0.95"/>
<path d="M38.9271 36.4537C38.9271 30.0011 38.9271 23.6328 38.9271 17.1802C40.6183 18.6352 42.2631 20.0522 43.9458 21.503C43.4187 21.9585 42.9379 22.4055 42.4191 22.8062C42.1155 23.0424 42.0143 23.3038 42.0143 23.6876C42.0311 26.9139 42.0185 30.136 42.0311 33.3623C42.0311 33.6871 41.9257 33.8937 41.6853 34.0962C40.8671 34.7752 40.07 35.4795 39.2603 36.1711C39.1717 36.2471 39.079 36.3272 38.9271 36.4537Z" fill="white" fill-opacity="0.95"/>
<path d="M17.6251 36.4409C17.119 36.0065 16.6593 35.61 16.1954 35.2136C15.7104 34.7961 15.2169 34.3912 14.753 33.9568C14.6392 33.8514 14.5506 33.6574 14.5506 33.5056C14.5379 29.052 14.5422 24.5984 14.5506 20.1448C14.5506 19.9972 14.6096 19.8032 14.7151 19.7104C15.626 18.9007 16.5581 18.112 17.4817 17.3192C17.5154 17.2896 17.5534 17.2728 17.6293 17.2222C17.6251 23.6284 17.6251 30.0009 17.6251 36.4409Z" fill="white" fill-opacity="0.95"/>
<path d="M35.5153 61.7285C34.967 61.4037 34.4989 61.079 33.9886 60.8344C33.4361 60.5729 33.2505 60.2186 33.2674 59.5902C33.318 57.5996 33.2885 55.6048 33.2801 53.6142C33.2801 53.3696 33.356 53.2304 33.5626 53.1039C34.7604 52.3616 35.9539 51.6067 37.1432 50.8476C37.3203 50.7337 37.4426 50.7295 37.6198 50.8433C38.8259 51.6151 40.0448 52.37 41.2467 53.146C41.3606 53.2177 41.4618 53.4033 41.4618 53.5383C41.4745 55.744 41.4745 57.9497 41.466 60.1554C41.466 60.2608 41.4239 60.4168 41.3437 60.4632C40.6732 60.885 39.9899 61.2856 39.2645 61.7242C39.2561 61.5598 39.2477 61.4417 39.2477 61.3278C39.2477 58.8184 39.2435 56.3133 39.2519 53.8039C39.2519 53.5593 39.1802 53.4202 38.9693 53.2979C38.5054 53.0279 38.0542 52.7369 37.6029 52.4417C37.4384 52.3321 37.3161 52.3279 37.1516 52.4375C36.713 52.7285 36.2702 53.0153 35.8147 53.2768C35.5659 53.4202 35.4984 53.5973 35.4984 53.8714C35.5068 56.3344 35.5026 58.7974 35.5026 61.2603C35.5153 61.3911 35.5153 61.5218 35.5153 61.7285Z" fill="white" fill-opacity="0.95"/>
<path d="M22.9683 54.8878C23.7443 55.3433 24.4444 55.7524 25.1445 56.1699C25.1951 56.1994 25.2288 56.3006 25.2288 56.3681C25.233 57.8568 25.233 59.3456 25.233 60.9187C24.8872 60.7331 24.5709 60.6024 24.301 60.4042C23.8961 60.1089 23.5756 60.1511 23.1707 60.4379C22.5255 60.9018 21.8338 61.294 21.1506 61.7284C20.0161 61.0199 18.9069 60.2776 17.7472 59.6282C17.1609 59.2992 16.9712 58.9238 16.9965 58.2617C17.0513 56.7055 17.0175 55.1493 17.0091 53.593C17.0091 53.3611 17.085 53.2346 17.279 53.1123C18.4979 52.3616 19.7167 51.6024 20.9271 50.8391C21.0958 50.7337 21.2096 50.7337 21.3741 50.8391C22.5719 51.6024 23.7738 52.3616 24.98 53.1123C25.1614 53.2261 25.2499 53.3442 25.2373 53.5677C25.2204 53.9768 25.233 54.3901 25.233 54.8625C25.0812 54.7739 24.9758 54.7149 24.8746 54.6516C23.7106 53.9178 22.5423 53.184 21.3826 52.4459C21.2223 52.3447 21.1042 52.3194 20.9313 52.4333C20.4547 52.7496 19.9571 53.0321 19.4847 53.3484C19.3877 53.4159 19.2949 53.572 19.2949 53.6901C19.2823 55.3812 19.2823 57.0724 19.2907 58.7636C19.2907 58.869 19.3835 59.0124 19.4721 59.0757C19.9655 59.4046 20.4716 59.7167 20.9819 60.0162C21.0663 60.0668 21.2392 60.0541 21.3277 59.9993C21.7832 59.7336 22.2134 59.4342 22.6689 59.1685C22.8882 59.0419 22.9725 58.8943 22.9683 58.6328C22.9514 57.5363 22.9599 56.4398 22.9599 55.3433C22.9683 55.2252 22.9683 55.1029 22.9683 54.8878Z" fill="white" fill-opacity="0.95"/>
<path d="M29.8132 55.7441C29.6235 56.0731 29.459 56.3641 29.2565 56.7141C29.0583 56.3768 28.8896 56.0815 28.6914 55.7441C29.0752 55.7441 29.4168 55.7441 29.8132 55.7441Z" fill="white" fill-opacity="0.95"/>
<path d="M46.0588 56.2251C45.654 56.4275 45.3419 56.5794 44.9918 56.7565C44.9918 56.3896 44.9918 56.0817 44.9918 55.7021C45.3334 55.8666 45.654 56.0227 46.0588 56.2251Z" fill="white" fill-opacity="0.95"/>
<path d="M13.5552 56.6936C13.1545 56.6936 12.8256 56.6936 12.4249 56.6936C12.6189 56.3605 12.7876 56.0737 12.9943 55.7236C13.1883 56.061 13.357 56.352 13.5552 56.6936Z" fill="white" fill-opacity="0.95"/>
</svg>
