<svg width="49" height="32" viewBox="0 0 49 32" fill="none" xmlns="http://www.w3.org/2000/svg">
<path d="M48.0876 15.8602C48.0876 20.8189 48.0876 25.7775 48.0876 30.7333C48.0876 31.5531 48.0849 31.5531 47.2633 31.5531C45.3465 31.5531 43.4268 31.5389 41.51 31.5617C41.007 31.5674 40.8337 31.4108 40.8337 30.8814C40.8477 20.9014 40.8477 10.9243 40.8337 0.944403C40.8337 0.451953 40.9735 0.272622 41.4624 0.278315C43.4408 0.295394 45.4219 0.301087 47.4003 0.275468C47.934 0.266929 48.1016 0.426334 48.1016 0.987101C48.0765 5.94576 48.0849 10.9016 48.0876 15.8602Z" fill="white"/>
<path d="M0.738877 15.9143C0.738877 10.9528 0.741671 5.99126 0.733288 1.02976C0.733288 0.574312 0.772408 0.275427 1.34803 0.275427C9.7867 0.292506 18.2254 0.224189 26.664 0.335204C30.0367 0.380748 32.4454 2.28223 33.9906 5.30809C34.6305 6.56341 34.8736 7.91551 34.8736 9.3217C34.8736 16.4893 34.868 23.6597 34.8848 30.8272C34.8848 31.4079 34.7059 31.5787 34.1415 31.5673C32.2442 31.5332 30.3441 31.5332 28.4468 31.5673C27.8572 31.5787 27.7119 31.3595 27.7147 30.7959C27.7287 24.488 27.7259 18.183 27.7231 11.875C27.7203 9.61489 26.5774 7.85574 24.5069 7.06156C23.8865 6.82245 23.1824 6.72282 22.5146 6.71713C18.0158 6.68866 13.5198 6.70289 9.02107 6.70289C8.07102 6.70289 7.99558 6.7769 7.99278 7.73618C7.99278 15.345 7.99278 22.9566 7.99278 30.5654C7.99278 31.5503 7.99278 31.5503 7.02876 31.5503C5.19293 31.5503 3.35431 31.5246 1.52127 31.5645C0.873001 31.5844 0.724905 31.3538 0.7277 30.7362C0.750054 25.7946 0.738877 20.8558 0.738877 15.9143Z" fill="white"/>
<path d="M21.3689 22.0655C21.3689 24.9861 21.3549 27.9066 21.3801 30.8271C21.3856 31.3993 21.2236 31.5815 20.6508 31.5701C18.7143 31.5359 16.7751 31.5388 14.8359 31.5672C14.3106 31.5758 14.1764 31.3879 14.1792 30.8812C14.1932 24.9974 14.1932 19.1165 14.1792 13.2327C14.1764 12.689 14.3301 12.4983 14.8778 12.5069C16.8142 12.5353 18.7534 12.5382 20.6927 12.5069C21.2571 12.4983 21.3829 12.7118 21.3801 13.2413C21.3577 16.1817 21.3689 19.125 21.3689 22.0655Z" fill="white"/>
</svg>
