<svg width="101" height="38" viewBox="0 0 101 38" fill="none" xmlns="http://www.w3.org/2000/svg">
<path fill-rule="evenodd" clip-rule="evenodd" d="M32.0993 0.530693L36.001 15.0992L33.7868 18.8717L36.001 22.6441L32.0993 37.2126L17.5544 33.3078L15.3978 29.5023L11.0269 29.5354L0.375488 18.8717L11.0269 8.20793L15.3978 8.24102L17.5544 4.43549L32.0993 0.530693ZM26.8897 31.7855L20.4966 20.5457L7.70213 20.5457L15.7512 28.8833L26.8897 31.7855ZM92.8283 31.5634H89.0858L91.5011 25.8178L85.9615 11.5661H89.704L93.2899 21.4192L96.8181 11.5661H100.561L92.8283 31.5634ZM52.8408 11.5661H56.3449V26.4338H53.0552V24.4564C52.4368 25.6161 51.1259 26.9177 48.4792 26.8927C43.656 26.8676 42.749 23.1549 42.749 20.5601V11.5661L46.2614 11.5661V19.659C46.2614 21.8533 46.9787 23.5804 49.4686 23.5554C51.9833 23.5554 52.8408 21.8784 52.8408 19.7675V11.5661ZM61.2025 26.4404H57.6984V11.5726H60.9882C60.9882 12.2234 60.9882 12.8492 60.9634 13.55C61.6065 12.3819 62.9175 11.0887 65.5394 11.1138C70.3298 11.1471 71.2367 14.8516 71.2367 17.4797V26.4404H67.7326V18.3808C67.7326 16.1531 67.0153 14.4511 64.55 14.4511C62.06 14.4761 61.2025 16.1531 61.2025 18.2389V26.4404ZM72.5414 26.4404H76.0722V11.566L72.5414 11.566V26.4404ZM76.0722 9.81336L72.5414 9.81336V6.46778L76.0722 6.46778V9.81336ZM79.7057 26.4404L83.2155 26.4404V14.3503H85.7343L84.6937 11.623H83.2155V6.46772H79.7057V11.623H77.2696V14.3503H79.7057V26.4404ZM23.5812 18.8717L29.9866 7.74234L33.082 18.8717L29.9866 30.001L23.5812 18.8717ZM26.8897 5.94966L20.4966 17.1894L7.70213 17.1894L15.7512 8.85186L26.8897 5.94966Z" fill="white"/>
</svg>
