<svg width="152" height="29" viewBox="0 0 152 29" fill="none" xmlns="http://www.w3.org/2000/svg">
<path d="M142.57 4.78413L144.597 7.66732L148.436 2.10297L145.911 0.251831L142.57 4.78413Z" fill="white"/>
<path d="M144.795 8.38806V11.79L150.157 13.5374L151.068 10.5505L144.795 8.38806Z" fill="white"/>
<path d="M137.214 0.147827L134.582 2.10272L139.943 9.62196V18.7903H143.182V8.49162L137.214 0.147827Z" fill="white"/>
<path d="M138.324 8.38806V11.79L132.962 13.6412L131.954 10.5505L138.324 8.38806Z" fill="white"/>
<path d="M0.26416 23.2246L2.47848 23.0335C2.64469 24.1311 3.02536 24.9556 3.62049 25.5071C4.21562 26.0587 4.93943 26.3372 5.78119 26.3372C6.79453 26.3372 7.65773 25.9495 8.3601 25.1686C9.06246 24.3877 9.41632 23.3557 9.41632 22.067C9.41632 20.8438 9.07854 19.8773 8.40299 19.1674C7.72743 18.4575 6.84278 18.108 5.74902 18.108C5.06811 18.108 4.45689 18.2664 3.91001 18.5776C3.36313 18.8944 2.93421 19.2984 2.62324 19.8008L0.639468 19.5387L2.30155 10.556H10.8425V12.6092H3.99044L3.06289 17.3108C4.0923 16.5791 5.17534 16.2132 6.30662 16.2132C7.80786 16.2132 9.07318 16.7429 10.1026 17.8022C11.132 18.8616 11.6467 20.2213 11.6467 21.8813C11.6467 23.4649 11.1964 24.83 10.2903 25.9877C9.19114 27.402 7.68454 28.1119 5.78119 28.1119C4.22098 28.1119 2.94493 27.6641 1.95841 26.774C0.966523 25.8785 0.40356 24.699 0.26416 23.2246Z" fill="white"/>
<path d="M19.303 27.806V20.3959L12.6815 10.3157H15.4481L18.8312 15.5906C19.4585 16.579 20.0376 17.5619 20.5791 18.5503C21.0938 17.6329 21.7211 16.6063 22.4556 15.4596L25.7851 10.3157H28.4337L21.5763 20.3959V27.806H19.303Z" fill="white"/>
<path d="M48.9524 21.6737L51.2257 22.258C50.7485 24.1583 49.8906 25.6108 48.6521 26.6046C47.4136 27.6039 45.9016 28.1008 44.1109 28.1008C42.2611 28.1008 40.7545 27.7186 39.5965 26.9487C38.4384 26.1787 37.5537 25.0702 36.9478 23.6122C36.342 22.1543 36.0417 20.5925 36.0417 18.9216C36.0417 17.0977 36.3849 15.5087 37.0658 14.1545C37.7467 12.8003 38.7225 11.7682 39.9825 11.0638C41.2424 10.3594 42.6311 10.0099 44.1484 10.0099C45.8641 10.0099 47.3117 10.4577 48.4805 11.3477C49.6494 12.2378 50.4697 13.4937 50.9308 15.1046L48.695 15.6398C48.2982 14.3674 47.7192 13.4391 46.9632 12.8603C46.2072 12.2815 45.2529 11.9866 44.1055 11.9866C42.7866 11.9866 41.6821 12.3088 40.7974 12.9532C39.9128 13.5975 39.2855 14.4603 38.9263 15.5469C38.567 16.6336 38.3847 17.753 38.3847 18.9052C38.3847 20.3905 38.5992 21.6901 39.0228 22.7986C39.4463 23.9071 40.1112 24.7371 41.0065 25.2886C41.9019 25.8402 42.8777 26.1132 43.9232 26.1132C45.1939 26.1132 46.2716 25.7419 47.1562 24.9938C48.0409 24.2566 48.6414 23.1481 48.9524 21.6737Z" fill="white"/>
<path d="M52.1371 27.806L58.7318 10.3157H61.182L68.211 27.806H65.6214L63.6162 22.5092H56.437L54.5498 27.806H52.1371ZM57.0965 20.6253H62.9192L61.1284 15.7817C60.5815 14.3128 60.174 13.1006 59.9113 12.1559C59.6915 13.2753 59.3859 14.3893 58.9838 15.4978L57.0965 20.6253Z" fill="white"/>
<path d="M70.0286 27.806V10.3157H76.5053C77.6473 10.3157 78.5159 10.3703 79.1164 10.485C79.9581 10.6269 80.6659 10.9 81.2396 11.304C81.8079 11.7081 82.269 12.2706 82.6175 12.9914C82.966 13.7176 83.1375 14.5094 83.1375 15.3776C83.1375 16.8629 82.6711 18.1243 81.7435 19.1564C80.816 20.1884 79.1325 20.7017 76.7037 20.7017H72.2965V27.8114H70.0286V27.806ZM72.3019 18.6322H76.7412C78.2103 18.6322 79.2504 18.3537 79.867 17.7967C80.4836 17.2397 80.7945 16.4588 80.7945 15.4486C80.7945 14.7169 80.6122 14.0889 80.2477 13.5702C79.8831 13.0514 79.4059 12.7074 78.8108 12.5381C78.4301 12.4344 77.7224 12.3852 76.6876 12.3852H72.2965V18.6322H72.3019Z" fill="white"/>
<path d="M86.4188 27.806V10.3157H88.6921V27.806H86.4188Z" fill="white"/>
<path d="M97.0669 27.806V12.3798H91.4105V10.3157H105.023V12.3798H99.3402V27.806H97.0669Z" fill="white"/>
<path d="M103.688 27.806L110.283 10.3157H112.733L119.762 27.806H117.173L115.167 22.5092H107.988L106.101 27.806H103.688ZM108.642 20.6253H114.465L112.674 15.7817C112.127 14.3128 111.72 13.1006 111.457 12.1559C111.237 13.2753 110.932 14.3893 110.53 15.4978L108.642 20.6253Z" fill="white"/>
<path d="M121.483 27.806V10.3157H123.757V25.7419H132.217V27.806H121.483Z" fill="white"/>
</svg>
