<svg width="139" height="34" viewBox="0 0 139 34" fill="none" xmlns="http://www.w3.org/2000/svg">
<path d="M13.2295 0.920044C13.8981 1.04109 14.5667 1.15824 15.2315 1.2832C18.4469 1.88064 20.3484 3.73935 20.7619 6.98819C20.9474 8.45251 20.9126 9.99103 20.6885 11.4475C20.3445 13.7006 18.9532 15.2079 16.8044 15.9655C16.4643 16.0865 16.1281 16.2037 15.7416 16.3403C15.8382 16.4262 15.8575 16.4575 15.8807 16.4653C20.0083 17.3907 21.272 19.8664 21.3764 23.947C21.4073 25.1458 21.2914 26.368 21.0749 27.5473C20.588 30.183 19.0498 32.0144 16.4759 32.69C14.8373 33.1195 13.1136 33.3421 11.4208 33.3928C7.8614 33.5022 4.29425 33.4358 0.730957 33.4436C0.730957 22.6232 0.730957 11.8029 0.730957 0.920044C4.89714 0.920044 9.06333 0.920044 13.2295 0.920044ZM7.23145 23.8611C7.23145 25.2746 7.23145 26.6843 7.23145 28.0978C7.23145 28.461 7.21985 28.8202 7.73773 28.7929C9.10198 28.7226 10.4817 28.7578 11.8266 28.5547C13.2759 28.3321 14.2962 27.3755 14.5435 25.9111C14.7484 24.685 14.8063 23.3808 14.6479 22.1508C14.4121 20.3194 13.3609 19.3432 11.5522 19.0893C10.4005 18.9292 9.22179 18.98 8.0585 18.8941C7.43241 18.8472 7.19666 19.0503 7.21985 19.7102C7.26237 21.0925 7.23145 22.4788 7.23145 23.8611ZM7.23145 10.0027C7.23145 11.2406 7.20439 12.4784 7.25463 13.7163C7.26236 13.9545 7.57927 14.3723 7.75319 14.3762C9.05947 14.384 10.3812 14.4113 11.6682 14.2317C13.2488 14.0091 14.1996 12.9626 14.4315 11.3577C14.6981 9.49511 14.8141 7.60906 13.0286 6.35951C12.5184 6.00026 11.8189 5.82454 11.1889 5.75426C10.1184 5.63321 9.02855 5.67616 7.94642 5.61759C7.37831 5.58635 7.20826 5.82454 7.22372 6.37903C7.25463 7.58563 7.23145 8.79614 7.23145 10.0027Z" fill="white"/>
<path d="M40.7929 0.920044C43.3011 10.2214 45.8093 19.5228 48.3175 28.8242C48.7194 30.3197 49.1214 31.8153 49.5426 33.3811C47.2238 33.3811 44.9861 33.3811 42.6788 33.3811C42.1726 31.3233 41.6315 29.2693 41.1677 27.1958C41.0093 26.4851 40.7465 26.2118 39.989 26.2274C37.5387 26.2782 35.0846 26.2782 32.6344 26.2274C31.873 26.2118 31.5291 26.4227 31.3629 27.1997C30.961 29.0819 30.474 30.9484 29.987 32.8149C29.9252 33.0531 29.6392 33.4046 29.4537 33.4085C27.4093 33.4514 25.3648 33.4358 23.2122 33.4358C23.8228 31.1632 24.4025 28.9999 24.9822 26.8366C27.2585 18.3669 29.5387 9.89731 31.8151 1.42768C31.8576 1.26367 31.8692 1.09186 31.8924 0.923949C34.8566 0.920044 37.8247 0.920044 40.7929 0.920044ZM32.731 21.5065C35.0962 21.5065 37.3571 21.5065 39.7185 21.5065C38.5629 16.4614 37.4228 11.4944 36.2827 6.52742C36.2015 6.52742 36.1204 6.52742 36.0354 6.53132C34.9416 11.4983 33.8441 16.4692 32.731 21.5065Z" fill="white"/>
<path d="M59.4517 0.920044C59.4363 1.26367 59.4092 1.6073 59.4092 1.95093C59.4053 12.0606 59.4092 22.1703 59.4092 32.2839C59.4092 32.6236 59.4092 32.9633 59.4092 33.3694C57.1908 33.3694 55.042 33.3694 52.8314 33.3694C52.8044 33.1546 52.7541 32.936 52.7541 32.7212C52.7503 22.264 52.7503 11.8107 52.7541 1.35348C52.7541 1.209 52.7696 1.06452 52.7773 0.923949C55.0034 0.920044 57.2256 0.920044 59.4517 0.920044Z" fill="white"/>
<path d="M70.9224 1.31836H73.1562C74.2035 1.31836 74.9649 1.47846 75.4325 1.79475C75.9001 2.11105 76.1359 2.61087 76.1359 3.29812C76.1359 3.77061 76.0045 4.1611 75.7456 4.46958C75.4828 4.77806 75.104 4.97721 74.6016 5.06702V5.12169C75.8035 5.32865 76.4026 5.96514 76.4026 7.03507C76.4026 7.74966 76.163 8.30415 75.6876 8.70635C75.2084 9.10855 74.5436 9.3077 73.6857 9.3077H70.9301V1.31836H70.9224ZM71.8422 4.73511H73.3572C74.0064 4.73511 74.4741 4.63358 74.7562 4.42663C75.0422 4.21967 75.1852 3.87214 75.1852 3.38793C75.1852 2.93887 75.0267 2.61868 74.7098 2.41953C74.3929 2.22038 73.8866 2.12276 73.1948 2.12276H71.8422V4.73511ZM71.8422 5.52389V8.51111H73.4924C74.1301 8.51111 74.6093 8.38615 74.934 8.13624C75.2547 7.88633 75.4171 7.49584 75.4171 6.96478C75.4171 6.46887 75.2509 6.10571 74.9224 5.87142C74.5939 5.63713 74.0915 5.51999 73.4151 5.51999H71.8422V5.52389Z" fill="white"/>
<path d="M80.4644 9.41319C79.5871 9.41319 78.8992 9.14376 78.3929 8.60489C77.8867 8.06602 77.6316 7.31628 77.6316 6.35959C77.6316 5.39509 77.8673 4.62974 78.3388 4.05963C78.8103 3.49343 79.4403 3.20837 80.2326 3.20837C80.9746 3.20837 81.562 3.45438 81.9949 3.9503C82.4277 4.44231 82.6442 5.09442 82.6442 5.90273V6.47674H78.563C78.5823 7.17961 78.7562 7.71458 79.0886 8.07773C79.421 8.44088 79.8925 8.62441 80.4954 8.62441C81.133 8.62441 81.763 8.49165 82.3891 8.22221V9.03052C82.0722 9.16719 81.7707 9.26871 81.4886 9.32728C81.2065 9.38195 80.8664 9.41319 80.4644 9.41319ZM80.221 3.96592C79.7456 3.96592 79.3669 4.12211 79.0847 4.4345C78.8026 4.74689 78.6364 5.18033 78.5862 5.73482H81.6857C81.6857 5.16471 81.5582 4.72346 81.307 4.42278C81.0519 4.11821 80.6925 3.96592 80.221 3.96592Z" fill="white"/>
<path d="M86.876 3.20837C87.1388 3.20837 87.3746 3.2318 87.5833 3.27476L87.4596 4.1143C87.2161 4.05963 86.9997 4.0323 86.8103 4.0323C86.3311 4.0323 85.9214 4.22754 85.5813 4.62193C85.2412 5.01632 85.0712 5.50443 85.0712 6.09016V9.30386H84.1746V3.31381H84.9166L85.0209 4.42279H85.0635C85.2837 4.0323 85.5465 3.73163 85.8596 3.52076C86.1649 3.31381 86.505 3.20837 86.876 3.20837Z" fill="white"/>
<path d="M90.6095 8.66337C90.7679 8.66337 90.9225 8.65165 91.0694 8.62823C91.2162 8.6048 91.336 8.58137 91.4211 8.55403V9.2491C91.3244 9.29596 91.1814 9.335 90.9921 9.36624C90.8027 9.39748 90.6326 9.4131 90.4819 9.4131C89.3341 9.4131 88.7621 8.80394 88.7621 7.58172V4.02049H87.9119V3.58315L88.7621 3.20438L89.1408 1.92749H89.6587V3.31371H91.3785V4.01659H89.6587V7.53877C89.6587 7.89802 89.7437 8.17526 89.9138 8.3705C90.08 8.56575 90.3119 8.66337 90.6095 8.66337Z" fill="white"/>
<path d="M95.108 9.41319C94.2307 9.41319 93.5428 9.14376 93.0365 8.60489C92.5302 8.06602 92.2751 7.31628 92.2751 6.35959C92.2751 5.39509 92.5109 4.62974 92.9824 4.05963C93.4539 3.49343 94.0838 3.20837 94.8761 3.20837C95.6181 3.20837 96.2056 3.45438 96.6384 3.9503C97.0713 4.44231 97.2877 5.09442 97.2877 5.90273V6.47674H93.2065C93.2259 7.17961 93.3998 7.71458 93.7322 8.07773C94.0645 8.44088 94.536 8.62441 95.1389 8.62441C95.7766 8.62441 96.4065 8.49165 97.0326 8.22221V9.03052C96.7157 9.16719 96.4143 9.26871 96.1322 9.32728C95.8462 9.38195 95.5061 9.41319 95.108 9.41319ZM94.8645 3.96592C94.3892 3.96592 94.0104 4.12211 93.7283 4.4345C93.4462 4.74689 93.28 5.18033 93.2297 5.73482H96.3293C96.3293 5.16471 96.2017 4.72346 95.9505 4.42278C95.6916 4.11821 95.3322 3.96592 94.8645 3.96592Z" fill="white"/>
<path d="M99.7108 9.30373H98.8142V0.802856H99.7108V9.30373Z" fill="white"/>
<path d="M105.438 7.66772C105.438 8.22612 105.234 8.65565 104.824 8.95632C104.414 9.257 103.835 9.40929 103.092 9.40929C102.308 9.40929 101.693 9.28433 101.253 9.03052V8.19097C101.539 8.33545 101.844 8.4526 102.169 8.5346C102.493 8.62051 102.81 8.65955 103.112 8.65955C103.579 8.65955 103.939 8.58536 104.194 8.43307C104.445 8.28078 104.573 8.0504 104.573 7.74191C104.573 7.50762 104.472 7.30847 104.271 7.14447C104.07 6.98047 103.68 6.78132 103.1 6.55874C102.548 6.35178 102.157 6.16826 101.925 6.01597C101.693 5.85977 101.52 5.68405 101.407 5.48881C101.295 5.29357 101.237 5.05928 101.237 4.78594C101.237 4.29783 101.435 3.91125 101.825 3.6301C102.219 3.34895 102.756 3.20837 103.44 3.20837C104.078 3.20837 104.7 3.34114 105.311 3.60276L104.99 4.34078C104.395 4.09478 103.858 3.96982 103.375 3.96982C102.95 3.96982 102.629 4.0362 102.412 4.17287C102.196 4.30954 102.088 4.49307 102.088 4.73127C102.088 4.89137 102.13 5.02804 102.207 5.14128C102.289 5.25452 102.42 5.35995 102.598 5.46538C102.779 5.56691 103.123 5.71529 103.637 5.90663C104.341 6.16435 104.816 6.42598 105.064 6.6876C105.315 6.94142 105.438 7.27333 105.438 7.66772Z" fill="white"/>
<path d="M114.451 9.30361V5.41047C114.451 4.93408 114.35 4.57483 114.149 4.33663C113.948 4.09844 113.635 3.97739 113.21 3.97739C112.65 3.97739 112.24 4.14139 111.974 4.46549C111.707 4.7896 111.572 5.28942 111.572 5.96105V9.30361H110.675V5.41047C110.675 4.93408 110.575 4.57483 110.374 4.33663C110.173 4.09844 109.856 3.97739 109.427 3.97739C108.862 3.97739 108.453 4.1492 108.19 4.48892C107.927 4.82864 107.8 5.38704 107.8 6.1641V9.30361H106.903V3.31356H107.634L107.78 4.13358H107.823C107.993 3.84072 108.233 3.61423 108.538 3.45023C108.847 3.28623 109.191 3.20422 109.574 3.20422C110.501 3.20422 111.104 3.54395 111.39 4.21949H111.433C111.61 3.9071 111.865 3.65719 112.202 3.47756C112.538 3.29404 112.92 3.20422 113.349 3.20422C114.018 3.20422 114.52 3.37994 114.857 3.72747C115.189 4.07501 115.355 4.6334 115.355 5.39485V9.29971H114.451V9.30361Z" fill="white"/>
<path d="M120.839 9.30362L120.662 8.45236H120.619C120.325 8.82722 120.028 9.08104 119.734 9.2138C119.44 9.34657 119.073 9.41295 118.633 9.41295C118.045 9.41295 117.585 9.26066 117.253 8.95218C116.921 8.6476 116.754 8.21026 116.754 7.64796C116.754 6.43745 117.713 5.80486 119.626 5.74629L120.631 5.71505V5.34409C120.631 4.87551 120.53 4.52798 120.329 4.3054C120.128 4.08282 119.808 3.96958 119.371 3.96958C118.876 3.96958 118.32 4.12187 117.694 4.43035L117.419 3.73529C117.713 3.57519 118.03 3.45024 118.378 3.35652C118.725 3.26671 119.073 3.21985 119.425 3.21985C120.132 3.21985 120.654 3.37995 120.994 3.69624C121.334 4.01253 121.504 4.52017 121.504 5.21914V9.30362H120.839ZM118.814 8.66322C119.375 8.66322 119.811 8.50702 120.132 8.19854C120.453 7.89006 120.611 7.45662 120.611 6.89822V6.35935L119.715 6.3984C119 6.42574 118.486 6.53507 118.173 6.73422C117.856 6.93337 117.701 7.24185 117.701 7.65967C117.701 7.98768 117.798 8.23759 117.995 8.4094C118.184 8.57731 118.459 8.66322 118.814 8.66322Z" fill="white"/>
<path d="M127.409 9.30361V5.42999C127.409 4.94188 127.301 4.57873 127.081 4.33663C126.861 4.09453 126.517 3.97739 126.049 3.97739C125.431 3.97739 124.975 4.14529 124.685 4.48502C124.395 4.82474 124.252 5.38313 124.252 6.1641V9.30361H123.355V3.31356H124.086L124.233 4.13358H124.275C124.461 3.83681 124.716 3.61033 125.048 3.44632C125.38 3.28623 125.747 3.20422 126.157 3.20422C126.872 3.20422 127.409 3.37994 127.769 3.72747C128.128 4.07501 128.31 4.6334 128.31 5.39485V9.29971H127.409V9.30361Z" fill="white"/>
<path d="M134.204 9.30361V5.42999C134.204 4.94188 134.095 4.57873 133.875 4.33663C133.655 4.09453 133.311 3.97739 132.843 3.97739C132.225 3.97739 131.769 4.14529 131.479 4.48502C131.189 4.82474 131.046 5.38313 131.046 6.1641V9.30361H130.15V3.31356H130.88L131.027 4.13358H131.069C131.255 3.83681 131.51 3.61033 131.842 3.44632C132.175 3.28623 132.542 3.20422 132.951 3.20422C133.666 3.20422 134.204 3.37994 134.563 3.72747C134.922 4.07501 135.104 4.6334 135.104 5.39485V9.29971H134.204V9.30361Z" fill="white"/>
<path d="M76.7582 21.678L76.1862 19.7764H73.3031L72.7311 21.678H70.9263L73.7166 13.6575H75.7649L78.5669 21.678H76.7582ZM75.7842 18.3589C75.2548 16.6369 74.9572 15.6607 74.8876 15.4381C74.8219 15.2116 74.7717 15.032 74.7446 14.9031C74.6248 15.3678 74.2847 16.5236 73.7243 18.3628H75.7842V18.3589Z" fill="white"/>
<path d="M83.6451 19.8662C83.6451 20.491 83.4287 20.9713 82.9997 21.2993C82.5707 21.6273 81.9253 21.7913 81.0674 21.7913C80.6268 21.7913 80.2519 21.7601 79.9427 21.7015C79.6335 21.6429 79.3437 21.5531 79.0732 21.436V20.0576C79.3785 20.202 79.7263 20.327 80.1089 20.4246C80.4915 20.5222 80.8316 20.573 81.1215 20.573C81.7205 20.573 82.0181 20.3973 82.0181 20.0498C82.0181 19.917 81.9794 19.8116 81.8983 19.7296C81.8171 19.6476 81.6819 19.5538 81.4886 19.4523C81.2954 19.3469 81.0326 19.2258 80.7118 19.0892C80.248 18.8939 79.9041 18.7104 79.6877 18.5425C79.4712 18.3746 79.3128 18.1832 79.2123 17.9646C79.1118 17.7498 79.0654 17.4804 79.0654 17.1641C79.0654 16.6213 79.2741 16.2035 79.6915 15.9067C80.1089 15.6099 80.6963 15.4615 81.4616 15.4615C82.1881 15.4615 82.8992 15.6216 83.5872 15.9418L83.0886 17.1445C82.7872 17.0118 82.5012 16.9063 82.2384 16.8204C81.9756 16.7384 81.705 16.6955 81.4345 16.6955C80.9476 16.6955 80.7041 16.8282 80.7041 17.0938C80.7041 17.2422 80.7814 17.371 80.9398 17.4804C81.0983 17.5897 81.4384 17.7537 81.9678 17.9646C82.4393 18.1559 82.7872 18.3394 83.0075 18.5073C83.2277 18.6752 83.3901 18.8666 83.4944 19.0853C83.591 19.3039 83.6451 19.5656 83.6451 19.8662Z" fill="white"/>
<path d="M84.8625 13.9935C84.8625 13.4507 85.1601 13.1813 85.7592 13.1813C86.3582 13.1813 86.6558 13.4507 86.6558 13.9935C86.6558 14.2512 86.5824 14.4543 86.4316 14.5987C86.2809 14.7432 86.0567 14.8135 85.7592 14.8135C85.1601 14.8135 84.8625 14.5402 84.8625 13.9935ZM86.5785 21.6782H84.9282V15.575H86.5785V21.6782Z" fill="white"/>
<path d="M92.1474 21.6782L91.8267 20.8465H91.7842C91.5059 21.1979 91.2199 21.4439 90.9262 21.5806C90.6325 21.7172 90.2499 21.7836 89.7784 21.7836C89.1987 21.7836 88.7426 21.6157 88.4064 21.2799C88.074 20.9441 87.9078 20.4677 87.9078 19.8468C87.9078 19.1986 88.132 18.7222 88.5803 18.4137C89.0286 18.1052 89.7049 17.9373 90.6093 17.9022L91.6566 17.871V17.6015C91.6566 16.9807 91.3436 16.6722 90.7175 16.6722C90.2344 16.6722 89.6663 16.8206 89.0131 17.1134L88.4682 15.9888C89.1639 15.6218 89.9368 15.4382 90.7832 15.4382C91.5948 15.4382 92.217 15.6179 92.6499 15.9732C93.0827 16.3285 93.2991 16.8713 93.2991 17.6015V21.6704H92.1474V21.6782ZM91.6605 18.8511L91.0228 18.8745C90.5436 18.8901 90.188 18.976 89.9523 19.1361C89.7165 19.2962 89.6006 19.5422 89.6006 19.8663C89.6006 20.3349 89.8673 20.5692 90.4006 20.5692C90.7832 20.5692 91.0885 20.4599 91.3165 20.2373C91.5445 20.0147 91.6605 19.7219 91.6605 19.3509V18.8511Z" fill="white"/>
<path d="M70.9224 32.9868V25.0013H72.5997V32.9868H70.9224Z" fill="white"/>
<path d="M80.0393 32.9868H78.389V29.4178C78.389 28.9765 78.3117 28.6485 78.1571 28.4259C78.0025 28.2072 77.7552 28.094 77.4151 28.094C76.9552 28.094 76.619 28.2502 76.4141 28.5626C76.2093 28.875 76.105 29.3904 76.105 30.1128V32.9868H74.4547V26.8796H75.7146L75.9349 27.6606H76.0277C76.2132 27.3638 76.4644 27.1412 76.789 26.9928C77.1098 26.8406 77.4769 26.7664 77.8905 26.7664C78.5938 26.7664 79.1272 26.9577 79.4905 27.3443C79.8537 27.7309 80.0354 28.2814 80.0354 29.0077V32.9868H80.0393Z" fill="white"/>
<path d="M83.1736 32.9867L80.8702 26.8795H82.5939L83.7611 30.3587C83.8925 30.8 83.9736 31.2178 84.0045 31.6083H84.0355C84.0548 31.2569 84.1359 30.8429 84.2789 30.3587L85.4422 26.8795H87.1659L84.8625 32.9867H83.1736Z" fill="white"/>
<path d="M90.7717 33.0961C89.7978 33.0961 89.0365 32.8267 88.4915 32.2839C87.9427 31.7411 87.6683 30.9719 87.6683 29.9801C87.6683 28.957 87.9195 28.1643 88.4297 27.6059C88.936 27.0475 89.6355 26.7664 90.5282 26.7664C91.3823 26.7664 92.0471 27.0124 92.5224 27.5044C92.9978 27.9964 93.2374 28.6758 93.2374 29.5427V30.351H89.3379C89.3572 30.8235 89.4964 31.1945 89.7553 31.46C90.0142 31.7255 90.3775 31.8583 90.849 31.8583C91.2123 31.8583 91.5563 31.8192 91.8809 31.7451C92.2055 31.667 92.5456 31.5459 92.8973 31.378V32.6666C92.6075 32.8111 92.3021 32.9204 91.9736 32.9907C91.6413 33.061 91.2432 33.0961 90.7717 33.0961ZM90.536 27.9495C90.1881 27.9495 89.9137 28.0628 89.7128 28.2853C89.5157 28.5079 89.3997 28.8281 89.3727 29.2381H91.6877C91.6799 28.8281 91.5756 28.5079 91.3669 28.2853C91.1659 28.0628 90.8877 27.9495 90.536 27.9495Z" fill="white"/>
<path d="M98.7948 31.1749C98.7948 31.7997 98.5784 32.28 98.1494 32.608C97.7204 32.936 97.075 33.1 96.217 33.1C95.7764 33.1 95.4016 33.0688 95.0924 33.0102C94.7832 32.9516 94.4934 32.8618 94.2228 32.7447V31.3663C94.5281 31.5108 94.876 31.6357 95.2586 31.7333C95.6412 31.831 95.9813 31.8817 96.2711 31.8817C96.8702 31.8817 97.1677 31.706 97.1677 31.3585C97.1677 31.2257 97.1291 31.1203 97.0479 31.0383C96.9668 30.9563 96.8315 30.8626 96.6383 30.761C96.445 30.6556 96.1822 30.5345 95.8615 30.3979C95.3977 30.2026 95.0537 30.0191 94.8373 29.8512C94.6209 29.6833 94.4624 29.4919 94.3619 29.2733C94.2615 29.0585 94.2151 28.7891 94.2151 28.4728C94.2151 27.93 94.4238 27.5122 94.8412 27.2154C95.2586 26.9186 95.846 26.7703 96.6112 26.7703C97.3378 26.7703 98.0489 26.9304 98.7368 27.2506L98.2383 28.4533C97.9368 28.3205 97.6508 28.2151 97.388 28.1292C97.1252 28.0472 96.8547 28.0042 96.5842 28.0042C96.0972 28.0042 95.8537 28.137 95.8537 28.4025C95.8537 28.5509 95.931 28.6797 96.0895 28.7891C96.2479 28.8984 96.588 29.0624 97.1175 29.2733C97.589 29.4646 97.9368 29.6481 98.1571 29.8161C98.3774 29.984 98.5397 30.1753 98.6441 30.394C98.7407 30.6087 98.7948 30.8704 98.7948 31.1749Z" fill="white"/>
<path d="M102.625 31.7683C102.915 31.7683 103.259 31.7058 103.664 31.577V32.8187C103.255 33.0061 102.748 33.096 102.149 33.096C101.489 33.096 101.009 32.928 100.708 32.5922C100.406 32.2564 100.256 31.7488 100.256 31.0771V28.1329H99.4673V27.43L100.375 26.8716L100.851 25.583H101.906V26.8833H103.599V28.1329H101.906V31.0771C101.906 31.3153 101.972 31.4872 102.103 31.6004C102.234 31.7136 102.408 31.7683 102.625 31.7683Z" fill="white"/>
<path d="M110.3 32.9865H108.65V29.4175C108.65 28.9763 108.577 28.6483 108.43 28.4257C108.283 28.207 108.055 28.0938 107.742 28.0938C107.321 28.0938 107.015 28.25 106.822 28.5623C106.633 28.8747 106.536 29.3902 106.536 30.1087V32.9826H104.886V26.8794H106.146L106.366 27.6603H106.459C106.621 27.3792 106.857 27.1605 107.162 27.0004C107.467 26.8403 107.819 26.7622 108.217 26.7622C109.122 26.7622 109.736 27.059 110.057 27.6564H110.204C110.366 27.3714 110.606 27.1527 110.919 26.9965C111.236 26.8403 111.591 26.7622 111.985 26.7622C112.669 26.7622 113.187 26.9379 113.539 27.2933C113.891 27.6486 114.065 28.2187 114.065 28.9997V32.9826H112.41V29.4136C112.41 28.9724 112.337 28.6443 112.19 28.4218C112.043 28.2031 111.815 28.0899 111.502 28.0899C111.1 28.0899 110.795 28.2343 110.598 28.5272C110.397 28.8201 110.296 29.2808 110.296 29.9134V32.9865H110.3Z" fill="white"/>
<path d="M118.493 33.0961C117.519 33.0961 116.758 32.8267 116.213 32.2839C115.664 31.7411 115.39 30.9719 115.39 29.9801C115.39 28.957 115.641 28.1643 116.151 27.6059C116.658 27.0475 117.357 26.7664 118.25 26.7664C119.104 26.7664 119.769 27.0124 120.244 27.5044C120.719 27.9964 120.959 28.6758 120.959 29.5427V30.351H117.06C117.079 30.8235 117.218 31.1945 117.477 31.46C117.736 31.7255 118.099 31.8583 118.571 31.8583C118.934 31.8583 119.278 31.8192 119.603 31.7451C119.927 31.667 120.267 31.5459 120.619 31.378V32.6666C120.329 32.8111 120.024 32.9204 119.695 32.9907C119.367 33.061 118.965 33.0961 118.493 33.0961ZM118.262 27.9495C117.914 27.9495 117.639 28.0628 117.438 28.2853C117.241 28.5079 117.125 28.8281 117.098 29.2381H119.413C119.405 28.8281 119.301 28.5079 119.092 28.2853C118.888 28.0628 118.613 27.9495 118.262 27.9495Z" fill="white"/>
<path d="M127.881 32.9868H126.231V29.4178C126.231 28.9765 126.153 28.6485 125.999 28.4259C125.844 28.2072 125.597 28.094 125.257 28.094C124.797 28.094 124.461 28.2502 124.256 28.5626C124.051 28.875 123.947 29.3904 123.947 30.1128V32.9868H122.296V26.8796H123.556L123.777 27.6606H123.869C124.055 27.3638 124.306 27.1412 124.631 26.9928C124.951 26.8406 125.319 26.7664 125.732 26.7664C126.436 26.7664 126.969 26.9577 127.332 27.3443C127.695 27.7309 127.877 28.2814 127.877 29.0077V32.9868H127.881Z" fill="white"/>
<path d="M132.124 31.7683C132.414 31.7683 132.758 31.7058 133.164 31.577V32.8187C132.754 33.0061 132.248 33.096 131.649 33.096C130.988 33.096 130.509 32.928 130.207 32.5922C129.906 32.2564 129.755 31.7488 129.755 31.0771V28.1329H128.967V27.43L129.875 26.8716L130.351 25.583H131.406V26.8833H133.098V28.1329H131.406V31.0771C131.406 31.3153 131.471 31.4872 131.603 31.6004C131.734 31.7136 131.908 31.7683 132.124 31.7683Z" fill="white"/>
<path d="M138.602 31.1749C138.602 31.7997 138.385 32.28 137.956 32.608C137.527 32.936 136.882 33.1 136.024 33.1C135.583 33.1 135.208 33.0688 134.899 33.0102C134.59 32.9516 134.3 32.8618 134.03 32.7447V31.3663C134.335 31.5108 134.683 31.6357 135.065 31.7333C135.448 31.831 135.788 31.8817 136.078 31.8817C136.677 31.8817 136.975 31.706 136.975 31.3585C136.975 31.2257 136.936 31.1203 136.855 31.0383C136.774 30.9563 136.638 30.8626 136.445 30.761C136.252 30.6556 135.989 30.5345 135.668 30.3979C135.205 30.2026 134.861 30.0191 134.644 29.8512C134.428 29.6833 134.269 29.4919 134.169 29.2733C134.068 29.0585 134.022 28.7891 134.022 28.4728C134.022 27.93 134.231 27.5122 134.648 27.2154C135.065 26.9186 135.653 26.7703 136.418 26.7703C137.145 26.7703 137.856 26.9304 138.544 27.2506L138.045 28.4533C137.744 28.3205 137.458 28.2151 137.195 28.1292C136.932 28.0472 136.662 28.0042 136.391 28.0042C135.904 28.0042 135.661 28.137 135.661 28.4025C135.661 28.5509 135.738 28.6797 135.896 28.7891C136.055 28.8984 136.395 29.0624 136.924 29.2733C137.396 29.4646 137.744 29.6481 137.964 29.8161C138.184 29.984 138.347 30.1753 138.451 30.394C138.548 30.6087 138.602 30.8704 138.602 31.1749Z" fill="white"/>
</svg>
