<svg width="95" height="44" viewBox="0 0 95 44" fill="none" xmlns="http://www.w3.org/2000/svg">
<path d="M88.1122 39.1168C87.6906 39.1168 87.3116 39.1168 86.9742 39.0745C86.2578 39.0325 85.5413 38.9902 84.8249 38.9902C84.3614 38.9902 84.3614 38.9902 84.3191 38.5259L83.6446 30.8432L82.9705 24.4693L82.507 20.5436L82.0853 17.1246L81.3266 11.8058C81.0737 9.90652 80.779 8.04916 80.3996 6.14944C80.3573 5.85421 80.3573 5.81185 80.6948 5.76949C82.0012 5.5162 83.3498 5.38955 84.6985 5.38955H85.162C85.3726 5.43191 85.4991 5.55856 85.5413 5.81185L85.7101 8.72432L86.89 24.4693L87.48 31.6874L87.8593 35.8244L88.1122 39.1168ZM36.4415 5.38955H37.2002C37.5796 5.38955 37.6637 5.5162 37.6637 5.89614L38.0012 11.004L38.7599 21.5988L39.2234 27.1285L39.5605 31.3922L40.235 38.7369C40.235 39.0745 40.1927 39.1168 39.8557 39.1168L36.8209 38.9902C36.6103 39.0325 36.4838 38.9059 36.4838 38.6945L36.3574 37.2171C36.2309 35.951 36.1045 34.6846 36.0203 33.3762L35.3458 26.7066L34.6294 20.6703L34.1236 16.4071L33.5759 12.5233C33.323 10.7926 33.0278 9.01998 32.733 7.28927L32.522 6.10751C32.4801 5.89614 32.522 5.81185 32.733 5.76949C33.913 5.55856 35.051 5.34762 36.4415 5.38955ZM78.8403 22.401C79.8938 22.401 80.0203 22.4434 80.189 23.4561C80.3996 24.7226 80.5684 25.9891 80.6948 27.2551L81.1583 31.3498L82.0435 40.0453C82.0853 40.2566 82.0435 40.3409 81.8324 40.3409L78.5452 40.7209C78.2081 40.7628 78.1235 40.7209 78.0816 40.3833L76.1849 30.6746L75.005 24.216L74.8362 23.3295C74.7944 23.1609 74.8785 23.0343 75.0473 22.9919C76.3536 22.6967 77.6181 22.4853 78.8403 22.401ZM30.9204 22.401C32.0585 22.3586 32.1849 22.4853 32.3114 23.5408C32.6066 25.2716 32.8172 26.9599 32.9859 28.6906L33.5336 33.7557L33.8707 37.1752L34.1659 39.9186C34.1659 40.2986 34.1236 40.3833 33.7865 40.4252L30.668 40.7209C30.3305 40.7628 30.2463 40.7209 30.204 40.3833L27.6332 27.1285L26.9591 23.3718C26.9168 23.1609 27.0009 23.0343 27.212 22.9919C28.5183 22.6967 29.7405 22.4853 30.9204 22.401ZM47.0202 35.4864V40.7209V40.8895C47.0625 41.1427 46.936 41.2694 46.6831 41.2275H45.6715C44.9551 41.2275 44.2387 41.2694 43.5223 41.3118C43.143 41.3541 43.1007 41.3541 43.0584 40.8895L42.3843 33.2914L42.0472 29.5348L41.5414 23.7941C41.4991 23.3295 41.5837 23.2452 41.9626 23.2028C43.143 23.0762 44.3229 23.0762 45.5032 23.1185L46.3879 23.2452C46.7254 23.3718 46.7673 23.4142 46.7673 23.7518L46.8937 26.031L46.936 28.564C46.9783 30.8856 47.0202 33.1648 47.0202 35.4864ZM94.8555 35.7397V40.6785V40.9318C94.8555 41.1427 94.7714 41.2694 94.5603 41.2275H93.0433C92.4534 41.2275 91.863 41.2694 91.3153 41.3118C90.9783 41.3541 90.936 41.3118 90.8937 40.9318L90.009 31.0541L89.545 26.1577L89.3767 23.6675C89.3344 23.3295 89.4186 23.2452 89.7561 23.2452C91.1466 23.0762 92.5798 23.0343 93.9704 23.2028C94.5185 23.2452 94.6026 23.4142 94.6449 23.9627L94.7713 29.5767L94.8555 35.7397ZM77.6181 13.4099C78.0393 13.4099 78.4187 13.4522 78.7139 13.4942C78.9245 13.5365 79.0087 13.6208 79.0509 13.8322L79.5986 19.6995C79.7251 20.2061 79.6409 20.2904 79.1351 20.2904L77.7023 20.3746C77.4071 20.417 77.2806 20.4594 77.2806 19.9951L76.6907 15.2249L76.5224 13.8741C76.4801 13.6208 76.5642 13.4942 76.8171 13.4522L77.6181 13.4099ZM29.867 13.4099C30.204 13.4099 30.5415 13.4522 30.8363 13.4942C31.005 13.5365 31.0892 13.6208 31.1315 13.8322L31.2998 15.3096L31.7214 19.9104C31.7637 20.248 31.7637 20.2904 31.4262 20.2904L29.7828 20.3746C29.4458 20.417 29.4035 20.3746 29.3612 20.0371L28.9818 16.6604L28.6448 13.8322C28.6025 13.6208 28.6871 13.4942 28.8977 13.4942C29.1929 13.4522 29.5299 13.4099 29.867 13.4099ZM46.6831 17.6312V20.5436C46.7254 21.0079 46.6408 21.0079 46.2615 21.0079C45.7138 21.0079 45.208 20.966 44.7022 20.9236C44.3652 20.8812 44.3229 20.8812 44.3652 20.5436L44.2387 16.9556C44.2387 16.1538 44.2387 15.3515 44.1964 14.5497C44.1546 14.1698 44.1964 14.1274 44.5758 14.1274C45.1657 14.1274 45.7557 14.1698 46.3461 14.254C46.6831 14.254 46.6831 14.3388 46.6831 14.6763V17.6312ZM94.5603 17.6731V20.586C94.5603 20.966 94.5184 21.0079 94.1391 21.0079L92.5375 20.9236C92.2846 20.8812 92.1582 20.7546 92.2005 20.5436L92.074 14.5073C92.074 14.1698 92.1159 14.1274 92.4534 14.1274C93.001 14.1274 93.5069 14.1698 94.0126 14.2121C94.6449 14.254 94.5603 14.3807 94.5603 14.8449V17.6731ZM28.5606 19.9528C28.6025 20.4594 28.5606 20.5436 28.0548 20.586L27.0432 20.8393C26.7062 20.966 26.6639 20.8812 26.622 20.586L25.5681 14.634C25.4417 14.254 25.5258 14.1698 25.9052 14.1274L27.3803 13.8741C27.7178 13.8322 27.8019 13.8322 27.8019 14.1698C27.9284 14.8873 28.0548 15.6048 28.139 16.3223L28.5606 19.6995V19.9528ZM73.4034 14.1698C74.0357 14.0431 74.7098 13.9588 75.3843 13.8741C75.5949 13.8322 75.6791 13.9588 75.7214 14.1698L76.0584 16.4913C76.2272 17.6312 76.3536 18.7706 76.3959 19.9104V20.248C76.4378 20.417 76.3536 20.5436 76.1849 20.586L74.8362 20.8812C74.6256 20.9236 74.5415 20.8393 74.4992 20.6279L73.4034 14.3388V14.1698ZM43.48 18.7287C43.48 19.4038 43.4377 20.0371 43.3959 20.6279C43.3959 20.8393 43.3113 20.9236 43.1007 20.966L41.7943 21.0926C41.5837 21.1345 41.4991 21.0079 41.4991 20.7969C41.415 20.1637 41.3727 19.5728 41.3308 18.9396C41.2462 17.7998 41.162 16.618 41.1198 15.4362L41.0356 14.5921C40.9933 14.4231 41.0779 14.3388 41.2462 14.3388L42.9742 14.2121C43.2694 14.2121 43.3536 14.254 43.3536 14.5921L43.48 18.7287ZM91.273 18.0531C91.3153 18.8553 91.3153 19.6995 91.273 20.5013C91.3153 20.8812 91.2312 20.966 90.8518 20.966L89.6715 21.0926C89.4609 21.1345 89.3344 21.0079 89.3344 20.7969C89.2921 19.7418 89.208 18.6444 89.1238 17.5888L88.9551 14.634C88.9128 14.4231 88.9974 14.3388 89.1657 14.3388L90.8518 14.2121C91.1466 14.2121 91.1889 14.254 91.1889 14.5921C91.273 15.7315 91.3153 16.9137 91.273 18.0531ZM26.9168 32.4473C27.5913 33.2495 27.7178 34.1356 27.4226 35.1064C27.1697 36.0353 26.7062 36.8372 26.0316 37.5127C24.9359 38.6526 23.6718 39.581 22.2808 40.2986C19.8787 41.5651 17.392 42.4516 14.7365 42.9158C12.8402 43.2958 10.9435 43.5491 9.04714 43.6757C8.45718 43.7176 7.86722 43.7176 7.27683 43.7176H6.01276C5.67527 43.7176 5.59112 43.6333 5.54882 43.2958L5.25406 39.2011L4.45307 31.1389L3.56835 23.4561L3.06254 19.3619L2.51445 15.4362C2.21969 13.2832 1.84034 11.1306 1.46098 8.97762C1.16579 7.24691 0.871027 5.5162 0.491677 3.78592C0.449383 3.57455 0.491677 3.40597 0.702283 3.36361L6.56043 0.915374C6.93978 0.746366 7.27683 0.619718 7.65618 0.53543C7.90909 0.49307 8.03554 0.57779 7.99324 0.831086C7.99324 1.50625 7.99324 2.18185 7.95138 2.89938L7.90909 3.4479C7.86722 5.89614 7.86722 8.34438 7.90909 10.835C7.95138 12.988 8.07783 15.1829 8.20428 17.3355C8.41489 20.7127 8.75194 24.0894 9.08943 27.4241C9.08943 27.7617 9.13129 27.7617 9.51064 27.7198C10.2271 27.5931 10.9016 27.5508 11.618 27.5508C13.8518 27.5508 16.0852 27.8041 18.2348 28.3526C20.1312 28.8173 21.9438 29.4505 23.7559 30.2523C24.6411 30.6746 25.4416 31.1808 26.2004 31.7721C26.4955 31.983 26.7062 32.194 26.9168 32.4473ZM74.415 32.0673C75.3002 32.7848 75.5949 33.7557 75.342 34.8955C75.1314 35.8244 74.7098 36.6262 74.0775 37.3437C73.0664 38.4836 71.886 39.3701 70.5796 40.0876C68.0511 41.4808 65.3538 42.4516 62.4877 42.9582C60.9284 43.2534 59.3687 43.5067 57.8095 43.6333C56.9243 43.7176 55.955 43.76 54.9857 43.7176H53.8476C53.5952 43.76 53.4687 43.6333 53.4687 43.3801C53.3841 42.1983 53.3 41.0161 53.1735 39.8343L52.499 32.6163L51.7826 26.3267L50.8979 19.2352C50.7714 18.0111 50.6027 16.7446 50.3921 15.5205L49.6334 10.7926C49.2963 8.55575 48.8746 6.31844 48.4111 4.08114L48.3689 3.78592C48.2847 3.57455 48.3689 3.40597 48.5795 3.36361C50.645 2.51944 52.6677 1.59054 54.7328 0.788726C55.2809 0.57779 55.955 0.324494 55.9131 0.831086C55.7444 2.39279 55.7867 3.95449 55.7444 5.47427C55.7021 6.74032 55.7021 8.0068 55.7867 9.23092V10.2017C55.7867 11.7215 55.8286 13.2413 55.955 14.7183C56.0396 16.7023 56.166 18.7286 56.3344 20.7127L56.7137 24.9759C56.756 25.7777 56.8402 26.5376 56.9666 27.3398C56.9666 27.8041 57.0508 27.7617 57.4301 27.7198C58.1888 27.5931 58.9475 27.5508 59.7062 27.5508C62.3612 27.5931 64.9321 28.015 67.4607 28.7325C69.1887 29.1972 70.8325 29.83 72.4341 30.6746C73.1505 31.0541 73.7828 31.5188 74.415 32.0673ZM13.4725 39.4968C14.1047 39.1168 15.2005 38.3569 16.7174 37.1752C18.2348 35.951 19.1619 35.1488 19.5412 34.7269C17.2655 33.7137 14.9053 32.8272 12.4609 32.0254L13.4725 39.4968ZM67.2924 34.9379C67.4188 34.8112 67.3765 34.7269 67.2501 34.6422L66.2385 34.2203C64.4686 33.4604 62.6983 32.7848 60.8861 32.194L60.6332 32.1097C60.5491 32.0673 60.4649 32.1097 60.3385 32.152L61.3496 39.4544C61.4761 39.4544 61.5607 39.412 61.6025 39.3701C63.2464 38.1879 64.8898 36.9638 66.5337 35.6554L67.2924 34.9379Z" fill="white"/>
</svg>
