<svg width="143" height="54" viewBox="0 0 143 54" fill="none" xmlns="http://www.w3.org/2000/svg">
<path d="M21.3493 43.7112H11.6682V53.3361H21.3493V43.7112Z" fill="white"/>
<path d="M32.1089 33.0142H22.4277V42.6391H32.1089V33.0142Z" fill="white"/>
<path d="M10.5898 33.0142H0.908691V42.6391H10.5898V33.0142Z" fill="white"/>
<path d="M21.3484 33.0142H11.6672V42.6391H21.3484V33.0142Z" fill="white"/>
<path d="M32.1079 22.3171H22.4268V31.942H32.1079V22.3171Z" fill="white"/>
<path d="M21.3493 22.317H11.6682V31.9419H21.3493V22.317Z" fill="white"/>
<path d="M32.1079 11.6199H22.4268V21.2448H32.1079V11.6199Z" fill="white"/>
<path d="M21.3493 11.62H11.6682V21.2449H21.3493V11.62Z" fill="white"/>
<path d="M42.8684 11.6199H33.1873V21.2448H42.8684V11.6199Z" fill="white"/>
<path d="M44.7823 27.1659C46.3756 27.1659 47.8814 27.7744 49.0229 28.8851C49.6836 29.5274 50.7474 29.5178 51.3934 28.8561C52.0395 28.1994 52.0298 27.1417 51.3643 26.4994C49.5913 24.7802 47.2548 23.8336 44.7774 23.8336C39.5798 23.8336 35.3538 28.0352 35.3538 33.2026C35.3538 38.37 39.5798 42.5715 44.7774 42.5715C47.1431 42.5715 49.4067 41.6974 51.1457 40.1085C51.8306 39.4856 51.8743 38.4328 51.2477 37.7518C50.6211 37.0757 49.5621 37.0274 48.8772 37.6504C47.7551 38.6742 46.2978 39.2393 44.7726 39.2393C41.4257 39.2393 38.7055 36.53 38.7055 33.2074C38.7055 29.8848 41.4354 27.1659 44.7823 27.1659Z" fill="white"/>
<path d="M62.5561 24.1522C57.48 24.1522 53.3462 28.2572 53.3462 33.3087C53.3462 38.3602 57.4751 42.4651 62.5561 42.4651C67.6371 42.4651 71.7661 38.3602 71.7661 33.3087C71.7661 28.2572 67.6371 24.1522 62.5561 24.1522ZM62.5561 39.128C59.3259 39.128 56.7028 36.5154 56.7028 33.3087C56.7028 30.102 59.3307 27.4893 62.5561 27.4893C65.7864 27.4893 68.4095 30.102 68.4095 33.3087C68.4095 36.5154 65.7864 39.128 62.5561 39.128Z" fill="white"/>
<path d="M82.5693 24.1522C77.4932 24.1522 73.3594 28.2572 73.3594 33.3087C73.3594 38.3602 77.4883 42.4651 82.5693 42.4651C84.8087 42.4651 86.8634 41.6683 88.4616 40.3402V41.0067C88.4616 41.9098 89.195 42.639 90.1034 42.639C91.0118 42.639 91.7453 41.9098 91.7453 41.0067V34.1007C91.7696 33.8399 91.7841 33.5743 91.7841 33.3087C91.7793 28.2572 87.6455 24.1522 82.5693 24.1522ZM82.5693 39.128C79.339 39.128 76.716 36.5154 76.716 33.3087C76.716 30.102 79.3439 27.4893 82.5693 27.4893C85.7996 27.4893 88.4227 30.102 88.4227 33.3087C88.4227 36.5154 85.7996 39.128 82.5693 39.128Z" fill="white"/>
<path d="M101.499 39.0363C100.615 39.1522 99.4251 39.1715 98.7693 38.5727C98.0892 37.9545 98.1232 36.8438 98.1232 36.8438L98.1281 36.7858V27.3782H101.616C102.544 27.3782 103.292 26.6297 103.292 25.7121C103.292 24.7897 102.539 24.046 101.616 24.046H98.1281V17.6905C98.1281 16.7681 97.3752 16.0244 96.4522 16.0244C95.5245 16.0244 94.7764 16.773 94.7764 17.6905V24.046H92.7945C91.8667 24.046 91.1187 24.7945 91.1187 25.7121C91.1187 26.6345 91.8716 27.3782 92.7945 27.3782H94.7764V36.6844C94.757 37.1722 94.7618 39.4033 96.4668 40.9922C97.4966 41.9532 98.8762 42.4361 100.576 42.4361C101.013 42.4361 101.475 42.4023 101.951 42.3396C102.869 42.2188 103.515 41.3785 103.389 40.4658C103.258 39.553 102.412 38.9107 101.499 39.0363Z" fill="white"/>
<path d="M120.332 23.4037C119.404 23.4037 118.656 24.1522 118.656 25.0698V34.6754C118.656 36.9549 116.319 38.8045 113.449 38.8045C110.578 38.8045 108.241 36.95 108.241 34.6754V25.0698C108.241 24.1474 107.488 23.4037 106.566 23.4037C105.638 23.4037 104.89 24.1522 104.89 25.0698V34.6754C104.89 38.79 108.732 42.1416 113.454 42.1416C115.421 42.1416 117.238 41.5572 118.685 40.5817V40.9053C118.685 41.8132 119.423 42.5472 120.337 42.5472C121.25 42.5472 121.988 41.8132 121.988 40.9053V35.2066C122.003 35.0328 122.013 34.8589 122.013 34.6802V25.0698C122.013 24.1474 121.26 23.4037 120.332 23.4037Z" fill="white"/>
<path d="M142.414 32.425C141.982 27.6487 138.018 24.046 133.19 24.046C130.63 24.046 128.162 25.1133 126.418 26.9726C124.645 28.8609 123.771 31.319 123.951 33.9027C124.271 38.4954 127.992 42.1658 132.617 42.4459C132.811 42.4555 133.005 42.4652 133.2 42.4652C135.492 42.4652 137.669 41.6394 139.383 40.1085C140.073 39.4951 140.131 38.4375 139.51 37.7517C138.893 37.066 137.829 37.008 137.139 37.6262C135.954 38.6838 134.424 39.2102 132.821 39.1136C130.329 38.9639 128.24 37.2591 127.541 34.9652L140.112 34.9217C140.763 34.9217 141.385 34.6465 141.827 34.1683C142.259 33.6951 142.473 33.0576 142.414 32.425ZM127.511 31.6329C127.764 30.754 128.225 29.9378 128.872 29.2472C130.003 28.0447 131.533 27.3783 133.19 27.3783C135.876 27.3783 138.145 29.1265 138.864 31.5895L127.511 31.6329Z" fill="white"/>
<path d="M32.1089 0.923096H22.4277V10.548H32.1089V0.923096Z" fill="white"/>
</svg>
