<svg width="119" height="42" viewBox="0 0 119 42" fill="none" xmlns="http://www.w3.org/2000/svg">
<path d="M46.7019 17.7922V5.9447H49.0791V10.6064H53.7341V5.9447H56.1113V17.7922H53.7341V12.6126H49.0791V17.7922H46.7019Z" fill="white"/>
<path d="M58.5504 8.04418V5.9447H60.8076V8.04418H58.5504ZM58.5504 17.7922V9.20787H60.8076V17.7888H58.5504V17.7922Z" fill="white"/>
<path d="M63.1162 17.7922V5.9447H65.3734V17.7922H63.1162Z" fill="white"/>
<path d="M67.6854 17.7922V5.9447H69.9426V17.7922H67.6854Z" fill="white"/>
<path d="M74.5014 5.9447V10.299C75.2286 9.44268 76.0999 9.0145 77.1119 9.0145C77.6299 9.0145 78.0998 9.11118 78.5183 9.30456C78.9368 9.49793 79.249 9.74655 79.4617 10.047C79.6743 10.3474 79.8184 10.6823 79.8939 11.0484C79.9728 11.4144 80.0105 11.9841 80.0105 12.7542V17.7888H77.7534V13.2583C77.7534 12.3571 77.7088 11.7873 77.6264 11.5456C77.5407 11.3039 77.3897 11.1105 77.1736 10.9689C76.9575 10.8274 76.6865 10.7549 76.3606 10.7549C75.9867 10.7549 75.6506 10.8481 75.3556 11.0311C75.0605 11.2141 74.8444 11.4904 74.7107 11.8598C74.5734 12.2293 74.5048 12.7749 74.5048 13.4966V17.7957H72.2477V5.9447H74.5014Z" fill="white"/>
<path d="M81.7737 13.3792C81.7737 12.6264 81.9589 11.8944 82.326 11.1899C82.6964 10.4855 83.2178 9.94682 83.8936 9.57389C84.5694 9.20096 85.3275 9.01794 86.1611 9.01794C87.4509 9.01794 88.5074 9.43922 89.3307 10.2818C90.154 11.1243 90.5656 12.1913 90.5656 13.4793C90.5656 14.7777 90.1505 15.8551 89.317 16.708C88.4834 17.5609 87.4371 17.9891 86.1748 17.9891C85.3927 17.9891 84.6483 17.8095 83.9382 17.4573C83.2281 17.1016 82.6896 16.5802 82.3191 15.893C81.9589 15.2024 81.7737 14.3633 81.7737 13.3792ZM84.0857 13.5C84.0857 14.353 84.2847 15.0021 84.6895 15.4545C85.0942 15.9068 85.5848 16.1348 86.1748 16.1348C86.7648 16.1348 87.2588 15.9068 87.6567 15.4545C88.0546 15.0021 88.2536 14.3461 88.2536 13.4828C88.2536 12.6437 88.0546 11.9945 87.6567 11.5421C87.2588 11.0898 86.7648 10.8619 86.1748 10.8619C85.5848 10.8619 85.0908 11.0898 84.6895 11.5421C84.2881 11.998 84.0857 12.6471 84.0857 13.5Z" fill="white"/>
<path d="M97.9512 17.7923V16.5043C97.6424 16.9635 97.2342 17.3226 96.7265 17.5885C96.2189 17.8544 95.6872 17.9856 95.1246 17.9856C94.5517 17.9856 94.0372 17.8579 93.5844 17.6058C93.1281 17.3537 92.7988 16.998 92.5964 16.5388C92.394 16.0795 92.2911 15.4476 92.2911 14.6396V9.20789H94.5483V13.1513C94.5483 14.3564 94.5895 15.0989 94.6718 15.3682C94.7541 15.641 94.905 15.8551 95.1246 16.0139C95.3441 16.1728 95.622 16.2522 95.9582 16.2522C96.3424 16.2522 96.6888 16.1451 96.9941 15.9345C97.2994 15.7204 97.5087 15.458 97.6219 15.1437C97.7351 14.8295 97.79 14.056 97.79 12.8302V9.20789H100.047V17.7888H97.9512V17.7923Z" fill="white"/>
<path d="M101.587 15.3404L103.851 14.9917C103.947 15.4337 104.143 15.7686 104.438 15.9965C104.733 16.2244 105.145 16.3384 105.673 16.3384C106.256 16.3384 106.695 16.2313 106.99 16.0138C107.189 15.8619 107.288 15.6616 107.288 15.4061C107.288 15.2334 107.234 15.0918 107.127 14.9779C107.014 14.8708 106.764 14.7707 106.373 14.6774C104.555 14.2734 103.398 13.904 102.911 13.569C102.236 13.1063 101.899 12.4606 101.899 11.6387C101.899 10.8963 102.191 10.2713 102.774 9.76371C103.357 9.2561 104.263 9.00403 105.488 9.00403C106.654 9.00403 107.522 9.19395 108.088 9.57724C108.654 9.96053 109.045 10.5268 109.261 11.2727L107.134 11.6698C107.041 11.3349 106.87 11.0793 106.616 10.9032C106.362 10.7237 105.999 10.6373 105.529 10.6373C104.935 10.6373 104.51 10.7202 104.253 10.8894C104.081 11.0068 103.995 11.1622 103.995 11.3487C103.995 11.511 104.071 11.6491 104.218 11.7596C104.421 11.9115 105.124 12.1222 106.325 12.3984C107.525 12.6747 108.366 13.0096 108.842 13.4102C109.312 13.8142 109.549 14.377 109.549 15.0987C109.549 15.886 109.223 16.5628 108.571 17.1257C107.92 17.692 106.952 17.9751 105.673 17.9751C104.51 17.9751 103.591 17.7369 102.915 17.2638C102.239 16.8011 101.797 16.1554 101.587 15.3404Z" fill="white"/>
<path d="M116.447 15.0885H118.725C118.574 16.007 117.96 16.8979 117.336 17.333C116.712 17.768 115.933 17.9821 114.996 17.9821C113.515 17.9821 112.417 17.4953 111.703 16.518C111.141 15.7376 110.859 14.7501 110.859 13.5587C110.859 12.1361 111.23 11.0242 111.967 10.2161C112.705 9.41158 113.638 9.00757 114.77 9.00757C116.039 9.00757 117.038 9.42884 117.772 10.2714C118.506 11.114 118.856 12.4054 118.825 14.1458H113.172C113.189 14.8191 113.37 15.344 113.717 15.7169C114.063 16.0898 114.499 16.2798 115.017 16.2798C115.37 16.2798 115.669 16.1831 115.909 15.9897C116.156 15.8032 116.327 15.5201 116.447 15.0885ZM116.592 12.7645C116.574 12.1084 116.406 11.6077 116.087 11.2659C115.765 10.924 115.374 10.7514 114.914 10.7514C114.42 10.7514 114.015 10.9309 113.693 11.2935C113.37 11.6561 113.213 12.1464 113.22 12.7645H116.592Z" fill="white"/>
<path d="M54.2248 30.5306L56.53 31.2661C56.1766 32.5576 55.5901 33.521 54.7668 34.146C53.9469 34.7745 52.9041 35.0887 51.6418 35.0887C50.0775 35.0887 48.7946 34.55 47.7895 33.4761C46.7844 32.4022 46.2802 30.9312 46.2802 29.0665C46.2802 27.0948 46.7844 25.5651 47.7964 24.4739C48.8083 23.3827 50.1393 22.8372 51.7858 22.8372C53.2266 22.8372 54.3963 23.2653 55.295 24.1217C55.8302 24.6293 56.2315 25.3545 56.4991 26.3041L54.1459 26.8704C54.0052 26.2557 53.7171 25.7723 53.2746 25.4166C52.8321 25.0609 52.2969 24.8848 51.6658 24.8848C50.7945 24.8848 50.0844 25.1991 49.5424 25.831C49.0004 26.4629 48.726 27.4816 48.726 28.8939C48.726 30.3925 48.9935 31.4595 49.5287 32.0949C50.0638 32.7302 50.7602 33.0479 51.6143 33.0479C52.2455 33.0479 52.7875 32.8442 53.2437 32.4402C53.6999 32.0327 54.0258 31.3974 54.2248 30.5306Z" fill="white"/>
<path d="M60.2347 28.9216L58.1868 28.5486C58.4166 27.7199 58.8145 27.1052 59.3736 26.7047C59.9362 26.3076 60.7698 26.1073 61.8778 26.1073C62.8829 26.1073 63.6341 26.2282 64.1246 26.4664C64.6186 26.7047 64.9651 27.012 65.164 27.378C65.363 27.7475 65.4659 28.4243 65.4659 29.4119L65.4419 32.0639C65.4419 32.8166 65.4796 33.3726 65.5517 33.7317C65.6237 34.0908 65.7575 34.4741 65.9564 34.8816H63.7233C63.665 34.7297 63.5929 34.5087 63.5072 34.2117C63.4695 34.077 63.442 33.9872 63.4283 33.9458C63.0441 34.3222 62.6325 34.6053 62.1934 34.7953C61.7543 34.9852 61.2878 35.0784 60.7869 35.0784C59.9088 35.0784 59.2158 34.8402 58.7116 34.3602C58.2073 33.8802 57.9535 33.2759 57.9535 32.5404C57.9535 32.057 58.0701 31.6219 58.3 31.242C58.5298 30.8622 58.8522 30.5721 59.2673 30.3684C59.6824 30.1647 60.2793 29.9886 61.0614 29.8401C62.1145 29.6398 62.8451 29.4533 63.2533 29.2841V29.0562C63.2533 28.6211 63.147 28.3104 62.9309 28.1239C62.7182 27.9374 62.3134 27.8442 61.72 27.8442C61.3186 27.8442 61.0065 27.9236 60.7801 28.0825C60.5571 28.2448 60.3753 28.5245 60.2347 28.9216ZM63.2533 30.7655C62.9652 30.8622 62.5055 30.9796 61.8812 31.1143C61.2535 31.2489 60.8453 31.3802 60.6532 31.5114C60.3581 31.722 60.2106 31.9879 60.2106 32.3125C60.2106 32.6302 60.3273 32.9064 60.564 33.1378C60.8007 33.3691 61.0991 33.4865 61.4627 33.4865C61.8709 33.4865 62.2585 33.3519 62.6256 33.0825C62.9 32.8788 63.0784 32.6267 63.1642 32.3298C63.2225 32.1364 63.2533 31.7669 63.2533 31.2213V30.7655Z" fill="white"/>
<path d="M67.6305 26.3042H69.7333V27.5646C70.0077 27.133 70.3748 26.7842 70.8413 26.5149C71.3078 26.2455 71.8224 26.1108 72.3918 26.1108C73.3831 26.1108 74.2236 26.501 74.9131 27.2814C75.6026 28.0618 75.949 29.1496 75.949 30.5446C75.949 31.9776 75.6026 33.093 74.9062 33.8872C74.2099 34.6814 73.366 35.0785 72.3781 35.0785C71.9081 35.0785 71.4793 34.9853 71.0986 34.7954C70.7144 34.6054 70.313 34.2843 69.8911 33.825V38.1483H67.6339V26.3042H67.6305ZM69.8602 30.4514C69.8602 31.4148 70.0489 32.1296 70.4296 32.5888C70.8104 33.0481 71.2735 33.2794 71.8189 33.2794C72.3438 33.2794 72.7794 33.0688 73.1259 32.6441C73.4723 32.2228 73.6473 31.5287 73.6473 30.5619C73.6473 29.6606 73.4689 28.9942 73.1087 28.5591C72.7485 28.124 72.306 27.903 71.7778 27.903C71.2255 27.903 70.7692 28.1171 70.4056 28.5453C70.042 28.9734 69.8602 29.6088 69.8602 30.4514Z" fill="white"/>
<path d="M77.7362 25.1405V23.041H79.9934V25.1405H77.7362ZM77.7362 34.8851V26.3042H79.9934V34.8851H77.7362Z" fill="white"/>
<path d="M86.2126 26.3043V28.1137H84.6724V31.5737C84.6724 32.2747 84.6861 32.6821 84.717 32.7995C84.7479 32.9169 84.813 33.0102 84.9194 33.0861C85.0223 33.1621 85.1492 33.2001 85.3002 33.2001C85.5094 33.2001 85.8113 33.1276 86.2058 32.9825L86.3979 34.7436C85.873 34.9715 85.2796 35.082 84.6141 35.082C84.2059 35.082 83.8423 35.013 83.513 34.8748C83.1871 34.7367 82.947 34.5606 82.796 34.3431C82.6451 34.1255 82.5387 33.8285 82.4804 33.4591C82.4324 33.1966 82.4084 32.6614 82.4084 31.8603V28.1137H81.3724V26.3043H82.4084V24.5984L84.6724 23.2725V26.3043H86.2126Z" fill="white"/>
<path d="M89.4645 28.9216L87.4166 28.5486C87.6464 27.7199 88.0444 27.1052 88.6035 26.7047C89.1661 26.3076 89.9996 26.1073 91.1076 26.1073C92.1127 26.1073 92.864 26.2282 93.3545 26.4664C93.8485 26.7047 94.1949 27.012 94.3939 27.378C94.5929 27.7475 94.6958 28.4243 94.6958 29.4119L94.6718 32.0639C94.6718 32.8166 94.7095 33.3726 94.7815 33.7317C94.8536 34.0908 94.9873 34.4741 95.1863 34.8816H92.9532C92.8948 34.7297 92.8228 34.5087 92.7371 34.2117C92.6993 34.077 92.6719 33.9872 92.6582 33.9458C92.274 34.3222 91.8623 34.6053 91.4232 34.7953C90.9842 34.9852 90.5176 35.0784 90.0168 35.0784C89.1386 35.0784 88.4457 34.8402 87.9415 34.3602C87.4372 33.8802 87.1833 33.2759 87.1833 32.5404C87.1833 32.057 87.3 31.6219 87.5298 31.242C87.7596 30.8622 88.0821 30.5721 88.4972 30.3684C88.9122 30.1647 89.5091 29.9886 90.2912 29.8401C91.3443 29.6398 92.075 29.4533 92.4832 29.2841V29.0562C92.4832 28.6211 92.3769 28.3104 92.1608 28.1239C91.9481 27.9374 91.5433 27.8442 90.9499 27.8442C90.5485 27.8442 90.2363 27.9236 90.0099 28.0825C89.787 28.2448 89.6052 28.5245 89.4645 28.9216ZM92.4832 30.7655C92.1951 30.8622 91.7354 30.9796 91.1111 31.1143C90.4833 31.2489 90.0751 31.3802 89.883 31.5114C89.588 31.722 89.4405 31.9879 89.4405 32.3125C89.4405 32.6302 89.5571 32.9064 89.7938 33.1378C90.0305 33.3691 90.329 33.4865 90.6926 33.4865C91.1008 33.4865 91.4884 33.3519 91.8555 33.0825C92.1299 32.8788 92.3083 32.6267 92.394 32.3298C92.4523 32.1364 92.4832 31.7669 92.4832 31.2213V30.7655Z" fill="white"/>
<path d="M96.9221 34.8851V23.041H99.1793V34.8886H96.9221V34.8851Z" fill="white"/>
<path d="M20.34 41.3975C13.7298 41.3975 7.1161 41.3975 0.505859 41.3975C0.505859 27.8855 0.505859 14.3771 0.505859 0.861694C13.9253 0.861694 27.3482 0.861694 40.7744 0.861694C40.7744 14.3702 40.7744 27.8855 40.7744 41.3975C34.2465 41.3975 27.7118 41.3975 21.1804 41.3975C21.1839 41.3249 21.1873 41.2524 21.1873 41.1799C21.1873 36.2662 21.1873 31.3524 21.1873 26.4387C21.1873 26.4007 21.1839 26.3593 21.1873 26.3213C21.1941 26.2281 21.1564 26.1901 21.0604 26.1935C20.8991 26.197 20.7345 26.1935 20.5733 26.1935C20.3297 26.1935 20.3297 26.1935 20.3297 26.4387C20.3297 31.3524 20.3297 36.2662 20.3297 41.1799C20.3297 41.2524 20.3366 41.3249 20.34 41.3975ZM23.1494 3.93839L23.1357 3.94185C22.7858 4.00746 22.4256 4.03853 22.0895 4.14558C21.4686 4.34586 21.0226 4.75332 20.858 5.41286C20.6247 6.33829 20.9472 7.17739 21.7293 7.57795C22.6349 8.04411 23.5782 8.05102 24.4976 7.62284C25.1973 7.29825 25.5301 6.71122 25.5232 5.92737C25.5164 5.15043 25.1665 4.59793 24.4804 4.25262C24.0585 4.04199 23.6125 3.93149 23.1494 3.93839ZM32.6652 13.2548C32.6549 13.2065 32.6514 13.1788 32.6411 13.1547C32.0408 11.9288 31.4405 10.703 30.8368 9.4806C30.8162 9.43571 30.7339 9.39772 30.6824 9.39427C30.4492 9.38391 30.2125 9.40117 29.9792 9.38736C29.8283 9.377 29.7528 9.43225 29.6876 9.57038C29.1319 10.7548 28.5659 11.9357 28.0068 13.1167C27.9896 13.1547 27.9828 13.1961 27.9622 13.2583C28.2675 13.2583 28.5522 13.2548 28.8369 13.2617C28.9433 13.2652 28.9981 13.2203 29.0359 13.1236C29.1216 12.9095 29.2108 12.6989 29.3137 12.4917C29.3377 12.4433 29.4132 12.3846 29.4647 12.3846C30.0135 12.3777 30.5589 12.3777 31.1078 12.3846C31.1627 12.3846 31.2416 12.4364 31.269 12.4882C31.3822 12.7023 31.4748 12.9233 31.5812 13.1409C31.6018 13.1858 31.6498 13.2479 31.6875 13.2514C32.0065 13.2583 32.329 13.2548 32.6652 13.2548ZM15.3214 13.2548C15.3077 13.1961 15.3077 13.1754 15.2974 13.1547C14.6971 11.9288 14.0968 10.703 13.4931 9.4806C13.4725 9.43571 13.3902 9.39772 13.3353 9.39427C13.0883 9.38391 12.8447 9.39772 12.5978 9.38736C12.4708 9.38046 12.4125 9.43225 12.3576 9.54275C11.7951 10.7306 11.2291 11.9185 10.6665 13.1063C10.6459 13.1478 10.6356 13.1927 10.615 13.2583C10.9443 13.2583 11.2462 13.2617 11.5446 13.2548C11.5892 13.2548 11.6476 13.1927 11.6681 13.1478C11.7676 12.9337 11.8637 12.7161 11.9494 12.4986C11.9837 12.4157 12.0283 12.3777 12.1209 12.3812C12.6629 12.3846 13.2049 12.3846 13.7469 12.3812C13.8395 12.3812 13.8876 12.4123 13.9219 12.4951C14.0145 12.7127 14.1174 12.9233 14.2237 13.1374C14.2477 13.1858 14.3026 13.2514 14.3438 13.2548C14.6662 13.2583 14.9818 13.2548 15.3214 13.2548ZM5.84688 4.04544C5.56216 4.04544 5.30488 4.03853 5.05104 4.05235C5.01674 4.05235 4.95842 4.13867 4.95842 4.18702C4.95499 5.35761 4.95499 6.52821 4.95156 7.6988C4.95156 7.82311 5.00302 7.85074 5.11279 7.84729C5.29802 7.84038 5.48326 7.84038 5.66507 7.84729C5.80228 7.85419 5.85031 7.81276 5.85031 7.66773C5.84344 7.24645 5.84688 6.82517 5.84688 6.40044C5.84688 6.33484 5.84688 6.26923 5.84688 6.20707C6.37514 6.20707 6.87597 6.20707 7.39052 6.20707C7.39052 6.28649 7.39052 6.3521 7.39052 6.42116C7.39052 6.84244 7.39395 7.26371 7.39052 7.68844C7.39052 7.79894 7.41796 7.85419 7.54146 7.85074C7.74727 7.84383 7.95652 7.84729 8.16234 7.85074C8.26182 7.85419 8.29956 7.81621 8.29956 7.71262C8.29613 6.53511 8.29613 5.36106 8.29956 4.18356C8.29956 4.07997 8.26525 4.04199 8.16234 4.04544C7.95652 4.04889 7.74727 4.05235 7.54146 4.04544C7.42139 4.04199 7.38709 4.09033 7.39052 4.20428C7.39395 4.58757 7.38709 4.97087 7.39395 5.35071C7.39738 5.48883 7.35965 5.53717 7.21557 5.53372C6.83481 5.52336 6.45404 5.53027 6.07671 5.53027C5.84688 5.53027 5.84688 5.53027 5.84688 5.30236C5.84688 4.89144 5.84688 4.48398 5.84688 4.04544ZM17.5649 4.04544C17.2801 4.04544 17.0229 4.04199 16.769 4.05235C16.7347 4.05235 16.6764 4.12831 16.6764 4.1732C16.673 5.35416 16.673 6.53857 16.6695 7.71952C16.6695 7.83002 16.7176 7.85419 16.8136 7.85074C16.9989 7.84729 17.1841 7.84038 17.3659 7.85419C17.5168 7.86455 17.5717 7.81966 17.5683 7.65737C17.558 7.26371 17.5649 6.87006 17.5649 6.47641C17.5649 6.39008 17.5649 6.3003 17.5649 6.21052C18.0931 6.21052 18.594 6.21052 19.1085 6.21052C19.1119 6.27959 19.1154 6.34174 19.1154 6.4039C19.1154 6.83208 19.1119 7.26026 19.1188 7.68844C19.1188 7.74369 19.1737 7.84383 19.208 7.84383C19.4687 7.85765 19.7294 7.85074 20.0004 7.85074C20.0004 6.57655 20.0004 5.32653 20.0004 4.04889C19.7534 4.04889 19.5167 4.0558 19.2766 4.04544C19.1531 4.04199 19.1119 4.08688 19.1119 4.21119C19.1188 4.58412 19.1051 4.9536 19.1188 5.32653C19.1257 5.50609 19.0639 5.54408 18.8993 5.54063C18.5322 5.53027 18.1617 5.53717 17.7913 5.53717C17.5614 5.53717 17.5614 5.53717 17.5614 5.30927C17.5649 4.89145 17.5649 4.48398 17.5649 4.04544ZM8.53968 11.9668C7.91536 12.5573 7.20871 12.6436 6.45061 12.395C6.0081 12.25 5.7371 11.9116 5.67879 11.4385C5.62047 10.9516 5.79199 10.5545 6.20706 10.2783C6.83824 9.85698 7.83646 9.9364 8.39904 10.444C8.44363 10.4854 8.48822 10.5234 8.53968 10.5649C8.76265 10.3922 8.9719 10.2299 9.17772 10.0711C9.16057 10.0365 9.15714 10.0262 9.15028 10.0158C8.2927 9.21816 6.60498 9.0904 5.61704 9.71195C4.62911 10.3335 4.34782 12.1671 5.71309 12.9026C6.6187 13.3895 7.54146 13.3895 8.4745 12.9889C8.74207 12.8715 8.98219 12.7092 9.16743 12.4537C8.95132 12.288 8.7455 12.1291 8.53968 11.9668ZM28.6517 4.0558C28.6517 4.13522 28.6517 4.20083 28.6517 4.26989C28.6448 5.0641 28.6448 5.85486 28.6208 6.64907C28.6174 6.7941 28.5488 6.9702 28.4493 7.07034C28.2366 7.28443 27.9519 7.27753 27.6775 7.1912C27.4373 7.11523 27.3001 6.93913 27.2693 6.6836C27.259 6.59382 27.2555 6.50404 27.2555 6.41426C27.2521 5.6822 27.2487 4.95015 27.2555 4.21809C27.2555 4.09033 27.2247 4.03508 27.0874 4.04199C26.9022 4.05235 26.717 4.05235 26.5352 4.04199C26.4082 4.03508 26.3739 4.08688 26.3739 4.20773C26.3808 4.91216 26.3774 5.61314 26.3842 6.31757C26.3877 6.52475 26.4048 6.73539 26.4391 6.93912C26.5146 7.39148 26.7856 7.6919 27.2212 7.81966C27.6912 7.95433 28.1714 7.95433 28.6482 7.83693C29.1216 7.71952 29.4166 7.37421 29.4715 6.88733C29.4921 6.69741 29.5058 6.50749 29.5093 6.31412C29.5127 5.6235 29.5127 4.92943 29.5127 4.23881C29.5127 4.18011 29.5058 4.12141 29.5024 4.05925C29.2108 4.0558 28.9398 4.0558 28.6517 4.0558ZM34.6547 5.41286C34.6547 5.2333 34.6582 5.06755 34.6547 4.89835C34.6513 4.78785 34.6925 4.74987 34.8022 4.75332C35.1316 4.76023 35.4609 4.75677 35.7902 4.75332C35.9583 4.75332 36.195 4.80512 36.2704 4.71879C36.3596 4.61865 36.3013 4.39075 36.3185 4.21809C36.3322 4.07306 36.2704 4.03853 36.1366 4.03853C35.406 4.04544 34.6719 4.04199 33.9412 4.04199C33.8863 4.04199 33.8349 4.04889 33.7869 4.0558C33.7766 4.08342 33.7697 4.09378 33.7697 4.10414C33.7663 5.31272 33.7663 6.52475 33.7697 7.73333C33.7697 7.77132 33.8452 7.84383 33.8863 7.84383C34.6582 7.85074 35.43 7.85074 36.2018 7.84383C36.243 7.84383 36.3082 7.77132 36.315 7.72643C36.3287 7.5883 36.315 7.44673 36.3219 7.30515C36.3322 7.17393 36.291 7.12904 36.1538 7.12904C35.725 7.13595 35.2928 7.1325 34.864 7.1325C34.8057 7.1325 34.7439 7.1325 34.6616 7.1325C34.6616 6.83898 34.6719 6.56619 34.6582 6.28994C34.6513 6.13456 34.7096 6.10003 34.8503 6.10348C35.2928 6.11038 35.7319 6.10693 36.1744 6.10348C36.2224 6.10348 36.3116 6.06204 36.3116 6.03442C36.3219 5.83068 36.3185 5.6235 36.3185 5.40595C35.749 5.41286 35.2139 5.41286 34.6547 5.41286ZM17.8599 11.5421C18.0417 11.5421 18.2029 11.5524 18.3607 11.5386C18.5425 11.5248 18.7312 11.5145 18.9061 11.4627C19.3795 11.328 19.6779 10.9413 19.6985 10.4682C19.7157 10.0262 19.4618 9.6567 18.9987 9.48405C18.865 9.43225 18.7175 9.40117 18.5734 9.39772C18.0863 9.38391 17.6026 9.38736 17.1155 9.38046C17.0126 9.38046 16.9646 9.40808 16.9646 9.52203C16.968 10.7203 16.968 11.9185 16.9646 13.1167C16.9646 13.2168 16.992 13.2583 17.0983 13.2583C17.3042 13.2514 17.5134 13.2514 17.7192 13.2583C17.8324 13.2617 17.8633 13.2134 17.8599 13.1063C17.8564 12.6505 17.8599 12.1947 17.8599 11.7389C17.8599 11.6802 17.8599 11.6215 17.8599 11.5421ZM30.0856 7.01509C30.0924 7.04617 30.0924 7.06689 30.0993 7.07725C30.5727 7.77132 31.5194 8.18224 32.4182 7.71952C33.0837 7.37421 33.1591 6.57655 32.5931 6.08967C32.5314 6.03442 32.4662 5.97917 32.3942 5.93428C32.1472 5.76853 31.8968 5.61314 31.6566 5.43703C31.5126 5.33344 31.3719 5.21603 31.269 5.07446C31.1318 4.88454 31.245 4.67735 31.4783 4.64973C31.7424 4.61865 31.9585 4.71188 32.1403 4.90526C32.1746 4.93979 32.2535 4.97777 32.281 4.96051C32.4525 4.85691 32.6137 4.73951 32.7886 4.6152C32.7338 4.54614 32.6995 4.48743 32.6549 4.43909C32.154 3.89696 31.1558 3.82444 30.5864 4.29061C30.408 4.43564 30.312 4.62556 30.2982 4.86037C30.2776 5.21603 30.4252 5.50264 30.6927 5.70983C30.9466 5.91011 31.2347 6.06549 31.4988 6.25541C31.6669 6.37627 31.8316 6.50404 31.9688 6.65597C32.154 6.8597 32.0751 7.07725 31.811 7.15667C31.5949 7.21882 31.3856 7.19465 31.197 7.07725C31.0529 6.98747 30.9294 6.8597 30.7888 6.75611C30.751 6.72849 30.6824 6.69396 30.6516 6.70777C30.4595 6.80445 30.2742 6.9115 30.0856 7.01509ZM24.8715 10.0573C24.8715 10.1436 24.8715 10.2092 24.8715 10.2783C24.8715 11.2106 24.8749 12.1464 24.868 13.0787C24.868 13.2168 24.9058 13.2652 25.0464 13.2617C25.2762 13.2514 25.5061 13.2514 25.7325 13.2617C25.8834 13.2686 25.9211 13.2168 25.9177 13.0718C25.9108 12.1395 25.9143 11.2037 25.9143 10.2714C25.9143 10.2057 25.9143 10.1436 25.9143 10.0607C26.1647 10.0607 26.3877 10.0573 26.6106 10.0607C26.7101 10.0642 26.7547 10.0227 26.7513 9.92259C26.7478 9.78792 26.7478 9.65325 26.7513 9.51858C26.7547 9.4288 26.7238 9.38391 26.6278 9.38391C25.8114 9.38391 24.9949 9.38391 24.182 9.38391C24.0962 9.38391 24.0619 9.41499 24.0653 9.50477C24.0688 9.63944 24.0722 9.77411 24.0653 9.90878C24.0585 10.0296 24.1099 10.0642 24.2231 10.0607C24.4289 10.0538 24.6416 10.0573 24.8715 10.0573ZM11.9529 7.13595C11.9529 7.05308 11.9529 6.98747 11.9529 6.92186C11.9529 6.03442 11.9494 5.14352 11.9563 4.25608C11.9563 4.12141 11.9254 4.0627 11.7813 4.07306C11.5961 4.08342 11.4109 4.08342 11.2291 4.07306C11.085 4.06616 11.0507 4.12141 11.0507 4.25953C11.0541 5.3956 11.0541 6.53166 11.0507 7.66773C11.0507 7.81966 11.1021 7.85765 11.2462 7.85419C11.8602 7.84729 12.4743 7.85074 13.0883 7.85074C13.1432 7.85074 13.1946 7.84383 13.2529 7.84038C13.2529 7.60212 13.2529 7.38112 13.2529 7.1394C12.8173 7.13595 12.3954 7.13595 11.9529 7.13595ZM36.4934 12.5055C36.4179 12.502 36.3562 12.4986 36.2979 12.4986C35.9857 12.4986 35.6735 12.4951 35.358 12.502C35.2345 12.5055 35.1933 12.4641 35.1967 12.3363C35.2036 11.9357 35.2002 11.5386 35.2002 11.1381C35.2002 10.6305 35.1933 10.1263 35.2036 9.61872C35.207 9.46678 35.1556 9.42189 35.0115 9.43225C34.8331 9.44261 34.6547 9.44261 34.4764 9.43225C34.3357 9.42535 34.2946 9.47369 34.2946 9.61181C34.298 10.7479 34.298 11.8839 34.2946 13.02C34.2946 13.1581 34.3289 13.203 34.4729 13.203C35.0938 13.1961 35.7147 13.1996 36.3322 13.1996C36.3836 13.1996 36.4385 13.1927 36.4968 13.1892C36.4934 12.9544 36.4934 12.7438 36.4934 12.5055ZM14.7451 7.1394C14.7451 7.04617 14.7451 6.98056 14.7451 6.91495C14.7451 6.03096 14.7417 5.15043 14.7486 4.26644C14.7486 4.10759 14.7005 4.05925 14.5496 4.06961C14.3815 4.07997 14.2134 4.07997 14.0488 4.06961C13.9013 4.05925 13.843 4.10069 13.8464 4.26298C13.8533 5.39214 13.8533 6.52475 13.8464 7.65391C13.8464 7.81966 13.9047 7.85074 14.0522 7.84729C14.6559 7.84038 15.2597 7.84383 15.8634 7.84383C15.9217 7.84383 15.9835 7.83693 16.0452 7.83347C16.0452 7.59521 16.0452 7.37076 16.0452 7.13595C15.613 7.1394 15.1945 7.1394 14.7451 7.1394ZM22.556 9.38046C22.2301 9.38046 21.9248 9.377 21.6195 9.38391C21.5852 9.38391 21.5235 9.44952 21.5235 9.48405C21.52 10.703 21.52 11.9254 21.5235 13.1443C21.5235 13.1789 21.5715 13.2445 21.5989 13.2445C21.9145 13.2514 22.2301 13.2479 22.556 13.2479C22.556 11.9565 22.556 10.6823 22.556 9.38046ZM9.28406 4.04544C9.27034 4.08342 9.26348 4.09378 9.26348 4.10414C9.26348 5.31272 9.26005 6.5213 9.26005 7.73333C9.26005 7.82657 9.30464 7.84729 9.38354 7.84729C9.57907 7.84729 9.7746 7.83693 9.97013 7.85074C10.1279 7.8611 10.1691 7.8024 10.1657 7.65046C10.1588 6.5144 10.1622 5.37833 10.1622 4.24226C10.1622 4.20773 10.1725 4.16975 10.1588 4.14213C10.1382 4.10414 10.1005 4.05235 10.0696 4.04889C9.81233 4.04199 9.55163 4.04544 9.28406 4.04544Z" fill="white"/>
<path d="M23.2009 4.698C23.2935 4.70836 23.417 4.70836 23.5371 4.73253C24.1751 4.8672 24.4873 5.27466 24.4839 5.94802C24.477 6.61101 24.1305 7.04264 23.4994 7.1566C23.0706 7.23256 22.6521 7.19803 22.2816 6.92869C21.8734 6.63173 21.7156 6.08614 21.8665 5.53364C21.9935 5.07438 22.3914 4.7567 22.9025 4.71181C22.9951 4.7049 23.0843 4.7049 23.2009 4.698Z" fill="white"/>
<path d="M30.9019 11.701C30.48 11.701 30.0924 11.701 29.6636 11.701C29.8694 11.2417 30.0649 10.8032 30.281 10.3267C30.4971 10.8032 30.6927 11.2383 30.9019 11.701Z" fill="white"/>
<path d="M12.934 10.3232C13.1501 10.7998 13.3456 11.2383 13.5514 11.6941C13.1329 11.6941 12.7419 11.6941 12.3199 11.6941C12.5223 11.2418 12.7213 10.8032 12.934 10.3232Z" fill="white"/>
<path d="M17.8736 10.0572C18.0589 10.0572 18.227 10.0503 18.3916 10.0606C18.642 10.0745 18.7964 10.2506 18.7895 10.4888C18.7792 10.7271 18.6283 10.8618 18.3676 10.8652C18.2407 10.8687 18.1103 10.8721 17.9834 10.8618C17.9422 10.8583 17.8702 10.8031 17.8702 10.7685C17.8599 10.5855 17.8633 10.399 17.8633 10.2126C17.8599 10.1677 17.8668 10.1228 17.8736 10.0572Z" fill="white"/>
</svg>
