<svg width="53" height="36" viewBox="0 0 53 36" fill="none" xmlns="http://www.w3.org/2000/svg">
<path d="M52.9635 18.0628C52.9635 23.5576 52.9635 29.0524 52.9635 34.544C52.9635 35.4525 52.9604 35.4525 52.0479 35.4525C49.9185 35.4525 47.786 35.4367 45.6567 35.4619C45.098 35.4683 44.9055 35.2948 44.9055 34.7081C44.921 23.6491 44.921 12.5932 44.9055 1.53422C44.9055 0.988526 45.0607 0.789805 45.6039 0.796114C47.8016 0.815039 50.0023 0.821348 52.2 0.792959C52.7928 0.783496 52.9791 0.960137 52.9791 1.58154C52.9511 7.07634 52.9604 12.568 52.9635 18.0628Z" fill="white"/>
<path d="M0.365974 18.1229C0.365974 12.6249 0.369079 7.12695 0.359766 1.62899C0.359766 1.1243 0.403223 0.793101 1.04265 0.793101C10.4168 0.812027 19.7909 0.736324 29.165 0.859342C32.9116 0.909811 35.5872 3.01689 37.3037 6.36992C38.0146 7.76097 38.2846 9.25926 38.2846 10.8175C38.2846 18.76 38.2784 26.7057 38.297 34.6483C38.297 35.2918 38.0984 35.481 37.4714 35.4684C35.3637 35.4305 33.253 35.4305 31.1454 35.4684C30.4904 35.481 30.329 35.2381 30.3321 34.6136C30.3476 27.6236 30.3445 20.6368 30.3414 13.6469C30.3383 11.1424 29.0688 9.19302 26.7687 8.31297C26.0796 8.04801 25.2974 7.93761 24.5556 7.9313C19.5581 7.89975 14.5637 7.91553 9.56627 7.91553C8.51091 7.91553 8.4271 7.99754 8.424 9.06054C8.424 17.492 8.424 25.9266 8.424 34.3581C8.424 35.4495 8.424 35.4495 7.35311 35.4495C5.31377 35.4495 3.27133 35.4211 1.2351 35.4652C0.514967 35.4873 0.350454 35.2318 0.353558 34.5473C0.378391 29.0715 0.365974 23.5987 0.365974 18.1229Z" fill="white"/>
<path d="M23.2828 24.9391C23.2828 28.1755 23.2673 31.4118 23.2952 34.6481C23.3014 35.2821 23.1214 35.484 22.4851 35.4714C20.334 35.4335 18.1798 35.4367 16.0256 35.4682C15.4421 35.4777 15.2931 35.2695 15.2962 34.708C15.3117 28.1881 15.3117 21.6713 15.2962 15.1513C15.2931 14.5489 15.4638 14.3375 16.0722 14.347C18.2233 14.3785 20.3775 14.3817 22.5316 14.347C23.1587 14.3375 23.2983 14.5741 23.2952 15.1608C23.2704 18.4192 23.2828 21.6807 23.2828 24.9391Z" fill="white"/>
</svg>
