<svg width="150" height="27" viewBox="0 0 150 27" fill="none" xmlns="http://www.w3.org/2000/svg">
<path d="M73.2211 26.0251C71.7747 26.0251 70.3928 26.0251 68.9408 26.0251C68.9408 25.8577 68.9408 25.7073 68.9408 25.5569C68.9408 21.5583 68.9295 17.557 68.952 13.5584C68.9576 12.3892 68.1839 11.7791 67.0655 11.9749C65.5518 12.236 64.1839 12.9 62.7964 13.5016C62.6927 13.5471 62.6086 13.7684 62.6058 13.9075C62.589 14.8525 62.5974 15.8003 62.5974 16.7453C62.5974 19.6541 62.5974 22.5658 62.5974 25.4746C62.5974 25.6449 62.5974 25.8123 62.5974 26.0138C61.1678 26.0138 59.7775 26.0138 58.3563 26.0138C58.3479 25.8549 58.3367 25.7158 58.3367 25.5767C58.3367 20.1735 58.3423 14.7673 58.3255 9.36404C58.3227 8.92133 58.4684 8.75958 58.8749 8.71133C60.1026 8.56376 61.3304 8.39633 62.6002 8.23173C62.6002 8.66593 62.6002 9.08877 62.6002 9.57688C63.1608 9.3612 63.6626 9.15404 64.1727 8.97809C65.7565 8.43039 67.357 7.89119 69.0445 7.87984C70.9618 7.86565 72.5091 8.60066 73.0529 10.9958C73.165 11.4896 73.2155 12.0118 73.2155 12.5197C73.2267 16.8333 73.2239 21.1497 73.2239 25.4632C73.2211 25.6392 73.2211 25.8066 73.2211 26.0251Z" fill="white"/>
<path d="M53.0866 21.8875C53.3388 22.8892 53.5911 23.9052 53.8686 25.0148C53.0725 25.239 52.2905 25.4972 51.4916 25.6789C49.4622 26.1471 47.3935 26.2095 45.3472 25.9229C42.7011 25.5512 40.4138 23.5363 39.9821 20.7722C39.9429 20.5196 39.9569 20.2585 39.9569 20.0003C39.9569 18.0961 39.9401 16.189 39.9653 14.2848C39.9877 12.7609 40.3718 11.3391 41.322 10.116C42.3087 8.84181 43.6065 8.06424 45.1931 7.95356C46.5806 7.85707 47.9905 7.83721 49.3753 7.96207C51.1076 8.11816 52.3886 9.07168 53.2435 10.6325C53.8854 11.8074 54.0816 13.0617 54.0901 14.37C54.0957 15.3292 54.0985 16.2912 54.0872 17.2504C54.0844 17.6619 54.0508 18.0762 54.0284 18.5416C53.8518 18.5416 53.7004 18.5416 53.5491 18.5416C50.5778 18.5416 47.6037 18.5501 44.6324 18.5331C44.2092 18.5303 44.0438 18.6324 44.0802 19.0808C44.1223 19.5633 44.0466 20.0627 44.1195 20.5395C44.3493 22.018 45.0669 22.5998 46.5582 22.6509C48.7249 22.7246 50.8637 22.5827 52.9408 21.8931C52.9716 21.879 53.0025 21.8875 53.0866 21.8875ZM47.116 15.2838C47.116 15.2866 47.116 15.2866 47.116 15.2894C47.7663 15.2894 48.4166 15.2894 49.0669 15.2894C50.1181 15.2894 50.0985 15.2894 50.1237 14.2252C50.1461 13.3852 49.9443 12.6956 49.2996 12.0855C47.9317 10.7886 45.2996 11.1547 44.3746 12.8404C43.9765 13.564 44.1896 14.3501 44.212 15.1107C44.2148 15.1731 44.4166 15.2752 44.5287 15.2781C45.3921 15.2923 46.2526 15.2838 47.116 15.2838Z" fill="white"/>
<path d="M110.78 7.87686C110.78 13.9726 110.78 20.0144 110.78 26.0817C109.344 26.0817 107.935 26.0817 106.469 26.0817C106.469 25.5624 106.469 25.0403 106.469 24.4784C105.462 24.8274 104.532 25.1821 103.579 25.4716C102.362 25.8405 101.131 26.1555 99.842 26.1045C98.9843 26.0704 98.1658 25.9172 97.4426 25.395C96.6045 24.7934 96.1952 23.9306 95.9962 22.9601C95.8813 22.4039 95.828 21.8278 95.8252 21.2602C95.8112 17.29 95.8252 13.3227 95.8056 9.35255C95.8028 8.88146 95.9261 8.69984 96.4055 8.61754C97.5407 8.42457 98.6647 8.14929 99.7944 7.91091C99.9177 7.88537 100.041 7.87686 100.229 7.85132C100.229 8.067 100.229 8.24862 100.229 8.43024C100.229 12.3408 100.248 16.2542 100.22 20.1648C100.206 21.8874 101.154 22.1541 102.331 21.8363C103.657 21.4759 104.93 20.9112 106.216 20.4032C106.337 20.3549 106.44 20.0939 106.44 19.9293C106.455 16.4472 106.455 12.9651 106.455 9.48309C106.455 9.38376 106.466 9.2816 106.452 9.18228C106.401 8.81335 106.541 8.66862 106.92 8.60051C108.111 8.38484 109.291 8.11808 110.477 7.87402C110.564 7.85983 110.665 7.87686 110.78 7.87686Z" fill="white"/>
<path d="M129.961 26.0816C128.481 26.0816 127.054 26.0816 125.577 26.0816C125.569 25.934 125.555 25.7808 125.555 25.6304C125.555 21.6318 125.541 17.6305 125.566 13.6319C125.574 12.2896 124.722 11.7447 123.66 12.0654C122.261 12.4854 120.899 13.0388 119.531 13.561C119.424 13.6007 119.346 13.8561 119.343 14.0122C119.332 16.2626 119.335 18.513 119.335 20.7635C119.335 22.3697 119.335 23.9759 119.335 25.5793C119.335 25.7354 119.335 25.8886 119.335 26.0731C117.869 26.0731 116.45 26.0731 115.007 26.0731C115.007 20.3037 115.007 14.5457 115.007 8.73943C116.433 8.54646 117.852 8.35348 119.315 8.15483C119.315 8.60605 119.315 9.00052 119.315 9.47444C119.693 9.33538 120.007 9.19917 120.333 9.10552C121.754 8.69687 123.164 8.23997 124.604 7.92497C125.524 7.72348 126.494 7.74618 127.413 8.0697C128.994 8.62592 129.667 9.87742 129.869 11.4581C129.942 12.037 129.956 12.6301 129.958 13.2147C129.967 17.3155 129.961 21.4133 129.961 25.514C129.961 25.6871 129.961 25.8574 129.961 26.0816Z" fill="white"/>
<path d="M11.4776 5.29716C11.1749 5.29716 10.9506 5.29716 10.7292 5.29716C7.41594 5.29716 4.10269 5.29149 0.789445 5.30851C0.397013 5.31135 0.27648 5.20067 0.287693 4.80337C0.312921 3.74485 0.296102 2.68633 0.296102 1.59375C5.69204 1.59375 11.0487 1.59375 16.4587 1.59375C16.4671 1.73281 16.4839 1.88605 16.4839 2.03646C16.4867 2.99565 16.4475 3.95769 16.4951 4.91689C16.5288 5.59797 16.0859 6.02365 15.7775 6.50609C14.9142 7.85124 13.9948 9.15949 13.1062 10.4876C11.8224 12.4032 10.5498 14.3272 9.26597 16.2428C8.00739 18.1243 6.7432 20.0001 5.48741 21.8816C5.40052 22.0122 5.36408 22.1739 5.27718 22.3868C9.05013 22.3868 12.739 22.3868 16.4559 22.3868C16.4559 23.6099 16.4559 24.7904 16.4559 26.0107C11.0852 26.0107 5.71727 26.0107 0.296102 26.0107C0.296102 25.219 0.354967 24.43 0.282087 23.6553C0.178372 22.5599 0.500727 21.6716 1.13422 20.7834C2.49092 18.8849 3.75511 16.9182 5.05294 14.9771C6.52736 12.7721 7.99617 10.5614 9.4706 8.35638C10.0901 7.4284 10.7208 6.50609 11.3431 5.58095C11.3823 5.52135 11.4019 5.45608 11.4776 5.29716Z" fill="white"/>
<path d="M77.4846 1.50854C82.4489 1.50854 87.3851 1.50854 92.3662 1.50854C92.3774 1.63909 92.397 1.76111 92.397 1.88314C92.3998 2.9445 92.383 4.00586 92.4054 5.06439C92.4138 5.44182 92.3073 5.5525 91.9289 5.54966C88.8007 5.53547 85.6724 5.54115 82.5442 5.54399C82.3928 5.54399 82.2386 5.54399 82.0592 5.54399C82.0592 7.76603 82.0592 9.95119 82.0592 12.1959C85.2435 12.1959 88.4166 12.1959 91.6206 12.1959C91.6206 13.5212 91.6206 14.7869 91.6206 16.115C88.4307 16.115 85.2548 16.115 82.0368 16.115C82.0368 19.4637 82.0368 22.7528 82.0368 26.0759C80.5007 26.0759 79.0095 26.0759 77.4874 26.0759C77.4846 17.9029 77.4846 9.72983 77.4846 1.50854Z" fill="white"/>
<path d="M149.07 0.1521C149.07 8.82461 149.07 17.4319 149.07 26.0731C147.618 26.0731 146.171 26.0731 144.677 26.0731C144.677 25.5907 144.677 25.1253 144.677 24.5946C144.1 24.9125 143.593 25.2076 143.071 25.4744C142.132 25.954 141.14 26.1725 140.083 26.0987C138.816 26.0079 137.597 25.761 136.506 25.0515C134.973 24.0554 134.171 22.6081 134.138 20.789C134.087 18.1527 134.065 15.5135 134.141 12.8799C134.222 10.0789 135.926 8.16623 138.553 7.78879C140.459 7.51352 142.356 7.72919 144.24 8.07825C144.363 8.10095 144.487 8.11798 144.672 8.14636C144.672 7.94487 144.672 7.77744 144.672 7.61C144.672 5.50431 144.68 3.39578 144.658 1.29008C144.652 0.8417 144.728 0.654401 145.235 0.611833C146.499 0.50967 147.758 0.316696 149.07 0.1521ZM144.697 16.3449C144.694 16.3449 144.694 16.3449 144.697 16.3449C144.694 14.9856 144.686 13.6234 144.703 12.2641C144.708 11.9321 144.618 11.7675 144.276 11.7277C143.18 11.6029 142.09 11.444 140.994 11.3361C140.635 11.3021 140.254 11.339 139.901 11.4269C139.06 11.6398 138.522 12.3577 138.46 13.4305C138.387 14.7302 138.368 16.0328 138.362 17.3354C138.359 18.4223 138.348 19.5148 138.452 20.5932C138.572 21.8163 139.248 22.3612 140.456 22.4237C142.037 22.5031 143.326 21.7993 144.529 20.8713C144.635 20.789 144.686 20.579 144.686 20.4258C144.7 19.0636 144.697 17.7043 144.697 16.3449Z" fill="white"/>
<path d="M35.6626 26.0193C34.2134 26.0193 32.8203 26.0193 31.4019 26.0193C31.3907 25.8717 31.3767 25.744 31.3767 25.6191C31.3795 21.561 31.3739 17.5057 31.3935 13.4475C31.3991 12.3777 30.8862 12.074 29.8126 12.04C29.067 12.0173 28.3326 12.162 27.6458 12.4997C26.9254 12.8516 26.1994 13.1893 25.465 13.51C25.1931 13.6292 25.1483 13.808 25.1483 14.0776C25.1567 17.8633 25.1539 21.6461 25.1511 25.4318C25.1511 25.6163 25.1511 25.7979 25.1511 26.0108C23.685 26.0108 22.2639 26.0108 20.8063 26.0108C20.8063 17.6334 20.8063 9.25602 20.8063 0.785004C22.2134 0.580677 23.6458 0.370676 25.1679 0.146484C25.1679 3.28232 25.1679 6.33303 25.1679 9.46035C25.9191 9.18792 26.5722 8.93818 27.2337 8.71399C28.7698 8.19183 30.3171 7.70371 31.971 7.84277C33.9948 8.01304 35.4524 9.30427 35.5869 11.4043C35.657 12.5025 35.6542 13.6065 35.657 14.7076C35.6654 18.2918 35.6598 21.876 35.6598 25.4602C35.6626 25.6305 35.6626 25.8008 35.6626 26.0193Z" fill="white"/>
</svg>
