<svg width="58" height="21" viewBox="0 0 58 21" fill="none" xmlns="http://www.w3.org/2000/svg">
<path d="M36.5935 16.7841L38.3765 17.9139L39.6407 16.1158L37.8416 14.97L36.5935 16.7841Z" fill="url(#paint0_linear_0_2100)"/>
<path d="M28.3436 17.8188L30.0941 18.9327L31.1315 17.4369L29.381 16.323L28.3436 17.8188Z" fill="url(#paint1_linear_0_2100)"/>
<path d="M32.8819 19.0437L34.6648 20.1576L35.7994 18.5186L34.0327 17.3887L32.8819 19.0437Z" fill="url(#paint2_linear_0_2100)"/>
<path d="M26.674 19.4578L28.6352 20.699L29.8346 18.9645L27.8896 17.7233L26.674 19.4578Z" fill="url(#paint3_linear_0_2100)"/>
<path d="M24.1131 17.1186L26.1554 18.4076L27.4683 16.5139L25.426 15.225L24.1131 17.1186Z" fill="url(#paint4_linear_0_2100)"/>
<path d="M25.9933 16.6254H24.956V17.8985H25.9933V16.6254Z" fill="url(#paint5_linear_0_2100)"/>
<path d="M28.3599 5.16772L30.1266 6.29754L31.3099 4.59485L29.5431 3.46503L28.3599 5.16772Z" fill="url(#paint6_linear_0_2100)"/>
<path d="M25.7015 2.92407L27.4682 4.05389L28.6514 2.3512L26.8847 1.22137L25.7015 2.92407Z" fill="url(#paint7_linear_0_2100)"/>
<path d="M26.0421 7.88878L27.825 9.01861L29.0568 7.26817L27.2577 6.12244L26.0421 7.88878Z" fill="url(#paint8_linear_0_2100)"/>
<path d="M28.7649 3.68835L30.5479 4.81817L31.7149 3.11548L29.9482 1.98566L28.7649 3.68835Z" fill="url(#paint9_linear_0_2100)"/>
<path d="M32.2336 2.98754L34.0165 4.10145L35.1835 2.41468L33.4168 1.28485L32.2336 2.98754Z" fill="url(#paint10_linear_0_2100)"/>
<path d="M21.8762 13.2835L23.4809 14.3019L24.81 12.3765L23.2215 11.358L21.8762 13.2835Z" fill="url(#paint11_linear_0_2100)"/>
<path d="M22.4437 10.6577L24.2104 11.7716L25.5557 9.84609L23.789 8.73218L22.4437 10.6577Z" fill="url(#paint12_linear_0_2100)"/>
<path d="M25.8314 5.3585L27.6305 6.50424L28.83 4.76972L27.0308 3.63989L25.8314 5.3585Z" fill="url(#paint13_linear_0_2100)"/>
<path d="M23.7728 8.5414L25.5882 9.68714L26.8686 7.84123L25.0695 6.6955L23.7728 8.5414Z" fill="url(#paint14_linear_0_2100)"/>
<path d="M30.4509 6.47267L32.2338 7.60249L33.417 5.91571L31.6341 4.78589L30.4509 6.47267Z" fill="url(#paint15_linear_0_2100)"/>
<path d="M29.0729 8.50938L30.8558 9.6392L32.039 7.93651L30.2561 6.79077L29.0729 8.50938Z" fill="url(#paint16_linear_0_2100)"/>
<path d="M31.7474 17.1662L33.5303 18.2801L34.6649 16.6411L32.8982 15.5112L31.7474 17.1662Z" fill="url(#paint17_linear_0_2100)"/>
<path d="M27.5331 18.7256L29.3809 19.8872L30.4831 18.2959L28.6353 17.1343L27.5331 18.7256Z" fill="url(#paint18_linear_0_2100)"/>
<path d="M25.5393 17.58L27.4843 18.8053L28.6837 17.0708L26.7387 15.8455L25.5393 17.58Z" fill="url(#paint19_linear_0_2100)"/>
<path d="M27.9381 6.64776L29.7211 7.77759L30.9205 6.07489L29.1214 4.94507L27.9381 6.64776Z" fill="url(#paint20_linear_0_2100)"/>
<path d="M29.9806 3.89453L31.1638 2.19184L29.3809 1.06201L28.1977 2.7647L29.9806 3.89453Z" fill="url(#paint21_linear_0_2100)"/>
<path d="M31.8284 4.46758L33.6113 5.5815L34.7945 3.89472L33.0116 2.76489L31.8284 4.46758Z" fill="url(#paint22_linear_0_2100)"/>
<path d="M29.4942 7.02978L31.2609 8.1596L32.4441 6.45691L30.6612 5.32709L29.4942 7.02978Z" fill="url(#paint23_linear_0_2100)"/>
<path d="M22.4598 14.2223L24.0482 15.2408L25.3773 13.3153L23.7889 12.2969L22.4598 14.2223Z" fill="url(#paint24_linear_0_2100)"/>
<path d="M25.1666 8.62123L26.9657 9.76697L28.2138 7.9688L26.4147 6.82306L25.1666 8.62123Z" fill="url(#paint25_linear_0_2100)"/>
<path d="M26.3987 6.29708L28.1978 7.4269L29.3972 5.7083L27.5981 4.56256L26.3987 6.29708Z" fill="url(#paint26_linear_0_2100)"/>
<path d="M23.027 9.54394L24.8424 10.6897L26.1877 8.78012L24.3561 7.61847L23.027 9.54394Z" fill="url(#paint27_linear_0_2100)"/>
<path d="M21.4549 10.976L23.173 12.0581L24.5345 10.1008L22.8164 9.01868L21.4549 10.976Z" fill="url(#paint28_linear_0_2100)"/>
<path d="M24.9073 6.01085L26.6902 7.14068L27.9221 5.39024L26.1229 4.24451L24.9073 6.01085Z" fill="url(#paint29_linear_0_2100)"/>
<path d="M33.3358 17.6755L35.1187 18.8054L36.2857 17.1186L34.5028 15.9888L33.3358 17.6755Z" fill="url(#paint30_linear_0_2100)"/>
<path d="M30.6936 19.601L32.4441 20.715L33.5301 19.1555L31.7634 18.0416L30.6936 19.601Z" fill="url(#paint31_linear_0_2100)"/>
<path d="M26.5607 17.3412H25.2802V18.8371H26.5607V17.3412Z" fill="url(#paint32_linear_0_2100)"/>
<path d="M21.6009 15.1613L23.9025 16.6094L25.7178 13.9837L23.4324 12.5356L21.6009 15.1613Z" fill="url(#paint33_linear_0_2100)"/>
<path d="M35.4914 17.3409L36.6908 15.6223L34.9079 14.5084L33.7247 16.2111L35.4914 17.3409Z" fill="url(#paint34_linear_0_2100)"/>
<path d="M31.2286 20.8261L32.2822 19.3144L30.5155 18.1846L29.4781 19.6963L31.2286 20.8261Z" fill="url(#paint35_linear_0_2100)"/>
<path d="M28.0518 19.776L29.2837 18.0096L27.3062 16.7525L26.0744 18.5188L28.0518 19.776Z" fill="url(#paint36_linear_0_2100)"/>
<path d="M27.2899 20.3169L28.6352 18.3914L26.5606 17.0706L25.2153 19.012L27.2899 20.3169Z" fill="url(#paint37_linear_0_2100)"/>
<path d="M25.41 15.9888H24.7779V16.9436H25.41V15.9888Z" fill="url(#paint38_linear_0_2100)"/>
<path d="M24.3401 17.1182L25.9447 14.8267L23.9511 13.5536L22.3464 15.8451L24.3401 17.1182Z" fill="url(#paint39_linear_0_2100)"/>
<path d="M32.0716 5.1997L33.2548 3.49701L31.4719 2.36719L30.3049 4.06988L32.0716 5.1997Z" fill="url(#paint40_linear_0_2100)"/>
<path d="M28.765 8.3663L29.9644 6.63178L28.1653 5.50195L26.9659 7.23647L28.765 8.3663Z" fill="url(#paint41_linear_0_2100)"/>
<path d="M24.3076 13.9358L25.6691 11.9785L23.951 10.8964L22.6057 12.8378L24.3076 13.9358Z" fill="url(#paint42_linear_0_2100)"/>
<path d="M29.1703 6.85441L30.3535 5.13581L28.5706 4.00598L27.3711 5.70867L29.1703 6.85441Z" fill="url(#paint43_linear_0_2100)"/>
<path d="M25.4099 11.6285L26.7552 9.71896L24.9236 8.55731L23.5945 10.4828L25.4099 11.6285Z" fill="url(#paint44_linear_0_2100)"/>
<path d="M26.3823 8.82764L27.6465 7.02947L25.8474 5.88373L24.5994 7.69781L26.3823 8.82764Z" fill="url(#paint45_linear_0_2100)"/>
<path d="M28.0356 4.97662L29.2188 3.28984L27.4359 2.1441L26.2527 3.86271L28.0356 4.97662Z" fill="url(#paint46_linear_0_2100)"/>
<path d="M23.643 10.8327L24.9883 8.90718L23.2215 7.79327L21.8762 9.71875L23.643 10.8327Z" fill="url(#paint47_linear_0_2100)"/>
<path d="M25.0045 8.74824L26.3011 6.90233L24.502 5.75659L23.2053 7.6025L25.0045 8.74824Z" fill="url(#paint48_linear_0_2100)"/>
<path d="M35.1674 16.5456L36.9665 17.6755L38.1984 15.925L36.3992 14.7793L35.1674 16.5456Z" fill="url(#paint49_linear_0_2100)"/>
<path d="M30.1103 18.6617L31.877 19.7756L32.963 18.2161L31.1963 17.1022L30.1103 18.6617Z" fill="url(#paint50_linear_0_2100)"/>
<path d="M30.6936 17.5L32.4441 18.6139L33.5625 17.0226L31.7958 15.8928L30.6936 17.5Z" fill="url(#paint51_linear_0_2100)"/>
<path d="M28.1327 19.6649L29.9481 20.8107L31.034 19.2512L29.2187 18.1055L28.1327 19.6649Z" fill="url(#paint52_linear_0_2100)"/>
<path d="M26.9982 17.7708L28.7974 18.9165L29.8833 17.373L28.0842 16.2272L26.9982 17.7708Z" fill="url(#paint53_linear_0_2100)"/>
<path d="M24.632 18.0575L26.7228 19.3942L28.0843 17.4369L25.9935 16.1002L24.632 18.0575Z" fill="url(#paint54_linear_0_2100)"/>
<path d="M28.5056 7.57098L30.2886 8.7008L31.4718 6.99811L29.6888 5.86829L28.5056 7.57098Z" fill="url(#paint55_linear_0_2100)"/>
<path d="M33.2059 2.43043L34.9726 3.56026L36.1558 1.85756L34.3891 0.743652L33.2059 2.43043Z" fill="url(#paint56_linear_0_2100)"/>
<path d="M30.7099 2.58986L32.4766 3.71968L33.6598 2.0329L31.8769 0.903076L30.7099 2.58986Z" fill="url(#paint57_linear_0_2100)"/>
<path d="M27.2252 3.30584L29.0081 4.43567L30.1913 2.73297L28.4084 1.60315L27.2252 3.30584Z" fill="url(#paint58_linear_0_2100)"/>
<path d="M21.0497 14.2063L23.3189 15.6544L25.1342 13.0446L22.865 11.5966L21.0497 14.2063Z" fill="url(#paint59_linear_0_2100)"/>
<path d="M23.0112 11.5965L24.7779 12.7104L26.1232 10.785L24.3565 9.65515L23.0112 11.5965Z" fill="url(#paint60_linear_0_2100)"/>
<path d="M24.3401 9.48007L26.1554 10.6258L27.4359 8.77989L25.6367 7.63416L24.3401 9.48007Z" fill="url(#paint61_linear_0_2100)"/>
<path d="M22.0385 11.9149L23.7404 12.997L25.1019 11.0397L23.3838 9.95758L22.0385 11.9149Z" fill="url(#paint62_linear_0_2100)"/>
<path d="M25.4746 6.95018L27.2575 8.08001L28.4893 6.32958L26.6902 5.18384L25.4746 6.95018Z" fill="url(#paint63_linear_0_2100)"/>
<path d="M26.82 4.7857L28.6029 5.91552L29.7861 4.21283L28.0032 3.08301L26.82 4.7857Z" fill="url(#paint64_linear_0_2100)"/>
<path d="M21.3092 12.3446L22.9139 13.363L24.243 11.4376L22.6545 10.4191L21.3092 12.3446Z" fill="url(#paint65_linear_0_2100)"/>
<path d="M24.0158 6.75915L25.815 7.88898L27.0792 6.09081L25.2801 4.94507L24.0158 6.75915Z" fill="url(#paint66_linear_0_2100)"/>
<path d="M22.4598 8.60455L24.2751 9.7662L25.6042 7.84073L23.7889 6.67908L22.4598 8.60455Z" fill="url(#paint67_linear_0_2100)"/>
<path d="M31.6664 6.67956L32.8496 4.97687L31.0667 3.84705L29.8997 5.54974L31.6664 6.67956Z" fill="url(#paint68_linear_0_2100)"/>
<path d="M10.7574 14.2384H11.6165V11.2149H10.7574V14.2384ZM11.195 9.97369C10.9195 9.97369 10.7088 10.1965 10.725 10.467C10.725 10.7375 10.9519 10.9444 11.2275 10.9285C11.503 10.9285 11.7137 10.7057 11.6975 10.4511C11.6975 10.1965 11.4868 9.98961 11.2275 9.97369C11.2112 9.97369 11.195 9.97369 11.195 9.97369ZM5.40864 14.2384H6.26769V11.2149H5.40864V14.2384ZM14.2422 13.4427C14.1288 13.4905 14.0153 13.5223 13.9018 13.5223C13.7235 13.5382 13.5615 13.4109 13.5453 13.2359C13.5453 13.204 13.5453 13.1881 13.5453 13.1563V11.9469H14.3881V11.2308H13.5453V10.4033L12.6862 10.4829V11.2308H12.1189V11.9469H12.6862V13.1563C12.67 13.4586 12.7673 13.761 12.978 13.9838C13.1887 14.1747 13.4804 14.2861 13.7722 14.2702H13.837C14.0639 14.2702 14.2746 14.2225 14.4853 14.1429L14.534 14.127L14.2908 13.4109L14.2422 13.4427ZM2.52355 9.98961H0.773041V14.2225H2.52355C3.12326 14.2543 3.70676 14.0315 4.14439 13.6337C4.5496 13.2199 4.77651 12.6471 4.76031 12.0583C4.72789 11.1194 4.14439 9.98961 2.52355 9.98961ZM3.46363 13.0449C3.2043 13.2836 2.86392 13.395 2.50734 13.3791H1.68071V10.833H2.52355C3.46363 10.833 3.82022 11.4695 3.83643 12.0742C3.85264 12.4243 3.72297 12.7744 3.46363 13.0449ZM9.49316 10.8966L9.1852 11.2626C8.97449 11.1513 8.73136 11.1035 8.50444 11.1194C7.58057 11.1194 6.89981 11.756 6.89981 12.6471C6.89981 13.5859 7.51573 14.1588 8.50444 14.1588C8.86103 14.1588 9.23382 14.3339 9.23382 14.6999C9.23382 15.0659 8.94207 15.2886 8.50444 15.2886C8.06682 15.2886 7.75886 15.034 7.75886 14.7158V14.668H6.91602V14.7158C6.91602 15.5114 7.58057 16.0684 8.52065 16.0684C9.46074 16.0684 10.1091 15.5114 10.1091 14.7158C10.1253 14.3179 9.89837 13.936 9.52557 13.7451C10.0605 13.4586 10.1091 12.838 10.1091 12.663C10.1253 12.3447 10.0118 12.0424 9.80112 11.8037L10.1577 11.374L9.49316 10.8966ZM8.50444 13.4109C8.06682 13.395 7.74265 13.029 7.75886 12.5993C7.77507 12.2015 8.09924 11.8833 8.50444 11.8673C8.90965 11.8673 9.25003 12.1856 9.25003 12.5993C9.25003 12.6153 9.25003 12.6312 9.25003 12.6471C9.28245 13.0449 8.97449 13.3791 8.56928 13.4109C8.55307 13.4109 8.52065 13.4109 8.50444 13.4109ZM5.84627 9.97369C5.57073 9.97369 5.36002 10.1965 5.37622 10.467C5.39243 10.7375 5.60314 10.9444 5.87868 10.9285C6.15423 10.9285 6.36494 10.7057 6.34873 10.4511C6.34873 10.1965 6.13802 9.98961 5.87868 9.97369C5.86248 9.97369 5.84627 9.97369 5.84627 9.97369ZM19.0561 14.2384H19.8989V10.0055H19.0561V14.2384ZM52.494 11.1672C52.1374 11.1672 51.7809 11.3104 51.5215 11.5491L51.4891 11.199H50.7273V14.2225H51.5701V12.6789C51.5539 12.2811 51.8619 11.931 52.2671 11.9151C52.2833 11.9151 52.2833 11.9151 52.2995 11.9151C52.7209 11.9151 52.9803 12.2015 52.9803 12.6471V14.2225H53.8393V12.6312C53.8393 11.756 53.2882 11.1672 52.494 11.1672ZM45.7027 10.8966L45.3947 11.2626C45.184 11.1513 44.9409 11.1035 44.714 11.1194C43.7901 11.1194 43.1094 11.756 43.1094 12.6471C43.1094 13.5859 43.7253 14.1588 44.714 14.1588C45.0544 14.1588 45.4434 14.3339 45.4434 14.6999C45.4434 15.0659 45.1678 15.2886 44.714 15.2886C44.2602 15.2886 43.9684 15.034 43.9684 14.7158V14.668H43.1256V14.7158C43.1256 15.5114 43.7901 16.0684 44.7302 16.0684C45.6703 16.0684 46.3186 15.5114 46.3186 14.7158C46.3348 14.3179 46.1079 13.936 45.7513 13.7451C46.3024 13.4586 46.3348 12.838 46.3348 12.663C46.351 12.3447 46.2376 12.0424 46.0269 11.8037L46.3673 11.374L45.7027 10.8966ZM44.6978 13.4109C44.2602 13.395 43.936 13.029 43.9522 12.5993C43.9684 12.2015 44.2926 11.8833 44.6978 11.8673C45.103 11.8673 45.4434 12.1856 45.4434 12.5993C45.4434 12.6153 45.4434 12.6312 45.4434 12.6471C45.4758 13.0449 45.1678 13.3791 44.7626 13.4109C44.7464 13.4109 44.7302 13.4109 44.6978 13.4109ZM48.4257 11.1513C47.4856 11.1513 46.8049 11.8037 46.8049 12.7266C46.8049 13.6496 47.4694 14.302 48.4419 14.302C49.4144 14.302 50.079 13.6496 50.079 12.7266C50.079 11.8037 49.382 11.1513 48.4257 11.1513ZM48.4257 13.5382C47.8908 13.5382 47.6477 13.1245 47.6477 12.7266C47.6477 12.3288 47.8908 11.9151 48.4257 11.9151C48.8633 11.931 49.2199 12.2811 49.2037 12.7266C49.2037 13.1245 48.9606 13.5382 48.4257 13.5382ZM55.8654 12.3447C55.3467 12.3129 55.3467 12.1379 55.3467 12.0742C55.3467 11.8514 55.7033 11.8355 55.8492 11.8355C56.1085 11.8196 56.3678 11.9151 56.5785 12.0901L56.611 12.122L57.0972 11.5809L57.0648 11.5491C56.7244 11.2626 56.2868 11.1194 55.8492 11.1513C55.1846 11.1513 54.5201 11.4536 54.5201 12.106C54.5201 12.8539 55.3467 13.029 55.833 13.0608C56.3192 13.0926 56.4002 13.1881 56.4002 13.3154C56.4002 13.5064 56.1571 13.6178 55.914 13.6178H55.8816C55.5574 13.6178 55.0712 13.4586 54.8605 13.2199L54.8118 13.1722L54.3904 13.7769L54.4228 13.8087C54.8118 14.1906 55.3305 14.3816 55.8654 14.3498C56.5461 14.3498 57.2269 14.0315 57.2269 13.3473C57.2269 12.5357 56.4975 12.3766 55.8654 12.3447ZM41.6182 11.5332C41.3751 11.2786 41.0347 11.1353 40.6781 11.1513H40.6619C39.6732 11.1513 39.0411 11.7719 39.0411 12.7266C38.9762 13.5382 39.5921 14.2543 40.4188 14.3179C40.4998 14.3179 40.5646 14.3179 40.6457 14.3179H40.6619C41.0185 14.3179 41.3751 14.1588 41.6182 13.9042L41.6344 14.2384H42.4448V11.2149H41.6182V11.5332ZM41.3913 13.2995C41.0833 13.6655 40.5322 13.6973 40.1594 13.395C39.7866 13.0926 39.7542 12.5516 40.0622 12.1856C40.3701 11.8196 40.9212 11.7878 41.294 12.0901C41.4885 12.2493 41.5858 12.472 41.602 12.7266C41.602 12.9335 41.5209 13.1404 41.3913 13.2995ZM33.4492 9.98961H31.6987V14.2384H33.4492C34.0489 14.2702 34.6162 14.0474 35.0538 13.6496C35.459 13.2359 35.6859 12.663 35.6697 12.0742C35.6535 11.1194 35.07 9.98961 33.4492 9.98961ZM34.4055 13.0449C34.1461 13.2836 33.8057 13.4109 33.4492 13.3791H32.6063V10.833H33.4492C34.3893 10.833 34.7458 11.4695 34.762 12.0742C34.7783 12.4243 34.6648 12.7744 34.4055 13.0449ZM17.4191 11.5332C17.1759 11.2786 16.8356 11.1353 16.479 11.1513H16.4628C15.4741 11.1513 14.8419 11.7719 14.8419 12.7266C14.7771 13.5382 15.393 14.2543 16.2196 14.3179C16.3007 14.3179 16.3655 14.3179 16.4466 14.3179H16.4628C16.8194 14.3179 17.1759 14.1588 17.4191 13.9042L17.4515 14.2384H18.2619V11.2149H17.4353L17.4191 11.5332ZM17.1759 13.2995C16.868 13.6655 16.3169 13.6973 15.9441 13.395C15.5713 13.0926 15.5389 12.5516 15.8468 12.1856C16.1548 11.8196 16.7059 11.7878 17.0787 12.0901C17.2732 12.2493 17.3704 12.472 17.3866 12.7266C17.4029 12.9335 17.3218 13.1404 17.1759 13.2995ZM38.0361 11.1353C37.712 11.1035 37.404 11.2308 37.2095 11.4695L37.1609 11.199H36.3667V14.2225H37.2257V12.6312C37.2257 12.0106 37.7282 11.9469 37.9389 11.9469C38.1334 11.931 38.3117 11.9946 38.4576 12.122L38.5062 12.1538L38.8952 11.4377L38.8628 11.4059C38.6196 11.2308 38.3279 11.1353 38.0361 11.1353Z" fill="white"/>
<defs>
<linearGradient id="paint0_linear_0_2100" x1="35.6537" y1="14.8427" x2="36.697" y2="15.5489" gradientUnits="userSpaceOnUse">
<stop stop-color="#D6027D"/>
<stop offset="0.21" stop-color="#B80B7E"/>
<stop offset="0.56" stop-color="#8B197F"/>
<stop offset="0.84" stop-color="#6F2280"/>
<stop offset="1" stop-color="#652580"/>
</linearGradient>
<linearGradient id="paint1_linear_0_2100" x1="30.7633" y1="18.2958" x2="32.4487" y2="19.4346" gradientUnits="userSpaceOnUse">
<stop stop-color="#D6027D"/>
<stop offset="0.21" stop-color="#B80B7E"/>
<stop offset="0.56" stop-color="#8B197F"/>
<stop offset="0.84" stop-color="#6F2280"/>
<stop offset="1" stop-color="#652580"/>
</linearGradient>
<linearGradient id="paint2_linear_0_2100" x1="35.1709" y1="19.3225" x2="36.5388" y2="20.2482" gradientUnits="userSpaceOnUse">
<stop stop-color="#D6027D"/>
<stop offset="0.21" stop-color="#B80B7E"/>
<stop offset="0.56" stop-color="#8B197F"/>
<stop offset="0.84" stop-color="#6F2280"/>
<stop offset="1" stop-color="#652580"/>
</linearGradient>
<linearGradient id="paint3_linear_0_2100" x1="28.3536" y1="19.276" x2="30.2879" y2="20.5838" gradientUnits="userSpaceOnUse">
<stop stop-color="#D6027D"/>
<stop offset="0.21" stop-color="#B80B7E"/>
<stop offset="0.56" stop-color="#8B197F"/>
<stop offset="0.84" stop-color="#6F2280"/>
<stop offset="1" stop-color="#652580"/>
</linearGradient>
<linearGradient id="paint4_linear_0_2100" x1="26.1408" y1="17.0447" x2="28.166" y2="18.4153" gradientUnits="userSpaceOnUse">
<stop stop-color="#D6027D"/>
<stop offset="0.21" stop-color="#B80B7E"/>
<stop offset="0.56" stop-color="#8B197F"/>
<stop offset="0.84" stop-color="#6F2280"/>
<stop offset="1" stop-color="#652580"/>
</linearGradient>
<linearGradient id="paint5_linear_0_2100" x1="24.0942" y1="17.2619" x2="25.1266" y2="17.2619" gradientUnits="userSpaceOnUse">
<stop stop-color="#D6027D"/>
<stop offset="0.21" stop-color="#B80B7E"/>
<stop offset="0.56" stop-color="#8B197F"/>
<stop offset="0.84" stop-color="#6F2280"/>
<stop offset="1" stop-color="#652580"/>
</linearGradient>
<linearGradient id="paint6_linear_0_2100" x1="30.6054" y1="5.38386" x2="31.8464" y2="6.22371" gradientUnits="userSpaceOnUse">
<stop stop-color="#D6027D"/>
<stop offset="0.21" stop-color="#B80B7E"/>
<stop offset="0.56" stop-color="#8B197F"/>
<stop offset="0.84" stop-color="#6F2280"/>
<stop offset="1" stop-color="#652580"/>
</linearGradient>
<linearGradient id="paint7_linear_0_2100" x1="26.7607" y1="2.3664" x2="28.0016" y2="3.20613" gradientUnits="userSpaceOnUse">
<stop stop-color="#D6027D"/>
<stop offset="0.21" stop-color="#B80B7E"/>
<stop offset="0.56" stop-color="#8B197F"/>
<stop offset="0.84" stop-color="#6F2280"/>
<stop offset="1" stop-color="#652580"/>
</linearGradient>
<linearGradient id="paint8_linear_0_2100" x1="24.7261" y1="5.73568" x2="25.8594" y2="6.50297" gradientUnits="userSpaceOnUse">
<stop stop-color="#D6027D"/>
<stop offset="0.21" stop-color="#B80B7E"/>
<stop offset="0.56" stop-color="#8B197F"/>
<stop offset="0.84" stop-color="#6F2280"/>
<stop offset="1" stop-color="#652580"/>
</linearGradient>
<linearGradient id="paint9_linear_0_2100" x1="31.5333" y1="4.24571" x2="32.7716" y2="5.08366" gradientUnits="userSpaceOnUse">
<stop stop-color="#D6027D"/>
<stop offset="0.21" stop-color="#B80B7E"/>
<stop offset="0.56" stop-color="#8B197F"/>
<stop offset="0.84" stop-color="#6F2280"/>
<stop offset="1" stop-color="#652580"/>
</linearGradient>
<linearGradient id="paint10_linear_0_2100" x1="32.9735" y1="2.22159" x2="34.2084" y2="3.05729" gradientUnits="userSpaceOnUse">
<stop stop-color="#D6027D"/>
<stop offset="0.21" stop-color="#B80B7E"/>
<stop offset="0.56" stop-color="#8B197F"/>
<stop offset="0.84" stop-color="#6F2280"/>
<stop offset="1" stop-color="#652580"/>
</linearGradient>
<linearGradient id="paint11_linear_0_2100" x1="23.0078" y1="12.6115" x2="24.5018" y2="13.6214" gradientUnits="userSpaceOnUse">
<stop stop-color="#D6027D"/>
<stop offset="0.21" stop-color="#B80B7E"/>
<stop offset="0.56" stop-color="#8B197F"/>
<stop offset="0.84" stop-color="#6F2280"/>
<stop offset="1" stop-color="#652580"/>
</linearGradient>
<linearGradient id="paint12_linear_0_2100" x1="24.775" y1="10.7576" x2="25.8022" y2="11.4527" gradientUnits="userSpaceOnUse">
<stop stop-color="#D6027D"/>
<stop offset="0.21" stop-color="#B80B7E"/>
<stop offset="0.56" stop-color="#8B197F"/>
<stop offset="0.84" stop-color="#6F2280"/>
<stop offset="1" stop-color="#652580"/>
</linearGradient>
<linearGradient id="paint13_linear_0_2100" x1="27.3721" y1="5.09105" x2="28.5853" y2="5.91201" gradientUnits="userSpaceOnUse">
<stop stop-color="#D6027D"/>
<stop offset="0.21" stop-color="#B80B7E"/>
<stop offset="0.56" stop-color="#8B197F"/>
<stop offset="0.84" stop-color="#6F2280"/>
<stop offset="1" stop-color="#652580"/>
</linearGradient>
<linearGradient id="paint14_linear_0_2100" x1="26.2726" y1="8.81118" x2="27.2125" y2="9.446" gradientUnits="userSpaceOnUse">
<stop stop-color="#D6027D"/>
<stop offset="0.21" stop-color="#B80B7E"/>
<stop offset="0.56" stop-color="#8B197F"/>
<stop offset="0.84" stop-color="#6F2280"/>
<stop offset="1" stop-color="#652580"/>
</linearGradient>
<linearGradient id="paint15_linear_0_2100" x1="32.0557" y1="6.27358" x2="33.2967" y2="7.11343" gradientUnits="userSpaceOnUse">
<stop stop-color="#D6027D"/>
<stop offset="0.21" stop-color="#B80B7E"/>
<stop offset="0.56" stop-color="#8B197F"/>
<stop offset="0.84" stop-color="#6F2280"/>
<stop offset="1" stop-color="#652580"/>
</linearGradient>
<linearGradient id="paint16_linear_0_2100" x1="31.6565" y1="8.94087" x2="32.9031" y2="9.78446" gradientUnits="userSpaceOnUse">
<stop stop-color="#D6027D"/>
<stop offset="0.21" stop-color="#B80B7E"/>
<stop offset="0.56" stop-color="#8B197F"/>
<stop offset="0.84" stop-color="#6F2280"/>
<stop offset="1" stop-color="#652580"/>
</linearGradient>
<linearGradient id="paint17_linear_0_2100" x1="33.2777" y1="16.95" x2="34.652" y2="17.8801" gradientUnits="userSpaceOnUse">
<stop stop-color="#EEDC11"/>
<stop offset="0.32" stop-color="#CCCF17"/>
<stop offset="1" stop-color="#87B423"/>
</linearGradient>
<linearGradient id="paint18_linear_0_2100" x1="26.7736" y1="17.0531" x2="28.5886" y2="18.2814" gradientUnits="userSpaceOnUse">
<stop stop-color="#EEDC11"/>
<stop offset="0.32" stop-color="#CCCF17"/>
<stop offset="1" stop-color="#87B423"/>
</linearGradient>
<linearGradient id="paint19_linear_0_2100" x1="26.3203" y1="16.8092" x2="28.2442" y2="18.1112" gradientUnits="userSpaceOnUse">
<stop stop-color="#EEDC11"/>
<stop offset="0.32" stop-color="#CCCF17"/>
<stop offset="1" stop-color="#87B423"/>
</linearGradient>
<linearGradient id="paint20_linear_0_2100" x1="27.6378" y1="5.19284" x2="28.8782" y2="6.03229" gradientUnits="userSpaceOnUse">
<stop stop-color="#EEDC11"/>
<stop offset="0.32" stop-color="#CCCF17"/>
<stop offset="1" stop-color="#87B423"/>
</linearGradient>
<linearGradient id="paint21_linear_0_2100" x1="30.2074" y1="1.70008" x2="31.0179" y2="0.457617" gradientUnits="userSpaceOnUse">
<stop stop-color="#EEDC11"/>
<stop offset="0.32" stop-color="#CCCF17"/>
<stop offset="1" stop-color="#87B423"/>
</linearGradient>
<linearGradient id="paint22_linear_0_2100" x1="34.6916" y1="5.08131" x2="35.9327" y2="5.92117" gradientUnits="userSpaceOnUse">
<stop stop-color="#EEDC11"/>
<stop offset="0.32" stop-color="#CCCF17"/>
<stop offset="1" stop-color="#87B423"/>
</linearGradient>
<linearGradient id="paint23_linear_0_2100" x1="31.7356" y1="7.24312" x2="32.9765" y2="8.08285" gradientUnits="userSpaceOnUse">
<stop stop-color="#EEDC11"/>
<stop offset="0.32" stop-color="#CCCF17"/>
<stop offset="1" stop-color="#87B423"/>
</linearGradient>
<linearGradient id="paint24_linear_0_2100" x1="23.6053" y1="13.5647" x2="25.0919" y2="14.5697" gradientUnits="userSpaceOnUse">
<stop stop-color="#EEDC11"/>
<stop offset="0.32" stop-color="#CCCF17"/>
<stop offset="1" stop-color="#87B423"/>
</linearGradient>
<linearGradient id="paint25_linear_0_2100" x1="27.0228" y1="8.5118" x2="28.0637" y2="9.21626" gradientUnits="userSpaceOnUse">
<stop stop-color="#EEDC11"/>
<stop offset="0.32" stop-color="#CCCF17"/>
<stop offset="1" stop-color="#87B423"/>
</linearGradient>
<linearGradient id="paint26_linear_0_2100" x1="26.9064" y1="5.35588" x2="28.1141" y2="6.17319" gradientUnits="userSpaceOnUse">
<stop stop-color="#EEDC11"/>
<stop offset="0.32" stop-color="#CCCF17"/>
<stop offset="1" stop-color="#87B423"/>
</linearGradient>
<linearGradient id="paint27_linear_0_2100" x1="23.4397" y1="8.39916" x2="24.3164" y2="8.99329" gradientUnits="userSpaceOnUse">
<stop stop-color="#EEDC11"/>
<stop offset="0.32" stop-color="#CCCF17"/>
<stop offset="1" stop-color="#87B423"/>
</linearGradient>
<linearGradient id="paint28_linear_0_2100" x1="22.9386" y1="10.5018" x2="24.1685" y2="11.3341" gradientUnits="userSpaceOnUse">
<stop stop-color="#EEDC11"/>
<stop offset="0.32" stop-color="#CCCF17"/>
<stop offset="1" stop-color="#87B423"/>
</linearGradient>
<linearGradient id="paint29_linear_0_2100" x1="25.3789" y1="5.02504" x2="26.5115" y2="5.79149" gradientUnits="userSpaceOnUse">
<stop stop-color="#EEDC11"/>
<stop offset="0.32" stop-color="#CCCF17"/>
<stop offset="1" stop-color="#87B423"/>
</linearGradient>
<linearGradient id="paint30_linear_0_2100" x1="33.7811" y1="16.7248" x2="35.068" y2="17.5964" gradientUnits="userSpaceOnUse">
<stop stop-color="#EEDC11"/>
<stop offset="0.32" stop-color="#CCCF17"/>
<stop offset="1" stop-color="#87B423"/>
</linearGradient>
<linearGradient id="paint31_linear_0_2100" x1="32.6613" y1="19.7366" x2="34.2271" y2="20.7962" gradientUnits="userSpaceOnUse">
<stop stop-color="#EEDC11"/>
<stop offset="0.32" stop-color="#CCCF17"/>
<stop offset="1" stop-color="#87B423"/>
</linearGradient>
<linearGradient id="paint32_linear_0_2100" x1="24.1528" y1="18.0892" x2="25.4332" y2="18.0892" gradientUnits="userSpaceOnUse">
<stop stop-color="#EEDC11"/>
<stop offset="0.32" stop-color="#CCCF17"/>
<stop offset="1" stop-color="#87B423"/>
</linearGradient>
<linearGradient id="paint33_linear_0_2100" x1="24.6255" y1="15.2024" x2="26.9027" y2="16.7435" gradientUnits="userSpaceOnUse">
<stop stop-color="#EEDC11"/>
<stop offset="0.32" stop-color="#CCCF17"/>
<stop offset="1" stop-color="#87B423"/>
</linearGradient>
<linearGradient id="paint34_linear_0_2100" x1="35.5848" y1="15.3595" x2="36.3948" y2="14.1177" gradientUnits="userSpaceOnUse">
<stop stop-color="#D30E18"/>
<stop offset="0.2" stop-color="#D93310"/>
<stop offset="0.43" stop-color="#DE5609"/>
<stop offset="0.65" stop-color="#E26F04"/>
<stop offset="0.84" stop-color="#E47F01"/>
<stop offset="1" stop-color="#E58400"/>
</linearGradient>
<linearGradient id="paint35_linear_0_2100" x1="30.3791" y1="20.246" x2="31.0527" y2="19.2134" gradientUnits="userSpaceOnUse">
<stop stop-color="#D30E18"/>
<stop offset="0.2" stop-color="#D93310"/>
<stop offset="0.43" stop-color="#DE5609"/>
<stop offset="0.65" stop-color="#E26F04"/>
<stop offset="0.84" stop-color="#E47F01"/>
<stop offset="1" stop-color="#E58400"/>
</linearGradient>
<linearGradient id="paint36_linear_0_2100" x1="27.5126" y1="18.5097" x2="28.0186" y2="17.734" gradientUnits="userSpaceOnUse">
<stop stop-color="#D30E18"/>
<stop offset="0.2" stop-color="#D93310"/>
<stop offset="0.43" stop-color="#DE5609"/>
<stop offset="0.65" stop-color="#E26F04"/>
<stop offset="0.84" stop-color="#E47F01"/>
<stop offset="1" stop-color="#E58400"/>
</linearGradient>
<linearGradient id="paint37_linear_0_2100" x1="27.1355" y1="18.3909" x2="27.4838" y2="17.8572" gradientUnits="userSpaceOnUse">
<stop stop-color="#D30E18"/>
<stop offset="0.2" stop-color="#D93310"/>
<stop offset="0.43" stop-color="#DE5609"/>
<stop offset="0.65" stop-color="#E26F04"/>
<stop offset="0.84" stop-color="#E47F01"/>
<stop offset="1" stop-color="#E58400"/>
</linearGradient>
<linearGradient id="paint38_linear_0_2100" x1="25.0939" y1="15.5129" x2="25.0939" y2="14.5564" gradientUnits="userSpaceOnUse">
<stop stop-color="#D30E18"/>
<stop offset="0.2" stop-color="#D93310"/>
<stop offset="0.43" stop-color="#DE5609"/>
<stop offset="0.65" stop-color="#E26F04"/>
<stop offset="0.84" stop-color="#E47F01"/>
<stop offset="1" stop-color="#E58400"/>
</linearGradient>
<linearGradient id="paint39_linear_0_2100" x1="24.9988" y1="14.0739" x2="25.9314" y2="12.6424" gradientUnits="userSpaceOnUse">
<stop stop-color="#D30E18"/>
<stop offset="0.2" stop-color="#D93310"/>
<stop offset="0.43" stop-color="#DE5609"/>
<stop offset="0.65" stop-color="#E26F04"/>
<stop offset="0.84" stop-color="#E47F01"/>
<stop offset="1" stop-color="#E58400"/>
</linearGradient>
<linearGradient id="paint40_linear_0_2100" x1="32.3047" y1="3.00828" x2="33.1112" y2="1.77185" gradientUnits="userSpaceOnUse">
<stop stop-color="#D30E18"/>
<stop offset="0.2" stop-color="#D93310"/>
<stop offset="0.43" stop-color="#DE5609"/>
<stop offset="0.65" stop-color="#E26F04"/>
<stop offset="0.84" stop-color="#E47F01"/>
<stop offset="1" stop-color="#E58400"/>
</linearGradient>
<linearGradient id="paint41_linear_0_2100" x1="28.5541" y1="6.80326" x2="29.3802" y2="5.53677" gradientUnits="userSpaceOnUse">
<stop stop-color="#D30E18"/>
<stop offset="0.2" stop-color="#D93310"/>
<stop offset="0.43" stop-color="#DE5609"/>
<stop offset="0.65" stop-color="#E26F04"/>
<stop offset="0.84" stop-color="#E47F01"/>
<stop offset="1" stop-color="#E58400"/>
</linearGradient>
<linearGradient id="paint42_linear_0_2100" x1="22.153" y1="15.3336" x2="23.1277" y2="13.8427" gradientUnits="userSpaceOnUse">
<stop stop-color="#D30E18"/>
<stop offset="0.2" stop-color="#D93310"/>
<stop offset="0.43" stop-color="#DE5609"/>
<stop offset="0.65" stop-color="#E26F04"/>
<stop offset="0.84" stop-color="#E47F01"/>
<stop offset="1" stop-color="#E58400"/>
</linearGradient>
<linearGradient id="paint43_linear_0_2100" x1="28.9437" y1="5.30181" x2="29.7555" y2="4.05732" gradientUnits="userSpaceOnUse">
<stop stop-color="#D30E18"/>
<stop offset="0.2" stop-color="#D93310"/>
<stop offset="0.43" stop-color="#DE5609"/>
<stop offset="0.65" stop-color="#E26F04"/>
<stop offset="0.84" stop-color="#E47F01"/>
<stop offset="1" stop-color="#E58400"/>
</linearGradient>
<linearGradient id="paint44_linear_0_2100" x1="25.7117" y1="9.30793" x2="26.665" y2="7.84641" gradientUnits="userSpaceOnUse">
<stop stop-color="#D30E18"/>
<stop offset="0.2" stop-color="#D93310"/>
<stop offset="0.43" stop-color="#DE5609"/>
<stop offset="0.65" stop-color="#E26F04"/>
<stop offset="0.84" stop-color="#E47F01"/>
<stop offset="1" stop-color="#E58400"/>
</linearGradient>
<linearGradient id="paint45_linear_0_2100" x1="25.3579" y1="8.49367" x2="26.2325" y2="7.1528" gradientUnits="userSpaceOnUse">
<stop stop-color="#D30E18"/>
<stop offset="0.2" stop-color="#D93310"/>
<stop offset="0.43" stop-color="#DE5609"/>
<stop offset="0.65" stop-color="#E26F04"/>
<stop offset="0.84" stop-color="#E47F01"/>
<stop offset="1" stop-color="#E58400"/>
</linearGradient>
<linearGradient id="paint46_linear_0_2100" x1="26.9322" y1="4.76412" x2="27.748" y2="3.51343" gradientUnits="userSpaceOnUse">
<stop stop-color="#D30E18"/>
<stop offset="0.2" stop-color="#D93310"/>
<stop offset="0.43" stop-color="#DE5609"/>
<stop offset="0.65" stop-color="#E26F04"/>
<stop offset="0.84" stop-color="#E47F01"/>
<stop offset="1" stop-color="#E58400"/>
</linearGradient>
<linearGradient id="paint47_linear_0_2100" x1="22.8792" y1="10.1305" x2="23.8379" y2="8.6607" gradientUnits="userSpaceOnUse">
<stop stop-color="#D30E18"/>
<stop offset="0.2" stop-color="#D93310"/>
<stop offset="0.43" stop-color="#DE5609"/>
<stop offset="0.65" stop-color="#E26F04"/>
<stop offset="0.84" stop-color="#E47F01"/>
<stop offset="1" stop-color="#E58400"/>
</linearGradient>
<linearGradient id="paint48_linear_0_2100" x1="24.7024" y1="7.32741" x2="25.6094" y2="5.93703" gradientUnits="userSpaceOnUse">
<stop stop-color="#D30E18"/>
<stop offset="0.2" stop-color="#D93310"/>
<stop offset="0.43" stop-color="#DE5609"/>
<stop offset="0.65" stop-color="#E26F04"/>
<stop offset="0.84" stop-color="#E47F01"/>
<stop offset="1" stop-color="#E58400"/>
</linearGradient>
<linearGradient id="paint49_linear_0_2100" x1="34.3664" y1="14.7192" x2="35.4962" y2="15.4863" gradientUnits="userSpaceOnUse">
<stop stop-color="#7BC2E7"/>
<stop offset="0.19" stop-color="#77C0E6"/>
<stop offset="0.37" stop-color="#6CBCE5"/>
<stop offset="0.54" stop-color="#59B4E1"/>
<stop offset="0.72" stop-color="#3EA9DD"/>
<stop offset="0.89" stop-color="#1B9AD7"/>
<stop offset="1" stop-color="#008FD3"/>
</linearGradient>
<linearGradient id="paint50_linear_0_2100" x1="32.3838" y1="18.9916" x2="33.9607" y2="20.0588" gradientUnits="userSpaceOnUse">
<stop stop-color="#7BC2E7"/>
<stop offset="0.19" stop-color="#77C0E6"/>
<stop offset="0.37" stop-color="#6CBCE5"/>
<stop offset="0.54" stop-color="#59B4E1"/>
<stop offset="0.72" stop-color="#3EA9DD"/>
<stop offset="0.89" stop-color="#1B9AD7"/>
<stop offset="1" stop-color="#008FD3"/>
</linearGradient>
<linearGradient id="paint51_linear_0_2100" x1="30.3402" y1="16.0938" x2="31.7962" y2="17.0803" gradientUnits="userSpaceOnUse">
<stop stop-color="#7BC2E7"/>
<stop offset="0.19" stop-color="#77C0E6"/>
<stop offset="0.37" stop-color="#6CBCE5"/>
<stop offset="0.54" stop-color="#59B4E1"/>
<stop offset="0.72" stop-color="#3EA9DD"/>
<stop offset="0.89" stop-color="#1B9AD7"/>
<stop offset="1" stop-color="#008FD3"/>
</linearGradient>
<linearGradient id="paint52_linear_0_2100" x1="29.0319" y1="19.099" x2="30.8267" y2="20.3122" gradientUnits="userSpaceOnUse">
<stop stop-color="#7BC2E7"/>
<stop offset="0.19" stop-color="#77C0E6"/>
<stop offset="0.37" stop-color="#6CBCE5"/>
<stop offset="0.54" stop-color="#59B4E1"/>
<stop offset="0.72" stop-color="#3EA9DD"/>
<stop offset="0.89" stop-color="#1B9AD7"/>
<stop offset="1" stop-color="#008FD3"/>
</linearGradient>
<linearGradient id="paint53_linear_0_2100" x1="27.6768" y1="17.0738" x2="29.4675" y2="18.2857" gradientUnits="userSpaceOnUse">
<stop stop-color="#7BC2E7"/>
<stop offset="0.19" stop-color="#77C0E6"/>
<stop offset="0.37" stop-color="#6CBCE5"/>
<stop offset="0.54" stop-color="#59B4E1"/>
<stop offset="0.72" stop-color="#3EA9DD"/>
<stop offset="0.89" stop-color="#1B9AD7"/>
<stop offset="1" stop-color="#008FD3"/>
</linearGradient>
<linearGradient id="paint54_linear_0_2100" x1="23.3479" y1="15.7821" x2="25.4263" y2="17.19" gradientUnits="userSpaceOnUse">
<stop stop-color="#7BC2E7"/>
<stop offset="0.19" stop-color="#77C0E6"/>
<stop offset="0.37" stop-color="#6CBCE5"/>
<stop offset="0.54" stop-color="#59B4E1"/>
<stop offset="0.72" stop-color="#3EA9DD"/>
<stop offset="0.89" stop-color="#1B9AD7"/>
<stop offset="1" stop-color="#008FD3"/>
</linearGradient>
<linearGradient id="paint55_linear_0_2100" x1="31.217" y1="8.08428" x2="32.4637" y2="8.92626" gradientUnits="userSpaceOnUse">
<stop stop-color="#7BC2E7"/>
<stop offset="0.19" stop-color="#77C0E6"/>
<stop offset="0.37" stop-color="#6CBCE5"/>
<stop offset="0.54" stop-color="#59B4E1"/>
<stop offset="0.72" stop-color="#3EA9DD"/>
<stop offset="0.89" stop-color="#1B9AD7"/>
<stop offset="1" stop-color="#008FD3"/>
</linearGradient>
<linearGradient id="paint56_linear_0_2100" x1="33.9483" y1="1.66609" x2="35.1893" y2="2.50595" gradientUnits="userSpaceOnUse">
<stop stop-color="#7BC2E7"/>
<stop offset="0.19" stop-color="#77C0E6"/>
<stop offset="0.37" stop-color="#6CBCE5"/>
<stop offset="0.54" stop-color="#59B4E1"/>
<stop offset="0.72" stop-color="#3EA9DD"/>
<stop offset="0.89" stop-color="#1B9AD7"/>
<stop offset="1" stop-color="#008FD3"/>
</linearGradient>
<linearGradient id="paint57_linear_0_2100" x1="32.567" y1="2.56057" x2="33.8078" y2="3.4003" gradientUnits="userSpaceOnUse">
<stop stop-color="#7BC2E7"/>
<stop offset="0.19" stop-color="#77C0E6"/>
<stop offset="0.37" stop-color="#6CBCE5"/>
<stop offset="0.54" stop-color="#59B4E1"/>
<stop offset="0.72" stop-color="#3EA9DD"/>
<stop offset="0.89" stop-color="#1B9AD7"/>
<stop offset="1" stop-color="#008FD3"/>
</linearGradient>
<linearGradient id="paint58_linear_0_2100" x1="29.1922" y1="3.33483" x2="30.4321" y2="4.17336" gradientUnits="userSpaceOnUse">
<stop stop-color="#7BC2E7"/>
<stop offset="0.19" stop-color="#77C0E6"/>
<stop offset="0.37" stop-color="#6CBCE5"/>
<stop offset="0.54" stop-color="#59B4E1"/>
<stop offset="0.72" stop-color="#3EA9DD"/>
<stop offset="0.89" stop-color="#1B9AD7"/>
<stop offset="1" stop-color="#008FD3"/>
</linearGradient>
<linearGradient id="paint59_linear_0_2100" x1="20.1093" y1="11.6784" x2="22.3759" y2="13.213" gradientUnits="userSpaceOnUse">
<stop stop-color="#7BC2E7"/>
<stop offset="0.19" stop-color="#77C0E6"/>
<stop offset="0.37" stop-color="#6CBCE5"/>
<stop offset="0.54" stop-color="#59B4E1"/>
<stop offset="0.72" stop-color="#3EA9DD"/>
<stop offset="0.89" stop-color="#1B9AD7"/>
<stop offset="1" stop-color="#008FD3"/>
</linearGradient>
<linearGradient id="paint60_linear_0_2100" x1="25.3407" y1="11.6954" x2="26.3679" y2="12.3906" gradientUnits="userSpaceOnUse">
<stop stop-color="#7BC2E7"/>
<stop offset="0.19" stop-color="#77C0E6"/>
<stop offset="0.37" stop-color="#6CBCE5"/>
<stop offset="0.54" stop-color="#59B4E1"/>
<stop offset="0.72" stop-color="#3EA9DD"/>
<stop offset="0.89" stop-color="#1B9AD7"/>
<stop offset="1" stop-color="#008FD3"/>
</linearGradient>
<linearGradient id="paint61_linear_0_2100" x1="23.8063" y1="7.77209" x2="24.7474" y2="8.40902" gradientUnits="userSpaceOnUse">
<stop stop-color="#7BC2E7"/>
<stop offset="0.19" stop-color="#77C0E6"/>
<stop offset="0.37" stop-color="#6CBCE5"/>
<stop offset="0.54" stop-color="#59B4E1"/>
<stop offset="0.72" stop-color="#3EA9DD"/>
<stop offset="0.89" stop-color="#1B9AD7"/>
<stop offset="1" stop-color="#008FD3"/>
</linearGradient>
<linearGradient id="paint62_linear_0_2100" x1="25.7937" y1="12.9266" x2="27.0296" y2="13.7624" gradientUnits="userSpaceOnUse">
<stop stop-color="#7BC2E7"/>
<stop offset="0.19" stop-color="#77C0E6"/>
<stop offset="0.37" stop-color="#6CBCE5"/>
<stop offset="0.54" stop-color="#59B4E1"/>
<stop offset="0.72" stop-color="#3EA9DD"/>
<stop offset="0.89" stop-color="#1B9AD7"/>
<stop offset="1" stop-color="#008FD3"/>
</linearGradient>
<linearGradient id="paint63_linear_0_2100" x1="25.0036" y1="5.34953" x2="26.1363" y2="6.11608" gradientUnits="userSpaceOnUse">
<stop stop-color="#7BC2E7"/>
<stop offset="0.19" stop-color="#77C0E6"/>
<stop offset="0.37" stop-color="#6CBCE5"/>
<stop offset="0.54" stop-color="#59B4E1"/>
<stop offset="0.72" stop-color="#3EA9DD"/>
<stop offset="0.89" stop-color="#1B9AD7"/>
<stop offset="1" stop-color="#008FD3"/>
</linearGradient>
<linearGradient id="paint64_linear_0_2100" x1="29.5484" y1="5.31164" x2="30.792" y2="6.15324" gradientUnits="userSpaceOnUse">
<stop stop-color="#7BC2E7"/>
<stop offset="0.19" stop-color="#77C0E6"/>
<stop offset="0.37" stop-color="#6CBCE5"/>
<stop offset="0.54" stop-color="#59B4E1"/>
<stop offset="0.72" stop-color="#3EA9DD"/>
<stop offset="0.89" stop-color="#1B9AD7"/>
<stop offset="1" stop-color="#008FD3"/>
</linearGradient>
<linearGradient id="paint65_linear_0_2100" x1="23.66" y1="12.4676" x2="25.1526" y2="13.4777" gradientUnits="userSpaceOnUse">
<stop stop-color="#7BC2E7"/>
<stop offset="0.19" stop-color="#77C0E6"/>
<stop offset="0.37" stop-color="#6CBCE5"/>
<stop offset="0.54" stop-color="#59B4E1"/>
<stop offset="0.72" stop-color="#3EA9DD"/>
<stop offset="0.89" stop-color="#1B9AD7"/>
<stop offset="1" stop-color="#008FD3"/>
</linearGradient>
<linearGradient id="paint66_linear_0_2100" x1="26.819" y1="7.25426" x2="27.8601" y2="7.95882" gradientUnits="userSpaceOnUse">
<stop stop-color="#7BC2E7"/>
<stop offset="0.19" stop-color="#77C0E6"/>
<stop offset="0.37" stop-color="#6CBCE5"/>
<stop offset="0.54" stop-color="#59B4E1"/>
<stop offset="0.72" stop-color="#3EA9DD"/>
<stop offset="0.89" stop-color="#1B9AD7"/>
<stop offset="1" stop-color="#008FD3"/>
</linearGradient>
<linearGradient id="paint67_linear_0_2100" x1="21.6602" y1="6.67317" x2="22.541" y2="7.27016" gradientUnits="userSpaceOnUse">
<stop stop-color="#7BC2E7"/>
<stop offset="0.19" stop-color="#77C0E6"/>
<stop offset="0.37" stop-color="#6CBCE5"/>
<stop offset="0.54" stop-color="#59B4E1"/>
<stop offset="0.72" stop-color="#3EA9DD"/>
<stop offset="0.89" stop-color="#1B9AD7"/>
<stop offset="1" stop-color="#008FD3"/>
</linearGradient>
<linearGradient id="paint68_linear_0_2100" x1="31.4304" y1="5.18076" x2="32.2409" y2="3.9383" gradientUnits="userSpaceOnUse">
<stop stop-color="#7BC2E7"/>
<stop offset="0.19" stop-color="#77C0E6"/>
<stop offset="0.37" stop-color="#6CBCE5"/>
<stop offset="0.54" stop-color="#59B4E1"/>
<stop offset="0.72" stop-color="#3EA9DD"/>
<stop offset="0.89" stop-color="#1B9AD7"/>
<stop offset="1" stop-color="#008FD3"/>
</linearGradient>
</defs>
</svg>
