<svg width="60" height="12" viewBox="0 0 60 12" fill="none" xmlns="http://www.w3.org/2000/svg">
<path d="M59.0994 0.223389H0.900635V7.52918H59.0994V0.223389Z" fill="#C93535"/>
<path fill-rule="evenodd" clip-rule="evenodd" d="M5.13743 2.63649H6.28193V1.86889H3.22903V2.63649H4.37623V5.70474H5.13748V2.63649H5.13743ZM7.40512 4.17192V3.40423C7.40457 3.30173 7.42496 3.20021 7.46502 3.10596C7.54234 2.9213 7.68851 2.7744 7.87223 2.6967C7.96619 2.65697 8.06709 2.63651 8.16902 2.63651C8.27095 2.63651 8.37185 2.65697 8.4658 2.6967C8.64953 2.7744 8.79569 2.9213 8.87301 3.10596C8.91307 3.20021 8.93346 3.30173 8.93291 3.40423V4.17192H7.40512ZM9.69681 3.40423C9.69817 3.19879 9.65739 2.99527 9.577 2.80637C9.42182 2.4382 9.13022 2.14513 8.76388 1.98916C8.57552 1.90971 8.37329 1.86879 8.16902 1.86879C7.96474 1.86879 7.76251 1.90971 7.57415 1.98916C7.393 2.06646 7.22844 2.17825 7.08954 2.31837C6.95109 2.45889 6.84045 2.62455 6.7635 2.80655C6.6833 2.99543 6.64265 3.19888 6.64409 3.40423V5.70474H7.40512V4.937H8.93291V5.70474H9.69681V3.40423ZM14.147 2.96552C14.148 2.81163 14.1176 2.65916 14.0579 2.51748C13.9424 2.24095 13.7235 2.02101 13.4484 1.90496C13.2486 1.81934 13.0285 1.79337 12.8145 1.83016C12.6004 1.86695 12.4014 1.96494 12.2413 2.11241C12.1382 2.017 12.0181 1.94203 11.8873 1.89144C11.6109 1.7854 11.3045 1.79024 11.0316 1.90496C10.7565 2.02103 10.5377 2.24095 10.4223 2.51743C10.3625 2.65912 10.3322 2.81158 10.3331 2.96548V5.7047H11.097V2.96552C11.097 2.86407 11.1371 2.76678 11.2085 2.69504C11.2799 2.62331 11.3767 2.583 11.4776 2.583C11.5786 2.583 11.6754 2.62331 11.7468 2.69504C11.8181 2.76678 11.8582 2.86407 11.8582 2.96552V5.70474H12.6219V2.96552C12.622 2.88981 12.6444 2.81582 12.6863 2.75288C12.7282 2.68994 12.7876 2.64086 12.8572 2.61183C12.9268 2.58279 13.0033 2.5751 13.0773 2.58972C13.1512 2.60434 13.2191 2.64062 13.2726 2.69399C13.3074 2.72907 13.3353 2.77036 13.3551 2.81575C13.3756 2.86297 13.3861 2.91402 13.3857 2.96557V5.70479H14.1469V2.96552H14.147ZM16.3562 2.63631C16.4578 2.63567 16.5583 2.65617 16.6516 2.69652C16.8347 2.77479 16.9802 2.92156 17.0575 3.10577C17.097 3.2002 17.1174 3.3016 17.1174 3.40403C17.1174 3.50646 17.097 3.60786 17.0575 3.70228C16.9802 3.88651 16.8347 4.03329 16.6516 4.11158C16.5583 4.15189 16.4577 4.17237 16.3562 4.17174H15.5923V2.63649H16.3562V2.63631ZM15.5923 4.93682H16.3562C16.5598 4.93801 16.7614 4.89704 16.9485 4.81646C17.3148 4.66048 17.6064 4.3674 17.7616 3.9992C17.8946 3.68209 17.9176 3.32923 17.8268 2.99741C17.7194 2.61146 17.4676 2.28221 17.1242 2.07854C17.0102 2.01117 16.8881 1.95902 16.7607 1.92341C16.629 1.88657 16.4929 1.86812 16.3561 1.86857H14.8284V5.70456H15.5923V4.937V4.93682ZM20.9448 4.93682H19.0923V4.17192H20.346V3.40423H19.0923V2.63649H20.9447V1.86889H18.3284V5.70488H20.9447V4.937L20.9448 4.93682ZM23.0076 2.63631C23.1091 2.63567 23.2097 2.65617 23.303 2.69652C23.4861 2.77479 23.6316 2.92156 23.7089 3.10577C23.7485 3.20019 23.7688 3.30159 23.7688 3.40403C23.7688 3.50646 23.7485 3.60786 23.7089 3.70228C23.6316 3.88651 23.4861 4.03329 23.303 4.11158C23.2097 4.1519 23.1091 4.17238 23.0076 4.17174H22.2437V2.63649H23.0076V2.63631ZM22.2437 4.93682L23.0981 4.93146L23.4308 5.70456H24.2428L23.8196 4.70141C23.929 4.6324 24.0291 4.54971 24.1177 4.45532C24.2056 4.36197 24.2812 4.25768 24.3426 4.145C24.4038 4.03261 24.4512 3.91314 24.4837 3.78923C24.5511 3.52939 24.5492 3.2563 24.4783 2.99741C24.3709 2.61146 24.1191 2.28221 23.7757 2.07854C23.6618 2.01117 23.5396 1.95902 23.4122 1.92341C23.2805 1.88657 23.1444 1.86812 23.0077 1.86857H21.4798V5.70456H22.2437V4.937V4.93682ZM27.6495 4.93682H25.797V4.17192H27.0506V3.40423H25.797V2.63649H27.6495V1.86889H25.0331V5.70488H27.6495V4.937V4.93682ZM32.7465 3.80262H32.0092V4.89398C31.9269 4.9353 31.8403 4.96758 31.751 4.99026C31.6597 5.01355 31.5658 5.02523 31.4716 5.02503C31.31 5.02611 31.15 4.99332 31.0018 4.92875C30.7116 4.80339 30.4805 4.57064 30.3563 4.27871C30.292 4.12836 30.2594 3.96624 30.2605 3.80258C30.2595 3.64022 30.2921 3.47942 30.3563 3.33045C30.418 3.18651 30.5066 3.05575 30.6172 2.94523C30.7281 2.83496 30.8585 2.74651 31.0018 2.68443C31.1514 2.62021 31.3126 2.58745 31.4753 2.58814C31.638 2.58883 31.7989 2.62296 31.948 2.68844C32.0974 2.75433 32.233 2.8483 32.3473 2.9653L32.7467 2.29655C32.391 1.99206 31.9389 1.82518 31.4717 1.82595C31.2949 1.82539 31.1189 1.84924 30.9486 1.89685C30.6203 1.98828 30.3209 2.16334 30.0796 2.4051C29.9596 2.52466 29.8558 2.65962 29.7709 2.80646C29.6852 2.95477 29.6186 3.11342 29.5726 3.27859C29.5251 3.44921 29.5012 3.62562 29.5018 3.8028C29.5013 3.98087 29.525 4.15817 29.5723 4.32977C29.6181 4.49598 29.6848 4.65561 29.771 4.80473C29.8559 4.95158 29.9597 5.08653 30.0797 5.2061C30.1995 5.32579 30.3337 5.43003 30.4791 5.51641C30.6263 5.60365 30.7842 5.67109 30.9489 5.71701C31.1191 5.76459 31.295 5.78843 31.4717 5.78786C31.9389 5.78853 32.3909 5.62159 32.7466 5.31708V3.8028L32.7465 3.80262ZM34.0533 4.17174V3.40423C34.0528 3.30173 34.0732 3.20021 34.1132 3.10596C34.1905 2.9213 34.3367 2.7744 34.5204 2.6967C34.6144 2.65697 34.7153 2.63651 34.8172 2.63651C34.9191 2.63651 35.02 2.65697 35.114 2.6967C35.2977 2.7744 35.4439 2.9213 35.5212 3.10596C35.5613 3.20021 35.5817 3.30173 35.5811 3.40423V4.17192H34.0533V4.17174ZM36.345 3.40405C36.3464 3.19861 36.3056 2.99509 36.2252 2.80619C36.0701 2.43799 35.7784 2.14491 35.4121 1.98898C35.2237 1.90953 35.0215 1.86861 34.8172 1.86861C34.6129 1.86861 34.4107 1.90953 34.2224 1.98898C34.0412 2.06629 33.8766 2.17808 33.7377 2.31819C33.5993 2.45872 33.4887 2.62438 33.4117 2.80637C33.3314 2.99528 33.2906 3.19879 33.2919 3.40423V5.70474H34.0531V4.937H35.5809V5.70474H36.3448V3.40423L36.345 3.40405ZM40.7952 2.96534C40.7962 2.81145 40.7658 2.65898 40.7061 2.5173C40.5905 2.24084 40.3717 2.02097 40.0966 1.90496C39.8968 1.81934 39.6767 1.79337 39.4627 1.83016C39.2486 1.86695 39.0496 1.96494 38.8895 2.11241C38.7864 2.017 38.6663 1.94203 38.5355 1.89144C38.2591 1.7854 37.9528 1.79024 37.6798 1.90496C37.4046 2.021 37.1858 2.24096 37.0703 2.51752C37.0105 2.65921 36.9802 2.81167 36.9811 2.96557V5.70479H37.745V2.96552C37.745 2.91529 37.7549 2.86555 37.774 2.81914C37.7931 2.77273 37.8211 2.73056 37.8565 2.69504C37.8918 2.65952 37.9338 2.63135 37.98 2.61212C38.0261 2.5929 38.0756 2.583 38.1256 2.583C38.1756 2.583 38.2251 2.5929 38.2713 2.61212C38.3174 2.63135 38.3594 2.65952 38.3947 2.69504C38.4301 2.73056 38.4581 2.77273 38.4772 2.81914C38.4964 2.86555 38.5062 2.91529 38.5062 2.96552V5.70474H39.2701V2.96552C39.2702 2.88977 39.2926 2.81574 39.3345 2.75277C39.3764 2.6898 39.4359 2.6407 39.5055 2.61168C39.5752 2.58266 39.6518 2.575 39.7257 2.58968C39.7997 2.60436 39.8676 2.64072 39.921 2.69417C39.9558 2.72925 39.9838 2.77055 40.0035 2.81593C40.0241 2.86316 40.0345 2.9142 40.0341 2.96575V5.70497H40.7954V2.96552L40.7952 2.96534ZM44.093 4.93682H42.2405V4.17192H43.4941V3.40423H42.2405V2.63649H44.093V1.86889H41.4766V5.70488H44.093V4.937V4.93682ZM46.917 4.17174H48.4422V5.70456H49.2059V1.86889H48.4422V3.40423H46.917V1.86889H46.1533V5.70488H46.917V4.17192V4.17174ZM52.9244 1.86889H52.1603V4.17206C52.161 4.27411 52.1407 4.37521 52.1006 4.46898C52.0619 4.55987 52.0063 4.64252 51.9368 4.71251C51.8669 4.7826 51.7841 4.83846 51.6931 4.87702C51.5993 4.91676 51.4984 4.93723 51.3965 4.93723C51.2947 4.93723 51.1938 4.91676 51.0999 4.87702C51.0089 4.83846 50.9262 4.7826 50.8563 4.71251C50.7868 4.64252 50.7312 4.55987 50.6925 4.46898C50.6524 4.37521 50.6321 4.27411 50.6328 4.17206V1.86889H49.8714V4.17206C49.87 4.37752 49.9108 4.58105 49.9912 4.76996C50.1456 5.13709 50.4363 5.42927 50.8015 5.58447C50.9899 5.66394 51.1922 5.70488 51.3965 5.70488C51.6009 5.70488 51.8031 5.66394 51.9915 5.58447C52.1726 5.50717 52.3374 5.39597 52.4771 5.25679C52.6165 5.11724 52.7278 4.95183 52.8046 4.76974C52.885 4.58083 52.9258 4.37729 52.9244 4.17183V1.86889ZM56.612 4.33391C56.5933 4.25836 56.5661 4.18522 56.5308 4.11591C56.4959 4.04724 56.453 3.98303 56.4029 3.92465C56.356 3.86882 56.2992 3.82213 56.2355 3.78688C56.2972 3.74823 56.3527 3.70043 56.4002 3.6451C56.4505 3.58735 56.4934 3.52356 56.5281 3.45519C56.5633 3.38622 56.5909 3.31364 56.6107 3.23872C56.6296 3.16714 56.6394 3.09343 56.6398 3.01937C56.6409 2.86579 56.6101 2.71366 56.5496 2.57263C56.4319 2.2975 56.2136 2.07824 55.9398 1.96007C55.7996 1.89904 55.6483 1.86806 55.4956 1.86911H53.5872V5.7051H55.4956C55.6483 5.70618 55.7997 5.6752 55.9398 5.61414C56.2136 5.49596 56.4319 5.27669 56.5496 5.00154C56.6102 4.86053 56.6409 4.70841 56.6398 4.55485C56.6394 4.4803 56.63 4.40608 56.612 4.33378V4.33391ZM54.3509 4.17206H55.4956C55.571 4.17207 55.6446 4.19452 55.7073 4.23658C55.77 4.27865 55.8189 4.33844 55.8478 4.4084C55.8767 4.47837 55.8843 4.55537 55.8697 4.62969C55.8551 4.70401 55.8189 4.77231 55.7657 4.82597C55.7302 4.86154 55.6881 4.88967 55.6417 4.90873C55.5954 4.92779 55.5457 4.9374 55.4956 4.937H54.3509V4.17192V4.17206ZM54.3509 2.63663H55.4956C55.5457 2.63614 55.5954 2.6457 55.6417 2.66474C55.6881 2.68378 55.7302 2.71191 55.7657 2.7475C55.8011 2.78309 55.8291 2.82542 55.8481 2.87201C55.867 2.91861 55.8766 2.96853 55.8761 3.01887C55.8764 3.07068 55.8664 3.12204 55.8469 3.16999C55.8183 3.23979 55.7695 3.29938 55.7069 3.3411C55.6443 3.38281 55.5707 3.40473 55.4956 3.40405H54.3509V2.63649V2.63663Z" fill="white"/>
<path fill-rule="evenodd" clip-rule="evenodd" d="M14.2954 9.1049H13.8442V10.7284C13.8444 10.7592 13.8383 10.7897 13.8263 10.818C13.8147 10.8452 13.7981 10.8699 13.7774 10.8909C13.7512 10.9175 13.7189 10.9371 13.6834 10.9481C13.6479 10.9591 13.6102 10.961 13.5737 10.9538C13.5372 10.9466 13.5031 10.9304 13.4744 10.9067C13.4456 10.883 13.4232 10.8525 13.409 10.818C13.3973 10.7896 13.3914 10.7591 13.3916 10.7284V9.1049H12.9387V10.7284C12.9389 10.7591 12.933 10.7896 12.9214 10.818C12.9044 10.8594 12.8755 10.8949 12.8384 10.9198C12.8014 10.9448 12.7578 10.9581 12.7132 10.9581C12.6685 10.9581 12.6249 10.9448 12.5879 10.9198C12.5508 10.8949 12.5219 10.8594 12.5049 10.818C12.4933 10.7896 12.4873 10.7591 12.4876 10.7284V9.1049H12.0348V10.7284C12.0342 10.8196 12.0522 10.91 12.0877 10.9939C12.1561 11.1579 12.2858 11.2883 12.4489 11.357C12.5325 11.3926 12.6224 11.4107 12.7131 11.4101C12.7961 11.4103 12.8785 11.3953 12.9561 11.3657C13.0336 11.3363 13.1049 11.2922 13.1659 11.2357C13.2267 11.292 13.2976 11.3362 13.3749 11.3657C13.4522 11.3953 13.5344 11.4104 13.6172 11.4101C13.7079 11.4107 13.7978 11.3926 13.8814 11.357C14.0445 11.2883 14.1742 11.1579 14.2426 10.9939C14.2781 10.91 14.2961 10.8196 14.2955 10.7284V9.1049H14.2954ZM17.0248 9.1049H16.5737V10.7284C16.5738 10.7592 16.5677 10.7897 16.5555 10.818C16.544 10.8452 16.5274 10.8699 16.5066 10.8909C16.4804 10.9174 16.4482 10.9371 16.4126 10.948C16.3771 10.959 16.3394 10.961 16.303 10.9537C16.2665 10.9465 16.2324 10.9303 16.2036 10.9067C16.1749 10.883 16.1524 10.8525 16.1382 10.818C16.1266 10.7896 16.1207 10.7591 16.1209 10.7284V9.1049H15.6682V10.7284C15.6684 10.7591 15.6625 10.7896 15.6508 10.818C15.6338 10.8594 15.6049 10.8949 15.5679 10.9198C15.5308 10.9448 15.4872 10.9581 15.4426 10.9581C15.398 10.9581 15.3544 10.9448 15.3173 10.9198C15.2802 10.8949 15.2513 10.8594 15.2343 10.818C15.2227 10.7896 15.2168 10.7591 15.217 10.7284V9.1049H14.7642V10.7284C14.7637 10.8196 14.7816 10.91 14.8171 10.9939C14.8855 11.1579 15.0152 11.2883 15.1783 11.357C15.2619 11.3926 15.3518 11.4107 15.4426 11.4101C15.5256 11.4103 15.6079 11.3953 15.6855 11.3657C15.7631 11.3363 15.8343 11.2922 15.8953 11.2357C15.9561 11.2921 16.0271 11.3362 16.1044 11.3657C16.1817 11.3953 16.2639 11.4104 16.3467 11.4101C16.4374 11.4107 16.5274 11.3926 16.6109 11.357C16.774 11.2882 16.9037 11.1579 16.9722 10.9939C17.0076 10.91 17.0256 10.8196 17.025 10.7284V9.1049H17.0248ZM19.7543 9.1049H19.3031V10.7284C19.3033 10.7592 19.2972 10.7897 19.2851 10.818C19.2736 10.8452 19.257 10.8699 19.2362 10.8909C19.1937 10.9334 19.1361 10.9572 19.0761 10.9572C19.0161 10.9572 18.9586 10.9334 18.916 10.8909C18.8953 10.87 18.8789 10.8452 18.8679 10.818C18.8562 10.7896 18.8503 10.7591 18.8505 10.7284V9.1049H18.3978V10.7284C18.3979 10.7591 18.3921 10.7896 18.3804 10.818C18.3634 10.8594 18.3345 10.8948 18.2975 10.9198C18.2604 10.9447 18.2168 10.958 18.1722 10.958C18.1276 10.958 18.084 10.9447 18.0469 10.9198C18.0098 10.8948 17.981 10.8594 17.9639 10.818C17.9523 10.7896 17.9464 10.7591 17.9466 10.7284V9.1049H17.4939V10.7284C17.4933 10.8196 17.5113 10.91 17.5467 10.9939C17.6151 11.1579 17.7448 11.2882 17.9079 11.357C17.9915 11.3926 18.0814 11.4107 18.1722 11.4101C18.2552 11.4103 18.3375 11.3953 18.4151 11.3657C18.4927 11.3363 18.5639 11.2922 18.6249 11.2358C18.6857 11.2921 18.7566 11.3362 18.8339 11.3658C18.9112 11.3954 18.9934 11.4104 19.0762 11.4102C19.1669 11.4108 19.2569 11.3927 19.3404 11.3571C19.5036 11.2883 19.6333 11.1579 19.7017 10.994C19.7371 10.91 19.7551 10.8197 19.7546 10.7284V9.10494L19.7543 9.1049ZM20.7027 11.112C20.6895 11.08 20.6702 11.0509 20.6459 11.0264C20.6214 11.0018 20.5924 10.9822 20.5606 10.9685C20.5273 10.9544 20.4915 10.9471 20.4553 10.9471C20.4192 10.9471 20.3834 10.9544 20.35 10.9685C20.3178 10.9822 20.2884 11.0018 20.2633 11.0264C20.2385 11.0508 20.2187 11.0799 20.205 11.112C20.1907 11.1451 20.1835 11.1807 20.1837 11.2167C20.1834 11.2527 20.1904 11.2883 20.2041 11.3215C20.2177 11.3547 20.2379 11.3849 20.2634 11.4101C20.2884 11.4347 20.3178 11.4543 20.3501 11.468C20.3834 11.4821 20.4192 11.4894 20.4554 11.4894C20.4916 11.4894 20.5274 11.4821 20.5607 11.468C20.5925 11.4543 20.6214 11.4347 20.6459 11.4101C20.6704 11.3854 20.6897 11.356 20.7027 11.3237C20.7165 11.2898 20.7235 11.2534 20.7232 11.2167C20.7234 11.1808 20.7164 11.1452 20.7027 11.112ZM22.1196 9.55988H22.7979V9.1049H20.9885V9.55988H21.6684V11.3784H22.1196V9.55988ZM23.5444 10.47V10.0149C23.5441 9.95417 23.5562 9.89401 23.5799 9.83813C23.6258 9.72869 23.7124 9.64162 23.8213 9.59556C23.877 9.57201 23.9368 9.55989 23.9972 9.55989C24.0576 9.55989 24.1174 9.57201 24.1731 9.59556C24.282 9.64162 24.3686 9.72869 24.4144 9.83813C24.4382 9.89401 24.4503 9.95417 24.4499 10.0149V10.47H23.5444ZM24.9027 10.0149C24.9035 9.89316 24.8793 9.77255 24.8317 9.66059C24.7397 9.44238 24.5669 9.26868 24.3497 9.17624C24.2381 9.12914 24.1182 9.10488 23.9972 9.10488C23.8761 9.10488 23.7562 9.12914 23.6446 9.17624C23.5372 9.22202 23.4397 9.28824 23.3574 9.37124C23.2753 9.45452 23.2097 9.55271 23.1641 9.66059C23.1165 9.77255 23.0924 9.89316 23.0932 10.0149V11.3784H23.5443V10.9234H24.4499V11.3784H24.9026V10.0149H24.9027ZM27.6211 9.75493C27.6216 9.66371 27.6037 9.57334 27.5682 9.48935C27.4998 9.32543 27.3701 9.19506 27.207 9.12627C27.0886 9.0755 26.9581 9.06009 26.8313 9.08189C26.7044 9.10368 26.5865 9.16176 26.4916 9.24916C26.4304 9.19268 26.3593 9.1483 26.2817 9.11838C26.118 9.05553 25.9364 9.05838 25.7747 9.12632C25.6116 9.19513 25.4819 9.3255 25.4135 9.4894C25.378 9.57337 25.36 9.66375 25.3606 9.75498V11.3785H25.8133V9.75498C25.8133 9.69485 25.8371 9.63719 25.8794 9.59467C25.9217 9.55216 25.9791 9.52827 26.0389 9.52827C26.0987 9.52827 26.1561 9.55216 26.1984 9.59467C26.2407 9.63719 26.2645 9.69485 26.2645 9.75498V11.3785H26.7172V9.75498C26.7172 9.71005 26.7305 9.66613 26.7553 9.62877C26.7801 9.5914 26.8154 9.56227 26.8567 9.54505C26.898 9.52783 26.9435 9.52329 26.9873 9.53201C27.0312 9.54072 27.0715 9.5623 27.1031 9.59402C27.1237 9.61482 27.1403 9.63929 27.152 9.66618C27.1642 9.69418 27.1703 9.72444 27.17 9.75498V11.3785H27.6212V9.75498L27.6211 9.75493ZM29.0112 9.55988C29.0713 9.55953 29.1309 9.57168 29.1862 9.59556C29.2946 9.64199 29.3809 9.72897 29.4267 9.83813C29.4501 9.8941 29.4622 9.9542 29.4622 10.0149C29.4622 10.0756 29.4501 10.1357 29.4267 10.1917C29.3809 10.3009 29.2946 10.3879 29.1862 10.4343C29.1309 10.4582 29.0713 10.4703 29.0112 10.47H28.5585V9.55988H29.0112ZM28.5585 10.9234H29.0112C29.1318 10.9241 29.2513 10.8998 29.3622 10.8521C29.5793 10.7596 29.7522 10.5859 29.8441 10.3677C29.923 10.1798 29.9366 9.97063 29.8828 9.77396C29.8191 9.54519 29.6699 9.35002 29.4663 9.22932C29.3988 9.18939 29.3264 9.15848 29.2509 9.13737C29.1728 9.11554 29.0922 9.10462 29.0111 9.1049H28.1057V11.3784H28.5585V10.9234ZM31.8117 10.9234H30.7136V10.47H31.4567V10.0149H30.7136V9.55988H31.8116V9.1049H30.2609V11.3784H31.8116V10.9234H31.8117ZM33.115 9.55988C33.1752 9.55952 33.2347 9.57167 33.29 9.59556C33.3985 9.64197 33.4848 9.72896 33.5306 9.83813C33.554 9.8941 33.5661 9.9542 33.5661 10.0149C33.5661 10.0756 33.554 10.1357 33.5306 10.1917C33.4848 10.3009 33.3985 10.3879 33.29 10.4343C33.2347 10.4582 33.1752 10.4703 33.115 10.47H32.6622V9.55988H33.115ZM32.6622 10.9234L33.1686 10.9202L33.3658 11.3784H33.847L33.5962 10.7839C33.661 10.743 33.7203 10.694 33.7728 10.638C33.8249 10.5827 33.8697 10.5209 33.9061 10.4541C33.9424 10.3875 33.9705 10.3167 33.9897 10.2432C34.0297 10.0893 34.0286 9.9274 33.9866 9.77396C33.9229 9.54519 33.7737 9.35002 33.5701 9.22932C33.5026 9.1894 33.4302 9.15849 33.3548 9.13737C33.2767 9.11555 33.196 9.10462 33.115 9.1049H32.2094V11.3784H32.6622V10.9234H32.6622ZM35.9469 10.9234H34.849V10.47H35.592V10.0149H34.849V9.55988H35.9469V9.1049H34.3962V11.3784H35.9469V10.9234H35.9469ZM36.8084 11.112C36.7952 11.08 36.7759 11.0509 36.7516 11.0264C36.7271 11.0018 36.6981 10.9822 36.6663 10.9685C36.633 10.9544 36.5972 10.9471 36.561 10.9471C36.5248 10.9471 36.489 10.9544 36.4557 10.9685C36.4235 10.9822 36.394 11.0018 36.369 11.0264C36.3442 11.0508 36.3243 11.0799 36.3106 11.112C36.2964 11.1451 36.2891 11.1807 36.2893 11.2167C36.2891 11.2535 36.2963 11.2899 36.3106 11.3237C36.3242 11.3561 36.344 11.3855 36.369 11.4101C36.394 11.4347 36.4235 11.4543 36.4557 11.468C36.489 11.4821 36.5248 11.4894 36.561 11.4894C36.5972 11.4894 36.633 11.4821 36.6663 11.468C36.6981 11.4543 36.7271 11.4347 36.7516 11.4101C36.776 11.3854 36.7954 11.356 36.8084 11.3237C36.8222 11.2898 36.8292 11.2534 36.8289 11.2167C36.8292 11.1808 36.8223 11.1452 36.8086 11.112H36.8084ZM39.0756 10.2512H38.6386V10.898C38.5898 10.9225 38.5385 10.9417 38.4856 10.9551C38.4315 10.9689 38.3758 10.9758 38.32 10.9757C38.2242 10.9764 38.1294 10.9569 38.0415 10.9186C37.8695 10.8443 37.7325 10.7064 37.659 10.5334C37.6208 10.4443 37.6015 10.3482 37.6022 10.2512C37.6016 10.1549 37.6209 10.0596 37.659 9.97131C37.6956 9.88601 37.748 9.80852 37.8136 9.74302C37.8793 9.67767 37.9566 9.62524 38.0415 9.58843C38.1302 9.55038 38.2258 9.53096 38.3222 9.53137C38.4187 9.53178 38.514 9.55201 38.6024 9.59082C38.691 9.62989 38.7713 9.68559 38.8391 9.75493L39.0757 9.35857C38.8649 9.17808 38.597 9.07912 38.32 9.07951C38.2153 9.07917 38.111 9.09332 38.0101 9.12154C37.8155 9.17577 37.6381 9.27957 37.4951 9.42288C37.424 9.49373 37.3625 9.5737 37.3121 9.66072C37.2613 9.74862 37.2218 9.84265 37.1946 9.94055C37.1665 10.0417 37.1524 10.1463 37.1528 10.2513C37.1525 10.3568 37.1665 10.4619 37.1946 10.5636C37.2216 10.6621 37.2611 10.7567 37.3121 10.8451C37.3625 10.9321 37.424 11.012 37.4951 11.0829C37.5661 11.1538 37.6456 11.2156 37.7317 11.2668C37.819 11.3185 37.9126 11.3585 38.0102 11.3857C38.1111 11.4139 38.2154 11.428 38.3201 11.4277C38.597 11.4281 38.865 11.3292 39.0758 11.1487V10.2512L39.0756 10.2512ZM39.9309 10.47V10.0149C39.9306 9.95417 39.9427 9.89401 39.9664 9.83813C40.0124 9.72861 40.0992 9.64153 40.2082 9.59556C40.2639 9.57201 40.3237 9.55989 40.3841 9.55989C40.4445 9.55989 40.5043 9.57201 40.56 9.59556C40.6689 9.64162 40.7555 9.72869 40.8014 9.83813C40.8251 9.89401 40.8372 9.95417 40.8369 10.0149V10.47H39.9314H39.9309ZM41.2892 10.0149C41.29 9.89316 41.2658 9.77255 41.2182 9.66059C41.1262 9.44238 40.9534 9.26868 40.7363 9.17624C40.6246 9.12914 40.5048 9.10488 40.3837 9.10488C40.2626 9.10488 40.1427 9.12914 40.0311 9.17624C39.9238 9.22202 39.8262 9.28824 39.7439 9.37124C39.6618 9.45452 39.5963 9.55271 39.5507 9.66059C39.503 9.77255 39.4789 9.89316 39.4797 10.0149V11.3784H39.9309V10.9234H40.8364V11.3784H41.2896V10.0149H41.2892ZM44.0076 9.75493C44.0082 9.66371 43.9902 9.57334 43.9547 9.48935C43.8863 9.32543 43.7566 9.19506 43.5935 9.12627C43.4751 9.0755 43.3447 9.06009 43.2178 9.08189C43.0909 9.10368 42.973 9.16176 42.8781 9.24916C42.817 9.19268 42.7458 9.1483 42.6683 9.11838C42.5045 9.05553 42.323 9.05838 42.1612 9.12632C41.9981 9.19513 41.8684 9.3255 41.8 9.4894C41.7645 9.57337 41.7465 9.66375 41.7471 9.75498V11.3785H42.1999V9.75498C42.1995 9.72493 42.205 9.6951 42.2161 9.66722C42.2273 9.63935 42.2438 9.61397 42.2648 9.59258C42.2858 9.57118 42.3108 9.55419 42.3384 9.5426C42.366 9.531 42.3956 9.52503 42.4255 9.52503C42.4554 9.52503 42.485 9.531 42.5126 9.5426C42.5401 9.55419 42.5651 9.57118 42.5861 9.59258C42.6071 9.61397 42.6237 9.63935 42.6348 9.66722C42.646 9.6951 42.6515 9.72493 42.6511 9.75498V11.3785H43.1038V9.75498C43.1038 9.71005 43.1171 9.66613 43.1419 9.62877C43.1667 9.5914 43.202 9.56227 43.2433 9.54505C43.2846 9.52783 43.33 9.52329 43.3739 9.53201C43.4177 9.54072 43.458 9.5623 43.4897 9.59402C43.5103 9.61482 43.5269 9.63929 43.5386 9.66618C43.5507 9.69418 43.5568 9.72444 43.5565 9.75498V11.3785H44.0077V9.75498L44.0076 9.75493ZM46.0427 10.9234H44.9451V10.47H45.688V10.0149H44.9451V9.55988H46.0429V9.1049H44.4924V11.3784H46.0429V10.9234H46.0427ZM46.3618 10.0522C46.3962 10.1332 46.4457 10.2069 46.5076 10.2694C46.5697 10.3313 46.6427 10.3811 46.723 10.4161C46.8061 10.4522 46.8958 10.4705 46.9864 10.47H47.4391C47.4695 10.4697 47.4995 10.4756 47.5275 10.4874C47.5544 10.4986 47.5788 10.515 47.5993 10.5357C47.62 10.5564 47.6364 10.5809 47.6478 10.6079C47.6705 10.6649 47.6705 10.7285 47.6478 10.7855C47.6365 10.8124 47.62 10.837 47.5993 10.8576C47.5788 10.8783 47.5544 10.8948 47.5275 10.906C47.4995 10.9177 47.4695 10.9237 47.4391 10.9234H46.4344V11.3784H47.4391C47.53 11.379 47.62 11.3605 47.7034 11.3243C47.7841 11.2897 47.8575 11.2399 47.9197 11.1777C47.9814 11.1156 48.0306 11.0421 48.0646 10.9612C48.0996 10.8772 48.1176 10.7871 48.1176 10.696C48.1176 10.605 48.0996 10.5148 48.0646 10.4309C47.9964 10.2668 47.8666 10.1364 47.7034 10.0678C47.6198 10.0321 47.5299 10.0141 47.4391 10.0146H46.9864C46.9562 10.0149 46.9263 10.009 46.8984 9.99724C46.844 9.97435 46.8007 9.93074 46.7782 9.87593C46.7668 9.84746 46.761 9.81704 46.7611 9.78636C46.7609 9.75593 46.7667 9.72575 46.7782 9.69757C46.7895 9.67058 46.806 9.64607 46.8266 9.62541C46.8471 9.60469 46.8715 9.58826 46.8984 9.57707C46.9263 9.56534 46.9562 9.55941 46.9864 9.55961H48.0247V9.1049H46.9864C46.8958 9.10431 46.8061 9.12266 46.723 9.15879C46.5607 9.22878 46.4314 9.35877 46.3618 9.52187C46.3265 9.60579 46.3084 9.69596 46.3084 9.78704C46.3085 9.87812 46.3267 9.96827 46.3619 10.0522H46.3618Z" fill="white"/>
</svg>
