<svg width="52" height="13" viewBox="0 0 52 13" fill="none" xmlns="http://www.w3.org/2000/svg">
<path fill-rule="evenodd" clip-rule="evenodd" d="M12.7963 5.16934C12.7963 6.46337 12.6195 7.65561 11.9494 8.41613C11.269 9.18928 10.4206 9.58124 9.28004 9.5831C8.75927 9.58924 8.24371 9.47897 7.77119 9.2604C7.29867 9.04182 6.88114 8.72047 6.54922 8.31991C6.23899 8.67976 5.86353 8.97799 5.44253 9.19894C4.94271 9.4547 4.38827 9.58587 3.8266 9.58124C2.68528 9.58124 1.83544 9.1878 1.152 8.41167C0.479343 7.6478 0.342728 6.45706 0.342728 5.16934V0.817993H2.1392V5.45988C2.1392 6.04875 2.37818 6.67552 2.69273 7.02698C3.0017 7.37176 3.3196 7.53932 3.82623 7.53932C4.33286 7.53932 4.72223 7.37251 5.04497 7.01918C5.36771 6.66586 5.66775 6.22262 5.66775 5.45876V0.817993H7.45453V5.45653C7.44076 6.28802 7.75047 6.74016 8.06502 7.09126C8.37399 7.43752 8.76596 7.53709 9.2778 7.53709C9.77773 7.53709 10.1671 7.36768 10.4824 7.01918C10.804 6.66622 10.9663 6.04095 10.9663 5.45876V0.817993H12.7963V5.16934ZM17.7159 8.24863L15.6484 2.97701L15.6469 9.46167H13.9662V2.76635C13.9654 2.13896 14.0916 1.65746 14.3445 1.32185C14.5973 0.986231 14.9571 0.818424 15.424 0.818424C15.7512 0.816986 16.0683 0.932722 16.3174 1.14463C16.5826 1.36209 16.8269 1.69771 17.0503 2.15146L19.0977 7.49146V0.900532H20.7959V7.64416C20.7968 8.25296 20.6728 8.72827 20.4236 9.07008C20.1744 9.41189 19.829 9.58279 19.3873 9.58279C19.0453 9.58518 18.7133 9.46807 18.4488 9.25175C18.1716 9.03032 17.9273 8.69595 17.7159 8.24863ZM3.87015 12.847C3.9629 12.8789 4.05952 12.8948 4.15999 12.8948C4.27078 12.8948 4.36418 12.8789 4.44018 12.847C4.51619 12.8139 4.57222 12.7699 4.60829 12.715C4.64565 12.6589 4.66433 12.5971 4.66433 12.5296C4.66433 12.448 4.64307 12.3836 4.60057 12.3364C4.55805 12.288 4.50588 12.2522 4.44405 12.2293C4.3835 12.2051 4.30363 12.1809 4.20444 12.1566C4.1207 12.1363 4.05372 12.1178 4.00348 12.1012C3.95453 12.0834 3.9133 12.0585 3.87981 12.0267C3.84761 11.9935 3.8315 11.9501 3.8315 11.8966C3.8315 11.8252 3.86113 11.7672 3.92039 11.7226C3.98094 11.6766 4.07046 11.6537 4.18898 11.6537C4.25082 11.6537 4.31394 11.6633 4.37835 11.6824C4.44276 11.7002 4.5033 11.7277 4.55999 11.7646L4.60829 11.6519C4.55419 11.6148 4.48978 11.5862 4.41506 11.5657C4.34163 11.5441 4.26628 11.5332 4.18898 11.5332C4.0782 11.5332 3.98545 11.5498 3.91073 11.583C3.83601 11.6161 3.78061 11.6607 3.74455 11.7168C3.70848 11.7717 3.69045 11.8329 3.69045 11.9004C3.69045 11.9833 3.71169 12.049 3.75421 12.0974C3.79801 12.1459 3.85018 12.1821 3.91073 12.2064C3.97128 12.2293 4.05243 12.2535 4.15419 12.279C4.23922 12.2994 4.30557 12.3186 4.35323 12.3364C4.40089 12.353 4.44082 12.3772 4.47303 12.4091C4.50653 12.441 4.52327 12.4836 4.52327 12.5372C4.52327 12.6073 4.493 12.6647 4.43245 12.7093C4.3719 12.7527 4.28109 12.7743 4.15999 12.7743C4.07369 12.7743 3.98995 12.7597 3.90879 12.7304C3.82764 12.6997 3.76258 12.6602 3.71363 12.6118L3.65759 12.7208C3.70783 12.773 3.77869 12.8151 3.87015 12.847ZM1.65205 12.1931C1.74093 12.2122 1.80921 12.2504 1.85687 12.3078C1.90582 12.3639 1.93029 12.4366 1.93029 12.5258C1.93029 12.6406 1.88714 12.7292 1.80083 12.7917C1.71581 12.8528 1.58956 12.8834 1.42209 12.8834H0.799891V11.5448H1.38345C1.53417 11.5448 1.65075 11.5748 1.7332 11.6346C1.81693 11.6946 1.8588 11.7793 1.8588 11.8891C1.8588 11.9629 1.84012 12.0261 1.80276 12.0783C1.76669 12.1294 1.71645 12.1676 1.65205 12.1931ZM0.942882 11.6614V12.1471H1.37379C1.48329 12.1471 1.56767 12.1268 1.62692 12.086C1.68618 12.0439 1.71581 11.9834 1.71581 11.9043C1.71581 11.8253 1.68618 11.7653 1.62692 11.7245C1.56767 11.6824 1.48329 11.6614 1.37379 11.6614H0.942882ZM1.42017 12.7668C1.54125 12.7668 1.63272 12.7463 1.69455 12.7056C1.75638 12.6648 1.7873 12.6011 1.7873 12.5143C1.7873 12.3473 1.66492 12.2639 1.42017 12.2639H0.942882V12.7668H1.42017ZM2.80159 12.8949C2.6264 12.8949 2.48985 12.8452 2.39195 12.7457C2.29404 12.6463 2.24509 12.5016 2.24509 12.3117V11.5448H2.38808V12.3059C2.38808 12.4614 2.4235 12.5775 2.49436 12.654C2.56521 12.7304 2.66762 12.7687 2.80159 12.7687C2.93686 12.7687 3.03991 12.7304 3.11076 12.654C3.18161 12.5775 3.21704 12.4614 3.21704 12.3059V11.5448H3.35617V12.3117C3.35617 12.5016 3.30722 12.6463 3.20931 12.7457C3.11269 12.8452 2.97679 12.8949 2.80159 12.8949ZM4.97589 11.5448H5.11888V12.8834H4.97589V11.5448ZM6.68912 12.8834V11.5448H6.54807V12.631L5.67659 11.5448H5.55872V12.8834H5.70171V11.7972L6.57125 12.8834H6.68912ZM8.08732 12.7611V12.8834H7.13082V11.5448H8.05832V11.6672H7.27381V12.1434H7.97331V12.2639H7.27381V12.7611H8.08732ZM8.50641 12.847C8.59916 12.8789 8.69577 12.8948 8.79625 12.8948C8.90703 12.8948 9.00043 12.8789 9.07644 12.847C9.15245 12.8139 9.20848 12.7699 9.24455 12.715C9.28191 12.6589 9.30058 12.5971 9.30058 12.5296C9.30058 12.448 9.27933 12.3836 9.23682 12.3364C9.19431 12.288 9.14214 12.2522 9.0803 12.2293C9.01976 12.2051 8.93989 12.1809 8.8407 12.1566C8.75696 12.1363 8.68998 12.1178 8.63974 12.1012C8.59079 12.0834 8.54956 12.0585 8.51607 12.0267C8.48386 11.9935 8.46776 11.9501 8.46776 11.8966C8.46776 11.8252 8.49739 11.7672 8.55665 11.7226C8.61719 11.6766 8.70672 11.6537 8.82524 11.6537C8.88707 11.6537 8.9502 11.6633 9.01461 11.6824C9.07901 11.7002 9.13956 11.7277 9.19625 11.7646L9.24455 11.6519C9.19045 11.6148 9.12604 11.5862 9.05132 11.5657C8.97789 11.5441 8.90253 11.5332 8.82524 11.5332C8.71446 11.5332 8.62171 11.5498 8.54699 11.583C8.47227 11.6161 8.41687 11.6607 8.3808 11.7168C8.34474 11.7717 8.3267 11.8329 8.3267 11.9004C8.3267 11.9833 8.34795 12.049 8.39046 12.0974C8.43427 12.1459 8.48644 12.1821 8.54699 12.2064C8.60753 12.2293 8.68869 12.2535 8.79045 12.279C8.87548 12.2994 8.94182 12.3186 8.98949 12.3364C9.03715 12.353 9.07708 12.3772 9.10928 12.4091C9.14279 12.441 9.15953 12.4836 9.15953 12.5372C9.15953 12.6073 9.12925 12.6647 9.06871 12.7093C9.00816 12.7527 8.91734 12.7743 8.79625 12.7743C8.70995 12.7743 8.62621 12.7597 8.54505 12.7304C8.4639 12.6997 8.39884 12.6602 8.34989 12.6118L8.29385 12.7208C8.34409 12.773 8.41495 12.8151 8.50641 12.847ZM9.98525 12.8948C9.88476 12.8948 9.78815 12.8789 9.6954 12.847C9.60393 12.8151 9.53309 12.773 9.48284 12.7208L9.53887 12.6118C9.58783 12.6602 9.65288 12.6997 9.73405 12.7304C9.8152 12.7597 9.89893 12.7743 9.98525 12.7743C10.1063 12.7743 10.1972 12.7527 10.2577 12.7093C10.3182 12.6647 10.3485 12.6073 10.3485 12.5372C10.3485 12.4836 10.3318 12.441 10.2983 12.4091C10.2661 12.3772 10.2261 12.353 10.1785 12.3364C10.1308 12.3186 10.0645 12.2994 9.97945 12.279C9.87768 12.2535 9.79652 12.2293 9.73597 12.2064C9.67543 12.1821 9.62325 12.1459 9.57946 12.0974C9.53695 12.049 9.51569 11.9833 9.51569 11.9004C9.51569 11.8329 9.53372 11.7717 9.56979 11.7168C9.60587 11.6607 9.66126 11.6161 9.73597 11.583C9.81069 11.5498 9.90344 11.5332 10.0142 11.5332C10.0915 11.5332 10.1669 11.5441 10.2403 11.5657C10.315 11.5862 10.3795 11.6148 10.4336 11.6519L10.3853 11.7646C10.3286 11.7277 10.268 11.7002 10.2036 11.6824C10.1392 11.6633 10.0761 11.6537 10.0142 11.6537C9.89571 11.6537 9.80618 11.6766 9.74563 11.7226C9.68637 11.7672 9.65675 11.8252 9.65675 11.8966C9.65675 11.9501 9.67285 11.9935 9.70506 12.0267C9.73855 12.0585 9.77977 12.0834 9.82872 12.1012C9.87896 12.1178 9.94596 12.1363 10.0297 12.1566C10.1289 12.1809 10.2088 12.2051 10.2693 12.2293C10.3311 12.2522 10.3833 12.288 10.4258 12.3364C10.4683 12.3836 10.4896 12.448 10.4896 12.5296C10.4896 12.5971 10.4709 12.6589 10.4336 12.715C10.3974 12.7699 10.3415 12.8139 10.2654 12.847C10.1894 12.8789 10.096 12.8948 9.98525 12.8948ZM11.5309 12.8069C11.6391 12.8655 11.7601 12.8948 11.8941 12.8948C11.9946 12.8948 12.0874 12.8782 12.1724 12.8451C12.2587 12.8107 12.3315 12.7616 12.3907 12.6979L12.2999 12.608C12.1955 12.715 12.0622 12.7686 11.8999 12.7686C11.793 12.7686 11.6958 12.7444 11.6081 12.696C11.5205 12.6475 11.4516 12.5812 11.4013 12.4971C11.3524 12.4129 11.328 12.3186 11.328 12.214C11.328 12.1095 11.3524 12.0151 11.4013 11.9311C11.4516 11.8469 11.5205 11.7805 11.6081 11.7321C11.6958 11.6837 11.793 11.6595 11.8999 11.6595C12.0609 11.6595 12.1942 11.7124 12.2999 11.8182L12.3907 11.7283C12.3315 11.6646 12.2593 11.6161 12.1743 11.583C12.0892 11.5498 11.9965 11.5332 11.896 11.5332C11.7621 11.5332 11.641 11.5626 11.5328 11.6212C11.4246 11.6799 11.3396 11.7615 11.2777 11.866C11.2171 11.9693 11.1869 12.0852 11.1869 12.214C11.1869 12.3428 11.2171 12.4594 11.2777 12.5639C11.3396 12.6672 11.4239 12.7482 11.5309 12.8069ZM13.2586 12.8948C13.1246 12.8948 13.0029 12.8655 12.8934 12.8069C12.7852 12.7469 12.7002 12.6654 12.6383 12.5621C12.5778 12.4589 12.5475 12.3428 12.5475 12.214C12.5475 12.0852 12.5778 11.9693 12.6383 11.866C12.7002 11.7628 12.7852 11.6818 12.8934 11.6231C13.0029 11.5632 13.1246 11.5332 13.2586 11.5332C13.3926 11.5332 13.513 11.5626 13.6199 11.6212C13.7282 11.6799 13.8132 11.7615 13.875 11.866C13.9369 11.9693 13.9678 12.0852 13.9678 12.214C13.9678 12.3428 13.9369 12.4594 13.875 12.5639C13.8132 12.6672 13.7282 12.7482 13.6199 12.8069C13.513 12.8655 13.3926 12.8948 13.2586 12.8948ZM13.2586 12.7686C13.3655 12.7686 13.4621 12.745 13.5484 12.6979C13.6348 12.6494 13.7023 12.5831 13.7513 12.499C13.8003 12.4135 13.8248 12.3186 13.8248 12.214C13.8248 12.1095 13.8003 12.0151 13.7513 11.9311C13.7023 11.8456 13.6348 11.7793 13.5484 11.7321C13.4621 11.6837 13.3655 11.6595 13.2586 11.6595C13.1516 11.6595 13.0544 11.6837 12.9668 11.7321C12.8805 11.7793 12.8122 11.8456 12.7619 11.9311C12.713 12.0151 12.6886 12.1095 12.6886 12.214C12.6886 12.3186 12.713 12.4135 12.7619 12.499C12.8122 12.5831 12.8805 12.6494 12.9668 12.6979C13.0544 12.745 13.1516 12.7686 13.2586 12.7686ZM15.4187 12.8834V11.5448H15.2777V12.631L14.4062 11.5448H14.2883V12.8834H14.4313V11.7972L15.3008 12.8834H15.4187ZM16.0032 11.6672V12.1931H16.7026V12.3154H16.0032V12.8834H15.8602V11.5448H16.7877V11.6672H16.0032ZM18.0395 12.8834V12.7611H17.226V12.2639H17.9255V12.1434H17.226V11.6672H18.0105V11.5448H17.083V12.8834H18.0395ZM19.2993 12.8834L18.9902 12.4531C18.9553 12.457 18.9193 12.4589 18.8819 12.4589H18.5186V12.8834H18.3756V11.5448H18.8819C19.0545 11.5448 19.1897 11.5856 19.2877 11.6672C19.3856 11.7488 19.4346 11.861 19.4346 12.0037C19.4346 12.1083 19.4075 12.1969 19.3534 12.2696C19.3005 12.341 19.2246 12.3926 19.1254 12.4245L19.4558 12.8834H19.2993ZM18.8781 12.3384C19.012 12.3384 19.1144 12.3091 19.1853 12.2504C19.2561 12.1918 19.2915 12.1096 19.2915 12.0037C19.2915 11.8954 19.2561 11.8125 19.1853 11.7551C19.1144 11.6965 19.012 11.6672 18.8781 11.6672H18.5186V12.3384H18.8781ZM20.7285 12.8834V12.7611H19.9149V12.2639H20.6145V12.1434H19.9149V11.6672H20.6995V11.5448H19.772V12.8834H20.7285ZM22.195 11.5448V12.8834H22.0771L21.2076 11.7972V12.8834H21.0646V11.5448H21.1824L22.054 12.631V11.5448H22.195ZM22.8607 12.8069C22.9688 12.8655 23.09 12.8948 23.2239 12.8948C23.3244 12.8948 23.4171 12.8782 23.5021 12.8451C23.5885 12.8107 23.6613 12.7616 23.7205 12.6979L23.6297 12.608C23.5254 12.715 23.3921 12.7686 23.2297 12.7686C23.1228 12.7686 23.0255 12.7444 22.938 12.696C22.8504 12.6475 22.7814 12.5812 22.7312 12.4971C22.6822 12.4129 22.6578 12.3186 22.6578 12.214C22.6578 12.1095 22.6822 12.0151 22.7312 11.9311C22.7814 11.8469 22.8504 11.7805 22.938 11.7321C23.0255 11.6837 23.1228 11.6595 23.2297 11.6595C23.3908 11.6595 23.5241 11.7124 23.6297 11.8182L23.7205 11.7283C23.6613 11.6646 23.5892 11.6161 23.5041 11.583C23.4191 11.5498 23.3263 11.5332 23.2259 11.5332C23.0919 11.5332 22.9708 11.5626 22.8626 11.6212C22.7544 11.6799 22.6693 11.7615 22.6076 11.866C22.547 11.9693 22.5168 12.0852 22.5168 12.214C22.5168 12.3428 22.547 12.4594 22.6076 12.5639C22.6693 12.6672 22.7538 12.7482 22.8607 12.8069ZM24.9819 12.7611V12.8834H24.0254V11.5448H24.9529V11.6672H24.1684V12.1434H24.8679V12.2639H24.1684V12.7611H24.9819ZM25.9666 12.1931V11.6672H26.7512V11.5448H25.8237V12.8834H25.9666V12.3154H26.6661V12.1931H25.9666ZM27.6208 12.8948C27.4869 12.8948 27.3652 12.8655 27.2557 12.8069C27.1474 12.7469 27.0624 12.6654 27.0006 12.5621C26.94 12.4589 26.9098 12.3428 26.9098 12.214C26.9098 12.0852 26.94 11.9693 27.0006 11.866C27.0624 11.7628 27.1474 11.6818 27.2557 11.6231C27.3652 11.5632 27.4869 11.5332 27.6208 11.5332C27.7549 11.5332 27.8753 11.5626 27.9822 11.6212C28.0904 11.6799 28.1754 11.7615 28.2373 11.866C28.2991 11.9693 28.33 12.0852 28.33 12.214C28.33 12.3428 28.2991 12.4594 28.2373 12.5639C28.1754 12.6672 28.0904 12.7482 27.9822 12.8069C27.8753 12.8655 27.7549 12.8948 27.6208 12.8948ZM27.6208 12.7686C27.7278 12.7686 27.8244 12.745 27.9107 12.6979C27.997 12.6494 28.0646 12.5831 28.1136 12.499C28.1625 12.4135 28.187 12.3186 28.187 12.214C28.187 12.1095 28.1625 12.0151 28.1136 11.9311C28.0646 11.8456 27.997 11.7793 27.9107 11.7321C27.8244 11.6837 27.7278 11.6595 27.6208 11.6595C27.514 11.6595 27.4167 11.6837 27.329 11.7321C27.2428 11.7793 27.1744 11.8456 27.1242 11.9311C27.0752 12.0151 27.0508 12.1095 27.0508 12.214C27.0508 12.3186 27.0752 12.4135 27.1242 12.499C27.1744 12.5831 27.2428 12.6494 27.329 12.6979C27.4167 12.745 27.514 12.7686 27.6208 12.7686ZM29.2648 12.4531L29.574 12.8834H29.7305L29.4 12.4245C29.4992 12.3926 29.5753 12.341 29.6281 12.2696C29.6822 12.1969 29.7092 12.1083 29.7092 12.0037C29.7092 11.861 29.6603 11.7488 29.5624 11.6672C29.4645 11.5856 29.3292 11.5448 29.1566 11.5448H28.6504V12.8834H28.7934V12.4589H29.1566C29.194 12.4589 29.23 12.457 29.2648 12.4531ZM29.46 12.2504C29.3892 12.3091 29.2867 12.3384 29.1527 12.3384H28.7934V11.6672H29.1527C29.2867 11.6672 29.3892 11.6965 29.46 11.7551C29.5309 11.8125 29.5663 11.8954 29.5663 12.0037C29.5663 12.1096 29.5309 12.1918 29.46 12.2504ZM30.8153 11.6672H30.34V11.5448H31.4337V11.6672H30.9583V12.8834H30.8153V11.6672ZM32.7925 12.8834V11.5448H32.6515V12.1414H31.8051V11.5448H31.6621V12.8834H31.8051V12.2658H32.6515V12.8834H32.7925ZM34.1904 12.7611V12.8834H33.234V11.5448H34.1615V11.6672H33.377V12.1434H34.0765V12.2639H33.377V12.7611H34.1904ZM36.1222 12.214H35.985V12.6654C35.8884 12.7342 35.7705 12.7686 35.6314 12.7686C35.5219 12.7686 35.4233 12.7444 35.3358 12.696C35.2482 12.6475 35.1792 12.5812 35.129 12.4971C35.0787 12.4129 35.0537 12.3186 35.0537 12.214C35.0537 12.1095 35.0787 12.0151 35.129 11.9311C35.1792 11.8456 35.2482 11.7793 35.3358 11.7321C35.4246 11.6837 35.5238 11.6595 35.6333 11.6595C35.7982 11.6595 35.9342 11.7117 36.0411 11.8163L36.13 11.7264C36.0707 11.6626 35.9978 11.6148 35.9116 11.583C35.8253 11.5498 35.7306 11.5332 35.6275 11.5332C35.491 11.5332 35.3686 11.5626 35.2604 11.6212C35.1522 11.6799 35.0671 11.7615 35.0054 11.866C34.9435 11.9693 34.9126 12.0852 34.9126 12.214C34.9126 12.3428 34.9435 12.4594 35.0054 12.5639C35.0671 12.6672 35.1522 12.7482 35.2604 12.8069C35.3686 12.8655 35.4904 12.8948 35.6256 12.8948C35.7209 12.8948 35.8117 12.8802 35.898 12.8508C35.9844 12.8215 36.0591 12.7794 36.1222 12.7246V12.214ZM37.375 12.5258H36.6215L36.4592 12.8834H36.3104L36.9287 11.5448H37.0698L37.6881 12.8834H37.5374L37.375 12.5258ZM37.3229 12.411L36.9983 11.692L36.6737 12.411H37.3229ZM39.3167 12.8834V11.5448H39.1988L38.6172 12.5373L38.0297 11.5448H37.9118V12.8834H38.049V11.8183L38.5805 12.7133H38.648L39.1794 11.8125V12.8834H39.3167ZM40.7139 12.7611V12.8834H39.7574V11.5448H40.6849V11.6672H39.9004V12.1434H40.5999V12.2639H39.9004V12.7611H40.7139ZM41.6989 11.5448H41.5559V12.8834H41.6989V11.5448ZM43.2692 11.5448V12.8834H43.1513L42.2817 11.7972V12.8834H42.1388V11.5448H42.2566L43.1281 12.631V11.5448H43.2692ZM44.2615 11.5448H43.7109V12.8834H44.2615C44.4046 12.8834 44.5308 12.8554 44.6403 12.7993C44.7498 12.7419 44.8348 12.6629 44.8954 12.5621C44.9558 12.4601 44.9862 12.3442 44.9862 12.2141C44.9862 12.0841 44.9558 11.9687 44.8954 11.868C44.8348 11.766 44.7498 11.687 44.6403 11.6309C44.5308 11.5735 44.4046 11.5448 44.2615 11.5448ZM44.5649 12.6922C44.476 12.738 44.3723 12.7611 44.2538 12.7611H43.8538V11.6672H44.2538C44.3723 11.6672 44.476 11.6907 44.5649 11.738C44.6537 11.7839 44.7227 11.8482 44.7717 11.9311C44.8206 12.0127 44.8451 12.107 44.8451 12.2141C44.8451 12.3212 44.8206 12.4162 44.7717 12.499C44.7227 12.5806 44.6537 12.645 44.5649 12.6922ZM45.8522 12.8949C45.677 12.8949 45.5405 12.8452 45.4426 12.7457C45.3447 12.6463 45.2957 12.5016 45.2957 12.3117V11.5448H45.4387V12.3059C45.4387 12.4614 45.4741 12.5775 45.545 12.654C45.6158 12.7304 45.7182 12.7687 45.8522 12.7687C45.9875 12.7687 46.0905 12.7304 46.1613 12.654C46.2322 12.5775 46.2676 12.4614 46.2676 12.3059V11.5448H46.4067V12.3117C46.4067 12.5016 46.3578 12.6463 46.2599 12.7457C46.1633 12.8452 46.0274 12.8949 45.8522 12.8949ZM46.9208 12.847C47.0135 12.8789 47.1101 12.8948 47.2106 12.8948C47.3214 12.8948 47.4148 12.8789 47.4908 12.847C47.5668 12.8139 47.6228 12.7699 47.6589 12.715C47.6963 12.6589 47.715 12.5971 47.715 12.5296C47.715 12.448 47.6937 12.3836 47.6512 12.3364C47.6087 12.288 47.5565 12.2522 47.4946 12.2293C47.4341 12.2051 47.3542 12.1809 47.255 12.1566C47.1713 12.1363 47.1043 12.1178 47.0541 12.1012C47.0051 12.0834 46.9639 12.0585 46.9305 12.0267C46.8982 11.9935 46.8821 11.9501 46.8821 11.8966C46.8821 11.8252 46.9117 11.7672 46.971 11.7226C47.0316 11.6766 47.1211 11.6537 47.2396 11.6537C47.3014 11.6537 47.3646 11.6633 47.4289 11.6824C47.4933 11.7002 47.5539 11.7277 47.6106 11.7646L47.6589 11.6519C47.6048 11.6148 47.5404 11.5862 47.4657 11.5657C47.3922 11.5441 47.3169 11.5332 47.2396 11.5332C47.1288 11.5332 47.036 11.5498 46.9613 11.583C46.8866 11.6161 46.8313 11.6607 46.7951 11.7168C46.7591 11.7717 46.741 11.8329 46.741 11.9004C46.741 11.9833 46.7623 12.049 46.8048 12.0974C46.8486 12.1459 46.9008 12.1821 46.9613 12.2064C47.0219 12.2293 47.103 12.2535 47.2048 12.279C47.2898 12.2994 47.3562 12.3186 47.4038 12.3364C47.4515 12.353 47.4914 12.3772 47.5237 12.4091C47.5571 12.441 47.5738 12.4836 47.5738 12.5372C47.5738 12.6073 47.5436 12.6647 47.483 12.7093C47.4226 12.7527 47.3316 12.7743 47.2106 12.7743C47.1243 12.7743 47.0405 12.7597 46.9594 12.7304C46.8783 12.6997 46.8132 12.6602 46.7642 12.6118L46.7082 12.7208C46.7584 12.773 46.8293 12.8151 46.9208 12.847ZM48.2704 11.6672H47.795V11.5448H48.8887V11.6672H48.4134V12.8834H48.2704V11.6672ZM49.7314 12.4531L50.0406 12.8834H50.197L49.8666 12.4245C49.9658 12.3926 50.0419 12.341 50.0947 12.2696C50.1487 12.1969 50.1758 12.1083 50.1758 12.0037C50.1758 11.861 50.1269 11.7488 50.029 11.6672C49.9311 11.5856 49.7958 11.5448 49.6232 11.5448H49.1169V12.8834H49.26V12.4589H49.6232C49.6605 12.4589 49.6966 12.457 49.7314 12.4531ZM49.9266 12.2504C49.8557 12.3091 49.7533 12.3384 49.6193 12.3384H49.26V11.6672H49.6193C49.7533 11.6672 49.8557 11.6965 49.9266 11.7551C49.9975 11.8125 50.0329 11.8954 50.0329 12.0037C50.0329 12.1096 49.9975 12.1918 49.9266 12.2504ZM50.9585 12.4206V12.8834H50.8175V12.4206L50.2764 11.5448H50.4291L50.8928 12.2964L51.3566 11.5448H51.4996L50.9585 12.4206ZM24.5436 3.82575C24.7616 3.94396 25.0057 4.00307 25.2758 4.00307C25.4784 4.00307 25.6653 3.96966 25.8366 3.90285C26.0107 3.83347 26.1574 3.73452 26.2769 3.60603L26.0937 3.42486C25.8835 3.64073 25.6147 3.74866 25.2875 3.74866C25.072 3.74866 24.8759 3.69983 24.6994 3.60218C24.5227 3.50452 24.3838 3.37089 24.2826 3.20129C24.1839 3.03168 24.1345 2.84151 24.1345 2.63077C24.1345 2.42005 24.1839 2.22988 24.2826 2.06027C24.3838 1.89066 24.5227 1.75703 24.6994 1.65938C24.8759 1.56172 25.072 1.5129 25.2875 1.5129C25.6121 1.5129 25.8809 1.61954 26.0937 1.83285L26.2769 1.65167C26.1574 1.52318 26.012 1.42552 25.8405 1.35871C25.6692 1.29189 25.4823 1.25848 25.2797 1.25848C25.0096 1.25848 24.7655 1.31759 24.5475 1.4358C24.3293 1.55401 24.158 1.71848 24.0333 1.92921C23.9113 2.13737 23.8502 2.37122 23.8502 2.63077C23.8502 2.89034 23.9113 3.12547 24.0333 3.3362C24.158 3.54435 24.328 3.70754 24.5436 3.82575ZM28.0259 4.00307C27.7559 4.00307 27.5105 3.94396 27.2898 3.82575C27.0716 3.70497 26.9003 3.5405 26.7757 3.33235C26.6536 3.12419 26.5925 2.89034 26.5925 2.63077C26.5925 2.37122 26.6536 2.13737 26.7757 1.92921C26.9003 1.72105 27.0716 1.55787 27.2898 1.43966C27.5105 1.31887 27.7559 1.25848 28.0259 1.25848C28.296 1.25848 28.5388 1.31759 28.7543 1.4358C28.9724 1.55401 29.1438 1.71848 29.2685 1.92921C29.3931 2.13737 29.4554 2.37122 29.4554 2.63077C29.4554 2.89034 29.3931 3.12547 29.2685 3.3362C29.1438 3.54435 28.9724 3.70754 28.7543 3.82575C28.5388 3.94396 28.296 4.00307 28.0259 4.00307ZM28.0259 3.74866C28.2415 3.74866 28.4362 3.70111 28.6102 3.60603C28.7842 3.50838 28.9205 3.37475 29.0192 3.20514C29.1179 3.03296 29.1672 2.84151 29.1672 2.63077C29.1672 2.42005 29.1179 2.22988 29.0192 2.06027C28.9205 1.88809 28.7842 1.75446 28.6102 1.65938C28.4362 1.56172 28.2415 1.5129 28.0259 1.5129C27.8104 1.5129 27.6143 1.56172 27.4378 1.65938C27.2638 1.75446 27.1261 1.88809 27.0249 2.06027C26.9262 2.22988 26.8768 2.42005 26.8768 2.63077C26.8768 2.84151 26.9262 3.03296 27.0249 3.20514C27.1261 3.37475 27.2638 3.50838 27.4378 3.60603C27.6143 3.70111 27.8104 3.74866 28.0259 3.74866ZM32.3804 3.97989V1.28156H32.096V3.47106L30.3394 1.28156H30.1018V3.97989H30.39V1.79038L32.1429 3.97989H32.3804ZM33.5585 1.52826V2.58832H34.9685V2.83502H33.5585V3.97989H33.2703V1.28156H35.1399V1.52826H33.5585ZM37.6631 3.97989V3.73319H36.0233V2.73094H37.4334V2.48809H36.0233V1.52826H37.6047V1.28156H35.735V3.97989H37.6631ZM40.2025 3.97989L39.5793 3.11257C39.5091 3.12027 39.4365 3.12414 39.3611 3.12414H38.6289V3.97989H38.3406V1.28156H39.3611C39.7091 1.28156 39.9818 1.36379 40.1791 1.52826C40.3764 1.69273 40.4751 1.91887 40.4751 2.2067C40.4751 2.41743 40.4206 2.59603 40.3115 2.74251C40.2051 2.88642 40.0518 2.9905 39.8519 3.05474L40.518 3.97989H40.2025ZM39.3533 2.88128C39.6234 2.88128 39.8299 2.82217 39.9727 2.70396C40.1155 2.58575 40.1869 2.41999 40.1869 2.2067C40.1869 1.98827 40.1155 1.82123 39.9727 1.70558C39.8299 1.58737 39.6234 1.52826 39.3533 1.52826H38.6289V2.88128H39.3533ZM43.0835 3.97989V3.73319H41.4437V2.73094H42.8538V2.48809H41.4437V1.52826H43.0251V1.28156H41.1555V3.97989H43.0835ZM46.0398 1.28156V3.97989H45.8021L44.0494 1.79038V3.97989H43.7611V1.28156H43.9987L45.7554 3.47106V1.28156H46.0398ZM47.3816 3.82575C47.5997 3.94396 47.8438 4.00307 48.1139 4.00307C48.3164 4.00307 48.5034 3.96966 48.6748 3.90285C48.8488 3.83347 48.9955 3.73452 49.1149 3.60603L48.9319 3.42486C48.7215 3.64073 48.4528 3.74866 48.1255 3.74866C47.9101 3.74866 47.714 3.69983 47.5374 3.60218C47.3609 3.50452 47.222 3.37089 47.1207 3.20129C47.022 3.03168 46.9727 2.84151 46.9727 2.63077C46.9727 2.42005 47.022 2.22988 47.1207 2.06027C47.222 1.89066 47.3609 1.75703 47.5374 1.65938C47.714 1.56172 47.9101 1.5129 48.1255 1.5129C48.4502 1.5129 48.7189 1.61954 48.9319 1.83285L49.1149 1.65167C48.9955 1.52318 48.8501 1.42552 48.6787 1.35871C48.5073 1.29189 48.3203 1.25848 48.1178 1.25848C47.8477 1.25848 47.6036 1.31759 47.3855 1.4358C47.1674 1.55401 46.996 1.71848 46.8714 1.92921C46.7493 2.13737 46.6883 2.37122 46.6883 2.63077C46.6883 2.89034 46.7493 3.12547 46.8714 3.3362C46.996 3.54435 47.1661 3.70754 47.3816 3.82575ZM51.6572 3.73319V3.97989H49.7291V1.28156H51.5987V1.52826H50.0173V2.48809H51.4273V2.73094H50.0173V3.73319H51.6572ZM27.4818 7.97362C27.3673 7.82698 27.2057 7.71534 26.9969 7.63868C27.1585 7.5587 27.2797 7.45372 27.3606 7.32375C27.4448 7.19376 27.4868 7.04713 27.4868 6.88383C27.4868 6.60721 27.3657 6.38559 27.1232 6.21896C26.884 6.05232 26.5288 5.96901 26.0573 5.96901H24.1682V9.46833H26.1583C26.6432 9.46833 27.0137 9.38501 27.2697 9.21837C27.5255 9.04841 27.6536 8.81012 27.6536 8.50352C27.6536 8.29689 27.5963 8.12025 27.4818 7.97362ZM25.3401 7.31374V6.79385H25.8957C26.155 6.79385 26.2847 6.88049 26.2847 7.05379C26.2847 7.2271 26.155 7.31374 25.8957 7.31374H25.3401ZM26.4513 8.36854C26.4513 8.55184 26.32 8.64349 26.0573 8.64349H25.3401V8.0936H26.0573C26.32 8.0936 26.4513 8.18524 26.4513 8.36854ZM31.0148 8.5785V9.46833H28.075V5.96901H30.9491V6.85883H29.2469V7.26875H30.742V8.11859H29.2469V8.5785H31.0148ZM32.666 8.58849H32.9894L33.5904 9.46833H34.8633L34.1208 8.38854C34.3363 8.27856 34.5014 8.13026 34.6158 7.94362C34.7303 7.757 34.7876 7.5387 34.7876 7.28874C34.7876 7.02213 34.7219 6.78885 34.5906 6.58888C34.4593 6.38892 34.2723 6.23562 34.0298 6.12897C33.7874 6.02233 33.5028 5.96901 33.1762 5.96901H31.4739V9.46833H32.666V8.58849ZM33.4641 6.98881C33.5449 7.05879 33.5853 7.15877 33.5853 7.28874C33.5853 7.41873 33.5449 7.52037 33.4641 7.59369C33.3834 7.66367 33.2621 7.69867 33.1004 7.69867H32.666V6.87882H33.1004C33.2621 6.87882 33.3834 6.91548 33.4641 6.98881ZM35.2375 5.96901H36.4297V8.5535H38.0258V9.46833H35.2375V5.96901ZM39.5473 5.96901H38.3553V9.46833H39.5473V5.96901ZM43.6067 5.96901V9.46833H42.6267L41.283 7.87863V9.46833H40.1213V5.96901H41.1012L42.4449 7.5587V5.96901H43.6067ZM45.1407 5.88415C45.0161 5.76751 44.8561 5.70919 44.6608 5.70919C44.4654 5.70919 44.3056 5.76751 44.1809 5.88415C44.0564 6.00079 43.994 6.15577 43.994 6.34907C43.994 6.47904 44.0226 6.59235 44.0799 6.68899C44.1371 6.78232 44.2179 6.85397 44.3223 6.90396L44.0698 7.7488H44.777L45.1306 7.00393C45.2147 6.8273 45.2686 6.69566 45.2923 6.60902C45.3158 6.52237 45.3276 6.43571 45.3276 6.34907C45.3276 6.15577 45.2653 6.00079 45.1407 5.88415ZM48.501 8.55346V9.46828H45.6672V8.74342L46.9452 7.57364C47.0563 7.47034 47.1304 7.38202 47.1674 7.3087C47.2044 7.23538 47.223 7.16372 47.223 7.09374C47.223 7.00709 47.1927 6.94044 47.1321 6.89378C47.0748 6.84379 46.9907 6.8188 46.8795 6.8188C46.7717 6.8188 46.6707 6.84712 46.5764 6.90377C46.4821 6.96044 46.4098 7.04042 46.3593 7.14373L45.4601 6.69882C45.5948 6.44887 45.7918 6.25224 46.0511 6.10893C46.3104 5.96229 46.6236 5.88897 46.9907 5.88897C47.2701 5.88897 47.5177 5.93397 47.7332 6.02395C47.9487 6.11393 48.1171 6.24224 48.2383 6.40888C48.3596 6.57551 48.4202 6.76713 48.4202 6.98376C48.4202 7.17706 48.3781 7.35869 48.2939 7.52866C48.2131 7.69529 48.0531 7.88526 47.814 8.09855L47.3088 8.55346H48.501ZM51.5742 9.46828V8.55346H50.3821L50.8873 8.09855C51.1263 7.88526 51.2863 7.69529 51.3671 7.52866C51.4514 7.35869 51.4935 7.17706 51.4935 6.98376C51.4935 6.76713 51.4328 6.57551 51.3115 6.40888C51.1904 6.24224 51.0219 6.11393 50.8065 6.02395C50.5909 5.93397 50.3434 5.88897 50.0639 5.88897C49.6968 5.88897 49.3837 5.96229 49.1244 6.10893C48.865 6.25224 48.668 6.44887 48.5334 6.69882L49.4325 7.14373C49.483 7.04042 49.5554 6.96044 49.6497 6.90377C49.744 6.84712 49.845 6.8188 49.9528 6.8188C50.0639 6.8188 50.1481 6.84379 50.2054 6.89378C50.266 6.94044 50.2963 7.00709 50.2963 7.09374C50.2963 7.16372 50.2777 7.23538 50.2407 7.3087C50.2037 7.38202 50.1295 7.47034 50.0185 7.57364L48.7405 8.74342V9.46828H51.5742Z" fill="white"/>
</svg>
