<svg width="168" height="59" viewBox="0 0 168 59" fill="none" xmlns="http://www.w3.org/2000/svg">
<path d="M0.674927 28.0631C0.83278 26.9174 0.96008 25.7666 1.15867 24.631C2.30947 18.098 5.63965 12.8328 10.6146 8.54024C15.452 4.36987 21.094 2.02245 27.3928 1.20263C35.1123 0.199504 42.6689 1.05496 50.1083 3.23435C50.6379 3.38711 50.7805 3.60607 50.7652 4.14582C50.6735 7.46073 50.6175 10.7756 50.5513 14.0906C50.5462 14.3604 50.5513 14.6354 50.5513 14.9867C49.3394 14.4572 48.2345 13.9429 47.104 13.4897C41.0751 11.0913 34.8679 10.4803 28.5283 11.9061C20.3352 13.7443 15.4469 19.6256 15.0548 28.0071C14.8206 32.9769 15.895 37.5852 18.9706 41.6079C22.3109 45.9717 26.7308 48.253 32.2404 48.3904C34.8017 48.4566 37.3426 48.3191 39.8224 47.5757C40.3775 47.4077 40.571 47.1582 40.5608 46.5624C40.52 44.0113 40.5251 41.4602 40.5404 38.9091C40.5557 36.7246 39.6799 35.1868 37.5361 34.423C36.1867 33.9393 34.8679 33.3588 33.5541 32.7732C33.3148 32.6663 33.0704 32.3556 33.0195 32.101C32.7954 30.9706 32.6376 29.8249 32.4492 28.6436H53.6626C53.6778 28.9083 53.6982 29.1477 53.6982 29.3921C53.6982 37.0199 53.6982 44.6529 53.7084 52.2807C53.7084 52.795 53.5454 53.0547 53.0872 53.289C47.4554 56.1507 41.4875 57.8209 35.209 58.4268C34.4249 58.5032 33.6458 58.5999 32.8667 58.6865H26.5933C26.3693 58.6407 26.1503 58.5745 25.9212 58.5592C23.4414 58.3352 20.9972 57.9125 18.66 57.052C8.96475 53.4977 3.3126 46.5013 1.24523 36.5006C0.970264 35.1359 0.863332 33.7509 0.674927 32.376C0.674927 30.9401 0.674927 29.499 0.674927 28.0631Z" fill="white"/>
<path d="M144.932 58.6752C143.42 58.4511 141.897 58.2882 140.4 57.9929C131.275 56.2005 124.6 51.1034 120.908 42.62C117.374 34.4932 117.389 26.1219 121.005 17.9746C123.917 11.4059 128.974 6.83328 135.471 3.85444C141.195 1.22696 147.269 0.544625 153.492 0.850146C157.031 1.02327 160.509 1.56812 163.829 2.86659C165.085 3.35542 165.696 4.2652 165.662 5.59591C165.585 8.51874 165.514 11.4365 165.438 14.3593C165.438 14.5375 165.417 14.7208 165.407 14.8889C163.93 14.232 162.51 13.4987 161.018 12.959C155.636 11.0087 150.131 10.5454 144.611 12.1952C138.022 14.1658 134.29 18.7894 133.113 25.4497C132.319 29.9307 132.701 34.3506 134.85 38.4497C137.885 44.2444 142.722 47.2894 149.286 47.5288C154.424 47.7172 159.205 46.383 163.737 44.0458C163.941 43.9389 164.149 43.8421 164.419 43.7097C165.596 46.714 166.756 49.6776 167.989 52.8194C165.886 53.8581 163.849 54.958 161.736 55.8797C158.309 57.3716 154.709 58.2475 150.981 58.553C150.824 58.5683 150.671 58.6294 150.518 58.6701H144.942L144.932 58.6752Z" fill="white"/>
<path d="M58.439 1.49678C58.7598 1.49678 58.9889 1.49678 59.218 1.49678C68.4601 1.49678 77.7021 1.4815 86.9441 1.49678C100.738 1.52224 112.496 11.2226 115.057 24.6655C117.746 38.7755 109.532 52.6513 95.8297 57.1373C80.1819 62.2599 63.2306 52.8855 59.2944 36.9373C58.7038 34.5389 58.4441 32.1049 58.4441 29.6353C58.4441 20.5257 58.4441 11.411 58.4441 2.30132C58.4441 2.05181 58.4441 1.80739 58.4441 1.49678H58.439ZM69.4785 12.4854C69.4632 12.7603 69.4428 12.9844 69.4428 13.2135C69.4428 18.7537 69.4276 24.2938 69.453 29.839C69.4581 30.9236 69.5294 32.0235 69.728 33.0877C71.5509 42.732 80.3754 48.873 90.0604 47.2741C99.7658 45.6701 106.335 35.8832 104.15 26.2949C102.281 18.1019 95.2849 12.5057 86.8728 12.4905C81.3225 12.4803 75.7722 12.4905 70.2219 12.4905H69.4734L69.4785 12.4854Z" fill="white"/>
</svg>
