<svg width="500" height="68" viewBox="0 0 500 68" fill="none" xmlns="http://www.w3.org/2000/svg">
<path d="M266.397 66.7195C267.542 66.7506 267.129 67.1555 267.308 67.2386C265.308 67.0309 266.472 66.5949 266.397 66.7195Z" fill="#D8E1EF"/>
<path d="M257.618 52.155L257.458 52.4457L257.853 50.0061L257.618 52.155Z" fill="#D8E1EF"/>
<path d="M257.608 36.6973C258.275 38.161 257.496 42.2927 257.74 45.0541L257.89 45.5109L257.355 46.7566C257.439 43.4139 257.796 39.0642 257.608 36.7076V36.6973Z" fill="#D8E1EF"/>
<path d="M256.162 28.4548C256.425 28.9635 256.388 26.6693 256.247 30.3753C256.219 30.1885 256.2 30.1366 256.181 30.0224C256.181 29.6902 256.181 29.2334 256.162 28.4444V28.4548Z" fill="#D8E1EF"/>
<path d="M256.181 30.0327C256.162 31.6625 255.965 28.9635 256.181 30.0327V30.0327Z" fill="#D8E1EF"/>
<path d="M256.322 22.5167L256.087 24.6656C255.937 24.2192 255.899 22.3091 255.787 23.015C255.918 20.8142 256.069 21.271 256.322 22.5167Z" fill="#D8E1EF"/>
<path d="M256.82 20.4819L256.716 21.5927C256.651 21.3955 256.632 21.1048 256.82 20.4819Z" fill="#D8E1EF"/>
<path d="M256.51 23.9493L256.716 21.5928C256.829 21.9042 257.045 21.9354 256.641 22.6724C256.838 22.4752 256.641 22.9423 256.51 23.9493Z" fill="#D8E1EF"/>
<path d="M256.613 25.2781C256.763 26.4823 256.848 28.0395 257.083 25.8802C256.989 29.9807 256.519 29.3786 256.613 25.2781Z" fill="#D8E1EF"/>
<path d="M258.303 35.9084L258.5 37.5175L258.275 38.9086C258.388 38.213 258.097 35.815 258.303 35.9084Z" fill="#D8E1EF"/>
<path d="M257.064 7.85853C257.167 7.80662 257.158 8.07653 257.139 8.37758C257.139 8.68902 257.139 9.04198 257.186 9.17693C257.045 9.48837 256.932 9.81018 256.829 10.132C256.726 10.4642 256.613 10.786 256.547 11.1286C256.576 10.0386 257.148 8.06615 257.064 7.84814V7.85853Z" fill="#D8E1EF"/>
<path d="M257.176 9.1872C257.552 8.24252 258.068 7.39126 258.632 6.60229C257.975 7.73384 257.683 8.46052 257.486 8.84462C257.308 9.23911 257.214 9.29101 257.167 9.17682L257.176 9.1872Z" fill="#D8E1EF"/>
<path d="M257.561 20.0978L257.045 23.9907L257.571 19.3503L257.561 20.0978Z" fill="#D8E1EF"/>
<path d="M265.665 0.778532C265.101 0.726626 264.528 0.778532 263.946 0.820056C264.97 0.695483 265.984 0.67472 266.96 0.840819C266.538 0.799294 266.096 0.75777 265.665 0.778532Z" fill="#D8E1EF"/>
<path d="M271.533 0.695537C270.632 0.394483 272.763 0.186861 271.815 0C273.289 0.0519057 274.547 0.311434 275.683 0.550201C274.481 0.415246 273.195 0.45677 271.533 0.695537Z" fill="#D8E1EF"/>
<path d="M277.589 0.882373C276.988 0.809705 276.369 0.685131 275.683 0.539795C276.322 0.612463 276.951 0.705893 277.589 0.882373Z" fill="#D8E1EF"/>
<path d="M261.956 3.08322C262.097 2.89636 262.313 2.36692 263.777 1.67139C263.467 1.96206 263.167 2.21121 262.904 2.53302C262.613 2.69912 262.266 2.85484 261.956 3.0936V3.08322Z" fill="#D8E1EF"/>
<path d="M262.885 2.55377L262.913 2.52263C263.974 1.97243 264.782 1.78557 265.111 1.69214C264.829 1.78557 264.106 1.92052 262.885 2.55377Z" fill="#D8E1EF"/>
<path d="M261.729 3.23955C261.814 3.17703 261.88 3.13535 261.965 3.08325C261.899 3.17703 261.852 3.22913 261.729 3.23955Z" fill="#D8E1EF"/>
<path d="M257.195 13.89C257.289 13.2775 257.458 11.876 257.712 11.3051C257.956 10.6926 258.05 10.7341 258.04 12.3121C257.881 12.8623 257.768 12.6858 257.646 12.665C257.58 12.6546 257.514 12.6754 257.439 12.8623C257.355 13.0699 257.28 13.3709 257.195 13.89Z" fill="#D8E1EF"/>
<path d="M260.951 4.52612C260.266 5.21128 259.637 5.95872 259.148 6.80997C259.092 6.69578 259.27 6.1352 258.716 6.75807C259.374 5.88605 260.125 5.13861 260.951 4.52612Z" fill="#D8E1EF"/>
<path d="M262.125 3.78906C261.712 3.9863 261.336 4.2666 260.951 4.52612C261.223 4.28736 261.477 4.03821 261.759 3.83059L262.125 3.78906Z" fill="#D8E1EF"/>
<path d="M273.683 1.29756C274.669 1.4948 275.739 1.50518 276.96 1.53633C275.655 1.61938 274.312 1.67128 273.035 1.67128C272.857 1.53633 272.294 1.2768 273.693 1.29756H273.683Z" fill="#D8E1EF"/>
<path d="M268.847 1.42236C268.913 1.42236 268.998 1.4432 269.064 1.4432C268.932 1.48488 268.819 1.4953 268.847 1.42236Z" fill="#D8E1EF"/>
<path d="M288.922 1.53638C288.856 1.56764 288.8 1.58848 288.734 1.61973C288.715 1.58848 288.706 1.56764 288.687 1.5468H288.922V1.53638Z" fill="#D8E1EF"/>
<path d="M272.81 1.75435C271.834 1.8374 271.242 1.73359 270.688 1.59863C271.42 1.64016 272.2 1.6713 273.026 1.6713C273.11 1.73359 273.12 1.77511 272.81 1.75435Z" fill="#D8E1EF"/>
<path d="M280.923 1.08999C280.416 1.18342 279.833 1.26646 279.223 1.32875C279.721 1.18342 280.735 0.965412 280.923 1.08999Z" fill="#D8E1EF"/>
<path d="M269.392 1.32921C269.345 1.32921 269.298 1.31879 269.241 1.30837C269.561 1.21459 269.524 1.25627 269.392 1.32921Z" fill="#D8E1EF"/>
<path d="M269.392 1.32886C269.899 1.39114 270.294 1.50534 270.688 1.59877C270.096 1.56762 269.542 1.51572 269.063 1.45343C269.186 1.42229 269.308 1.37038 269.392 1.32886Z" fill="#D8E1EF"/>
<path d="M292.547 4.39115C292.378 3.9759 289.805 3.60218 287.58 4.03819C285.392 3.72676 286.819 2.37721 288.735 1.61938C288.8 1.79586 288.8 1.96196 291.054 2.21111C290.265 2.4395 286.059 2.74055 287.965 3.10389C290.941 3.31151 290.406 2.95855 291.852 2.74055C290.622 3.24922 295.645 3.48799 294.997 4.23543L292.387 3.96552C292.34 4.07972 293.289 4.26658 292.556 4.38077L292.547 4.39115Z" fill="#D8E1EF"/>
<path d="M284.444 1.66107L283.514 1.60917C284.566 1.5365 285.326 1.3704 286.716 1.04858C288.256 1.24583 288.575 1.40154 288.678 1.5365L284.124 1.59878L284.444 1.66107Z" fill="#D8E1EF"/>
<path d="M279.364 1.60902C280.087 2.05541 282.312 2.24227 280.951 2.73018C278.237 2.69904 279.045 2.35646 277.42 2.15922C281.805 2.27341 276.162 1.91007 279.326 1.66093C278.463 1.58826 277.693 1.55712 276.96 1.54673C277.749 1.49483 278.51 1.42216 279.223 1.33911C279.186 1.34949 279.157 1.35987 279.12 1.37025H279.101C278.913 1.42216 278.848 1.46369 279.064 1.43254C279.082 1.43254 279.129 1.43254 279.157 1.43254C279.186 1.49483 279.27 1.54673 279.355 1.59864C280.622 1.50521 279.552 1.48445 279.157 1.43254C279.139 1.41178 279.11 1.39102 279.101 1.37025H279.12L283.514 1.60902C282.585 1.67131 281.42 1.66093 279.355 1.60902H279.364Z" fill="#D8E1EF"/>
<path d="M259.439 9.83241C259.458 9.67611 259.42 9.66569 259.401 9.64485C259.562 9.36352 259.618 9.26974 259.439 9.83241Z" fill="#D8E1EF"/>
<path d="M260.078 7.87923C259.871 8.15952 259.533 8.31524 259.12 9.45717C258.904 10.4953 259.308 9.52983 259.411 9.64403C259.251 9.96584 258.979 10.516 258.867 10.7548C258.744 10.9936 258.613 10.8482 258.876 9.69593L259.045 9.37412C259.345 8.36715 259.815 7.24598 260.256 6.42587C260.688 5.60576 261.064 5.10747 260.904 5.2009C260.801 5.56424 260.707 5.89643 260.585 6.31168C260.444 6.71654 260.294 7.20446 260.087 7.86885L260.078 7.87923Z" fill="#D8E1EF"/>
<path d="M269.374 2.70947L273.026 2.92748L271.167 3.31158L271.261 3.08319C269.186 3.17662 269.627 2.88595 269.374 2.70947Z" fill="#D8E1EF"/>
<path d="M289.336 1.31835L288.857 0.84082L290.969 1.51559L289.336 1.31835Z" fill="#D8E1EF"/>
<path d="M294.087 1.37044L293.918 0.965576L295.167 1.21472L294.087 1.37044Z" fill="#D8E1EF"/>
<path d="M410.799 1.4221C412.367 1.038 414.113 0.446271 413.925 0.903041L413.447 1.34943C412.357 1.26638 411.512 1.31829 410.799 1.41172V1.4221Z" fill="#D8E1EF"/>
<path d="M490.722 4.11087C490.572 4.15239 490.422 4.2043 490.262 4.24582C489.887 4.09011 489.53 3.94477 489.201 3.80981C489.661 3.90324 490.178 3.99668 490.713 4.10049L490.722 4.11087Z" fill="#D8E1EF"/>
<path d="M491.83 5.96914L493.896 5.67847C493.436 5.78228 492.769 5.87571 491.83 5.96914Z" fill="#D8E1EF"/>
<path d="M479.323 61.3008L478.065 60.844C480.028 60.844 479.164 61.0828 479.323 61.3008Z" fill="#D8E1EF"/>
<path d="M342.762 1.53627C344.114 1.35979 345.185 1.28712 346.133 1.26636C344.509 1.52589 343.194 1.90999 342.762 1.53627Z" fill="#D8E1EF"/>
<path d="M350.03 1.26659C349.795 1.29773 349.56 1.33925 349.316 1.3704C348.33 1.29773 347.335 1.23544 346.133 1.26659C347.335 1.06934 348.715 0.955151 350.03 1.26659Z" fill="#D8E1EF"/>
<path d="M325.251 61.6744C325.138 61.6952 325.006 61.7056 324.902 61.7265C324.864 61.6639 325.024 61.6639 325.251 61.6744Z" fill="#D8E1EF"/>
<path d="M280.359 66.2109C280.8 66.2421 281.523 66.2421 282.199 66.2421C281.871 66.2732 281.317 66.2732 280.359 66.2109Z" fill="#D8E1EF"/>
<path d="M313.213 1.17303C313.053 1.12103 312.207 1.14183 313.213 1.17303V1.17303Z" fill="#D8E1EF"/>
<path d="M308.31 2.95874C308.527 3.01084 308.687 3.07336 308.715 3.17755C308.631 3.07336 308.489 3.00042 308.31 2.95874Z" fill="#D8E1EF"/>
<path d="M360.067 4.06934C360.067 4.06934 360.123 4.06934 360.151 4.06934C359.85 4.16311 359.906 4.14227 360.067 4.06934Z" fill="#D8E1EF"/>
<path d="M311.692 1.3808C312.068 1.3289 312.509 1.27699 312.978 1.24585C312.772 1.27699 312.377 1.3289 311.692 1.3808Z" fill="#D8E1EF"/>
<path d="M311.899 1.17317C311.551 1.19393 311.279 1.20431 311.016 1.21469C310.885 1.14203 310.997 1.09012 311.899 1.17317Z" fill="#D8E1EF"/>
<path d="M314.612 1.20436C314.039 1.20436 313.495 1.21474 312.978 1.25626C313.176 1.22512 313.26 1.20436 313.204 1.18359C313.495 1.18359 313.917 1.19397 314.612 1.20436Z" fill="#D8E1EF"/>
<path d="M407.803 62.8785C407.738 62.8889 407.663 62.9097 407.587 62.9201C406.573 62.7332 407.015 62.7644 407.803 62.8785Z" fill="#D8E1EF"/>
<path d="M437.023 6.09392C437.023 6.09392 436.948 6.08351 436.91 6.07309C436.957 6.07309 437.014 6.06267 437.061 6.05225L437.023 6.09392Z" fill="#D8E1EF"/>
<path d="M440.648 6.43626C439.108 5.87567 438.225 5.94834 437.061 6.06254L438.263 4.76489L440.648 6.43626Z" fill="#D8E1EF"/>
<path d="M482.837 61.6432L485.16 61.2384C482.357 60.574 480.335 60.8023 482.512 60.2314C482.674 60.9373 484.928 60.9684 487.182 61.01C487.748 61.0203 488.305 61.0307 488.836 61.0515C489.042 61.0515 489.239 61.0515 489.436 61.0619C489.599 61.0826 489.753 61.0619 489.899 61.0619C490.473 61.0619 490.91 61.0411 491.073 61.3422C491.39 61.093 491.681 60.8023 491.939 60.4909C491.681 60.6985 491.613 60.657 491.339 60.8231C492.119 59.9719 492.453 59.8473 493.001 59.6812C493.25 59.5774 493.55 59.4632 493.858 59.131C494.167 58.8092 494.51 58.2901 494.715 57.4077C494.852 56.7952 494.852 56.2554 494.81 55.9751C494.775 55.7052 494.698 55.6948 494.578 56.0789C494.638 55.8713 494.681 55.6533 494.707 55.4249L494.758 55.0927C494.775 54.9681 494.784 54.802 494.792 54.6567L494.938 52.8504C494.912 51.8019 494.715 52.0614 494.732 53.0995L494.827 47.5975L494.792 47.6391C494.972 46.8501 495.255 45.0749 495.375 44.2133C495.212 42.8118 495.255 44.9192 495.109 44.5559L495.392 41.5142C495.092 40.2788 494.801 42.8014 494.844 44.8984C493.678 42.054 495.135 42.3758 494.458 36.2406L494.312 39.1161C493.653 37.2579 493.893 35.0156 493.481 31.7663C493.695 32.5345 494.518 38.2753 494.81 34.9741C494.724 34.0398 494.681 32.8148 494.912 31.0292C494.501 31.0085 494.604 29.2748 494.621 27.0948L494.072 27.2401C494.227 24.8836 494.51 25.0704 494.758 23.6898C494.707 21.0633 494.278 20.5235 493.918 19.9006C493.833 15.6963 494.595 22.8074 494.707 17.8244C494.595 16.0908 494.612 14.5543 494.672 13.0595C494.715 11.9072 494.638 10.6199 494.03 9.13539C493.481 8.42947 493.447 8.59557 493.515 8.82395C493.567 9.0731 493.678 9.41568 493.464 9.21844C493.335 8.689 493.113 8.1907 492.856 7.68203C492.573 7.44326 492.581 7.66127 492.581 7.76508C492.187 7.2564 492.213 7.14221 492.196 6.9242C492.17 6.72696 492.084 6.40515 491.176 5.89647C491.107 5.65771 490.782 5.53313 490.327 5.46046C490.096 5.46046 489.839 5.41894 489.556 5.47084C489.419 5.49161 489.273 5.51237 489.119 5.53313C488.939 5.56427 488.759 5.59542 488.571 5.62656C487.062 5.88609 485.271 6.12486 483.806 5.70961C483.086 5.89647 484.157 6.11448 483.934 6.374C479.906 5.83418 480.48 5.97952 477.172 5.24246L474.353 5.67847C476.427 5.18017 473.779 4.58845 471.465 4.10053C472.202 3.86177 472.827 3.65414 473.247 3.55033L469.554 3.19737C469.108 3.30119 469.477 3.52957 470.085 3.80986C469.836 3.74758 469.597 3.69567 469.408 3.65414C468.088 3.90329 468.774 4.28739 469.716 4.65073C470.162 4.51578 470.616 4.37044 471.045 4.24587C471.962 4.65073 472.81 5.09712 472.622 5.48123C472.382 5.40856 471.919 5.33589 471.413 5.30475C471.653 5.41894 471.808 5.51237 471.696 5.57466C471.568 5.64732 471.182 5.50199 470.582 5.32551L469.742 6.06257L469.537 5.7719L464.703 6.23905C461.241 5.49161 458.233 4.40159 452.739 4.09015C454.102 4.62997 453.031 4.97255 453.108 5.61618C454.608 4.93103 457.359 5.90685 460.204 5.7719C458.721 5.84457 459.047 6.14562 459.424 6.25981L454.35 5.63694C454.462 6.16638 453.271 6.03143 451.942 6.24943C452.945 5.21132 448.154 5.55389 446.089 5.24246C445.96 5.59542 446.457 5.94838 448.977 5.86533C446.2 6.64391 445.386 4.64035 442.652 5.30475C443.269 5.30475 443.604 5.26322 443.844 5.4397C442.404 5.12827 438.89 5.37741 439.721 5.67847H440.338C436.251 5.81342 427.903 5.68885 427.295 4.80645C427.252 4.92064 427.826 5.87571 428.075 6.05219L420.782 3.08318C421.424 3.84101 418.956 5.64732 422.35 6.07295C421.382 6.17676 420.173 6.31172 418.125 6.04181C418.785 5.938 419.779 4.94141 418.871 4.87912C416.385 5.71999 417.139 5.33589 414.071 6.05219C415.065 5.88609 413.96 4.70264 412.392 4.73378C412.64 4.91026 412.263 5.90685 412.837 6.03143L408.929 4.86874C409.906 5.07636 409.101 5.85495 408.227 6.18714C408.629 5.95876 404.841 6.20791 403.804 6.09371L405.458 5.8238C401.045 6.00028 401.096 4.18358 396.717 4.24587C397.248 4.48464 398.028 5.73037 395.8 5.87571C394.78 5.2736 391.275 3.00013 387.401 2.54336L386.656 2.88594L383.682 2.49146C385.533 3.39462 390.735 5.28398 393.572 6.02105C391.918 6.29096 393.109 6.42591 390.632 6.39477C389.758 6.71658 391.978 6.88268 392.706 6.90344L386.947 7.11107C387.204 6.41553 382.542 6.41553 382.756 5.83418L389.013 6.56086C389.27 5.86533 385.396 4.57807 381.308 4.70264C380.271 4.98293 382.088 5.94838 382.002 6.17676C381.471 5.938 378.129 5.71999 377.752 5.88609L379.483 6.25981C377.212 6.51934 375.772 5.33589 373.038 6.00028C372.095 6.04181 370.219 6.90344 370.056 6.4882C371.59 5.68885 371.898 3.22852 370.87 2.62641C370.536 2.67832 365.916 3.38424 364.845 3.77872C363.294 4.40159 367.176 5.26322 365.856 5.80304C365.796 5.61618 364.939 5.37741 364.588 5.30475C363.594 5.47084 364.999 5.89647 362.848 5.81342C362.488 5.1075 358.469 5.87571 361.828 5.21132C359.72 5.01407 359.592 5.35665 357.124 5.32551C357.912 4.86874 354.904 3.76834 352.796 3.5711C352.924 3.74758 352.444 3.98634 352.213 4.09015C347.902 4.15244 345.58 4.47426 341.56 4.48464C341.192 4.66112 339.246 4.85836 340.078 5.16979C339.495 5.04522 338.964 4.80645 337.73 4.78569C335.33 5.39818 340.498 4.87912 338.664 5.61618C338.509 5.20093 335.458 5.04522 333.684 4.79607C334.224 4.16282 337.764 4.6715 339.538 4.93103C339.538 4.05901 336.461 3.13509 332.262 2.73022C328.92 2.51222 330.814 3.30119 330.231 3.17661C323.958 3.33233 324.883 1.65058 319.672 2.28383C317.607 2.84442 319.578 3.39462 319.124 3.79948C321.849 4.0071 323.306 3.44652 325.149 3.46728L322.878 3.72681C323.743 3.91367 325.56 4.04863 326.554 3.89291C324.823 4.39121 315.953 3.98634 311.102 4.45349C310.245 4.26663 308.754 4.06939 309.457 3.85139L310.991 3.93444C312.397 3.48805 308.112 3.31157 310.048 3.10394C307.992 2.79251 305.686 2.29421 302.798 2.54336L302.258 3.17661C302.318 2.98975 304.152 2.79251 304.966 2.98975C303.758 2.70946 300.527 3.85139 299.207 3.0209L301.238 2.58489C299.173 2.26307 296.619 1.5883 294.057 1.78554C295.222 1.15229 294.648 1.85821 296.473 1.12115C294.897 2.03469 303.038 1.07962 300.493 2.04507C302.361 1.19381 303.732 1.68173 306.175 0.955047C306.098 1.16267 305.309 1.35991 307.46 1.2561C307.554 1.31839 307.786 1.39106 307.932 1.44296C308 1.44296 308.017 1.44296 308.077 1.4222C308.034 1.4222 308 1.44296 307.957 1.44296C308.052 1.4741 308.06 1.48449 307.914 1.44296C307.4 1.53639 306.989 1.6402 306.817 1.76478C307.889 2.24231 311.308 2.23193 312.465 2.48108C313.742 2.37726 311.934 2.24231 312.628 2.01392L314.359 2.38764C314.53 1.92049 317.753 1.60906 314.745 1.33915L317.453 1.31839C319.047 1.05886 321.241 0.955047 322.595 1.15229C323.872 1.04848 325.826 1.67135 324.712 1.30801L328.962 1.59868L329.005 1.48449C333.196 1.4222 337.635 2.25269 342.426 1.41182C343.84 1.52601 345.297 1.67135 347.654 1.53639L348.116 1.13153C349.925 1.27686 353.558 0.726662 354.338 1.15229C356.292 0.0622687 363.131 0.913522 366.319 0.726662L366.439 1.2561C368.633 1.22496 370.733 1.38067 373.458 1.5883L373.287 2.05545C375.635 2.43955 379.32 1.72325 383.031 1.77516C382.782 1.59868 381.839 1.6402 381.171 1.7544C385.61 0.7059 390.529 2.5226 394.549 1.7544C395.551 1.92049 396.28 1.86859 396.983 1.7544C396.888 1.7544 396.803 1.7544 396.734 1.73363C396.837 1.73363 396.991 1.73363 397.146 1.73363C397.591 1.65058 398.045 1.57792 398.534 1.48449C398.114 1.59868 397.711 1.69211 397.36 1.73363C398.131 1.73363 399.305 1.8063 400.454 1.92049L400.942 1.4222C401.036 1.4222 401.113 1.4222 401.208 1.43258C402.339 1.24572 402.116 1.67135 401.516 2.04507C402.099 2.12812 402.622 2.22155 403.033 2.34612C403.95 1.53639 406.05 2.61603 407.301 1.7544C408.072 2.16964 413.077 2.06583 413.694 2.94823C413.737 2.83403 414.071 2.78213 413.454 2.77175C414.74 2.66794 416.017 2.57451 417.165 2.82365L417.705 2.1904L420.499 3.04166C422.196 2.65755 422.907 2.42917 421.219 1.94126C425.298 2.6887 424.527 2.22155 427.989 2.96899L427.818 2.55374C429.06 2.57451 431.04 3.12471 431.786 2.78213C434.554 2.00354 445.498 2.67832 452.611 1.95164C451.231 3.16623 455.919 1.41182 456.202 2.34612C456.613 2.05545 457.607 1.89973 456.459 1.65058C460.092 1.93087 461.909 1.19381 464.42 1.98278C464.832 1.69211 463.64 1.56753 464.009 1.39106C464.3 1.45334 465.166 1.6402 465.543 1.4741C465.911 1.30801 465.012 1.23534 464.437 1.11076C468.148 1.16267 468.517 2.04507 468.791 2.86518C470.668 2.47069 471.61 2.53298 472.965 3.0728C473.616 2.80289 474.713 2.5226 472.407 2.41879C473.702 2.37726 480.326 2.0243 480.455 2.6887C480.858 2.5226 482.263 2.63679 482.606 2.71984C485.511 2.67832 485.768 2.61603 488.631 2.67832L487.842 2.78213C488.425 3.19737 488.956 3.19737 489.796 3.22852C490.593 3.27004 491.621 3.35309 492.761 4.06939L492.727 3.9552C494.115 4.59883 494.818 5.37741 495.272 5.87571C495.701 6.41553 495.889 6.73734 496.052 7.06954C496.232 7.39136 496.378 7.73393 496.695 8.34642C496.969 8.99005 497.458 9.93474 497.818 11.7203L497.363 11.4192C497.158 11.6269 497.175 12.0836 497.192 12.7273C497.235 13.402 497.286 14.1495 497.398 15.0526C497.595 16.8382 497.86 18.9975 497.698 20.8349L497.466 19.5165C497.166 21.5201 498.666 25.112 498.777 27.1155C498.855 27.5515 498.897 26.42 498.957 25.8179C499.48 31.0811 498.417 26.503 498.298 30.4167C498.589 31.1434 499.035 29.4824 499.086 32.1192C499.317 33.4376 498.143 39.7701 498.7 43.3724C498.477 42.5834 498.255 41.7945 498.083 43.6112C498.006 46.4037 498.932 51.1583 498.22 53.6705C498.28 54.0235 498.34 54.1584 498.392 54.1688C498.375 54.4387 498.349 54.7398 498.323 55.0823C498.289 55.4768 498.255 55.9336 498.195 56.38C498.058 57.2935 497.835 58.2693 497.483 59.1414C496.815 60.9165 495.709 62.1623 495.161 62.5049C495.084 63.1796 494.372 64.2177 493.19 64.9548C492.033 65.7022 490.379 66.0967 488.956 65.9306C486.428 65.7022 484.106 65.4635 484.131 66.2524L478.715 66.1694L478.861 66.3355C475.398 66.4393 474.173 66.0552 472.956 65.6815C472.159 65.7853 472.742 65.941 472.81 66.0241C467.754 66.3459 467.248 66.2732 463.006 65.4842L462.569 66.0033C461.421 65.7022 455.259 66.813 450.297 66.2109C450.348 66.2732 450.451 66.3666 450.845 66.4393C445.266 65.8372 437.485 67.8719 435.436 65.9929L431.751 65.5361C436.516 65.3908 431.04 64.7264 433.002 64.415C431.126 64.3008 428.16 64.9756 430.457 65.0794L430.817 64.9859C431.666 65.9618 424.895 65.3285 425.024 65.9929C415.648 65.941 406.513 66.4808 397.728 66.5224L398.74 65.7645L395.68 65.8061C394.874 65.9825 394.6 66.3978 396.786 66.3666C395.637 66.7923 393.118 66.0033 393.058 65.8372C388.781 66.1486 394.729 66.7196 393.418 66.7404L391.635 66.6885L392.038 66.595C390.589 66.2836 390.469 65.9514 387.838 65.9929C386.176 66.1486 386.99 66.4601 386.33 66.4912C386.33 66.5431 386.116 66.5743 385.327 66.512L381.471 66.5743L383.014 65.9722C381.3 65.6815 379.388 66.0033 381.162 65.3285C378.549 66.377 366.765 65.7022 365.162 66.0344C362.763 65.5984 360.397 65.6088 357.475 65.6607C358.203 65.5361 358.64 64.8614 356.112 64.9444C357.038 66.3355 351.484 65.5465 349.445 66.5535C351.27 65.8891 342.263 66.3874 345.125 65.4427C343.017 65.5569 344.997 65.9618 343.394 66.294C338.372 65.7542 332.339 66.6469 326.134 66.4601C326.04 66.2732 327.077 66.0033 325.749 65.723L322.475 66.6366C321.249 66.5431 321.344 65.5777 319.107 66.2213C319.424 66.0656 319.895 65.8372 319.073 65.7749C306.92 66.6677 294.245 65.0482 281.896 66.7196C283.567 66.3666 282.453 66.3355 281.176 66.3147C282.007 66.2317 281.159 65.8683 281.322 65.6192L276.154 66.3044C275.211 65.6192 270.618 66.2628 270.078 65.5984L271.715 65.7126C269.538 64.934 274.757 63.9894 274.44 62.9928C276.874 63.8752 280.867 61.6847 284.861 62.9512C285.744 62.7436 284.107 62.6294 284.578 62.401C285.589 62.8267 286.815 62.9201 289.086 62.7229L288.829 62.619C295.197 62.7229 297.93 62.3076 305.086 62.0273L304.555 62.5152C306.089 62.4529 306.415 62.2972 307.135 62.1727C308.9 62.9201 302.815 62.2142 304.426 63.0343C306.466 62.0377 315.268 63.0239 316.647 61.882C319.013 61.882 315.953 62.4529 318.318 62.4426L318.944 62.1311L319.544 62.5256C321.095 62.4633 321.875 62.0792 321.935 61.8197C321.558 61.8508 320.864 61.747 320.461 61.7263C322.475 61.3629 326.134 61.8508 326.82 61.7263L324.549 61.9131C331.002 62.2038 338.886 61.7989 345.125 62.4218L344.654 62.6502C349.419 63.0758 348.468 62.3907 353.695 62.5983L353.507 62.5464C354.552 62.7748 355.949 62.8993 357.381 62.8682C356.061 62.5983 359.866 62.3388 358.135 62.0377C363.302 62.4945 360.689 62.401 364.1 63.2627L364.888 62.8786C366.053 63.2315 366.148 63.408 368.762 63.5118C366.619 63.1796 370.433 62.9305 368.033 62.4841C373.518 61.6432 376.175 63.3353 378.686 62.1C381.205 63.1692 373.946 62.6917 375.352 62.9201C374.169 63.2731 377.426 63.7194 379.148 63.6053C380.897 63.5845 382.122 62.2453 386.527 62.2661C386.09 62.2661 386.056 62.1934 385.619 62.1934C387.264 61.9235 388.85 62.5568 390.872 62.1208C392.004 62.7644 393.495 62.0792 393.82 62.9097L389.784 62.7229C392.072 62.9409 394.223 63.8959 397.994 63.4288C397.703 63.2627 396.58 63.0447 395.809 62.9201C396.914 62.6813 397.934 63.0758 399.074 62.837C398.748 62.0169 394.163 62.6606 391.712 62.0273C392.895 61.6847 396.357 62.619 395.123 61.7366C396.897 62.8682 399.459 61.5913 402.442 62.4633L402.245 61.9754C402.716 62.0481 403.693 62.2868 404.567 62.2765L402.99 61.6328C405.407 62.1727 407.644 61.1553 409.966 61.4564C405.116 61.446 408.878 62.0481 406.83 62.4114C412.812 63.0758 410.266 61.1242 416.968 61.3629C416.06 61.2903 413.566 61.664 414.98 61.882C416.257 61.7782 417.936 61.5913 418.716 61.3318C423.156 61.4356 418.031 61.8405 419.925 62.1415C421.433 61.5394 422.101 62.3907 424.047 62.5775L424.064 62.0792C429.12 61.7574 425.401 63.1277 429.96 62.7332L428.032 62.0377L430.406 62.2142L429.917 61.6432C432.497 62.0688 433.302 61.9547 435.831 61.7989C435.239 62.1519 436.165 62.7125 438.402 62.7229C439.927 62.4218 437.545 62.2453 440.724 62.318C440.004 62.0066 439.224 61.6121 437.845 62.0688C437.699 61.9027 437.142 61.7574 436.996 61.5913C438.642 61.2487 441.127 61.5083 442.275 61.5186C441.83 61.5394 441.307 61.5602 441.033 61.6328L445.635 62.3284C446.363 62.1415 445.78 61.9858 445.215 61.8405C446.149 61.8924 446.792 62.1208 448.163 62.1727C447.812 61.7678 447.897 61.3422 445.952 61.1553L450.34 61.6121C450.631 61.4356 452.594 61.1242 452.019 60.9788C454.453 60.7401 457.984 61.7678 461.206 61.4564C461.378 61.5394 461.712 61.6121 462.398 61.664C465.423 61.5706 468.105 61.0723 471.696 61.6328L473.736 60.9062C476.547 61.0723 470.976 61.8301 475.656 62.1C478.972 62.3284 476.89 61.4771 478.055 61.2695C479.701 61.6328 482.572 62.3907 485.614 61.7886C484.603 61.6536 483.814 61.7574 482.871 61.7055L482.837 61.6432ZM494.81 35.0675C494.724 35.8772 494.458 37.5071 494.698 38.0988C495.169 37.1749 494.947 36.4586 494.81 35.0675ZM466.357 5.07636C466.854 5.24246 467.625 5.15941 468.5 4.97255C467.865 4.93103 467.154 4.95179 466.357 5.07636ZM319.527 1.5883C319.527 1.5883 319.578 1.60906 319.595 1.60906C321.095 1.41182 320.564 1.49487 319.527 1.5883ZM316.416 1.8063C316.107 1.73363 316.125 1.67135 316.253 1.59868C316.467 1.72325 317.17 1.73363 317.967 1.70249C317.744 1.83744 317.341 1.92049 316.416 1.81668V1.8063ZM385.962 66.2524L386.57 66.1175C385.199 65.9722 385.585 66.1071 385.962 66.2524Z" fill="#D8E1EF"/>
<path d="M491.679 5.76211C491.886 5.67891 491.943 5.5853 491.999 5.4917C492.291 5.5749 492.291 5.66851 491.679 5.76211Z" fill="#D8E1EF"/>
<path d="M479.558 61.3839H479.445C479.379 61.3631 479.351 61.3318 479.332 61.3005L479.568 61.3839H479.558Z" fill="#D8E1EF"/>
<path d="M373.663 6.05225C374.367 5.97959 374.752 5.88615 375.015 5.79272C375.053 5.9173 374.733 6.02111 373.663 6.05225Z" fill="#D8E1EF"/>
<path d="M302.781 0.955078L304.969 1.09003C303.908 1.06927 303.533 1.17308 303.007 1.25613C303.054 1.14194 303.476 0.965459 302.791 0.965459L302.781 0.955078Z" fill="#D8E1EF"/>
<path d="M283.824 4.04861C283.505 3.98633 283.148 4.04861 282.829 3.97594L282.913 3.74756C284.275 3.75794 285.223 3.95518 283.815 4.04861H283.824Z" fill="#D8E1EF"/>
<path d="M300.753 2.61594C300.584 3.04157 299.213 2.89623 297.683 2.81318H297.955C297.504 2.22146 299.138 2.4187 300.753 2.61594Z" fill="#D8E1EF"/>
<path d="M297.326 2.8028C296.857 2.78203 296.378 2.77165 295.908 2.79241C295.73 2.55365 296.481 2.74051 297.326 2.8028Z" fill="#D8E1EF"/>
<path d="M316.528 1.52604C315.805 1.62985 316.077 0.986223 315.664 1.1627C314.856 0.622883 320.499 1.80633 316.528 1.52604Z" fill="#D8E1EF"/>
<path d="M299.514 4.00722L300.068 3.47778L300.922 3.90341L299.514 4.00722Z" fill="#D8E1EF"/>
<path d="M311.598 3.62308L309.157 3.76842C309.194 3.68537 308.885 3.63346 308.5 3.59194C310.002 3.57118 311.655 3.46737 311.598 3.62308Z" fill="#D8E1EF"/>
<path d="M308.5 3.59184C307.711 3.59184 306.969 3.59184 306.528 3.50879C306.95 3.50879 307.861 3.52955 308.5 3.59184Z" fill="#D8E1EF"/>
<path d="M302.856 4.16291L303.579 4.04872L305.307 4.01758L302.856 4.16291Z" fill="#D8E1EF"/>
<path d="M337.88 3.51929L340.546 3.66462C340.818 3.8411 340.095 3.9553 339.1 3.88263C338.462 3.75805 337.476 3.68539 337.88 3.51929Z" fill="#D8E1EF"/>
<path d="M329.804 4.94136C330.527 4.83755 330.574 4.71297 330.978 4.54688L331.063 5.19051L329.804 4.94136Z" fill="#D8E1EF"/>
<path d="M337.588 5.09717C337.851 5.27365 341.457 5.60584 338.077 5.5747C337.804 5.39822 335.138 5.25289 337.588 5.09717Z" fill="#D8E1EF"/>
<path d="M377.794 4.27689H377.109L377.212 3.21802L377.794 4.27689Z" fill="#D8E1EF"/>
<path d="M413.221 6.80997C410.057 7.05912 412.47 6.15596 409.616 6.47778C408.874 6.22863 411.954 6.21825 411.193 6.00024C413.099 6.25977 414.104 6.11444 413.231 6.80997H413.221Z" fill="#D8E1EF"/>
<path d="M411.193 6.0002C410.883 5.95868 410.564 5.90677 410.216 5.84448C410.77 5.90677 411.033 5.95868 411.193 6.0002Z" fill="#D8E1EF"/>
<path d="M272.913 66.7819L270.885 66.9999L272.19 66.647L272.913 66.7819Z" fill="#D8E1EF"/>
<path d="M269.007 65.9929L268.528 66.6677L267.308 66.0552C267.768 66.0864 268.66 66.1383 269.007 65.9929Z" fill="#D8E1EF"/>
<path d="M496.112 60.3352C497.06 60.3144 498.168 60.4494 499.117 60.4182C497.06 60.304 495.858 61.093 496.112 60.3352Z" fill="#D8E1EF"/>
<path d="M12.4793 5.65039H279.839V63.6704H12.4793C7.59928 63.6704 3.63928 59.7104 3.63928 54.8304V14.4904C3.63928 9.61039 7.59928 5.65039 12.4793 5.65039Z" fill="#D8E1EF"/>
<path d="M282.279 62.9002C282.239 63.8802 282.659 63.5302 282.739 63.6702C282.649 62.0402 282.169 62.9402 282.279 62.9002Z" fill="#D8E1EF"/>
<path d="M281.329 46.7902L281.499 47.0802L281.079 44.7002L281.329 46.7902Z" fill="#D8E1EF"/>
<path d="M281.339 31.7302C280.629 33.1502 281.459 37.1902 281.199 39.8702L281.039 40.3102L281.609 41.5202C281.519 38.2602 281.139 34.0202 281.339 31.7302Z" fill="#D8E1EF"/>
<path d="M282.879 23.7003C282.599 24.2003 282.639 21.9603 282.789 25.5703C282.819 25.3903 282.839 25.3403 282.859 25.2303C282.859 24.9103 282.859 24.4603 282.879 23.7003Z" fill="#D8E1EF"/>
<path d="M282.859 25.2304C282.879 26.8204 283.089 24.1904 282.859 25.2304V25.2304Z" fill="#D8E1EF"/>
<path d="M282.709 17.9102L282.959 20.0002C283.119 19.5602 283.159 17.7002 283.279 18.3902C283.139 16.2502 282.979 16.6902 282.709 17.9102Z" fill="#D8E1EF"/>
<path d="M282.179 15.9302L282.289 17.0102C282.359 16.8202 282.379 16.5302 282.179 15.9302Z" fill="#D8E1EF"/>
<path d="M282.509 19.3103L282.289 17.0103C282.169 17.3103 281.939 17.3403 282.369 18.0603C282.159 17.8703 282.369 18.3303 282.509 19.3003V19.3103Z" fill="#D8E1EF"/>
<path d="M282.399 20.6104C282.239 21.7804 282.149 23.3004 281.899 21.2004C281.999 25.2004 282.499 24.6104 282.399 20.6104Z" fill="#D8E1EF"/>
<path d="M280.599 30.9602L280.389 32.5302L280.629 33.8902C280.509 33.2102 280.819 30.8702 280.599 30.9702V30.9602Z" fill="#D8E1EF"/>
<path d="M281.689 2.42017C281.379 2.56017 282.389 2.78017 282.529 2.96017C282.509 3.09017 282.489 3.15017 282.469 3.19017L282.639 5.69017C282.689 4.85017 282.779 3.58017 282.839 2.65017C282.169 2.59017 281.689 2.52017 281.679 2.42017H281.689Z" fill="#D8E1EF"/>
<path d="M282.479 3.19027V3.03027L278.659 3.28027C280.909 3.30027 281.949 3.25027 282.339 3.16027C282.379 3.34027 282.429 3.31027 282.479 3.19027Z" fill="#D8E1EF"/>
<path d="M281.389 15.5603L281.939 19.3503L281.379 14.8203L281.389 15.5603Z" fill="#D8E1EF"/>
<path d="M270.269 2.40029L271.579 2.05029L269.249 2.58029L270.269 2.40029Z" fill="#D8E1EF"/>
<path d="M264.419 2.46028C265.389 2.17028 263.089 1.97028 264.119 1.79028C262.529 1.84028 261.169 2.09028 259.949 2.32028C261.249 2.19028 262.629 2.23028 264.419 2.46028Z" fill="#D8E1EF"/>
<path d="M257.899 2.6403C258.549 2.5703 259.219 2.4503 259.949 2.3103C259.259 2.3803 258.579 2.4703 257.899 2.6403Z" fill="#D8E1EF"/>
<path d="M273.709 3.20026C273.529 3.11026 273.189 2.87026 271.889 2.77026L272.799 3.20026C273.079 3.20026 273.389 3.20026 273.709 3.20026Z" fill="#D8E1EF"/>
<path d="M272.829 3.21017H272.799C271.809 3.18017 271.129 3.18017 270.839 3.17017C271.089 3.17017 271.689 3.19017 272.829 3.21017Z" fill="#D8E1EF"/>
<path d="M273.939 3.21021C273.859 3.21021 273.789 3.21021 273.709 3.21021C273.799 3.25021 273.849 3.27021 273.939 3.21021Z" fill="#D8E1EF"/>
<path d="M281.779 9.50017C281.659 8.48017 281.539 6.99017 281.399 6.33017C281.259 5.65017 281.109 5.82017 280.919 7.65017C281.069 8.22017 281.189 8.01017 281.319 7.94017C281.449 7.89017 281.599 7.97017 281.769 9.49016L281.779 9.50017Z" fill="#D8E1EF"/>
<path d="M275.059 3.74019L278.229 3.84019C278.219 3.73019 277.569 3.56019 278.669 3.44019L276.579 3.59019L276.069 3.63019L275.709 3.67019L275.049 3.74019H275.059Z" fill="#D8E1EF"/>
<path d="M273.859 3.8802L275.059 3.7402L274.159 3.7002L273.859 3.8802Z" fill="#D8E1EF"/>
<path d="M262.099 3.04019C261.039 3.23019 259.879 3.24019 258.569 3.27019C259.969 3.35019 261.419 3.40019 262.799 3.40019C262.989 3.27019 263.599 3.02019 262.099 3.04019Z" fill="#D8E1EF"/>
<path d="M267.319 3.1604C267.249 3.1604 267.149 3.1804 267.079 3.1804C267.219 3.2204 267.339 3.2304 267.319 3.1604Z" fill="#D8E1EF"/>
<path d="M245.689 3.27026C245.759 3.30026 245.819 3.32026 245.899 3.35026C245.919 3.32026 245.929 3.30026 245.949 3.28026H245.689V3.27026Z" fill="#D8E1EF"/>
<path d="M263.039 3.48032C264.089 3.56032 264.719 3.46032 265.329 3.33032C264.539 3.37032 263.709 3.40032 262.809 3.40032C262.719 3.46032 262.709 3.50032 263.049 3.48032H263.039Z" fill="#D8E1EF"/>
<path d="M254.309 2.84034C254.859 2.93034 255.479 3.01034 256.139 3.07034C255.599 2.93034 254.509 2.72034 254.309 2.84034Z" fill="#D8E1EF"/>
<path d="M266.719 3.07032C266.769 3.07032 266.819 3.06032 266.879 3.05032C266.529 2.96032 266.579 3.00032 266.719 3.07032Z" fill="#D8E1EF"/>
<path d="M266.719 3.07031C266.179 3.13031 265.749 3.24031 265.319 3.33031C265.959 3.30031 266.559 3.25031 267.069 3.19031C266.939 3.16031 266.809 3.11031 266.709 3.07031H266.719Z" fill="#D8E1EF"/>
<path d="M241.779 6.02034C241.969 5.62034 244.739 5.26034 247.129 5.68034C249.489 5.38034 247.949 4.08034 245.889 3.35034C245.819 3.52034 245.819 3.68034 243.389 3.92034C244.239 4.14034 248.769 4.43034 246.719 4.78034C243.509 4.98034 244.089 4.64034 242.529 4.43034C243.859 4.92034 238.449 5.15034 239.139 5.87034L241.959 5.61034C242.009 5.72034 240.989 5.90034 241.769 6.01034L241.779 6.02034Z" fill="#D8E1EF"/>
<path d="M250.509 3.39029L251.509 3.34029C250.369 3.27029 249.559 3.11029 248.059 2.80029C246.399 2.99029 246.059 3.14029 245.939 3.27029L250.849 3.33029L250.509 3.39029Z" fill="#D8E1EF"/>
<path d="M255.989 3.34032C255.209 3.77032 252.819 3.95032 254.279 4.42032C257.209 4.39032 256.329 4.06032 258.079 3.87032C253.359 3.98032 259.439 3.63032 256.019 3.39032C256.949 3.32032 257.779 3.29032 258.569 3.28032C257.719 3.23032 256.899 3.16032 256.129 3.08032C256.169 3.09032 256.199 3.10032 256.239 3.11032H256.259C256.459 3.16032 256.529 3.20032 256.299 3.17032C256.279 3.17032 256.229 3.17032 256.199 3.17032C256.169 3.23032 256.079 3.28032 255.989 3.33032C254.619 3.24032 255.769 3.22032 256.199 3.17032C256.219 3.15032 256.249 3.13032 256.259 3.11032H256.239L251.509 3.34032C252.509 3.40032 253.759 3.39032 255.989 3.34032Z" fill="#D8E1EF"/>
<path d="M279.869 5.50039C279.749 5.46039 279.789 5.43039 279.809 5.40039C279.439 5.45039 279.289 5.49039 279.869 5.50039Z" fill="#D8E1EF"/>
<path d="M277.969 5.2402C278.369 5.1802 278.809 5.0102 280.079 5.0502C280.269 5.0702 280.379 5.1002 280.369 5.1202C280.329 5.3602 280.289 5.3202 280.249 5.2402C280.069 5.2902 279.839 5.3402 279.809 5.4002C279.909 5.3902 280.019 5.3702 280.139 5.3602C280.259 6.0002 280.429 7.2302 280.609 4.8902C280.609 4.8902 280.599 4.8902 280.589 4.8902L280.139 4.9502C279.089 4.8802 277.859 4.7002 276.839 4.5402C275.729 4.3802 275.349 4.2302 275.479 4.2002C275.949 4.5902 276.779 4.8602 277.979 5.2402H277.969Z" fill="#D8E1EF"/>
<path d="M266.749 4.40039L262.809 4.61039L264.819 4.98039L264.719 4.76039C266.959 4.85039 266.479 4.57039 266.759 4.40039H266.749Z" fill="#D8E1EF"/>
<path d="M245.239 3.06034L245.759 2.60034L243.479 3.25034L245.239 3.06034Z" fill="#D8E1EF"/>
<path d="M240.119 3.11021L240.309 2.72021L238.949 2.96021L240.119 3.11021Z" fill="#D8E1EF"/>
<path d="M7.96924 59.4502C8.20924 59.6102 8.42924 59.7802 8.67924 59.9102C8.32924 59.7202 8.13924 59.5402 7.96924 59.4502Z" fill="#D8E1EF"/>
<path d="M6.03924 53.5003L5.84924 53.2903C5.95924 53.6803 6.03924 53.8403 6.03924 53.5003Z" fill="#D8E1EF"/>
<path d="M114.379 3.16038C112.689 2.79038 110.809 2.22038 111.009 2.66038L111.529 3.09038C112.709 3.01038 113.609 3.06038 114.379 3.15038V3.16038Z" fill="#D8E1EF"/>
<path d="M28.2693 5.75021C28.4293 5.79021 28.5993 5.84021 28.7593 5.88021C29.1693 5.73021 29.5493 5.59021 29.8993 5.46021C29.4093 5.55021 28.8493 5.64021 28.2693 5.74021V5.75021Z" fill="#D8E1EF"/>
<path d="M27.0793 7.54025L24.8593 7.26025C25.3593 7.36025 26.0693 7.45025 27.0793 7.54025Z" fill="#D8E1EF"/>
<path d="M51.4193 60.8404L52.7693 60.4004C50.6593 60.4004 51.5893 60.6304 51.4193 60.8404Z" fill="#D8E1EF"/>
<path d="M187.679 3.27025C186.219 3.10025 185.069 3.03025 184.049 3.01025C185.799 3.26025 187.219 3.63025 187.679 3.27025Z" fill="#D8E1EF"/>
<path d="M2.39929 59.3902C2.83929 60.1702 3.13929 60.4202 3.19929 60.3502C2.67929 59.6202 2.42929 59.1602 2.39929 59.3902Z" fill="#D8E1EF"/>
<path d="M179.849 3.01023C180.109 3.04023 180.359 3.08023 180.619 3.11023C181.679 3.04023 182.749 2.98023 184.049 3.01023C182.759 2.82023 181.269 2.71023 179.849 3.01023Z" fill="#D8E1EF"/>
<path d="M217.419 61.2003C217.539 61.2203 217.689 61.2303 217.799 61.2503C217.839 61.1903 217.669 61.1903 217.419 61.2003Z" fill="#D8E1EF"/>
<path d="M265.779 65.5703C265.299 65.6003 264.529 65.6003 263.789 65.6003C264.149 65.6303 264.749 65.6303 265.779 65.5703Z" fill="#D8E1EF"/>
<path d="M219.519 2.92035C219.689 2.87035 220.609 2.89035 219.519 2.92035V2.92035Z" fill="#D8E1EF"/>
<path d="M224.799 4.64038C224.569 4.69038 224.389 4.75038 224.369 4.85038C224.459 4.75038 224.609 4.68038 224.799 4.64038Z" fill="#D8E1EF"/>
<path d="M169.029 5.71021C169.029 5.71021 168.969 5.71021 168.939 5.71021C169.259 5.80021 169.209 5.78021 169.029 5.71021Z" fill="#D8E1EF"/>
<path d="M221.149 3.12023C220.739 3.07023 220.269 3.02023 219.759 2.99023C219.979 3.02023 220.409 3.07023 221.149 3.12023Z" fill="#D8E1EF"/>
<path d="M220.929 2.92039C221.299 2.94039 221.599 2.95039 221.879 2.96039C222.019 2.89039 221.899 2.84039 220.929 2.92039Z" fill="#D8E1EF"/>
<path d="M218.009 2.95018C218.629 2.95018 219.209 2.96018 219.769 3.00018C219.559 2.97018 219.469 2.95018 219.519 2.93018C219.199 2.93018 218.749 2.94018 218.009 2.95018Z" fill="#D8E1EF"/>
<path d="M128.479 62.3603C128.549 62.3703 128.629 62.3903 128.709 62.4003C129.809 62.2203 129.319 62.2503 128.479 62.3603Z" fill="#D8E1EF"/>
<path d="M86.1192 7.66036C86.1692 7.66036 86.1992 7.65036 86.2392 7.64036C86.1892 7.64036 86.1292 7.63036 86.0792 7.62036L86.1192 7.66036Z" fill="#D8E1EF"/>
<path d="M82.2192 7.99037C83.8792 7.45037 84.8292 7.52037 86.0792 7.63037L84.7892 6.38037L82.2192 7.99037Z" fill="#D8E1EF"/>
<path d="M25.7193 61.1703L22.9793 60.7803C26.2893 60.1403 28.6793 60.3603 26.1093 59.8103C25.7193 61.1703 15.4593 59.9503 15.0793 61.3103L13.2693 61.0203C13.7893 61.0303 13.8693 60.9503 14.3793 60.9703C13.5093 60.8103 12.8793 60.7903 12.4393 60.8403C12.1093 60.8703 11.8493 61.0203 11.5593 61.1103C10.9893 61.3203 10.1093 61.6003 8.61927 60.5803C7.64927 59.7703 7.32927 58.9703 7.96927 59.4503C7.27927 58.9303 6.66927 58.2603 6.21927 57.4803C5.98927 56.7303 6.24927 56.8503 6.51927 57.5503C6.23927 56.9503 6.00927 56.3203 5.92927 55.6603C5.88927 55.5003 5.89927 55.3303 5.87927 55.1603C5.86927 54.9903 5.84927 54.8403 5.84927 54.6003L5.81927 53.2603L5.85927 53.3003C5.64927 52.5403 5.31927 50.8003 5.17927 49.9603C5.36927 48.6003 5.31927 50.6403 5.48927 50.2903L5.15927 47.3203C5.50927 46.1103 5.84927 48.5703 5.79927 50.6203C7.15927 47.8503 5.45927 48.1603 6.24927 42.1803L6.41927 44.9803C7.18927 43.1703 6.90927 40.9903 7.38927 37.8203C7.13927 38.5703 6.17927 44.1603 5.83927 40.9403C5.93927 40.0303 5.98927 38.8403 5.71927 37.1003C6.19927 37.0803 6.07927 35.3903 6.05927 33.2703L6.69927 33.4103C6.51927 31.1203 6.18927 31.3003 5.89927 29.9503C5.95927 27.3903 6.45927 26.8603 6.87927 26.2603C6.97927 22.1603 6.08927 29.0903 5.95927 24.2403C6.20927 20.8503 5.93927 18.4103 5.56927 14.3903C5.71927 13.4603 5.85927 13.5803 5.89927 13.8003C5.97927 14.0303 6.04927 14.3903 6.15927 14.0803C6.00927 13.5603 5.95927 13.0203 5.93927 12.4403C6.08927 12.0703 6.18927 12.2403 6.24927 12.3303C6.36927 11.6703 6.28927 11.5903 6.18927 11.4003C6.11927 11.2203 6.01927 10.9103 6.65927 9.91028C6.56927 9.45028 7.61927 8.59028 9.01927 8.10028C9.72927 7.87028 10.4993 7.72028 11.2493 7.62028C11.6293 7.57028 12.0093 7.54028 12.3793 7.50028C12.7893 7.46028 13.2893 7.41028 13.7093 7.30028C14.5593 7.48028 13.2993 7.69028 13.5593 7.94028C18.3093 7.42028 17.6393 7.56028 21.5393 6.85028L24.8693 7.27028C22.4293 6.79028 25.5493 6.22028 28.2793 5.75028C27.4093 5.52028 26.6693 5.32028 26.1793 5.22028L30.5393 4.88028C31.0693 4.98028 30.6293 5.20028 29.9093 5.47028C30.2093 5.41028 30.4893 5.36028 30.7093 5.32028C32.2693 5.56028 31.4593 5.93028 30.3393 6.28028C29.8093 6.15028 29.2793 6.01028 28.7693 5.89028C27.6893 6.28028 26.6793 6.71028 26.9093 7.08028C27.1893 7.01028 27.7393 6.94028 28.3393 6.91028C28.0593 7.02028 27.8793 7.11028 28.0093 7.17028C28.1593 7.24028 28.6093 7.10028 29.3293 6.93028L30.3193 7.64028L30.5593 7.36028L36.2693 7.81028C40.3493 7.09028 43.9093 6.04028 50.3893 5.74028C48.7793 6.26028 50.0393 6.59028 49.9593 7.21028C48.1893 6.55028 44.9393 7.49028 41.5793 7.36028C43.3293 7.43028 42.9493 7.72028 42.4993 7.83028L48.4893 7.23028C48.3493 7.74028 49.7593 7.61028 51.3293 7.82028C50.1493 6.82028 55.7993 7.15028 58.2293 6.85028C58.3793 7.19028 57.7993 7.53028 54.8193 7.45028C58.0993 8.20028 59.0593 6.27028 62.2793 6.91028C61.5493 6.91028 61.1593 6.87028 60.8793 7.04028C62.5793 6.74028 66.7193 6.98028 65.7493 7.27028H65.0293C69.8493 7.40028 79.7093 7.28028 80.4293 6.43028C80.4793 6.54028 79.7993 7.46028 79.5093 7.63028L88.1093 4.77028C87.3493 5.50028 90.2593 7.24028 86.2593 7.65028C87.4093 7.75028 88.8293 7.88028 91.2493 7.62028C90.4693 7.52028 89.2993 6.56028 90.3693 6.50028C93.3093 7.31028 92.4093 6.94028 96.0293 7.63028C94.8593 7.47028 96.1593 6.33028 98.0193 6.36028C97.7293 6.53028 98.1693 7.49028 97.4993 7.61028L102.119 6.49028C100.969 6.69028 101.919 7.44028 102.949 7.76028C102.469 7.54028 106.939 7.78028 108.169 7.67028L106.209 7.41028C111.419 7.58028 111.359 5.83028 116.529 5.89028C115.899 6.12028 114.979 7.32028 117.609 7.46028C118.819 6.88028 122.949 4.69028 127.519 4.25028L128.399 4.58028L131.909 4.20028C129.719 5.07028 123.589 6.89028 120.239 7.60028C122.189 7.86028 120.779 7.99028 123.709 7.96028C124.739 8.27028 122.119 8.43028 121.259 8.45028L128.059 8.65028C127.759 7.98028 133.259 7.98028 132.999 7.42028L125.609 8.12028C125.309 7.45028 129.879 6.21028 134.699 6.33028C135.929 6.60028 133.779 7.53028 133.879 7.75028C134.509 7.52028 138.449 7.31028 138.899 7.47028L136.859 7.83028C139.539 8.08028 141.239 6.94028 144.459 7.58028C145.569 7.62028 147.779 8.45028 147.979 8.05028C146.159 7.28028 145.809 4.91028 147.019 4.33028C147.409 4.38028 152.859 5.06028 154.129 5.44028C155.959 6.04028 151.379 6.87028 152.939 7.39028C153.009 7.21028 154.019 6.98028 154.439 6.91028C155.609 7.07028 153.959 7.48028 156.499 7.40028C156.919 6.72028 161.669 7.46028 157.699 6.82028C160.179 6.63028 160.339 6.96028 163.259 6.93028C162.329 6.49028 165.879 5.43028 168.369 5.24028C168.219 5.41028 168.779 5.64028 169.049 5.74028C174.139 5.80028 176.879 6.11028 181.629 6.12028C182.069 6.29028 184.359 6.48028 183.379 6.78028C184.059 6.66028 184.689 6.43028 186.159 6.41028C188.989 7.00028 182.889 6.50028 185.059 7.21028C185.239 6.81028 188.849 6.66028 190.929 6.42028C190.289 5.81028 186.109 6.30028 184.019 6.55028C184.019 5.71028 187.649 4.82028 192.609 4.43028C196.549 4.22028 194.319 4.98028 195.009 4.86028C202.419 5.01028 201.319 3.39028 207.479 4.00028C209.919 4.54028 207.589 5.07028 208.129 5.46028C204.919 5.66028 203.199 5.12028 201.019 5.14028L203.699 5.39028C202.679 5.57028 200.529 5.70028 199.359 5.55028C201.409 6.03028 211.879 5.64028 217.599 6.09028C218.619 5.91028 220.369 5.72028 219.539 5.51028L217.729 5.59028C216.069 5.16028 221.129 4.99028 218.839 4.79028C221.269 4.49028 223.989 4.01028 227.399 4.25028L228.039 4.86028C227.969 4.68028 225.809 4.49028 224.849 4.68028C226.269 4.41028 230.089 5.51028 231.649 4.71028L229.259 4.29028C231.699 3.98028 234.709 3.33028 237.729 3.52028C236.349 2.91028 237.029 3.59028 234.879 2.88028C236.739 3.76028 227.139 2.84028 230.129 3.77028C227.919 2.95028 226.309 3.42028 223.419 2.72028C223.509 2.92028 224.439 3.11028 221.899 3.01028C221.789 3.07028 221.509 3.14028 221.339 3.19028C221.259 3.19028 221.239 3.19028 221.169 3.17028C221.219 3.17028 221.259 3.19028 221.309 3.19028C221.199 3.22028 221.189 3.23028 221.359 3.19028C221.969 3.28028 222.459 3.38028 222.649 3.50028C221.389 3.96028 217.349 3.95028 215.979 4.19028C214.469 4.09028 216.609 3.96028 215.789 3.74028L213.749 4.10028C213.549 3.65028 209.739 3.35028 213.299 3.09028L210.099 3.07028C208.219 2.82028 205.629 2.72028 204.029 2.91028C202.519 2.81028 200.219 3.41028 201.529 3.06028L196.519 3.34028L196.469 3.23028C191.519 3.17028 186.279 3.97028 180.629 3.16028C178.959 3.27028 177.239 3.41028 174.459 3.28028L173.919 2.89028C171.779 3.03028 167.499 2.50028 166.579 2.91028C164.269 1.86028 156.199 2.68028 152.439 2.50028L152.299 3.01028C149.709 2.98028 147.229 3.13028 144.019 3.33028L144.219 3.78028C141.449 4.15028 137.099 3.46028 132.709 3.51028C133.009 3.34028 134.119 3.38028 134.909 3.49028C129.669 2.48028 123.859 4.23028 119.109 3.49028C117.929 3.65028 117.069 3.60028 116.239 3.49028C116.349 3.49028 116.449 3.49028 116.529 3.47028C116.409 3.47028 116.229 3.47028 116.039 3.47028C115.519 3.39028 114.979 3.32028 114.399 3.23028C114.899 3.34028 115.369 3.43028 115.779 3.47028C114.869 3.47028 113.479 3.54028 112.129 3.65028L111.549 3.17028C111.439 3.17028 111.349 3.17028 111.239 3.18028C109.909 3.00028 110.169 3.41028 110.879 3.77028C110.199 3.85028 109.569 3.94028 109.089 4.06028C108.009 3.28028 105.529 4.32028 104.049 3.49028C103.139 3.89028 97.2293 3.79028 96.5093 4.64028C96.4593 4.53028 96.0593 4.48028 96.7993 4.47028C95.2893 4.37028 93.7793 4.28028 92.4193 4.52028L91.7793 3.91028L88.4793 4.73028C86.4693 4.36028 85.6393 4.14028 87.6293 3.67028C82.8193 4.39028 83.7293 3.94028 79.6393 4.66028L79.8393 4.26028C78.3793 4.28028 76.0393 4.81028 75.1593 4.48028C71.8893 3.73028 58.9693 4.38028 50.5793 3.68028C52.2093 4.85028 46.6793 3.16028 46.3393 4.06028C45.8493 3.78028 44.6793 3.63028 46.0393 3.39028C41.7493 3.66028 39.5993 2.95028 36.6393 3.71028C36.1493 3.43028 37.5593 3.31028 37.1193 3.14028C36.7793 3.20028 35.7593 3.38028 35.3093 3.22028C34.8693 3.06028 35.9393 2.99028 36.6193 2.87028C32.2393 2.92028 31.7993 3.77028 31.4793 4.56028C29.2593 4.18028 28.1493 4.24028 26.5493 4.76028C25.7793 4.50028 24.4893 4.23028 27.2093 4.13028C25.6793 4.09028 17.8593 3.75028 17.7093 4.39028C17.2293 4.23028 15.5693 4.34028 15.1693 4.42028C13.4293 4.42028 12.5893 4.35028 11.4593 4.42028C10.4093 4.55028 9.31927 4.72028 7.60927 5.65028C7.93927 5.51028 8.27927 5.39028 8.61927 5.27028C8.08927 5.94028 7.43927 6.30028 6.65927 6.86028C5.88927 7.40028 4.91927 8.13028 4.16927 9.45028L4.14927 9.33028C3.11927 10.7503 2.82927 11.8403 2.64927 12.5403C2.51927 13.2603 2.49927 13.6403 2.51927 14.0203C2.51927 14.4103 2.54927 14.7503 2.51927 15.3703C2.49927 16.0003 2.42927 16.9303 2.26927 18.4703L2.74927 18.1403C3.77927 18.7103 2.13927 23.5903 2.53927 27.1603L2.80927 25.8703C3.15927 27.8203 1.40927 31.3203 1.27927 33.2803C1.18927 33.7103 1.13927 32.6103 1.06927 32.0103C0.459272 37.1303 1.69927 32.6703 1.83927 36.4903C1.49927 37.1903 0.979272 35.5803 0.919272 38.1503C0.649272 39.4303 2.01927 45.6003 1.36927 49.1103C1.62927 48.3403 1.88927 47.5703 2.08927 49.3403C2.13927 50.7003 1.88927 52.5403 1.72927 54.3403C1.70927 54.5803 1.68927 54.7603 1.67927 55.0403C1.67927 55.3103 1.67927 55.5903 1.67927 55.8603C1.71927 56.4003 1.76927 56.9303 1.90927 57.4203C2.13927 58.4103 2.60927 59.2403 3.11927 59.8003C3.23927 60.2003 3.28927 60.3603 3.22927 60.4203C3.94927 61.4603 5.34927 63.0103 7.05927 63.8603C8.72927 64.7703 10.5093 64.9803 11.2293 64.8203C11.4693 65.0803 11.8993 65.2303 12.4793 65.3503C12.9793 65.4503 13.5493 65.4903 14.2093 65.5003C15.5093 65.5303 17.0593 65.4203 18.5593 65.3103C21.5393 65.0903 24.2793 64.8603 24.2593 65.6203L30.6493 65.5403L30.4793 65.7003C34.5693 65.8003 36.0093 65.4303 37.4493 65.0703C38.3893 65.1703 37.7093 65.3203 37.6293 65.4003C43.5993 65.7103 44.1893 65.6403 49.1993 64.8803L49.7193 65.3803C51.0793 65.0903 58.3493 66.1603 64.2093 65.5803C64.1493 65.6403 64.0293 65.7303 63.5693 65.8003C70.1593 65.2203 79.3393 67.1803 81.7593 65.3703L86.1093 64.9303C80.4893 64.7903 86.9493 64.1503 84.6293 63.8503C86.8393 63.7403 90.3493 64.3903 87.6293 64.4903L87.1993 64.4003C86.1993 65.3403 94.1893 64.7303 94.0393 65.3703C105.109 65.3203 115.889 65.8403 126.259 65.8803L125.069 65.1503L128.689 65.1903C129.639 65.3603 129.959 65.7603 127.379 65.7303C128.739 66.1403 131.709 65.3803 131.779 65.2203C136.829 65.5203 129.809 66.0703 131.359 66.0903L133.459 66.0403L132.989 65.9503C134.689 65.6503 134.849 65.3303 137.949 65.3703C139.909 65.5203 138.959 65.8203 139.729 65.8503C139.729 65.9003 139.989 65.9303 140.909 65.8703L145.469 65.9303L143.649 65.3503C145.669 65.0703 147.929 65.3803 145.829 64.7303C148.919 65.7403 162.819 65.0903 164.719 65.4103C167.549 64.9903 170.339 65.0003 173.799 65.0503C172.939 64.9303 172.429 64.2803 175.409 64.3603C174.319 65.7003 180.869 64.9403 183.279 65.9103C181.129 65.2703 191.759 65.7503 188.379 64.8403C190.869 64.9503 188.529 65.3403 190.419 65.6603C196.339 65.1403 203.469 66.0003 210.799 65.8203C210.909 65.6403 209.689 65.3803 211.259 65.1103L215.129 65.9903C216.579 65.9003 216.459 64.9703 219.099 65.5903C218.729 65.4403 218.169 65.2203 219.139 65.1603C233.479 66.0203 248.449 64.4603 263.019 66.0703C261.049 65.7303 262.359 65.7003 263.869 65.6803C262.889 65.6003 263.889 65.2503 263.699 65.0103L269.799 65.6703C270.909 65.0103 276.339 65.6303 276.979 64.9903L275.049 65.1003C277.619 64.3503 271.459 63.4403 271.829 62.4803C268.949 63.3303 264.249 61.2203 259.529 62.4403C258.489 62.2403 260.419 62.1303 259.859 61.9103C258.659 62.3203 257.219 62.4103 254.539 62.2203L254.839 62.1203C247.319 62.2203 244.099 61.8203 235.649 61.5503L236.279 62.0203C234.459 61.9603 234.079 61.8103 233.229 61.6903C231.149 62.4103 238.329 61.7303 236.429 62.5203C234.019 61.5603 223.629 62.5103 221.999 61.4103C219.209 61.4103 222.819 61.9603 220.029 61.9503L219.289 61.6503L218.579 62.0303C216.749 61.9703 215.829 61.6003 215.759 61.3503C216.199 61.3803 217.019 61.2803 217.499 61.2603C215.129 60.9103 210.809 61.3803 209.989 61.2603L212.669 61.4403C205.049 61.7203 195.739 61.3303 188.379 61.9303L188.939 62.1503C183.319 62.5603 184.439 61.9003 178.259 62.1003L178.479 62.0503C177.239 62.2703 175.589 62.3903 173.909 62.3603C175.469 62.1003 170.979 61.8503 173.019 61.5603C166.919 62.0003 169.999 61.9103 165.979 62.7403L165.049 62.3703C163.679 62.7103 163.559 62.8803 160.479 62.9803C163.009 62.6603 158.509 62.4203 161.339 61.9903C154.869 61.1803 151.729 62.8103 148.759 61.6203C145.789 62.6503 154.359 62.1903 152.699 62.4103C154.089 62.7503 150.249 63.1803 148.219 63.0703C146.149 63.0503 144.709 61.7603 139.509 61.7803C140.029 61.7803 140.059 61.7103 140.579 61.7103C138.629 61.4503 136.769 62.0603 134.379 61.6403C133.039 62.2603 131.279 61.6003 130.899 62.4003L135.669 62.2203C132.969 62.4303 130.429 63.3503 125.979 62.9003C126.329 62.7403 127.649 62.5303 128.559 62.4103C127.259 62.1803 126.049 62.5603 124.699 62.3303C125.079 61.5403 130.499 62.1603 133.389 61.5503C131.989 61.2203 127.909 62.1203 129.369 61.2703C127.279 62.3603 124.249 61.1303 120.729 61.9703L120.959 61.5003C120.399 61.5703 119.249 61.8003 118.219 61.7903L120.079 61.1703C117.229 61.6903 114.579 60.7103 111.849 61.0003C117.569 60.9903 113.129 61.5703 115.559 61.9203C108.499 62.5603 111.499 60.6803 103.589 60.9103C104.659 60.8403 107.609 61.2003 105.929 61.4103C104.429 61.3103 102.439 61.1303 101.509 60.8803C96.2693 60.9803 102.309 61.3703 100.079 61.6603C98.2993 61.0803 97.5093 61.9003 95.2093 62.0803L95.1893 61.6003C89.2193 61.2903 93.6093 62.6103 88.2293 62.2303L90.4993 61.5603L87.6993 61.7303L88.2793 61.1803C85.2293 61.5903 84.2793 61.4803 81.2993 61.3303C81.9893 61.6703 80.9093 62.2103 78.2693 62.2203C76.4693 61.9303 79.2793 61.7603 75.5293 61.8303C76.3793 61.5303 77.2993 61.1503 78.9293 61.5903C79.0993 61.4303 79.7593 61.2903 79.9393 61.1303C77.9993 60.8003 75.0593 61.0503 73.6993 61.0603C74.2193 61.0803 74.8493 61.1003 75.1693 61.1703L69.7393 61.8403C68.8793 61.6603 69.5593 61.5103 70.2293 61.3703C69.1293 61.4203 68.3693 61.6403 66.7493 61.6903C67.1693 61.3003 67.0693 60.8903 69.3593 60.7103L64.1793 61.1503C63.8293 60.9803 61.5193 60.6803 62.1993 60.5403C59.3293 60.3103 55.1593 61.3003 51.3593 61.0003C51.1593 61.0803 50.7693 61.1503 49.9593 61.2003C46.3893 61.1103 43.2193 60.6303 38.9793 61.1703L36.5793 60.4703C33.2593 60.6303 39.8293 61.3603 34.3093 61.6203C30.3993 61.8403 32.8493 61.0203 31.4793 60.8203C29.5293 61.1703 26.1493 61.9003 22.5593 61.3203C23.7493 61.1903 24.6793 61.2903 25.7893 61.2403L25.7193 61.1703ZM5.82927 41.0203C5.92927 41.8103 6.23927 43.3903 5.95927 43.9703C5.40927 43.0703 5.66927 42.3703 5.82927 41.0203ZM34.2893 6.68028C33.6993 6.84028 32.7893 6.76028 31.7593 6.58028C32.5093 6.54028 33.3493 6.56028 34.2893 6.68028ZM207.619 3.32028C207.619 3.32028 207.559 3.34028 207.539 3.34028C205.769 3.15028 206.399 3.23028 207.619 3.32028ZM211.289 3.53028C211.659 3.46028 211.629 3.40028 211.479 3.33028C211.219 3.45028 210.399 3.46028 209.459 3.43028C209.719 3.56028 210.199 3.64028 211.289 3.54028V3.53028ZM140.079 65.6103L139.369 65.4803C140.979 65.3403 140.529 65.4703 140.079 65.6103Z" fill="#D8E1EF"/>
<path d="M27.2392 7.34032C27.0192 7.26032 26.9492 7.17032 26.8992 7.08032C26.5892 7.16032 26.5792 7.25032 27.2392 7.34032Z" fill="#D8E1EF"/>
<path d="M51.1693 60.9203H51.2893C51.3593 60.9003 51.3893 60.8703 51.4193 60.8403L51.1693 60.9203Z" fill="#D8E1EF"/>
<path d="M154.379 7.62036C153.619 7.55036 153.199 7.46036 152.919 7.37036C152.879 7.49036 153.219 7.59036 154.379 7.62036Z" fill="#D8E1EF"/>
<path d="M230.759 2.71021L228.409 2.84021C229.549 2.82021 229.949 2.92021 230.529 3.00021C230.479 2.89021 230.029 2.72021 230.759 2.72021V2.71021Z" fill="#D8E1EF"/>
<path d="M251.179 5.69039C251.519 5.63039 251.909 5.69039 252.249 5.62039L252.159 5.40039C250.699 5.41039 249.669 5.60039 251.189 5.69039H251.179Z" fill="#D8E1EF"/>
<path d="M232.939 4.31036C233.129 4.72036 234.599 4.58036 236.249 4.50036H235.959C236.449 3.93036 234.689 4.12036 232.939 4.31036Z" fill="#D8E1EF"/>
<path d="M236.629 4.49022C237.139 4.47022 237.659 4.46022 238.149 4.48022C238.339 4.25022 237.529 4.43022 236.629 4.49022Z" fill="#D8E1EF"/>
<path d="M215.949 3.26038C216.729 3.36038 216.439 2.74038 216.879 2.91038C217.749 2.39038 211.669 3.53038 215.949 3.26038Z" fill="#D8E1EF"/>
<path d="M234.269 5.65038L233.679 5.14038L232.759 5.55038L234.269 5.65038Z" fill="#D8E1EF"/>
<path d="M221.249 5.28039L223.879 5.42039C223.839 5.34039 224.169 5.29039 224.589 5.25039C222.969 5.23039 221.189 5.13039 221.249 5.28039Z" fill="#D8E1EF"/>
<path d="M224.589 5.25017C225.439 5.25017 226.239 5.25017 226.709 5.17017C226.249 5.17017 225.269 5.19017 224.589 5.25017Z" fill="#D8E1EF"/>
<path d="M230.669 5.8004L229.889 5.6904L228.029 5.6604L230.669 5.8004Z" fill="#D8E1EF"/>
<path d="M192.939 5.18018L190.069 5.32018C189.779 5.49018 190.559 5.60018 191.629 5.53018C192.319 5.41018 193.379 5.34018 192.939 5.18018Z" fill="#D8E1EF"/>
<path d="M201.629 6.55017C200.849 6.45017 200.799 6.33017 200.359 6.17017L200.269 6.79017L201.629 6.55017Z" fill="#D8E1EF"/>
<path d="M193.249 6.7002C192.959 6.8702 189.079 7.1902 192.719 7.1602C193.009 6.9902 195.889 6.8502 193.249 6.7002Z" fill="#D8E1EF"/>
<path d="M149.939 5.91038H150.669L150.569 4.89038L149.939 5.91038Z" fill="#D8E1EF"/>
<path d="M111.759 8.35031C115.169 8.59031 112.569 7.72031 115.649 8.03031C116.449 7.79031 113.129 7.78031 113.949 7.57031C111.889 7.82031 110.809 7.68031 111.759 8.35031Z" fill="#D8E1EF"/>
<path d="M113.959 7.57017C114.289 7.53017 114.639 7.48017 115.009 7.42017C114.409 7.48017 114.129 7.53017 113.959 7.57017Z" fill="#D8E1EF"/>
<path d="M273.809 66.1202L275.999 66.3302L274.589 65.9902L273.809 66.1202Z" fill="#D8E1EF"/>
<path d="M278.009 65.3604L278.529 66.0104L279.849 65.4204C279.349 65.4504 278.389 65.5004 278.019 65.3604H278.009Z" fill="#D8E1EF"/>
<path d="M7.13929 34.9303L6.97929 34.7603C6.80929 35.1003 6.79929 35.6103 6.76929 36.6403L7.12929 34.9303H7.13929Z" fill="#D8E1EF"/>
<path d="M9.88924 60.0504C9.78924 60.0004 9.68924 59.9504 9.59924 59.8804C9.67924 60.1704 9.79924 60.4104 9.91924 60.7004C9.89924 60.4804 9.88924 60.2604 9.88924 60.0504Z" fill="#D8E1EF"/>
<path d="M33.3392 59.9103C32.3192 59.8903 31.1292 60.0203 30.0992 59.9903C32.3192 59.8803 33.6092 60.6403 33.3392 59.9103Z" fill="#D8E1EF"/>
</svg>
