<svg width="313" height="52" viewBox="0 0 313 52" fill="none" xmlns="http://www.w3.org/2000/svg">
<path d="M155.41 51.587C156.119 51.611 155.863 51.9225 155.974 51.9864C154.736 51.8266 155.457 51.4911 155.41 51.587Z" fill="white"/>
<path d="M149.979 40.3554L149.88 40.5795L150.124 38.6982L149.979 40.3554Z" fill="white"/>
<path d="M149.973 28.4351C150.385 29.5638 149.904 32.75 150.055 34.8795L150.147 35.2317L149.817 36.1924C149.869 33.6146 150.089 30.2603 149.973 28.4431V28.4351Z" fill="white"/>
<path d="M149.079 22.0787C149.241 22.471 149.218 20.7018 149.131 23.5597C149.114 23.4157 149.102 23.3756 149.091 23.2876C149.091 23.0314 149.091 22.6791 149.079 22.0707V22.0787Z" fill="white"/>
<path d="M149.09 23.2951C149.078 24.5493 148.956 22.4723 149.09 23.2951V23.2951Z" fill="white"/>
<path d="M149.177 17.4997L149.032 19.1568C148.94 18.8126 148.916 17.3395 148.847 17.8839C148.928 16.1868 149.021 16.539 149.177 17.4997Z" fill="white"/>
<path d="M149.485 15.9307L149.421 16.7854C149.381 16.6337 149.369 16.41 149.485 15.9307Z" fill="white"/>
<path d="M149.293 18.6044L149.421 16.7871C149.491 17.0273 149.625 17.0513 149.375 17.6197C149.497 17.4676 149.375 17.8278 149.293 18.6044Z" fill="white"/>
<path d="M149.358 19.6292C149.451 20.5578 149.503 21.7586 149.648 20.0935C149.59 23.2556 149.3 22.7913 149.358 19.6292Z" fill="white"/>
<path d="M150.403 27.8268L150.525 29.0676L150.386 30.1403C150.455 29.604 150.275 27.7547 150.403 27.8268Z" fill="white"/>
<path d="M149.637 6.19599C149.7 6.15597 149.695 6.36411 149.683 6.59627C149.683 6.83643 149.683 7.10862 149.712 7.21269C149.625 7.45286 149.555 7.70103 149.492 7.9492C149.428 8.20537 149.358 8.45354 149.318 8.71772C149.335 7.87715 149.689 6.3561 149.637 6.18799V6.19599Z" fill="white"/>
<path d="M149.706 7.22066C149.938 6.49216 150.258 5.83571 150.606 5.22729C150.2 6.09989 150.02 6.66028 149.898 6.95648C149.787 7.26069 149.729 7.30072 149.7 7.21266L149.706 7.22066Z" fill="white"/>
<path d="M149.944 15.6345L149.625 18.6366L149.95 15.0581L149.944 15.6345Z" fill="white"/>
<path d="M154.957 0.73597C154.609 0.696123 154.254 0.73597 153.894 0.767848C154.527 0.672215 155.155 0.656277 155.759 0.783786C155.497 0.751909 155.224 0.720031 154.957 0.73597Z" fill="white"/>
<path d="M158.588 0.670971C158.03 0.439305 159.349 0.279535 158.762 0.135742C159.674 0.175685 160.453 0.375397 161.155 0.559132C160.412 0.455282 159.616 0.487235 158.588 0.670971Z" fill="white"/>
<path d="M162.335 0.814991C161.963 0.759205 161.58 0.663573 161.156 0.552002C161.551 0.607787 161.94 0.679512 162.335 0.814991Z" fill="white"/>
<path d="M152.663 2.51099C152.75 2.3672 152.884 1.95979 153.79 1.42456C153.598 1.64824 153.412 1.83996 153.25 2.0876C153.07 2.21542 152.855 2.33525 152.663 2.51898V2.51099Z" fill="white"/>
<path d="M153.238 2.10372L153.255 2.07975C153.912 1.65636 154.411 1.51257 154.615 1.44067C154.44 1.51257 153.993 1.61642 153.238 2.10372Z" fill="white"/>
<path d="M152.523 2.63479C152.576 2.58624 152.616 2.55388 152.669 2.51343C152.628 2.58624 152.599 2.6267 152.523 2.63479Z" fill="white"/>
<path d="M149.719 10.8471C149.777 10.3748 149.881 9.29406 150.038 8.85376C150.188 8.38143 150.246 8.41345 150.24 9.63029C150.142 10.0546 150.072 9.91849 149.997 9.90248C149.956 9.89447 149.916 9.91048 149.869 10.0546C149.817 10.2147 149.771 10.4468 149.719 10.8471Z" fill="white"/>
<path d="M152.041 3.62622C151.617 4.15458 151.228 4.73098 150.926 5.38743C150.891 5.29937 151.002 4.86707 150.659 5.3474C151.065 4.67494 151.53 4.09854 152.041 3.62622Z" fill="white"/>
<path d="M152.767 3.05786C152.512 3.20964 152.279 3.42533 152.041 3.62504C152.21 3.44131 152.366 3.24958 152.541 3.08982L152.767 3.05786Z" fill="white"/>
<path d="M159.918 1.1364C160.528 1.28818 161.19 1.29617 161.945 1.32014C161.138 1.38405 160.307 1.42399 159.517 1.42399C159.407 1.32014 159.058 1.12043 159.924 1.1364H159.918Z" fill="white"/>
<path d="M156.926 1.23242C156.967 1.23242 157.019 1.2486 157.06 1.2486C156.979 1.28097 156.909 1.28906 156.926 1.23242Z" fill="white"/>
<path d="M169.346 1.32056C169.305 1.34461 169.27 1.36065 169.23 1.3847C169.218 1.36065 169.212 1.34461 169.201 1.32857H169.346V1.32056Z" fill="white"/>
<path d="M159.378 1.48848C158.774 1.55239 158.408 1.4725 158.065 1.36865C158.518 1.40061 159 1.42457 159.512 1.42457C159.564 1.4725 159.57 1.50446 159.378 1.48848Z" fill="white"/>
<path d="M164.397 0.976163C164.083 1.04789 163.723 1.11164 163.346 1.15946C163.654 1.04789 164.281 0.880531 164.397 0.976163Z" fill="white"/>
<path d="M157.263 1.16152C157.234 1.16152 157.205 1.15336 157.17 1.14521C157.368 1.07183 157.345 1.10444 157.263 1.16152Z" fill="white"/>
<path d="M157.263 1.1604C157.577 1.20876 157.821 1.29743 158.065 1.36998C157.699 1.3458 157.356 1.30549 157.06 1.25713C157.136 1.23295 157.211 1.19264 157.263 1.1604Z" fill="white"/>
<path d="M171.589 3.52199C171.484 3.20177 169.892 2.91357 168.516 3.2498C167.162 3.00964 168.045 1.96892 169.23 1.38452C169.271 1.52061 169.271 1.6487 170.665 1.84083C170.177 2.01696 167.575 2.24911 168.754 2.52931C170.595 2.68942 170.264 2.41723 171.159 2.24911C170.398 2.64138 173.505 2.82551 173.105 3.40191L171.49 3.19376C171.461 3.28182 172.047 3.42592 171.594 3.51398L171.589 3.52199Z" fill="white"/>
<path d="M166.575 1.41566L166 1.37571C166.651 1.31979 167.121 1.19198 167.981 0.944336C168.934 1.09612 169.131 1.21594 169.195 1.31979L166.378 1.36773L166.575 1.41566Z" fill="white"/>
<path d="M163.433 1.37616C163.88 1.71966 165.257 1.86346 164.414 2.23891C162.736 2.21495 163.235 1.95133 162.23 1.79955C164.943 1.88742 161.452 1.60782 163.409 1.4161C162.875 1.36018 162.399 1.33622 161.946 1.32823C162.433 1.28828 162.904 1.23236 163.345 1.16846C163.322 1.17645 163.305 1.18443 163.282 1.19242H163.27C163.154 1.23236 163.113 1.26432 163.247 1.24035C163.258 1.24035 163.287 1.24035 163.305 1.24035C163.322 1.28828 163.375 1.32823 163.427 1.36817C164.211 1.29627 163.549 1.2803 163.305 1.24035C163.293 1.22438 163.276 1.2084 163.27 1.19242H163.282L166 1.37616C165.425 1.42409 164.705 1.4161 163.427 1.37616H163.433Z" fill="white"/>
<path d="M151.106 7.71735C151.117 7.59708 151.094 7.58906 151.082 7.57303C151.181 7.35654 151.216 7.28437 151.106 7.71735Z" fill="white"/>
<path d="M157.252 2.2251L159.512 2.39286L158.362 2.68843L158.42 2.51268C157.136 2.58458 157.409 2.3609 157.252 2.2251Z" fill="white"/>
<path d="M169.602 1.15165L169.306 0.78418L170.613 1.30343L169.602 1.15165Z" fill="white"/>
<path d="M172.541 1.19192L172.437 0.880371L173.209 1.07209L172.541 1.19192Z" fill="white"/>
<path d="M309.859 43.3894C309.825 43.6051 309.755 43.8128 309.697 44.0125C309.778 43.7249 309.83 43.5332 309.859 43.3894Z" fill="white"/>
<path d="M309.894 37.0573L310.004 36.897C309.94 37.2017 309.894 37.33 309.894 37.0573Z" fill="white"/>
<path d="M244.746 1.23131C245.716 0.935733 246.797 0.48039 246.681 0.831883L246.384 1.17539C245.711 1.11148 245.188 1.15142 244.746 1.22332V1.23131Z" fill="white"/>
<path d="M294.192 3.3054C294.099 3.33735 294.007 3.37729 293.908 3.40925C293.675 3.28942 293.455 3.17758 293.251 3.07373C293.536 3.14563 293.855 3.21752 294.187 3.29741L294.192 3.3054Z" fill="white"/>
<path d="M294.878 4.73779L296.156 4.51465C295.871 4.59434 295.459 4.66607 294.878 4.73779Z" fill="white"/>
<path d="M287.14 47.4074L286.362 47.0559C287.576 47.0559 287.041 47.2396 287.14 47.4074Z" fill="white"/>
<path d="M202.655 1.32001C203.491 1.1842 204.153 1.12828 204.74 1.1123C203.735 1.31202 202.922 1.60759 202.655 1.32001Z" fill="white"/>
<path d="M312.584 41.0758C312.537 41.635 312.485 41.8747 312.433 41.8587C312.474 41.2835 312.526 40.956 312.584 41.0758Z" fill="white"/>
<path d="M207.151 1.11186C207.005 1.13577 206.86 1.16765 206.709 1.19155C206.099 1.13577 205.484 1.08795 204.74 1.11186C205.484 0.960443 206.337 0.87278 207.151 1.11186Z" fill="white"/>
<path d="M191.821 47.6964C191.751 47.7124 191.67 47.7204 191.605 47.7365C191.582 47.6883 191.681 47.6883 191.821 47.6964Z" fill="white"/>
<path d="M164.048 51.1948C164.321 51.2187 164.769 51.2187 165.187 51.2187C164.984 51.2426 164.641 51.2426 164.048 51.1948Z" fill="white"/>
<path d="M184.374 1.04021C184.275 1.00025 183.752 1.01623 184.374 1.04021V1.04021Z" fill="white"/>
<path d="M181.341 2.41724C181.475 2.45769 181.574 2.50623 181.591 2.58714C181.539 2.50623 181.451 2.4496 181.341 2.41724Z" fill="white"/>
<path d="M213.361 3.27393C213.361 3.27393 213.396 3.27393 213.413 3.27393C213.227 3.34731 213.262 3.331 213.361 3.27393Z" fill="white"/>
<path d="M183.433 1.20123C183.665 1.16092 183.938 1.12062 184.228 1.09644C184.101 1.12062 183.857 1.16092 183.433 1.20123Z" fill="white"/>
<path d="M183.561 1.04031C183.346 1.05629 183.177 1.06428 183.015 1.07227C182.933 1.01635 183.003 0.976407 183.561 1.04031Z" fill="white"/>
<path d="M185.239 1.06459C184.885 1.06459 184.548 1.07271 184.228 1.1052C184.35 1.08083 184.403 1.06459 184.368 1.04834C184.548 1.04834 184.809 1.05646 185.239 1.06459Z" fill="white"/>
<path d="M242.894 48.6255C242.853 48.6336 242.807 48.6497 242.76 48.6578C242.134 48.5127 242.407 48.5369 242.894 48.6255Z" fill="white"/>
<path d="M260.971 4.83474C260.971 4.83474 260.924 4.8268 260.901 4.81886C260.93 4.81886 260.965 4.81092 260.994 4.80298L260.971 4.83474Z" fill="white"/>
<path d="M263.213 5.09919C262.26 4.66689 261.714 4.72293 260.994 4.81099L261.738 3.8103L263.213 5.09919Z" fill="white"/>
<path d="M301.901 47.6722L303.475 47.36C301.576 46.8477 300.205 47.0238 301.68 46.5835C301.791 47.1278 303.318 47.1519 304.846 47.1839C305.229 47.1919 305.607 47.1999 305.967 47.2159C306.107 47.2159 306.24 47.2159 306.374 47.2239C306.484 47.2399 306.589 47.2239 306.687 47.2239C307.077 47.2239 307.373 47.2079 307.483 47.4401C307.698 47.2479 307.896 47.0238 308.07 46.7836C307.896 46.9437 307.849 46.9117 307.663 47.0398C308.192 46.3833 308.419 46.2873 308.79 46.1592C308.959 46.0791 309.162 45.9911 309.371 45.7349C309.58 45.4867 309.813 45.0864 309.952 44.406C310.045 43.9337 310.045 43.5174 310.016 43.3012C309.993 43.0931 309.94 43.0851 309.859 43.3813C309.9 43.2212 309.929 43.053 309.946 42.8769L309.981 42.6208C309.993 42.5247 309.999 42.3966 310.004 42.2845L310.103 40.8916C310.086 40.083 309.952 40.2831 309.964 41.0837L310.028 36.8408L310.004 36.8728C310.126 36.2644 310.318 34.8955 310.399 34.231C310.289 33.1503 310.318 34.7754 310.219 34.4952L310.411 32.1496C310.208 31.1969 310.01 33.1423 310.039 34.7594C309.249 32.5659 310.237 32.814 309.778 28.0828L309.679 30.3003C309.232 28.8673 309.394 27.1381 309.116 24.6324C309.261 25.2248 309.818 29.6519 310.016 27.1061C309.958 26.3856 309.929 25.441 310.086 24.064C309.807 24.048 309.877 22.7111 309.888 21.0299L309.516 21.142C309.621 19.3248 309.813 19.4689 309.981 18.4041C309.946 16.3788 309.656 15.9625 309.412 15.4821C309.354 12.2399 309.871 17.7237 309.946 13.881C309.871 12.5441 309.882 11.3593 309.923 10.2065C309.952 9.31791 309.9 8.32523 309.487 7.18045C309.116 6.63607 309.092 6.76416 309.139 6.94028C309.174 7.13241 309.249 7.3966 309.104 7.24449C309.017 6.83621 308.866 6.45195 308.692 6.05968C308.5 5.87555 308.506 6.04367 308.506 6.12372C308.238 5.73145 308.256 5.64339 308.244 5.47528C308.227 5.32317 308.169 5.075 307.553 4.68273C307.507 4.49861 307.286 4.40254 306.978 4.3465C306.821 4.3465 306.647 4.31448 306.455 4.35451C306.362 4.37052 306.263 4.38653 306.159 4.40254C306.037 4.42656 305.915 4.45057 305.787 4.47459C304.765 4.67473 303.551 4.85885 302.557 4.53863C302.069 4.68273 302.795 4.85085 302.644 5.05099C299.914 4.6347 300.303 4.74678 298.061 4.17839L296.15 4.51462C297.556 4.13035 295.761 3.67404 294.192 3.29778C294.692 3.11366 295.116 2.95355 295.401 2.87349L292.897 2.60131C292.595 2.68136 292.845 2.85748 293.257 3.07363C293.089 3.0256 292.926 2.98557 292.798 2.95355C291.904 3.14568 292.368 3.44188 293.007 3.72207C293.309 3.618 293.617 3.50593 293.908 3.40986C294.529 3.72207 295.104 4.06631 294.977 4.36251C294.814 4.30648 294.5 4.25044 294.158 4.22642C294.32 4.31448 294.425 4.38653 294.349 4.43456C294.262 4.4906 294.001 4.37853 293.594 4.24243L293.025 4.81082L292.885 4.58667L289.609 4.94691C287.262 4.37052 285.223 3.52994 281.5 3.28978C282.423 3.70606 281.697 3.97024 281.75 4.46659C282.766 3.93822 284.631 4.69074 286.559 4.58667C285.554 4.64271 285.775 4.87487 286.031 4.96293L282.592 4.4826C282.667 4.89088 281.86 4.7868 280.96 4.95492C281.639 4.15437 278.392 4.41855 276.992 4.17839C276.905 4.45057 277.242 4.72276 278.95 4.65872C277.068 5.25913 276.516 3.71407 274.663 4.22642C275.081 4.22642 275.307 4.1944 275.47 4.33049C274.494 4.09033 272.112 4.28246 272.676 4.51462H273.094C270.323 4.61869 264.665 4.52262 264.253 3.84216C264.224 3.93022 264.613 4.66672 264.782 4.80282L259.838 2.51325C260.274 3.09765 258.601 4.4906 260.901 4.81883C260.245 4.89888 259.426 5.00295 258.037 4.79481C258.485 4.71476 259.159 3.94623 258.543 3.8982C256.858 4.54664 257.369 4.25044 255.29 4.80282C255.964 4.67473 255.214 3.7621 254.151 3.78612C254.32 3.92221 254.064 4.69074 254.453 4.7868L251.804 3.89019C252.467 4.0503 251.921 4.65071 251.328 4.90689C251.601 4.73077 249.033 4.9229 248.331 4.83484L249.452 4.6267C246.46 4.76279 246.495 3.36183 243.527 3.40986C243.887 3.59399 244.415 4.55465 242.905 4.66672C242.214 4.2024 239.838 2.4492 237.212 2.09696L236.707 2.36114L234.691 2.05693C235.946 2.75341 239.472 4.21041 241.395 4.7788C240.274 4.98694 241.081 5.09101 239.402 5.067C238.81 5.31517 240.314 5.44325 240.808 5.45927L236.904 5.61938C237.079 5.08301 233.919 5.08301 234.064 4.6347L238.304 5.19509C238.479 4.65872 235.853 3.66604 233.082 3.7621C232.379 3.97825 233.611 4.72276 233.553 4.89888C233.192 4.71476 230.927 4.54664 230.671 4.67473L231.845 4.96293C230.305 5.16306 229.329 4.25044 227.476 4.76279C226.837 4.79481 225.565 5.45927 225.455 5.13905C226.495 4.52262 226.704 2.62532 226.007 2.161C225.78 2.20103 222.649 2.74541 221.923 3.04961C220.872 3.52994 223.503 4.1944 222.608 4.61068C222.568 4.46659 221.987 4.28246 221.749 4.22642C221.075 4.35451 222.028 4.68273 220.57 4.61869C220.326 4.07432 217.601 4.66672 219.878 4.15437C218.449 4.00227 218.362 4.26645 216.689 4.24243C217.224 3.89019 215.185 3.04161 213.756 2.8895C213.843 3.0256 213.517 3.20972 213.361 3.28978C210.439 3.33781 208.864 3.58598 206.14 3.59399C205.89 3.73008 204.572 3.88218 205.135 4.12235C204.74 4.02628 204.38 3.84216 203.543 3.82615C201.917 4.29847 205.42 3.8982 204.177 4.46659C204.072 4.14637 202.004 4.02628 200.802 3.83415C201.168 3.34582 203.567 3.73809 204.769 3.93822C204.769 3.26576 202.684 2.55327 199.837 2.24106C197.572 2.07294 198.856 2.68136 198.461 2.5853C194.208 2.70538 194.836 1.40849 191.304 1.89682C189.904 2.32912 191.24 2.75341 190.932 3.06562C192.779 3.22573 193.767 2.79344 195.016 2.80945L193.477 3.00959C194.063 3.15369 195.295 3.25776 195.969 3.13767C194.795 3.52194 188.783 3.20972 185.495 3.56997C184.914 3.42587 183.903 3.27377 184.38 3.10565L185.42 3.1697C186.372 2.82546 183.468 2.68937 184.781 2.52926C183.386 2.28909 181.824 1.90483 179.866 2.09696L179.5 2.5853C179.541 2.4412 180.784 2.28909 181.336 2.4412C180.517 2.22505 178.327 3.10565 177.432 2.46521L178.809 2.12898C177.409 1.88081 175.678 1.36046 173.941 1.51256C174.731 1.02422 174.342 1.5686 175.579 1.00021C174.51 1.70469 180.029 0.968186 178.304 1.7127C179.57 1.05625 180.499 1.4325 182.155 0.87212C182.103 1.03223 181.568 1.18433 183.026 1.10428C183.09 1.15231 183.247 1.20835 183.346 1.24838C183.392 1.24838 183.404 1.24838 183.444 1.23237C183.415 1.23237 183.392 1.24838 183.363 1.24838C183.427 1.27239 183.433 1.2804 183.334 1.24838C182.986 1.32043 182.707 1.40048 182.591 1.49655C183.317 1.8648 185.634 1.8568 186.419 2.04893C187.284 1.96887 186.058 1.8648 186.529 1.68868L187.702 1.97688C187.819 1.61663 190.003 1.37647 187.964 1.16832L189.799 1.15231C190.88 0.952175 192.367 0.87212 193.285 1.02422C194.15 0.94417 195.475 1.4245 194.72 1.14431L197.601 1.36846L197.63 1.2804C200.471 1.23237 203.48 1.87281 206.727 1.22436C207.685 1.31242 208.673 1.4245 210.27 1.32043L210.584 1.00821C211.81 1.12029 214.273 0.695999 214.801 1.02422C216.126 0.183648 220.761 0.840098 222.922 0.695999L223.004 1.10428C224.491 1.08026 225.914 1.20035 227.761 1.36046L227.645 1.7207C229.237 2.01691 231.734 1.46453 234.25 1.50455C234.081 1.36846 233.442 1.40048 232.989 1.48854C235.998 0.679989 239.333 2.08095 242.057 1.48854C242.737 1.61663 243.23 1.5766 243.707 1.48854C243.643 1.48854 243.585 1.48854 243.538 1.47253C243.608 1.47253 243.712 1.47253 243.817 1.47253C244.119 1.40849 244.427 1.35245 244.758 1.2804C244.473 1.36846 244.2 1.44051 243.962 1.47253C244.485 1.47253 245.281 1.52857 246.059 1.61663L246.39 1.23237C246.454 1.23237 246.507 1.23237 246.57 1.24037C247.337 1.09627 247.186 1.4245 246.78 1.7127C247.175 1.77674 247.529 1.84879 247.808 1.94486C248.429 1.32043 249.853 2.153 250.701 1.48854C251.223 1.80876 254.616 1.72871 255.034 2.40917C255.063 2.32111 255.29 2.28109 254.871 2.27308C255.743 2.19303 256.608 2.12098 257.387 2.31311L257.753 1.82477L259.646 2.48122C260.797 2.18502 261.279 2.0089 260.134 1.63264C262.899 2.20904 262.377 1.84879 264.723 2.42519L264.607 2.10497C265.45 2.12098 266.791 2.54527 267.297 2.28109C269.173 1.68067 276.591 2.20103 281.413 1.64065C280.477 2.57729 283.655 1.22436 283.847 1.94486C284.125 1.7207 284.799 1.60062 284.021 1.40849C286.484 1.62464 287.715 1.05625 289.417 1.66466C289.696 1.44051 288.889 1.34444 289.139 1.20835C289.336 1.25638 289.923 1.40048 290.178 1.27239C290.428 1.14431 289.818 1.08827 289.429 0.992203C291.944 1.03223 292.194 1.7127 292.38 2.34513C293.652 2.04092 294.291 2.08895 295.209 2.50524C295.65 2.2971 296.394 2.08095 294.831 2.00089C295.709 1.96887 300.199 1.69669 300.286 2.20904C300.559 2.08095 301.512 2.16901 301.744 2.23305C303.713 2.20103 303.888 2.153 305.828 2.20103L305.293 2.28109C305.688 2.60131 306.048 2.60131 306.618 2.62532C307.158 2.65734 307.855 2.72139 308.628 3.27377L308.604 3.18571C309.545 3.68205 310.022 4.28246 310.33 4.66672C310.62 5.08301 310.748 5.33118 310.858 5.58735C310.98 5.83552 311.079 6.09971 311.294 6.57203C311.48 7.06837 311.811 7.79687 312.055 9.17381L311.747 8.94165C311.608 9.10176 311.619 9.45401 311.631 9.95035C311.66 10.4707 311.695 11.0471 311.77 11.7436C311.904 13.1205 312.084 14.7857 311.974 16.2026L311.817 15.1859C311.613 16.731 312.63 19.5009 312.706 21.046C312.758 21.3822 312.787 20.5096 312.828 20.0453C313.182 24.1041 312.462 20.5736 312.38 23.5917C312.578 24.1521 312.88 22.8712 312.915 24.9046C313.072 25.9213 312.276 30.8046 312.653 33.5826C312.502 32.9741 312.351 32.3657 312.235 33.7667C312.183 35.9202 312.81 39.5867 312.328 41.524C312.369 41.7962 312.409 41.9003 312.444 41.9083C312.433 42.1164 312.415 42.3486 312.398 42.6127C312.374 42.917 312.351 43.2692 312.311 43.6134C312.218 44.3179 312.067 45.0704 311.828 45.7429C311.375 47.1118 310.626 48.0725 310.254 48.3367C310.202 48.857 309.72 49.6576 308.918 50.226C308.134 50.8024 307.013 51.1066 306.048 50.9785C304.335 50.8024 302.761 50.6182 302.778 51.2267L299.107 51.1626L299.206 51.2907C296.859 51.3708 296.028 51.0746 295.203 50.7864C294.663 50.8664 295.058 50.9865 295.104 51.0505C291.677 51.2987 291.334 51.2427 288.459 50.6343L288.163 51.0345C287.384 50.8024 283.208 51.659 279.844 51.1946C279.879 51.2427 279.949 51.3147 280.216 51.3708C276.434 50.9064 271.16 52.4755 269.771 51.0265L267.274 50.6743C270.503 50.5622 266.791 50.0498 268.122 49.8097C266.85 49.7216 264.84 50.242 266.396 50.322L266.64 50.25C267.216 51.0025 262.626 50.5142 262.714 51.0265C256.359 50.9865 250.166 51.4028 244.212 51.4348L244.897 50.8504L242.824 50.8824C242.278 51.0185 242.092 51.3387 243.573 51.3147C242.795 51.6429 241.087 51.0345 241.046 50.9064C238.147 51.1466 242.179 51.5869 241.29 51.6029L240.082 51.5629L240.355 51.4908C239.373 51.2507 239.292 50.9945 237.508 51.0265C236.382 51.1466 236.933 51.3868 236.486 51.4108C236.486 51.4508 236.341 51.4748 235.806 51.4268L233.192 51.4748L234.238 51.0105C233.076 50.7864 231.781 51.0345 232.983 50.5142C231.212 51.3227 223.224 50.8024 222.138 51.0585C220.511 50.7223 218.908 50.7303 216.927 50.7703C217.421 50.6743 217.717 50.1539 216.004 50.218C216.631 51.2907 212.867 50.6823 211.484 51.4588C212.722 50.9465 206.616 51.3307 208.557 50.6022C207.128 50.6903 208.469 51.0025 207.383 51.2587C203.979 50.8424 199.89 51.5309 195.684 51.3868C195.62 51.2427 196.323 51.0345 195.423 50.8184L193.204 51.5229C192.373 51.4508 192.437 50.7063 190.921 51.2026C191.136 51.0826 191.455 50.9064 190.897 50.8584C182.66 51.5469 174.069 50.298 165.698 51.5869C166.831 51.3147 166.076 51.2907 165.21 51.2747C165.774 51.2106 165.198 50.9305 165.309 50.7383L161.806 51.2667C161.167 50.7383 158.053 51.2347 157.687 50.7223L158.797 50.8104C157.322 50.21 160.859 49.4815 160.644 48.7129C162.294 49.3934 165.001 47.7042 167.708 48.6809C168.306 48.5208 167.197 48.4327 167.516 48.2566C168.202 48.5848 169.032 48.6569 170.572 48.5048L170.398 48.4247C174.714 48.5048 176.567 48.1846 181.417 47.9684L181.057 48.3447C182.097 48.2966 182.318 48.1766 182.805 48.0805C184.002 48.6569 179.878 48.1125 180.97 48.745C182.352 47.9764 188.318 48.7369 189.253 47.8563C190.857 47.8563 188.783 48.2966 190.386 48.2886L190.81 48.0485L191.217 48.3527C192.268 48.3046 192.797 48.0084 192.838 47.8083C192.582 47.8323 192.111 47.7523 191.838 47.7363C193.204 47.4561 195.684 47.8323 196.149 47.7363L194.609 47.8804C198.983 48.1045 204.328 47.7923 208.557 48.2726L208.237 48.4487C211.467 48.777 210.822 48.2486 214.366 48.4087L214.238 48.3687C214.946 48.5448 215.893 48.6409 216.863 48.6169C215.969 48.4087 218.548 48.2086 217.375 47.9764C220.877 48.3287 219.106 48.2566 221.418 48.9211L221.952 48.6249C222.742 48.8971 222.806 49.0331 224.578 49.1132C223.125 48.857 225.71 48.6649 224.084 48.3207C227.802 47.6722 229.602 48.9771 231.305 48.0245C233.012 48.849 228.092 48.4808 229.045 48.6569C228.243 48.9291 230.451 49.2733 231.618 49.1853C232.803 49.1692 233.634 48.1365 236.62 48.1525C236.323 48.1525 236.3 48.0965 236.004 48.0965C237.119 47.8884 238.194 48.3767 239.565 48.0405C240.332 48.5368 241.342 48.0084 241.563 48.6489L238.827 48.5048C240.378 48.6729 241.836 49.4094 244.392 49.0492C244.195 48.9211 243.434 48.753 242.911 48.6569C243.66 48.4728 244.351 48.777 245.124 48.5928C244.903 47.9604 241.796 48.4568 240.134 47.9684C240.936 47.7042 243.283 48.4247 242.446 47.7443C243.649 48.6169 245.385 47.6322 247.407 48.3046L247.273 47.9284C247.593 47.9844 248.255 48.1686 248.848 48.1606L247.779 47.6642C249.417 48.0805 250.933 47.296 252.507 47.5281C249.219 47.5201 251.769 47.9844 250.381 48.2646C254.436 48.777 252.711 47.2719 257.253 47.4561C256.637 47.4 254.947 47.6882 255.905 47.8563C256.771 47.7763 257.91 47.6322 258.438 47.4321C261.447 47.5121 257.973 47.8243 259.257 48.0565C260.28 47.5922 260.733 48.2486 262.051 48.3927L262.063 48.0084C265.49 47.7603 262.969 48.817 266.06 48.5128L264.753 47.9764L266.362 48.1125L266.031 47.6722C267.779 48.0004 268.325 47.9124 270.039 47.7923C269.638 48.0645 270.265 48.4968 271.781 48.5048C272.815 48.2726 271.2 48.1365 273.356 48.1926C272.868 47.9524 272.339 47.6482 271.404 48.0004C271.305 47.8724 270.927 47.7603 270.829 47.6322C271.944 47.368 273.629 47.5681 274.407 47.5761C274.105 47.5922 273.751 47.6082 273.565 47.6642L276.684 48.2006C277.178 48.0565 276.783 47.9364 276.4 47.8243C277.033 47.8643 277.468 48.0405 278.398 48.0805C278.16 47.7683 278.218 47.4401 276.899 47.296L279.873 47.6482C280.071 47.5121 281.401 47.2719 281.012 47.1599C282.662 46.9757 285.055 47.7683 287.239 47.5281C287.355 47.5922 287.582 47.6482 288.046 47.6882C290.097 47.6162 291.915 47.2319 294.349 47.6642L295.732 47.1038C297.637 47.2319 293.861 47.8163 297.033 48.0245C299.281 48.2006 297.869 47.5441 298.659 47.384C299.775 47.6642 301.721 48.2486 303.783 47.7843C303.098 47.6802 302.563 47.7603 301.924 47.7202L301.901 47.6722ZM310.016 27.1782C309.958 27.8026 309.778 29.0595 309.94 29.5158C310.26 28.8033 310.109 28.2509 310.016 27.1782ZM290.73 4.0503C291.067 4.17839 291.59 4.11434 292.182 3.97024C291.753 3.93822 291.27 3.95423 290.73 4.0503ZM191.205 1.36046C191.205 1.36046 191.24 1.37647 191.252 1.37647C192.268 1.22436 191.908 1.28841 191.205 1.36046ZM189.097 1.52857C188.887 1.47253 188.899 1.4245 188.986 1.36846C189.131 1.46453 189.608 1.47253 190.148 1.44852C189.997 1.55259 189.724 1.61663 189.097 1.53658V1.52857ZM236.236 51.2267L236.649 51.1226C235.719 51.0105 235.981 51.1146 236.236 51.2267Z" fill="white"/>
<path d="M294.785 4.58058C294.913 4.51597 294.947 4.44329 294.982 4.37061C295.162 4.43521 295.162 4.50789 294.785 4.58058Z" fill="white"/>
<path d="M287.286 47.4723H287.216C287.175 47.4563 287.158 47.4323 287.146 47.4082L287.291 47.4723H287.286Z" fill="white"/>
<path d="M221.772 4.8043C222.207 4.74788 222.446 4.67533 222.608 4.60278C222.632 4.69951 222.434 4.78012 221.772 4.8043Z" fill="white"/>
<path d="M177.92 0.872314L179.274 0.975916C178.617 0.959977 178.385 1.03967 178.06 1.10343C178.089 1.01576 178.35 0.880284 177.926 0.880284L177.92 0.872314Z" fill="white"/>
<path d="M166.192 3.25675C165.995 3.20893 165.774 3.25675 165.576 3.20096L165.629 3.02563C166.471 3.0336 167.058 3.18502 166.186 3.25675H166.192Z" fill="white"/>
<path d="M176.665 2.15276C176.561 2.48029 175.713 2.36845 174.766 2.30454H174.934C174.655 1.8492 175.666 2.00098 176.665 2.15276Z" fill="white"/>
<path d="M174.545 2.298C174.255 2.28188 173.959 2.27382 173.668 2.28994C173.558 2.10455 174.023 2.24964 174.545 2.298Z" fill="white"/>
<path d="M186.424 1.3117C185.977 1.39159 186.146 0.8963 185.89 1.0321C185.39 0.616703 188.882 1.52739 186.424 1.3117Z" fill="white"/>
<path d="M175.899 3.22504L176.241 2.81763L176.77 3.14515L175.899 3.22504Z" fill="white"/>
<path d="M183.375 2.93018L181.864 3.04303C181.888 2.97854 181.696 2.93824 181.458 2.90599C182.387 2.88987 183.41 2.80926 183.375 2.93018Z" fill="white"/>
<path d="M181.458 2.90546C180.97 2.90546 180.511 2.90546 180.238 2.84155C180.499 2.84155 181.063 2.85753 181.458 2.90546Z" fill="white"/>
<path d="M177.966 3.34674L178.414 3.25807L179.483 3.23389L177.966 3.34674Z" fill="white"/>
<path d="M199.634 2.84961L201.284 2.96145C201.452 3.09725 201.005 3.18513 200.389 3.12921C199.994 3.03334 199.384 2.97743 199.634 2.84961Z" fill="white"/>
<path d="M194.638 3.94565C195.085 3.86577 195.115 3.76991 195.364 3.64209L195.417 4.13738L194.638 3.94565Z" fill="white"/>
<path d="M199.454 4.06641C199.617 4.20221 201.847 4.45784 199.756 4.43388C199.588 4.29807 197.938 4.18623 199.454 4.06641Z" fill="white"/>
<path d="M224.328 3.43226H223.905L223.969 2.61743L224.328 3.43226Z" fill="white"/>
<path d="M246.245 5.38604C244.288 5.57776 245.781 4.88277 244.015 5.13041C243.556 4.93869 245.461 4.9307 244.991 4.76294C246.17 4.96265 246.791 4.85081 246.251 5.38604H246.245Z" fill="white"/>
<path d="M244.99 4.76373C244.799 4.73149 244.601 4.69119 244.386 4.64282C244.729 4.69119 244.892 4.73149 244.99 4.76373Z" fill="white"/>
<path d="M159.442 51.6349L158.187 51.8026L158.995 51.531L159.442 51.6349Z" fill="white"/>
<path d="M157.025 51.0266L156.729 51.5459L155.974 51.0745C156.259 51.0985 156.81 51.1385 157.025 51.0266Z" fill="white"/>
<path d="M309.255 22.359L309.348 22.2229C309.447 22.4951 309.452 22.8954 309.47 23.7119L309.261 22.359H309.255Z" fill="white"/>
<path d="M309.18 44.6779L309.255 44.4382C309.302 44.6459 309.36 44.8776 309.389 45.1093C309.331 44.9655 309.249 44.8137 309.174 44.6779H309.18Z" fill="white"/>
<path d="M297.527 46.6638C298.113 46.6478 298.799 46.7514 299.385 46.7275C298.113 46.6399 297.37 47.2455 297.527 46.6638Z" fill="white"/>
<path d="M6.8327 4.49292H155.558V49.2354H6.8327C3.98434 49.2354 1.67297 46.1817 1.67297 42.4184V11.3099C1.67297 7.5467 3.98434 4.49292 6.8327 4.49292Z" fill="white"/>
<path d="M157.299 1.98588L158.064 1.71655L156.704 2.1244L157.299 1.98588Z" fill="white"/>
<path d="M153.885 2.03193C154.451 1.80877 153.109 1.65487 153.71 1.51636C152.782 1.55483 151.988 1.74721 151.276 1.9242C152.035 1.82416 152.84 1.85495 153.885 2.03193Z" fill="white"/>
<path d="M150.079 2.17081C150.459 2.11708 150.85 2.02496 151.276 1.91748C150.873 1.97122 150.476 2.04031 150.079 2.17081Z" fill="white"/>
<path d="M159.307 2.60311C159.202 2.53385 159.004 2.34917 158.245 2.27222L158.776 2.60311C158.939 2.60311 159.12 2.60311 159.307 2.60311Z" fill="white"/>
<path d="M158.793 2.61081H158.776C158.198 2.58813 157.801 2.58813 157.632 2.58057C157.778 2.58057 158.128 2.59569 158.793 2.61081Z" fill="white"/>
<path d="M159.441 2.61133C159.395 2.61133 159.354 2.61133 159.307 2.61133C159.36 2.64157 159.389 2.65669 159.441 2.61133Z" fill="white"/>
<path d="M160.095 3.01967L161.946 3.09663C161.94 3.01198 161.56 2.88116 162.202 2.78882L160.983 2.90425L160.685 2.93503L160.475 2.96581L160.089 3.01967H160.095Z" fill="white"/>
<path d="M159.395 3.12777L160.095 3.02004L159.57 2.98926L159.395 3.12777Z" fill="white"/>
<path d="M152.531 2.48036C151.912 2.62657 151.235 2.63427 150.471 2.65735C151.288 2.71891 152.134 2.75739 152.94 2.75739C153.05 2.65735 153.406 2.46497 152.531 2.48036Z" fill="white"/>
<path d="M155.578 2.57275C155.537 2.57275 155.478 2.58811 155.438 2.58811C155.519 2.61881 155.589 2.62649 155.578 2.57275Z" fill="white"/>
<path d="M142.953 2.65771C142.993 2.68062 143.028 2.69589 143.075 2.71879C143.087 2.69589 143.093 2.68062 143.104 2.66535H142.953V2.65771Z" fill="white"/>
<path d="M153.079 2.81929C153.692 2.88085 154.06 2.80389 154.416 2.70386C153.955 2.73464 153.47 2.75772 152.945 2.75772C152.893 2.80389 152.887 2.83468 153.085 2.81929H153.079Z" fill="white"/>
<path d="M147.984 2.32626C148.305 2.39615 148.667 2.45827 149.052 2.50485C148.737 2.39615 148.101 2.23309 147.984 2.32626Z" fill="white"/>
<path d="M155.228 2.50437C155.257 2.50437 155.286 2.49654 155.321 2.48872C155.117 2.41829 155.146 2.44959 155.228 2.50437Z" fill="white"/>
<path d="M155.227 2.50342C154.912 2.55001 154.661 2.63542 154.41 2.7053C154.784 2.68201 155.134 2.64318 155.432 2.5966C155.356 2.5733 155.28 2.53448 155.222 2.50342H155.227Z" fill="white"/>
<path d="M140.67 4.77847C140.781 4.47001 142.398 4.19239 143.793 4.51628C145.171 4.28493 144.272 3.28243 143.069 2.71948C143.029 2.85058 143.029 2.97396 141.61 3.15904C142.106 3.3287 144.75 3.55233 143.554 3.82224C141.68 3.97647 142.019 3.71427 141.108 3.55233C141.884 3.9302 138.727 4.10756 139.13 4.6628L140.776 4.4623C140.805 4.54712 140.209 4.68593 140.665 4.77076L140.67 4.77847Z" fill="white"/>
<path d="M145.766 2.74918L146.35 2.71071C145.684 2.65684 145.211 2.53372 144.336 2.29517C143.367 2.44137 143.169 2.5568 143.099 2.65684L145.964 2.70301L145.766 2.74918Z" fill="white"/>
<path d="M148.964 2.71131C148.509 3.0422 147.114 3.18071 147.966 3.54239C149.676 3.5193 149.163 3.26536 150.184 3.11915C147.429 3.2038 150.978 2.93447 148.982 2.74978C149.525 2.69591 150.009 2.67283 150.47 2.66513C149.974 2.62666 149.496 2.57279 149.046 2.51123C149.069 2.51893 149.087 2.52662 149.11 2.53432H149.122C149.239 2.57279 149.28 2.60357 149.145 2.58049C149.134 2.58049 149.104 2.58049 149.087 2.58049C149.069 2.62666 149.017 2.66513 148.964 2.70361C148.165 2.63435 148.836 2.61896 149.087 2.58049C149.099 2.5651 149.116 2.54971 149.122 2.53432H149.11L146.349 2.71131C146.933 2.75748 147.663 2.74978 148.964 2.71131Z" fill="white"/>
<path d="M162.903 4.37917C162.833 4.34762 162.856 4.32396 162.868 4.30029C162.652 4.33973 162.564 4.37128 162.903 4.37917Z" fill="white"/>
<path d="M155.245 3.52905L152.945 3.69065L154.118 3.97537L154.06 3.80608C155.367 3.87534 155.087 3.65987 155.251 3.52905H155.245Z" fill="white"/>
<path d="M142.69 2.49509L142.993 2.14111L141.662 2.6413L142.69 2.49509Z" fill="white"/>
<path d="M139.702 2.53351L139.812 2.2334L139.019 2.41808L139.702 2.53351Z" fill="white"/>
<path d="M4.20031 45.9812C4.3404 46.1043 4.46881 46.2351 4.61473 46.3352C4.41044 46.189 4.29954 46.0505 4.20031 45.9812Z" fill="white"/>
<path d="M3.07391 41.3926L2.96301 41.231C3.02721 41.5311 3.07391 41.6542 3.07391 41.3926Z" fill="white"/>
<path d="M66.3097 2.57182C65.3233 2.2871 64.2259 1.84848 64.3427 2.18706L64.6462 2.51796C65.3349 2.4564 65.8602 2.49487 66.3097 2.56413V2.57182Z" fill="white"/>
<path d="M16.0489 4.5696C16.1423 4.60038 16.2416 4.63885 16.3349 4.66963C16.5743 4.55421 16.7961 4.44647 17.0003 4.34644C16.7143 4.41569 16.3875 4.48495 16.0489 4.5619V4.5696Z" fill="white"/>
<path d="M15.3545 5.94957L14.0587 5.73462C14.3506 5.81139 14.765 5.88048 15.3545 5.94957Z" fill="white"/>
<path d="M29.5614 47.0525L30.3493 46.7139C29.1178 46.7139 29.6606 46.8909 29.5614 47.0525Z" fill="white"/>
<path d="M109.093 2.65735C108.241 2.52653 107.57 2.47267 106.975 2.45728C107.996 2.64966 108.825 2.93438 109.093 2.65735Z" fill="white"/>
<path d="M0.949093 45.935C1.20591 46.5353 1.38102 46.7276 1.41604 46.6738C1.11252 46.112 0.966603 45.758 0.949093 45.935Z" fill="white"/>
<path d="M104.523 2.45652C104.675 2.47955 104.821 2.51025 104.973 2.53328C105.591 2.47955 106.216 2.43349 106.975 2.45652C106.222 2.31066 105.352 2.22621 104.523 2.45652Z" fill="white"/>
<path d="M126.452 47.3307C126.522 47.3461 126.61 47.3538 126.674 47.3692C126.697 47.323 126.598 47.323 126.452 47.3307Z" fill="white"/>
<path d="M154.679 50.7007C154.399 50.7251 153.949 50.7251 153.517 50.7251C153.727 50.7496 154.078 50.7496 154.679 50.7007Z" fill="white"/>
<path d="M127.678 2.3886C127.777 2.34864 128.314 2.36462 127.678 2.3886V2.3886Z" fill="white"/>
<path d="M130.759 3.71411C130.625 3.75294 130.52 3.79952 130.508 3.87717C130.561 3.79952 130.649 3.74517 130.759 3.71411Z" fill="white"/>
<path d="M98.2077 4.53931C98.2077 4.53931 98.1727 4.53931 98.1552 4.53931C98.3419 4.60864 98.3127 4.59323 98.2077 4.53931Z" fill="white"/>
<path d="M128.629 2.54259C128.39 2.50377 128.115 2.46494 127.818 2.44165C127.946 2.46494 128.197 2.50377 128.629 2.54259Z" fill="white"/>
<path d="M128.501 2.3875C128.717 2.40276 128.892 2.4104 129.055 2.41803C129.137 2.36459 129.067 2.32642 128.501 2.3875Z" fill="white"/>
<path d="M126.796 2.41116C127.158 2.41116 127.497 2.41898 127.824 2.45028C127.701 2.42681 127.648 2.41116 127.678 2.39551C127.491 2.39551 127.228 2.40333 126.796 2.41116Z" fill="white"/>
<path d="M74.5394 48.2259C74.5803 48.2337 74.627 48.2492 74.6737 48.257C75.3157 48.1172 75.0297 48.1405 74.5394 48.2259Z" fill="white"/>
<path d="M49.815 6.04245C49.8442 6.04245 49.8617 6.03489 49.885 6.02733C49.8558 6.02733 49.8208 6.01977 49.7916 6.01221L49.815 6.04245Z" fill="white"/>
<path d="M47.5385 6.29747C48.5074 5.88105 49.0619 5.93503 49.7915 6.01985L49.0385 5.05591L47.5385 6.29747Z" fill="white"/>
<path d="M14.5607 47.3076L12.9614 47.0068C14.8934 46.5133 16.2884 46.683 14.7883 46.2588C14.5607 47.3076 8.57212 46.3668 8.35032 47.4156L7.29386 47.1919C7.59737 47.1996 7.64407 47.1379 7.94175 47.1534C7.43394 47.03 7.06623 47.0145 6.80941 47.0531C6.61679 47.0762 6.46504 47.1919 6.29577 47.2613C5.96307 47.4233 5.44944 47.6392 4.57975 46.8526C4.01359 46.228 3.82681 45.611 4.20036 45.9812C3.79762 45.5802 3.44158 45.0635 3.17892 44.462C3.04468 43.8837 3.19643 43.9762 3.35403 44.516C3.1906 44.0533 3.05635 43.5675 3.00966 43.0585C2.98631 42.9351 2.99215 42.804 2.98047 42.6729C2.97464 42.5418 2.96296 42.4262 2.96296 42.2411L2.94545 41.2077L2.9688 41.2386C2.84623 40.6525 2.65361 39.3107 2.5719 38.6629C2.6828 37.6141 2.65361 39.1873 2.75284 38.9174L2.56022 36.6271C2.76451 35.694 2.96296 37.591 2.93378 39.1719C3.72758 37.0358 2.73533 37.2748 3.19643 32.6633L3.29566 34.8226C3.74509 33.4268 3.58166 31.7456 3.86183 29.3011C3.71591 29.8794 3.15558 34.1902 2.95713 31.7071C3.01549 31.0053 3.04468 30.0877 2.88708 28.7458C3.16725 28.7304 3.09721 27.4272 3.08554 25.7923L3.45909 25.9003C3.35403 24.1343 3.16141 24.2731 2.99215 23.2321C3.02717 21.2579 3.31901 20.8492 3.56415 20.3865C3.62252 17.2248 3.10305 22.5689 3.02717 18.8288C3.17309 16.2145 3.01549 14.3329 2.79953 11.2329C2.88708 10.5157 2.9688 10.6082 2.99215 10.7779C3.03884 10.9553 3.0797 11.2329 3.1439 10.9938C3.05635 10.5928 3.02717 10.1764 3.01549 9.72912C3.10305 9.44379 3.16141 9.57489 3.19643 9.64429C3.26648 9.13533 3.21978 9.07364 3.16141 8.92712C3.12056 8.78831 3.06219 8.54925 3.43574 7.77809C3.38321 7.42336 3.99608 6.76017 4.81323 6.3823C5.22764 6.20493 5.67707 6.08926 6.11483 6.01214C6.33663 5.97359 6.55843 5.95045 6.77439 5.9196C7.0137 5.88876 7.30553 5.8502 7.55068 5.76537C8.04681 5.90418 7.31137 6.06612 7.46313 6.25891C10.2356 5.85791 9.84454 5.96587 12.1209 5.41835L14.0645 5.74224C12.6404 5.37208 14.4614 4.93252 16.0549 4.57008C15.5471 4.39271 15.1152 4.23848 14.8292 4.16137L17.374 3.89917C17.6833 3.97629 17.4265 4.14594 17.0063 4.35416C17.1814 4.30789 17.3448 4.26933 17.4732 4.23848C18.3838 4.42356 17.911 4.70889 17.2573 4.97879C16.9479 4.87854 16.6386 4.77058 16.3409 4.67804C15.7105 4.97879 15.121 5.31039 15.2552 5.59572C15.4187 5.54174 15.7397 5.48776 16.0899 5.46462C15.9265 5.54945 15.8214 5.61885 15.8973 5.66512C15.9848 5.7191 16.2475 5.61114 16.6677 5.48005L17.2456 6.02757L17.3857 5.81164L20.7185 6.15866C23.0999 5.60343 25.1778 4.79372 28.96 4.56237C28.0203 4.96337 28.7557 5.21785 28.709 5.69597C27.6759 5.18701 25.779 5.91189 23.8178 5.81164C24.8393 5.86562 24.6175 6.08926 24.3548 6.17409L27.851 5.71139C27.7693 6.10468 28.5923 6.00443 29.5087 6.16638C28.8199 5.39522 32.1177 5.6497 33.5361 5.41835C33.6236 5.68055 33.2851 5.94274 31.5457 5.88105C33.4602 6.45941 34.0205 4.97108 35.9 5.46462C35.4739 5.46462 35.2463 5.43378 35.0828 5.56487C36.0751 5.33353 38.4915 5.5186 37.9253 5.74224H37.5051C40.3184 5.84249 46.0735 5.74995 46.4937 5.09447C46.5229 5.17929 46.126 5.88876 45.9568 6.01986L50.9764 3.81435C50.5328 4.37729 52.2313 5.7191 49.8966 6.03528C50.5678 6.11239 51.3967 6.21264 52.8092 6.01214C52.3539 5.93503 51.671 5.19472 52.2955 5.14845C54.0115 5.77308 53.4862 5.48776 55.5991 6.01986C54.9162 5.89647 55.675 5.01735 56.7607 5.04049C56.5914 5.17158 56.8482 5.91189 56.4572 6.00443L59.1537 5.14074C58.4825 5.29497 59.037 5.87334 59.6382 6.12011C59.358 5.95045 61.9671 6.13553 62.685 6.0507L61.541 5.8502C64.582 5.9813 64.5469 4.63177 67.5646 4.67804C67.1968 4.85541 66.6599 5.7808 68.1949 5.88876C68.9012 5.44149 71.3118 3.75265 73.9792 3.41334L74.4928 3.66783L76.5416 3.37479C75.2633 4.04569 71.6853 5.4492 69.73 5.99672C70.8682 6.19722 70.0452 6.29747 71.7554 6.27434C72.3566 6.5134 70.8273 6.63678 70.3254 6.6522L74.2944 6.80644C74.1193 6.28976 77.3295 6.28976 77.1778 5.85791L72.8644 6.39772C72.6893 5.88105 75.3567 4.92481 78.17 5.01735C78.8879 5.22556 77.633 5.94274 77.6914 6.11239C78.0591 5.93503 80.3588 5.77308 80.6215 5.89647L79.4308 6.17409C80.995 6.36688 81.9873 5.48776 83.8667 5.9813C84.5146 6.01214 85.8045 6.6522 85.9213 6.34374C84.859 5.74995 84.6547 3.92231 85.3609 3.47504C85.5886 3.5136 88.7696 4.03798 89.5109 4.33102C90.579 4.79372 87.9058 5.43378 88.8163 5.83478C88.8572 5.69597 89.4467 5.5186 89.6918 5.46462C90.3748 5.58801 89.4117 5.90418 90.8942 5.84249C91.1394 5.3181 93.9118 5.88876 91.5946 5.39522C93.0422 5.2487 93.1355 5.50318 94.8399 5.48005C94.2971 5.14074 96.3691 4.32331 97.8225 4.17679C97.7349 4.30789 98.0618 4.48525 98.2194 4.56237C101.19 4.60864 102.79 4.8477 105.562 4.85541C105.819 4.9865 107.156 5.13302 106.584 5.36437C106.98 5.27183 107.348 5.09447 108.206 5.07904C109.858 5.53403 106.298 5.14845 107.564 5.69597C107.669 5.38751 109.776 5.27183 110.99 5.08676C110.617 4.61635 108.177 4.99422 106.957 5.18701C106.957 4.53923 109.076 3.8529 111.971 3.55215C114.271 3.39021 112.969 3.97629 113.372 3.88375C117.697 3.99942 117.055 2.75015 120.65 3.22056C122.074 3.63698 120.714 4.04569 121.03 4.34644C119.156 4.50068 118.152 4.08425 116.88 4.09967L118.444 4.29246C117.849 4.43127 116.594 4.53152 115.911 4.41585C117.107 4.786 123.218 4.48525 126.557 4.83227C127.152 4.69347 128.174 4.54695 127.689 4.385L126.633 4.4467C125.664 4.1151 128.617 3.984 127.281 3.82977C128.699 3.59842 130.287 3.22827 132.277 3.41334L132.651 3.88375C132.61 3.74494 131.349 3.59842 130.789 3.74494C131.618 3.53673 133.847 4.385 134.758 3.76808L133.363 3.44419C134.787 3.20513 136.544 2.70388 138.306 2.8504C137.501 2.37999 137.898 2.90438 136.643 2.35686C137.729 3.03548 132.125 2.32601 133.871 3.04319C132.581 2.41084 131.641 2.77328 129.954 2.23348C130.007 2.38771 130.549 2.53423 129.067 2.45711C129.003 2.50338 128.839 2.55736 128.74 2.59592C128.693 2.59592 128.682 2.59592 128.641 2.5805C128.67 2.5805 128.693 2.59592 128.722 2.59592C128.658 2.61905 128.652 2.62677 128.752 2.59592C129.108 2.66532 129.394 2.74244 129.505 2.83498C128.769 3.18971 126.411 3.182 125.611 3.36708C124.73 3.28996 125.979 3.18971 125.501 3.02006L124.31 3.29767C124.193 2.95065 121.969 2.7193 124.047 2.5188L122.179 2.50338C121.082 2.31059 119.57 2.23348 118.636 2.37999C117.755 2.30288 116.413 2.76557 117.177 2.49567L114.253 2.71159L114.224 2.62677C111.335 2.5805 108.276 3.19742 104.978 2.57278C104.004 2.65761 103 2.76557 101.377 2.66532L101.062 2.36457C99.8128 2.47253 97.3147 2.06382 96.7777 2.37999C95.4294 1.57028 90.7191 2.20263 88.5245 2.06382L88.4428 2.45711C86.931 2.43398 85.4835 2.54965 83.6099 2.70388L83.7266 3.0509C82.1099 3.33623 79.5708 2.80413 77.0085 2.84269C77.1836 2.71159 77.8315 2.74244 78.2926 2.82727C75.2341 2.0484 71.8429 3.39792 69.0705 2.82727C68.3817 2.95065 67.8797 2.91209 67.3953 2.82727C67.4595 2.82727 67.5179 2.82727 67.5646 2.81184C67.4945 2.81184 67.3895 2.81184 67.2786 2.81184C66.975 2.75015 66.6599 2.69617 66.3213 2.62677C66.6132 2.71159 66.8875 2.781 67.1268 2.81184C66.5957 2.81184 65.7843 2.86582 64.9964 2.95065L64.6578 2.5805C64.5936 2.5805 64.5411 2.5805 64.4769 2.58821C63.7006 2.4494 63.8524 2.76557 64.2668 3.04319C63.8699 3.10488 63.5022 3.17429 63.222 3.26683C62.5916 2.66532 61.1441 3.46733 60.2802 2.82727C59.7491 3.13573 56.2996 3.05861 55.8793 3.7141C55.8501 3.62927 55.6166 3.59071 56.0486 3.583C55.1672 3.50588 54.2859 3.43648 53.4921 3.62156L53.1185 3.15115L51.1924 3.7835C50.0192 3.49817 49.5347 3.32852 50.6962 2.96607C47.8887 3.52131 48.4199 3.17429 46.0326 3.72952L46.1494 3.42106C45.2972 3.43648 43.9314 3.84519 43.4178 3.59071C41.5091 3.01234 33.968 3.5136 29.0709 2.97379C30.0223 3.87604 26.7946 2.57278 26.5961 3.26683C26.3101 3.0509 25.6272 2.93523 26.421 2.75015C23.917 2.95836 22.6621 2.41084 20.9344 2.99692C20.6484 2.781 21.4714 2.68846 21.2146 2.55736C21.0162 2.60363 20.4208 2.74244 20.1581 2.61905C19.9013 2.49567 20.5259 2.44169 20.9228 2.34915C18.3663 2.38771 18.1094 3.04319 17.9227 3.6524C16.6269 3.35936 15.979 3.40563 15.0451 3.80664C14.5957 3.60613 13.8427 3.39792 15.4303 3.32081C14.5373 3.28996 9.97295 3.02777 9.8854 3.52131C9.60523 3.39792 8.63632 3.48275 8.40285 3.54444C7.38725 3.54444 6.89696 3.49046 6.2374 3.54444C5.62454 3.64469 4.98833 3.77579 3.99024 4.49296C4.18285 4.385 4.3813 4.29246 4.57975 4.19993C4.2704 4.7166 3.89101 4.99422 3.43574 5.42606C2.98631 5.84249 2.42014 6.40543 1.98238 7.42336L1.97071 7.33082C1.36952 8.42586 1.20025 9.26642 1.09519 9.80623C1.01931 10.3615 1.00764 10.6545 1.01931 10.9475C1.01931 11.2483 1.03682 11.5105 1.01931 11.9886C1.00764 12.4744 0.96678 13.1916 0.873391 14.3792L1.15356 14.1247C1.75475 14.5643 0.797513 18.3275 1.03098 21.0805L1.18858 20.0858C1.39287 21.5895 0.371428 24.2886 0.295549 25.8C0.243018 26.1316 0.213834 25.2834 0.172977 24.8207C-0.183068 28.769 0.540694 25.3296 0.62241 28.2754C0.423959 28.8153 0.120446 27.5737 0.0854248 29.5556C-0.0721686 30.5426 0.727472 35.3007 0.34808 38.0074C0.499837 37.4136 0.651593 36.8199 0.768329 38.1848C0.797513 39.2336 0.651593 40.6525 0.558205 42.0406C0.546531 42.2257 0.534858 42.3645 0.529021 42.5804C0.529021 42.7886 0.529021 43.0045 0.529021 43.2127C0.552368 43.6292 0.581552 44.0379 0.663267 44.4158C0.797513 45.1792 1.07184 45.8193 1.36952 46.2511C1.43956 46.5596 1.46874 46.683 1.43372 46.7292C1.85397 47.5312 2.67112 48.7265 3.66921 49.382C4.64396 50.0838 5.68291 50.2457 6.10316 50.1223C6.24324 50.3228 6.49422 50.4385 6.83276 50.531C7.12459 50.6081 7.45729 50.639 7.84252 50.6467C8.6013 50.6698 9.506 50.585 10.3815 50.5002C12.1209 50.3305 13.7202 50.1532 13.7085 50.7392L17.4382 50.6775L17.339 50.8009C19.7262 50.878 20.5667 50.5927 21.4072 50.3151C21.9559 50.3922 21.559 50.5079 21.5123 50.5696C24.9968 50.8086 25.3412 50.7547 28.2655 50.1686L28.569 50.5542C29.3628 50.3305 33.6061 51.1557 37.0265 50.7084C36.9915 50.7547 36.9214 50.8241 36.6529 50.878C40.4994 50.4308 45.8575 51.9422 47.27 50.5465L49.809 50.2071C46.5288 50.0992 50.2993 49.6056 48.9452 49.3743C50.2351 49.2895 52.2838 49.7907 50.6962 49.8678L50.4453 49.7984C49.8616 50.5233 54.5252 50.0529 54.4376 50.5465C60.8989 50.5079 67.191 50.9089 73.2438 50.9397L72.5492 50.3768L74.6621 50.4076C75.2166 50.5387 75.4034 50.8472 73.8975 50.8241C74.6913 51.1402 76.4248 50.5542 76.4657 50.4308C79.4132 50.6621 75.3158 51.0863 76.2205 51.1017L77.4463 51.0631L77.1719 50.9937C78.1642 50.7624 78.2576 50.5156 80.067 50.5465C81.211 50.6621 80.6565 50.8935 81.1059 50.9166C81.1059 50.9552 81.2577 50.9783 81.7947 50.932L84.4562 50.9783L83.3939 50.531C84.573 50.3151 85.8921 50.5542 84.6664 50.0529C86.4699 50.8318 94.5831 50.3305 95.6921 50.5773C97.3439 50.2534 98.9723 50.2611 100.992 50.2997C100.49 50.2071 100.192 49.7059 101.932 49.7676C101.295 50.8009 105.118 50.2149 106.525 50.9629C105.27 50.4693 111.475 50.8395 109.502 50.1377C110.955 50.2226 109.589 50.5233 110.693 50.7701C114.148 50.3691 118.31 51.0323 122.588 50.8935C122.652 50.7547 121.94 50.5542 122.856 50.346L125.115 51.0246C125.962 50.9552 125.892 50.238 127.433 50.7161C127.217 50.6004 126.89 50.4308 127.456 50.3845C135.826 51.0477 144.564 49.8447 153.068 51.0863C151.918 50.8241 152.682 50.8009 153.564 50.7855C152.992 50.7238 153.575 50.4539 153.465 50.2688L157.025 50.7778C157.673 50.2688 160.842 50.7469 161.216 50.2534L160.089 50.3382C161.589 49.7599 157.994 49.0581 158.21 48.3178C156.529 48.9733 153.786 47.3461 151.031 48.287C150.424 48.1327 151.55 48.0479 151.223 47.8782C150.523 48.1944 149.682 48.2638 148.118 48.1173L148.293 48.0402C143.904 48.1173 142.025 47.8088 137.092 47.6006L137.46 47.9631C136.398 47.9168 136.176 47.8011 135.68 47.7086C134.466 48.2638 138.657 47.7394 137.548 48.3486C136.141 47.6083 130.077 48.3409 129.125 47.4927C127.497 47.4927 129.604 47.9168 127.975 47.9091L127.543 47.6777L127.129 47.9708C126.061 47.9245 125.524 47.6392 125.483 47.4464C125.74 47.4695 126.218 47.3924 126.499 47.377C125.115 47.1071 122.594 47.4695 122.115 47.377L123.679 47.5158C119.232 47.7317 113.798 47.431 109.502 47.8937L109.829 48.0633C106.548 48.3795 107.202 47.8705 103.595 48.0248L103.723 47.9862C103 48.1559 102.037 48.2484 101.056 48.2253C101.967 48.0248 99.3459 47.832 100.537 47.6083C96.9762 47.9477 98.7739 47.8783 96.4275 48.5183L95.8847 48.233C95.085 48.4952 95.015 48.6263 93.2173 48.7034C94.694 48.4566 92.0674 48.2715 93.7192 47.9399C89.9428 47.3153 88.1101 48.5723 86.3765 47.6546C84.643 48.4489 89.6452 48.0942 88.6762 48.2638C89.4876 48.526 87.2462 48.8576 86.0614 48.7728C84.8531 48.7574 84.0126 47.7626 80.9775 47.778C81.281 47.778 81.2985 47.724 81.6021 47.724C80.4639 47.5235 79.3782 47.9939 77.9832 47.67C77.2011 48.1482 76.1738 47.6392 75.952 48.2561L78.7362 48.1173C77.1603 48.2792 75.6777 48.9887 73.0803 48.6417C73.2846 48.5183 74.0551 48.3564 74.5862 48.2638C73.8274 48.0865 73.1212 48.3795 72.3332 48.2021C72.555 47.5929 75.7186 48.071 77.4054 47.6006C76.5882 47.3461 74.2068 48.0402 75.059 47.3847C73.8391 48.2253 72.0706 47.2767 70.016 47.9245L70.1503 47.5621C69.8234 47.6161 69.1522 47.7934 68.551 47.7857L69.6366 47.3076C67.9731 47.7086 66.4264 46.9529 64.8329 47.1765C68.1716 47.1688 65.5801 47.6161 66.9984 47.886C62.8776 48.3795 64.6287 46.9297 60.0118 47.1071C60.6363 47.0531 62.3581 47.3307 61.3776 47.4927C60.502 47.4156 59.3405 47.2767 58.7977 47.084C55.7392 47.1611 59.2646 47.4618 57.963 47.6855C56.9241 47.2382 56.463 47.8705 55.1205 48.0093L55.1088 47.6392C51.6243 47.4001 54.1866 48.4181 51.0464 48.125L52.3714 47.6083L50.7371 47.7394L51.0756 47.3153C49.2954 47.6315 48.7409 47.5466 47.0015 47.431C47.4043 47.6932 46.7739 48.1096 45.233 48.1173C44.1824 47.8937 45.8225 47.7626 43.6337 47.8166C44.1298 47.5852 44.6668 47.2922 45.6182 47.6315C45.7175 47.5081 46.1027 47.4001 46.2077 47.2767C45.0754 47.0223 43.3594 47.215 42.5656 47.2228C42.8691 47.2382 43.2368 47.2536 43.4236 47.3076L40.2542 47.8243C39.7523 47.6855 40.1492 47.5698 40.5402 47.4618C39.8982 47.5004 39.4546 47.67 38.509 47.7086C38.7542 47.4078 38.6958 47.0917 40.0324 46.9529L37.009 47.2922C36.8047 47.1611 35.4564 46.9297 35.8533 46.8218C34.1781 46.6444 31.7442 47.4078 29.5262 47.1765C29.4095 47.2382 29.1818 47.2922 28.709 47.3307C26.6253 47.2613 24.775 46.8912 22.3002 47.3076L20.8994 46.7678C18.9616 46.8912 22.7964 47.4541 19.5745 47.6546C17.2923 47.8243 18.7223 47.1919 17.9227 47.0377C16.7845 47.3076 14.8116 47.8705 12.7162 47.4233C13.4108 47.323 13.9536 47.4001 14.6015 47.3616L14.5607 47.3076ZM2.95129 31.7688C3.00966 32.378 3.1906 33.5964 3.02717 34.0437C2.70614 33.3497 2.8579 32.8098 2.95129 31.7688ZM19.5628 5.28726C19.2184 5.41064 18.6873 5.34895 18.0861 5.21014C18.5238 5.17929 19.0141 5.19472 19.5628 5.28726ZM120.732 2.69617C120.732 2.69617 120.697 2.71159 120.685 2.71159C119.652 2.56507 120.02 2.62677 120.732 2.69617ZM122.874 2.85811C123.09 2.80413 123.072 2.75786 122.985 2.70388C122.833 2.79642 122.355 2.80413 121.806 2.781C121.958 2.88125 122.238 2.94294 122.874 2.86582V2.85811ZM81.3102 50.7315L80.8958 50.6313C81.8355 50.5233 81.5729 50.6236 81.3102 50.7315Z" fill="white"/>
<path d="M15.4478 5.79759C15.3194 5.73547 15.2786 5.66559 15.2494 5.5957C15.0684 5.65782 15.0626 5.72771 15.4478 5.79759Z" fill="white"/>
<path d="M29.4152 47.1143H29.4852C29.5261 47.099 29.5436 47.0761 29.5611 47.0532L29.4152 47.1143Z" fill="white"/>
<path d="M89.6568 6.01346C89.2132 5.9591 88.9681 5.88922 88.8047 5.81934C88.7813 5.91251 88.9798 5.99016 89.6568 6.01346Z" fill="white"/>
<path d="M134.238 2.22583L132.867 2.32563C133.532 2.31027 133.765 2.38704 134.104 2.44846C134.075 2.36401 133.812 2.23351 134.238 2.23351V2.22583Z" fill="white"/>
<path d="M146.157 4.52292C146.355 4.47686 146.583 4.52292 146.782 4.46918L146.729 4.30029C145.877 4.30797 145.276 4.45383 146.163 4.52292H146.157Z" fill="white"/>
<path d="M135.511 3.45944C135.622 3.77494 136.48 3.66721 137.443 3.60565H137.273C137.559 3.16702 136.532 3.31323 135.511 3.45944Z" fill="white"/>
<path d="M137.665 3.59818C137.962 3.58283 138.266 3.57515 138.552 3.59051C138.663 3.41394 138.19 3.55212 137.665 3.59818Z" fill="white"/>
<path d="M125.594 2.6492C126.049 2.72616 125.88 2.24905 126.137 2.37987C126.645 1.97972 123.096 2.85697 125.594 2.6492Z" fill="white"/>
<path d="M136.287 4.49231L135.943 4.09985L135.406 4.41536L136.287 4.49231Z" fill="white"/>
<path d="M128.687 4.20805L130.222 4.31675C130.199 4.25464 130.392 4.21581 130.637 4.18475C129.691 4.16922 128.652 4.09157 128.687 4.20805Z" fill="white"/>
<path d="M130.637 4.18388C131.133 4.18388 131.6 4.18388 131.874 4.1228C131.606 4.1228 131.034 4.13807 130.637 4.18388Z" fill="white"/>
<path d="M134.186 4.60944L133.731 4.52403L132.645 4.50073L134.186 4.60944Z" fill="white"/>
<path d="M112.164 4.13062L110.488 4.23835C110.319 4.36917 110.774 4.45381 111.399 4.39995C111.802 4.3076 112.42 4.25374 112.164 4.13062Z" fill="white"/>
<path d="M117.236 5.18646C116.78 5.10951 116.751 5.01717 116.494 4.89404L116.442 5.37114L117.236 5.18646Z" fill="white"/>
<path d="M112.344 5.30273C112.175 5.43355 109.91 5.6798 112.035 5.65671C112.204 5.52589 113.885 5.41816 112.344 5.30273Z" fill="white"/>
<path d="M87.0653 4.69189H87.4914L87.433 3.90698L87.0653 4.69189Z" fill="white"/>
<path d="M64.7803 6.57386C66.7707 6.75854 65.2531 6.08906 67.0508 6.32761C67.5178 6.14293 65.58 6.13523 66.0586 5.97363C64.8562 6.16601 64.2258 6.05828 64.7803 6.57386Z" fill="white"/>
<path d="M66.0646 5.97438C66.2572 5.94332 66.4615 5.9045 66.6774 5.85791C66.3272 5.9045 66.1638 5.94332 66.0646 5.97438Z" fill="white"/>
<path d="M159.366 51.1245L160.644 51.2857L159.821 51.0247L159.366 51.1245Z" fill="white"/>
<path d="M161.817 50.5388L162.121 51.039L162.891 50.585C162.599 50.6081 162.039 50.6466 161.823 50.5388H161.817Z" fill="white"/>
<path d="M3.71584 27.0725L3.62245 26.9414C3.52322 27.2036 3.51738 27.5969 3.49987 28.3912L3.71 27.0725H3.71584Z" fill="white"/>
<path d="M5.321 46.4438C5.26263 46.4053 5.20426 46.3669 5.15173 46.313C5.19842 46.5361 5.26847 46.7208 5.33851 46.944C5.32683 46.7747 5.321 46.6054 5.321 46.4438Z" fill="white"/>
<path d="M19.0082 46.3361C18.4128 46.3207 17.7183 46.4205 17.1171 46.3975C18.4128 46.3131 19.1658 46.8965 19.0082 46.3361Z" fill="white"/>
</svg>
