<svg width="336" height="86" viewBox="0 0 336 86" fill="none" xmlns="http://www.w3.org/2000/svg">
<path d="M105.377 20.5798L104.703 18.3047H98.1026L97.4285 20.5798H91.1086L98.3554 0.918194H104.479L111.894 20.5798H105.377ZM101.417 6.81669L99.3384 14.0634H103.495L101.417 6.81669Z" fill="white"/>
<path d="M126.08 12.5747V0.918194H131.95V20.5798H125.995L119.563 9.31653V20.5798H113.721V0.918194H119.676L126.08 12.5747Z" fill="white"/>
<path d="M143.367 20.5798H136.795L140.193 13.6421L133.593 0.918194H140.446L143.62 7.91212L146.597 0.918194H153.114L143.367 20.5798Z" fill="white"/>
<path d="M162.169 21.1135C160.484 21.1135 158.976 20.8326 157.647 20.2709C156.336 19.6904 155.222 18.9226 154.304 17.9677C153.405 17.0127 152.712 15.9079 152.226 14.6533C151.757 13.3987 151.523 12.0972 151.523 10.749C151.523 9.40079 151.757 8.09938 152.226 6.84478C152.712 5.59018 153.405 4.48538 154.304 3.53038C155.222 2.57539 156.336 1.81701 157.647 1.25525C158.976 0.674765 160.484 0.384521 162.169 0.384521C163.854 0.384521 165.361 0.674765 166.691 1.25525C168.02 1.81701 169.135 2.57539 170.033 3.53038C170.951 4.48538 171.644 5.59018 172.112 6.84478C172.599 8.09938 172.842 9.40079 172.842 10.749C172.842 12.0972 172.599 13.3987 172.112 14.6533C171.644 15.9079 170.951 17.0127 170.033 17.9677C169.135 18.9226 168.02 19.6904 166.691 20.2709C165.361 20.8326 163.854 21.1135 162.169 21.1135ZM162.169 15.7768C162.918 15.7768 163.583 15.6363 164.163 15.3555C164.762 15.0746 165.258 14.7094 165.652 14.26C166.064 13.7919 166.373 13.2582 166.579 12.659C166.803 12.0411 166.916 11.4044 166.916 10.749C166.916 10.0936 166.803 9.46633 166.579 8.86712C166.373 8.24918 166.064 7.71551 165.652 7.2661C165.258 6.79796 164.762 6.42346 164.163 6.14258C163.583 5.86169 162.918 5.72125 162.169 5.72125C161.42 5.72125 160.746 5.86169 160.146 6.14258C159.566 6.42346 159.07 6.79796 158.658 7.2661C158.265 7.71551 157.956 8.24918 157.731 8.86712C157.525 9.46633 157.422 10.0936 157.422 10.749C157.422 11.4044 157.525 12.0411 157.731 12.659C157.956 13.2582 158.265 13.7919 158.658 14.26C159.07 14.7094 159.566 15.0746 160.146 15.3555C160.746 15.6363 161.42 15.7768 162.169 15.7768Z" fill="white"/>
<path d="M187.632 12.5747V0.918194H193.502V20.5798H187.548L181.116 9.31653V20.5798H175.273V0.918194H181.228L187.632 12.5747Z" fill="white"/>
<path d="M202.785 5.29993V8.72668H209.61V12.9118H202.785V16.1981H209.61V20.5798H196.943V0.918194H209.61V5.29993H202.785Z" fill="white"/>
<path d="M239.574 12.8275C239.405 13.9511 239.059 15.0184 238.534 16.0296C238.01 17.0407 237.308 17.9208 236.428 18.6699C235.548 19.4189 234.508 20.0181 233.31 20.4675C232.112 20.8982 230.754 21.1135 229.237 21.1135C227.552 21.1135 226.035 20.8326 224.687 20.2709C223.357 19.7091 222.234 18.9507 221.316 17.9957C220.399 17.0407 219.697 15.9359 219.21 14.6813C218.723 13.4267 218.479 12.116 218.479 10.749C218.479 9.38207 218.714 8.08065 219.182 6.84478C219.669 5.59018 220.371 4.48538 221.288 3.53038C222.206 2.57539 223.311 1.81701 224.603 1.25525C225.913 0.674765 227.402 0.384521 229.069 0.384521C230.66 0.384521 232.074 0.609226 233.31 1.05863C234.546 1.50804 235.594 2.12598 236.456 2.91245C237.336 3.69891 238.029 4.61646 238.534 5.66508C239.059 6.7137 239.386 7.82786 239.517 9.00756H233.394C233.226 8.07129 232.795 7.28482 232.102 6.64816C231.409 6.0115 230.454 5.69317 229.237 5.69317C228.451 5.69317 227.758 5.83361 227.159 6.11449C226.559 6.39537 226.063 6.76988 225.67 7.23801C225.277 7.68742 224.977 8.22109 224.771 8.83903C224.565 9.43824 224.462 10.0749 224.462 10.749C224.462 11.4606 224.575 12.1253 224.799 12.7433C225.024 13.3612 225.342 13.8949 225.754 14.3443C226.185 14.7937 226.7 15.1495 227.299 15.4116C227.898 15.6738 228.582 15.8049 229.35 15.8049C230.436 15.8049 231.334 15.5146 232.046 14.9341C232.758 14.3537 233.207 13.6515 233.394 12.8275H239.574Z" fill="white"/>
<path d="M253.553 20.5798L252.879 18.3047H246.278L245.604 20.5798H239.284L246.531 0.918194H252.654L260.069 20.5798H253.553ZM249.592 6.81669L247.514 14.0634H251.671L249.592 6.81669Z" fill="white"/>
<path d="M274.255 12.5747V0.918194H280.126V20.5798H274.171L267.739 9.31653V20.5798H261.896V0.918194H267.851L274.255 12.5747Z" fill="white"/>
<path d="M1.1309 28.3302L0.99678 28.2336C0.979066 28.5867 0.719684 33.9362 0.882905 41.7648C0.882905 41.7648 0.893027 45.9598 1.04106 46.8348C1.1018 47.2273 1.25363 47.6146 1.50669 47.922C1.84958 48.3373 2.36201 48.6231 2.80739 48.9139C2.80992 48.9152 2.81372 48.9177 2.81625 48.9203C3.32489 49.2505 3.89427 49.5934 4.38393 49.8792C6.70192 51.261 10.3421 53.3502 10.3421 53.3502C13.7027 55.2807 16.0409 56.5469 16.2611 56.665C16.2193 50.8266 15.3564 46.2989 13.5534 42.288C11.2759 37.2167 7.32823 32.7817 1.1309 28.3302Z" fill="white"/>
<path d="M53.7482 23.1733C53.7482 23.1733 50.1232 21.0841 49.2945 20.7754C48.9263 20.6319 48.5163 20.5697 48.1241 20.637C47.5952 20.7272 47.0904 21.0307 46.6184 21.272C46.6159 21.2733 46.6121 21.2758 46.6083 21.2771C46.0693 21.554 45.4885 21.8779 44.9976 22.1598C42.6454 23.4845 39.0242 25.6042 39.0242 25.6042C35.6776 27.5601 33.4165 28.9597 33.2052 29.0917C38.2625 31.9735 42.5999 33.4874 46.9613 33.9256C47.127 33.9421 47.3017 33.9573 47.4952 33.9726L47.6623 33.984C47.7825 33.9929 47.9039 34.0018 48.0241 34.0081C48.0785 34.0107 48.1317 34.0132 48.1861 34.017L48.2342 34.0195C48.3417 34.0246 48.448 34.0297 48.553 34.0335C48.6289 34.0361 48.7061 34.0386 48.7833 34.0411C48.8807 34.0437 48.9781 34.0462 49.0768 34.0475C49.1591 34.0488 49.2413 34.05 49.3236 34.0513C49.3653 34.0513 49.4083 34.0513 49.4514 34.0513H49.6766C49.7373 34.0513 49.7968 34.0513 49.8575 34.05C49.9208 34.0488 49.9853 34.0475 50.0498 34.0462L50.1296 34.0449C50.2826 34.0411 50.4383 34.0361 50.5939 34.031C55.0224 33.8557 59.8064 32.5704 65.218 30.1052L65.3685 30.0367C65.0548 29.836 60.5731 26.939 53.7482 23.1733Z" fill="white"/>
<path d="M48.5193 57.6045C43.5038 60.5586 40.0306 63.5725 37.4709 67.1451C36.7232 68.1878 36.0386 69.3169 35.4351 70.4981L35.4288 70.4955C33.4474 74.3793 32.2099 79.0938 31.6431 84.9042L31.6254 85.0846C31.9607 84.9119 36.6978 82.4658 43.3532 78.4194C43.3532 78.4194 46.9681 76.3124 47.6488 75.7472C47.9575 75.4982 48.2156 75.1731 48.3536 74.7984C48.5395 74.293 48.5307 73.7037 48.5585 73.1715C48.5585 73.1677 48.5585 73.1639 48.5585 73.1614C48.5889 72.5543 48.6003 71.8875 48.6015 71.3198C48.6344 68.6133 48.6167 64.4043 48.6167 64.4043C48.6041 60.532 48.5282 57.8712 48.5193 57.6045Z" fill="white"/>
<path d="M67.5486 35.3163C67.5473 35.2973 67.5473 35.2795 67.546 35.2642C62.2053 37.6977 56.6204 39.4618 50.8128 39.6916C50.6255 39.6993 50.4382 39.7043 50.2497 39.7094C50.2105 39.7107 50.1725 39.7107 50.1333 39.712C49.9979 39.7145 49.8638 39.7158 49.7284 39.717C49.7056 39.717 49.6816 39.717 49.6588 39.717C49.5171 39.7183 49.3767 39.717 49.235 39.7158C49.2236 39.7158 49.2109 39.7158 49.1995 39.7158C49.0983 39.7145 48.9971 39.7132 48.8946 39.7107C48.8162 39.7094 48.7377 39.7081 48.6593 39.7056C48.5795 39.7031 48.4986 39.7005 48.4188 39.698C48.3923 39.6967 48.3657 39.6967 48.3391 39.6954C48.2113 39.6904 48.0823 39.6853 47.9532 39.6789C47.8735 39.6751 47.7951 39.6713 47.7154 39.6662C47.6976 39.665 47.6787 39.6637 47.661 39.6624C47.5256 39.6548 47.3889 39.6446 47.2535 39.6358C47.213 39.6332 47.1713 39.6294 47.1308 39.6269C47.0916 39.6243 47.0524 39.6205 47.0119 39.618C46.8069 39.6015 46.6019 39.5837 46.3969 39.5634C46.3868 39.5621 46.3754 39.5608 46.3653 39.5595C46.1806 39.5405 45.9971 39.5202 45.8136 39.4986C45.7504 39.491 45.6871 39.4833 45.6251 39.4757C45.4847 39.4579 45.3442 39.4402 45.2038 39.4198C45.1443 39.4122 45.0848 39.4033 45.0254 39.3957C44.8368 39.369 44.6496 39.3398 44.4623 39.3093C44.4193 39.3017 44.375 39.2941 44.332 39.2878C44.1827 39.2636 44.0347 39.237 43.8866 39.2103C43.8183 39.1976 43.7512 39.1862 43.6842 39.1735C43.5501 39.1481 43.4159 39.1227 43.2831 39.096C43.2249 39.0845 43.1654 39.0731 43.106 39.0604C42.9263 39.0236 42.7479 38.9855 42.5695 38.9461C42.5049 38.9321 42.4417 38.9169 42.3784 38.9029C42.2544 38.875 42.1304 38.8458 42.0077 38.8166C41.933 38.7988 41.8584 38.781 41.7837 38.762C41.6597 38.7315 41.5357 38.6997 41.4117 38.668C41.3497 38.6515 41.2865 38.6362 41.2245 38.6197C41.0562 38.5753 40.8879 38.5283 40.7196 38.4813C40.6387 38.4584 40.5589 38.4356 40.478 38.4127C40.3767 38.3835 40.2755 38.3543 40.1743 38.3238C40.0895 38.2984 40.0035 38.273 39.9187 38.2476C39.8112 38.2146 39.7049 38.1815 39.5986 38.1473C39.4645 38.1053 39.3304 38.0622 39.1962 38.0177C39.1014 37.986 39.0065 37.9555 38.9116 37.9237C38.8154 37.892 38.7192 37.8589 38.6243 37.8259C38.5459 37.7993 38.4674 37.7713 38.389 37.7434C38.289 37.7078 38.1903 37.6735 38.0904 37.6367C38.0271 37.6138 37.9626 37.5897 37.8993 37.5668C37.7057 37.4957 37.5122 37.4233 37.3198 37.3484C37.2604 37.3255 37.2022 37.3027 37.1427 37.2798C37.0314 37.2366 36.92 37.1922 36.8099 37.1477C36.7581 37.1274 36.7049 37.1058 36.653 37.0842C36.2722 36.9293 35.8926 36.7705 35.5156 36.6054C35.4814 36.5902 35.4472 36.5762 35.4131 36.561C35.2865 36.5051 35.16 36.4492 35.0335 36.392C35.0158 36.3844 34.9981 36.3768 34.9816 36.3679C34.5717 36.1825 34.163 35.9907 33.7581 35.7926C33.7454 35.7862 33.7328 35.7799 33.7201 35.7748C33.1596 35.5017 32.6016 35.2172 32.0487 34.9226C30.4203 34.0577 28.8222 33.109 27.2457 32.1056C25.5679 31.0375 23.913 29.9338 22.2453 28.8492C20.5929 27.7722 18.9202 26.7295 17.245 25.6906C15.3749 24.531 13.4896 23.3969 11.579 22.3046C11.2994 22.1446 11.0211 21.9833 10.7414 21.8233C10.2733 21.5718 9.79753 21.3178 9.29648 21.2645C9.0333 21.2365 8.76253 21.2645 8.48164 21.3775C7.29734 21.8677 4.8174 23.4629 4.45932 23.6953C4.44288 23.7055 4.42769 23.7157 4.41504 23.7233C9.18513 27.1499 13.4997 31.1226 16.6022 36.0555C16.7021 36.2142 16.8008 36.3743 16.8983 36.5356C16.9552 36.6283 17.0109 36.7223 17.0665 36.8162C17.1184 36.9051 17.1703 36.994 17.2222 37.0842C17.2791 37.182 17.3361 37.2798 17.3917 37.3789C17.4411 37.4652 17.4892 37.5529 17.5372 37.6392C17.5954 37.7434 17.6524 37.8488 17.7093 37.9542C17.7536 38.0368 17.7991 38.1206 17.8422 38.2044C17.9016 38.3187 17.9611 38.433 18.0206 38.5486C18.0598 38.6248 18.099 38.7023 18.1382 38.7785C18.204 38.9106 18.2698 39.0452 18.3344 39.1785C18.3635 39.2395 18.3938 39.3005 18.4229 39.3627C18.5166 39.5608 18.6089 39.7589 18.6988 39.9596C20.8345 44.7121 21.681 49.6768 21.867 54.7544H21.8695C21.9366 56.596 21.9176 58.4528 21.8392 60.3198C21.7569 62.3125 21.6317 64.3027 21.5304 66.2954C21.4292 68.2691 21.366 70.244 21.3078 72.2189C21.242 74.425 21.2065 76.6311 21.2192 78.8372C21.2217 79.1598 21.2217 79.4836 21.223 79.8062C21.2407 80.3384 21.2584 80.8794 21.4634 81.3417C21.5709 81.5843 21.7304 81.8065 21.9682 81.9945C22.983 82.7781 25.5983 84.1358 25.9779 84.3314C25.9956 84.3403 26.0108 84.3492 26.0247 84.3555C26.5954 78.4955 27.867 72.7587 30.5709 67.5959C30.6582 67.4296 30.7467 67.2632 30.8366 67.0981C30.8479 67.0765 30.8606 67.0536 30.8733 67.032L30.8745 67.0435C31.4768 65.9474 32.1436 64.878 32.8876 63.8404C37.0238 58.0655 42.6998 54.1791 48.8997 50.9227C50.6597 49.9981 52.4399 49.1103 54.2088 48.2035C55.9624 47.3043 57.6971 46.3721 59.4306 45.4348C61.3664 44.3883 63.2884 43.3164 65.185 42.2025C65.4621 42.04 65.7418 41.8774 66.0189 41.7148C66.4693 41.4341 66.9273 41.1471 67.2234 40.7382C67.379 40.5235 67.4904 40.2733 67.5334 39.9736C67.7055 38.6959 67.5688 35.743 67.5486 35.3163Z" fill="white"/>
<path d="M119.328 56.1089L132.212 40.2511C132.487 39.9107 132.436 39.4103 132.091 39.141L125.905 34.2717C125.566 34.0088 125.081 34.0596 124.812 34.3999L114.363 47.4751C114.28 47.578 114.127 47.5843 114.037 47.4878L100.252 32.9521C99.9581 32.6384 99.4659 32.6244 99.1521 32.9203L91.0101 40.6118C90.6773 40.9255 90.6836 41.4589 91.0227 41.7662L107.037 56.1483C107.209 56.3083 107.312 56.5331 107.312 56.7643L107.247 71.8525C107.247 72.2881 107.599 72.6412 108.027 72.6412H118.622C119.056 72.6412 119.408 72.2818 119.402 71.8461L119.14 56.65C119.137 56.4493 119.2 56.2563 119.328 56.1089Z" fill="white"/>
<path d="M206.37 33.5095L197.231 34.4392C196.841 34.4773 196.54 34.805 196.54 35.2025L196.456 48.7438C196.456 48.8848 196.341 49.0067 196.201 49.013L186.142 49.4753C185.989 49.4817 185.861 49.3598 185.861 49.2061L185.771 35.2089C185.771 34.8113 185.471 34.4837 185.074 34.4456L175.239 33.4956C174.778 33.4511 174.382 33.8232 174.395 34.2906L175.679 71.8816C175.692 72.2982 176.031 72.6258 176.446 72.6258H185.24C185.667 72.6258 186.013 72.2791 186.007 71.8498L185.931 58.4686C185.931 58.3213 186.052 58.1993 186.199 58.1993L196.111 58.1739C196.258 58.1739 196.379 58.2959 196.379 58.4432L196.31 71.8498C196.31 72.2791 196.655 72.6258 197.076 72.6258H206.209C206.631 72.6258 206.976 72.2855 206.976 71.8562L207.225 34.2652C207.22 33.8245 206.83 33.4651 206.37 33.5095Z" fill="white"/>
<path d="M289.49 33.5034L279.654 34.4533C279.265 34.4915 278.964 34.8191 278.957 35.2167L278.867 49.2139C278.867 49.3676 278.74 49.4895 278.587 49.4831L268.528 49.0208C268.387 49.0145 268.272 48.8989 268.272 48.7516L268.182 35.2103C268.182 34.8191 267.882 34.4851 267.491 34.447L258.352 33.5173C257.898 33.4729 257.502 33.831 257.508 34.287L257.757 71.878C257.757 72.3009 258.103 72.6476 258.524 72.6476H267.657C268.085 72.6476 268.43 72.3009 268.424 71.8716L268.353 58.4649C268.353 58.3176 268.474 58.1957 268.621 58.1957L278.533 58.2211C278.68 58.2211 278.802 58.343 278.802 58.4903L278.725 71.8716C278.725 72.3009 279.07 72.6476 279.491 72.6476H288.285C288.7 72.6476 289.039 72.3199 289.052 71.9034L290.336 34.3124C290.345 33.8374 289.949 33.4589 289.49 33.5034Z" fill="white"/>
<path d="M157.149 36.281C156.958 35.787 156.517 35.4339 155.999 35.3513L144.905 33.5428C144.388 33.459 143.876 33.7485 143.678 34.2426L128.908 71.751C128.742 72.174 129.055 72.6363 129.509 72.6363H139.824C140.251 72.6363 140.628 72.367 140.764 71.9631L149.813 45.4508C149.878 45.2717 150.127 45.2654 150.19 45.4444L154.543 57.2547L149.909 57.6649C149.628 57.6903 149.423 57.9341 149.436 58.2097L149.763 64.2399C149.775 64.5092 149.993 64.7213 150.261 64.734L157.029 64.9842L159.26 71.9568C159.394 72.367 159.777 72.6502 160.206 72.6502H170.527C170.988 72.6502 171.3 72.1879 171.128 71.7586L157.149 36.281Z" fill="white"/>
<path d="M335.584 71.7482L320.808 34.2397C320.617 33.7457 320.105 33.4574 319.581 33.5399L308.493 35.3485C307.976 35.4323 307.534 35.7841 307.343 36.2782L293.354 71.7456C293.189 72.1749 293.501 72.6372 293.955 72.6372H304.276C304.71 72.6372 305.089 72.3553 305.223 71.9438L307.453 64.9712L314.221 64.721C314.49 64.7083 314.707 64.4962 314.72 64.2269L315.045 58.1967C315.058 57.9148 314.854 57.6773 314.572 57.6519L309.938 57.2416L314.291 45.4314C314.354 45.2524 314.61 45.2587 314.668 45.4378L323.711 71.9565C323.851 72.3603 324.228 72.6296 324.651 72.6296H334.972C335.444 72.6398 335.751 72.1787 335.584 71.7482Z" fill="white"/>
<path d="M239.488 36.281C239.296 35.787 238.856 35.4339 238.338 35.3513L227.244 33.5428C226.72 33.459 226.216 33.7485 226.017 34.2426L211.241 71.751C211.075 72.174 211.388 72.6363 211.842 72.6363H222.157C222.584 72.6363 222.961 72.367 223.095 71.9631L232.138 45.4444C232.203 45.2654 232.452 45.259 232.515 45.4381L236.868 57.2483L232.235 57.6585C231.954 57.6839 231.749 57.9278 231.761 58.2034L232.087 64.2336C232.099 64.5028 232.317 64.7149 232.585 64.7276L239.353 64.9778L241.584 71.9504C241.718 72.3606 242.101 72.6439 242.53 72.6439H252.851C253.311 72.6439 253.624 72.1816 253.452 71.7523L239.488 36.281Z" fill="white"/>
</svg>
